<?xml version="1.0" encoding="utf-8"?>
<!-- Generator: Adobe Illustrator 25.4.1, SVG Export Plug-In . SVG Version: 6.00 Build 0)  -->
<svg version="1.1" id="图层_1" xmlns="http://www.w3.org/2000/svg" xmlns:xlink="http://www.w3.org/1999/xlink" x="0px" y="0px"
	 viewBox="0 0 143 126" style="enable-background:new 0 0 143 126;" xml:space="preserve">
<style type="text/css">
	
		.st0{clip-path:url(#SVGID_00000121251712928276294960000002830871357516126399_);fill-rule:evenodd;clip-rule:evenodd;fill:#DDEBF7;}
	
		.st1{clip-path:url(#SVGID_00000121251712928276294960000002830871357516126399_);fill-rule:evenodd;clip-rule:evenodd;fill:#FFC7CE;}
	.st2{clip-path:url(#SVGID_00000121251712928276294960000002830871357516126399_);}
	.st3{font-family:'DengXian';}
	.st4{font-size:9.9213px;}
	.st5{fill:#9C0006;}
	.st6{font-family:'DengXian-Bold';}
	
		.st7{clip-path:url(#SVGID_00000083796738044804168280000017980811883531061131_);fill-rule:evenodd;clip-rule:evenodd;fill:#D4D4D4;}
	
		.st8{clip-path:url(#SVGID_00000083796738044804168280000017980811883531061131_);fill:none;stroke:#D4D4D4;stroke-width:0;stroke-linecap:square;stroke-miterlimit:10;}
</style>
<g>
	<g>
		<defs>
			<polygon id="SVGID_1_" points="0.7,0.3 143,0.3 143,126 0.7,126 0.7,0.3 			"/>
		</defs>
		<clipPath id="SVGID_00000173859434727144406290000015703246514155424131_">
			<use xlink:href="#SVGID_1_"  style="overflow:visible;"/>
		</clipPath>
		
			<polyline style="clip-path:url(#SVGID_00000173859434727144406290000015703246514155424131_);fill-rule:evenodd;clip-rule:evenodd;fill:#DDEBF7;" points="
			0,-0.3 0,12.9 143,12.9 143,-0.3 0,-0.3 		"/>
		
			<polyline style="clip-path:url(#SVGID_00000173859434727144406290000015703246514155424131_);fill-rule:evenodd;clip-rule:evenodd;fill:#DDEBF7;" points="
			0,12.2 0,25.5 15.2,25.5 15.2,12.2 0,12.2 		"/>
		
			<polyline style="clip-path:url(#SVGID_00000173859434727144406290000015703246514155424131_);fill-rule:evenodd;clip-rule:evenodd;fill:#FFC7CE;" points="
			14.6,12.2 14.6,25.5 29.8,25.5 29.8,12.2 14.6,12.2 		"/>
		
			<polyline style="clip-path:url(#SVGID_00000173859434727144406290000015703246514155424131_);fill-rule:evenodd;clip-rule:evenodd;fill:#FFC7CE;" points="
			56.9,12.2 56.9,25.5 72.2,25.5 72.2,12.2 56.9,12.2 		"/>
		
			<polyline style="clip-path:url(#SVGID_00000173859434727144406290000015703246514155424131_);fill-rule:evenodd;clip-rule:evenodd;fill:#FFC7CE;" points="
			127.8,12.2 127.8,25.5 143,25.5 143,12.2 127.8,12.2 		"/>
		
			<polyline style="clip-path:url(#SVGID_00000173859434727144406290000015703246514155424131_);fill-rule:evenodd;clip-rule:evenodd;fill:#DDEBF7;" points="
			0,24.8 0,38 15.2,38 15.2,24.8 0,24.8 		"/>
		
			<polyline style="clip-path:url(#SVGID_00000173859434727144406290000015703246514155424131_);fill-rule:evenodd;clip-rule:evenodd;fill:#FFC7CE;" points="
			29.1,24.8 29.1,38 43,38 43,24.8 29.1,24.8 		"/>
		
			<polyline style="clip-path:url(#SVGID_00000173859434727144406290000015703246514155424131_);fill-rule:evenodd;clip-rule:evenodd;fill:#FFC7CE;" points="
			85.4,24.8 85.4,38 99.3,38 99.3,24.8 85.4,24.8 		"/>
		
			<polyline style="clip-path:url(#SVGID_00000173859434727144406290000015703246514155424131_);fill-rule:evenodd;clip-rule:evenodd;fill:#DDEBF7;" points="
			0,37.4 0,50.6 15.2,50.6 15.2,37.4 0,37.4 		"/>
		
			<polyline style="clip-path:url(#SVGID_00000173859434727144406290000015703246514155424131_);fill-rule:evenodd;clip-rule:evenodd;fill:#FFC7CE;" points="
			42.4,37.4 42.4,50.6 57.6,50.6 57.6,37.4 42.4,37.4 		"/>
		
			<polyline style="clip-path:url(#SVGID_00000173859434727144406290000015703246514155424131_);fill-rule:evenodd;clip-rule:evenodd;fill:#FFC7CE;" points="
			98.7,37.4 98.7,50.6 128.5,50.6 128.5,37.4 98.7,37.4 		"/>
		
			<polyline style="clip-path:url(#SVGID_00000173859434727144406290000015703246514155424131_);fill-rule:evenodd;clip-rule:evenodd;fill:#DDEBF7;" points="
			0,49.9 0,63.2 15.2,63.2 15.2,49.9 0,49.9 		"/>
		
			<polyline style="clip-path:url(#SVGID_00000173859434727144406290000015703246514155424131_);fill-rule:evenodd;clip-rule:evenodd;fill:#FFC7CE;" points="
			14.6,49.9 14.6,63.2 29.8,63.2 29.8,49.9 14.6,49.9 		"/>
		
			<polyline style="clip-path:url(#SVGID_00000173859434727144406290000015703246514155424131_);fill-rule:evenodd;clip-rule:evenodd;fill:#FFC7CE;" points="
			56.9,49.9 56.9,63.2 72.2,63.2 72.2,49.9 56.9,49.9 		"/>
		
			<polyline style="clip-path:url(#SVGID_00000173859434727144406290000015703246514155424131_);fill-rule:evenodd;clip-rule:evenodd;fill:#FFC7CE;" points="
			127.8,49.9 127.8,63.2 143,63.2 143,49.9 127.8,49.9 		"/>
		
			<polyline style="clip-path:url(#SVGID_00000173859434727144406290000015703246514155424131_);fill-rule:evenodd;clip-rule:evenodd;fill:#DDEBF7;" points="
			0,62.5 0,75.7 15.2,75.7 15.2,62.5 0,62.5 		"/>
		
			<polyline style="clip-path:url(#SVGID_00000173859434727144406290000015703246514155424131_);fill-rule:evenodd;clip-rule:evenodd;fill:#FFC7CE;" points="
			71.5,62.5 71.5,75.7 86.1,75.7 86.1,62.5 71.5,62.5 		"/>
		
			<polyline style="clip-path:url(#SVGID_00000173859434727144406290000015703246514155424131_);fill-rule:evenodd;clip-rule:evenodd;fill:#DDEBF7;" points="
			0,75.1 0,88.3 15.2,88.3 15.2,75.1 0,75.1 		"/>
		
			<polyline style="clip-path:url(#SVGID_00000173859434727144406290000015703246514155424131_);fill-rule:evenodd;clip-rule:evenodd;fill:#FFC7CE;" points="
			29.1,75.1 29.1,88.3 43,88.3 43,75.1 29.1,75.1 		"/>
		
			<polyline style="clip-path:url(#SVGID_00000173859434727144406290000015703246514155424131_);fill-rule:evenodd;clip-rule:evenodd;fill:#FFC7CE;" points="
			85.4,75.1 85.4,88.3 99.3,88.3 99.3,75.1 85.4,75.1 		"/>
		
			<polyline style="clip-path:url(#SVGID_00000173859434727144406290000015703246514155424131_);fill-rule:evenodd;clip-rule:evenodd;fill:#DDEBF7;" points="
			0,87.6 0,113.4 15.2,113.4 15.2,87.6 0,87.6 		"/>
		
			<polyline style="clip-path:url(#SVGID_00000173859434727144406290000015703246514155424131_);fill-rule:evenodd;clip-rule:evenodd;fill:#FFC7CE;" points="
			42.4,87.6 42.4,113.4 57.6,113.4 57.6,87.6 42.4,87.6 		"/>
		
			<polyline style="clip-path:url(#SVGID_00000173859434727144406290000015703246514155424131_);fill-rule:evenodd;clip-rule:evenodd;fill:#FFC7CE;" points="
			98.7,87.6 98.7,113.4 128.5,113.4 128.5,87.6 98.7,87.6 		"/>
		
			<polyline style="clip-path:url(#SVGID_00000173859434727144406290000015703246514155424131_);fill-rule:evenodd;clip-rule:evenodd;fill:#DDEBF7;" points="
			0,112.8 0,126 15.2,126 15.2,112.8 0,112.8 		"/>
		
			<polyline style="clip-path:url(#SVGID_00000173859434727144406290000015703246514155424131_);fill-rule:evenodd;clip-rule:evenodd;fill:#FFC7CE;" points="
			14.6,112.8 14.6,126 29.8,126 29.8,112.8 14.6,112.8 		"/>
		
			<polyline style="clip-path:url(#SVGID_00000173859434727144406290000015703246514155424131_);fill-rule:evenodd;clip-rule:evenodd;fill:#FFC7CE;" points="
			56.9,112.8 56.9,126 72.2,126 72.2,112.8 56.9,112.8 		"/>
		
			<polyline style="clip-path:url(#SVGID_00000173859434727144406290000015703246514155424131_);fill-rule:evenodd;clip-rule:evenodd;fill:#FFC7CE;" points="
			127.8,112.8 127.8,126 143,126 143,112.8 127.8,112.8 		"/>
		<g style="clip-path:url(#SVGID_00000173859434727144406290000015703246514155424131_);">
			<text transform="matrix(1.0011 0 0 1 19.2082 10.2715)" class="st3 st4">A</text>
		</g>
		<g style="clip-path:url(#SVGID_00000173859434727144406290000015703246514155424131_);">
			<text transform="matrix(1.0011 0 0 1 33.7707 10.2715)" class="st3 st4">T</text>
		</g>
		<g style="clip-path:url(#SVGID_00000173859434727144406290000015703246514155424131_);">
			<text transform="matrix(1.0011 0 0 1 47.0129 10.2715)" class="st3 st4">G</text>
		</g>
		<g style="clip-path:url(#SVGID_00000173859434727144406290000015703246514155424131_);">
			<text transform="matrix(1.0011 0 0 1 61.5832 10.2715)" class="st3 st4">A</text>
		</g>
		<g style="clip-path:url(#SVGID_00000173859434727144406290000015703246514155424131_);">
			<text transform="matrix(1.0011 0 0 1 76.1535 10.2715)" class="st3 st4">C</text>
		</g>
		<g style="clip-path:url(#SVGID_00000173859434727144406290000015703246514155424131_);">
			<text transform="matrix(1.0011 0 0 1 90.0598 10.2715)" class="st3 st4">T</text>
		</g>
		<g style="clip-path:url(#SVGID_00000173859434727144406290000015703246514155424131_);">
			<text transform="matrix(1.0011 0 0 1 103.302 10.2715)" class="st3 st4">G</text>
		</g>
		<g style="clip-path:url(#SVGID_00000173859434727144406290000015703246514155424131_);">
			<text transform="matrix(1.0011 0 0 1 117.8645 10.2715)" class="st3 st4">G</text>
		</g>
		<g style="clip-path:url(#SVGID_00000173859434727144406290000015703246514155424131_);">
			<text transform="matrix(1.0011 0 0 1 132.4348 10.2715)" class="st3 st4">A</text>
		</g>
		<g style="clip-path:url(#SVGID_00000173859434727144406290000015703246514155424131_);">
			<text transform="matrix(1.0011 0 0 1 4.6379 22.8419)" class="st3 st4">A</text>
		</g>
		<g style="clip-path:url(#SVGID_00000173859434727144406290000015703246514155424131_);">
			<text transform="matrix(1.0011 0 0 1 19.8645 22.8419)" class="st5 st6 st4">1</text>
		</g>
		<g style="clip-path:url(#SVGID_00000173859434727144406290000015703246514155424131_);">
			<text transform="matrix(1.0011 0 0 1 62.2473 22.8419)" class="st5 st3 st4">1</text>
		</g>
		<g style="clip-path:url(#SVGID_00000173859434727144406290000015703246514155424131_);">
			<text transform="matrix(1.0011 0 0 1 133.0989 22.8419)" class="st5 st3 st4">1</text>
		</g>
		<g style="clip-path:url(#SVGID_00000173859434727144406290000015703246514155424131_);">
			<text transform="matrix(1.0011 0 0 1 5.302 35.4044)" class="st3 st4">T</text>
		</g>
		<g style="clip-path:url(#SVGID_00000173859434727144406290000015703246514155424131_);">
			<text transform="matrix(1.0011 0 0 1 33.7707 35.4044)" class="st5 st6 st4">1</text>
		</g>
		<g style="clip-path:url(#SVGID_00000173859434727144406290000015703246514155424131_);">
			<text transform="matrix(1.0011 0 0 1 90.0598 35.4044)" class="st5 st3 st4">1</text>
		</g>
		<g style="clip-path:url(#SVGID_00000173859434727144406290000015703246514155424131_);">
			<text transform="matrix(1.0011 0 0 1 4.6379 47.9669)" class="st3 st4">G</text>
		</g>
		<g style="clip-path:url(#SVGID_00000173859434727144406290000015703246514155424131_);">
			<text transform="matrix(1.0011 0 0 1 47.677 47.9669)" class="st5 st6 st4">1</text>
		</g>
		<g style="clip-path:url(#SVGID_00000173859434727144406290000015703246514155424131_);">
			<text transform="matrix(1.0011 0 0 1 103.966 47.9669)" class="st5 st3 st4">1</text>
		</g>
		<g style="clip-path:url(#SVGID_00000173859434727144406290000015703246514155424131_);">
			<text transform="matrix(1.0011 0 0 1 118.5285 47.9669)" class="st5 st3 st4">1</text>
		</g>
		<g style="clip-path:url(#SVGID_00000173859434727144406290000015703246514155424131_);">
			<text transform="matrix(1.0011 0 0 1 4.6379 60.5294)" class="st3 st4">A</text>
		</g>
		<g style="clip-path:url(#SVGID_00000173859434727144406290000015703246514155424131_);">
			<text transform="matrix(1.0011 0 0 1 19.8645 60.5294)" class="st5 st3 st4">1</text>
		</g>
		<g style="clip-path:url(#SVGID_00000173859434727144406290000015703246514155424131_);">
			<text transform="matrix(1.0011 0 0 1 62.2473 60.5294)" class="st5 st6 st4">1</text>
		</g>
		<g style="clip-path:url(#SVGID_00000173859434727144406290000015703246514155424131_);">
			<text transform="matrix(1.0011 0 0 1 133.0989 60.5294)" class="st5 st3 st4">1</text>
		</g>
		<g style="clip-path:url(#SVGID_00000173859434727144406290000015703246514155424131_);">
			<text transform="matrix(1.0011 0 0 1 4.6379 73.0997)" class="st3 st4">C</text>
		</g>
		<g style="clip-path:url(#SVGID_00000173859434727144406290000015703246514155424131_);">
			<text transform="matrix(1.0011 0 0 1 76.1535 73.0997)" class="st5 st6 st4">1</text>
		</g>
		<g style="clip-path:url(#SVGID_00000173859434727144406290000015703246514155424131_);">
			<text transform="matrix(1.0011 0 0 1 5.302 85.67)" class="st3 st4">T</text>
		</g>
		<g style="clip-path:url(#SVGID_00000173859434727144406290000015703246514155424131_);">
			<text transform="matrix(1.0011 0 0 1 33.7707 85.67)" class="st5 st3 st4">1</text>
		</g>
		<g style="clip-path:url(#SVGID_00000173859434727144406290000015703246514155424131_);">
			<text transform="matrix(1.0011 0 0 1 90.0598 85.67)" class="st5 st6 st4">1</text>
		</g>
		<g style="clip-path:url(#SVGID_00000173859434727144406290000015703246514155424131_);">
			<text transform="matrix(1.0011 0 0 1 4.6379 98.2403)" class="st3 st4">G</text>
		</g>
		<g style="clip-path:url(#SVGID_00000173859434727144406290000015703246514155424131_);">
			<text transform="matrix(1.0011 0 0 1 47.677 98.2403)" class="st5 st3 st4">1</text>
		</g>
		<g style="clip-path:url(#SVGID_00000173859434727144406290000015703246514155424131_);">
			<text transform="matrix(1.0011 0 0 1 103.966 98.2403)" class="st5 st6 st4">1</text>
		</g>
		<g style="clip-path:url(#SVGID_00000173859434727144406290000015703246514155424131_);">
			<text transform="matrix(1.0011 0 0 1 118.5285 98.2403)" class="st5 st3 st4">1</text>
		</g>
		<g style="clip-path:url(#SVGID_00000173859434727144406290000015703246514155424131_);">
			<text transform="matrix(1.0011 0 0 1 4.6379 110.8106)" class="st3 st4">G</text>
		</g>
		<g style="clip-path:url(#SVGID_00000173859434727144406290000015703246514155424131_);">
			<text transform="matrix(1.0011 0 0 1 47.677 110.8106)" class="st5 st3 st4">1</text>
		</g>
		<g style="clip-path:url(#SVGID_00000173859434727144406290000015703246514155424131_);">
			<text transform="matrix(1.0011 0 0 1 103.966 110.8106)" class="st5 st3 st4">1</text>
		</g>
		<g style="clip-path:url(#SVGID_00000173859434727144406290000015703246514155424131_);">
			<text transform="matrix(1.0011 0 0 1 118.5285 110.8106)" class="st5 st6 st4">1</text>
		</g>
		<g style="clip-path:url(#SVGID_00000173859434727144406290000015703246514155424131_);">
			<text transform="matrix(1.0011 0 0 1 4.6379 123.3731)" class="st3 st4">A</text>
		</g>
		<g style="clip-path:url(#SVGID_00000173859434727144406290000015703246514155424131_);">
			<text transform="matrix(1.0011 0 0 1 19.8645 123.3731)" class="st5 st3 st4">1</text>
		</g>
		<g style="clip-path:url(#SVGID_00000173859434727144406290000015703246514155424131_);">
			<text transform="matrix(1.0011 0 0 1 62.2473 123.3731)" class="st5 st3 st4">1</text>
		</g>
		<g style="clip-path:url(#SVGID_00000173859434727144406290000015703246514155424131_);">
			<text transform="matrix(1.0011 0 0 1 133.0989 123.3731)" class="st5 st6 st4">1</text>
		</g>
	</g>
	<g>
		<defs>
			<polygon id="SVGID_00000161602571734566326130000007703134133515202196_" points="0,-0.3 143,-0.3 143,126 0,126 0,-0.3 			"/>
		</defs>
		<clipPath id="SVGID_00000051376673183758486340000003859682358139362990_">
			<use xlink:href="#SVGID_00000161602571734566326130000007703134133515202196_"  style="overflow:visible;"/>
		</clipPath>
		
			<polyline style="clip-path:url(#SVGID_00000051376673183758486340000003859682358139362990_);fill-rule:evenodd;clip-rule:evenodd;fill:#D4D4D4;" points="
			0,-0.3 0,-0.3 0.7,-0.3 0.7,-0.3 0,-0.3 		"/>
		
			<polyline style="clip-path:url(#SVGID_00000051376673183758486340000003859682358139362990_);fill-rule:evenodd;clip-rule:evenodd;fill:#D4D4D4;" points="
			14.6,-0.3 14.6,-0.3 15.2,-0.3 15.2,-0.3 14.6,-0.3 		"/>
		
			<polyline style="clip-path:url(#SVGID_00000051376673183758486340000003859682358139362990_);fill-rule:evenodd;clip-rule:evenodd;fill:#D4D4D4;" points="
			29.1,-0.3 29.1,-0.3 29.8,-0.3 29.8,-0.3 29.1,-0.3 		"/>
		
			<polyline style="clip-path:url(#SVGID_00000051376673183758486340000003859682358139362990_);fill-rule:evenodd;clip-rule:evenodd;fill:#D4D4D4;" points="
			42.4,-0.3 42.4,-0.3 43,-0.3 43,-0.3 42.4,-0.3 		"/>
		
			<polyline style="clip-path:url(#SVGID_00000051376673183758486340000003859682358139362990_);fill-rule:evenodd;clip-rule:evenodd;fill:#D4D4D4;" points="
			56.9,-0.3 56.9,-0.3 57.6,-0.3 57.6,-0.3 56.9,-0.3 		"/>
		
			<polyline style="clip-path:url(#SVGID_00000051376673183758486340000003859682358139362990_);fill-rule:evenodd;clip-rule:evenodd;fill:#D4D4D4;" points="
			71.5,-0.3 71.5,-0.3 72.2,-0.3 72.2,-0.3 71.5,-0.3 		"/>
		
			<polyline style="clip-path:url(#SVGID_00000051376673183758486340000003859682358139362990_);fill-rule:evenodd;clip-rule:evenodd;fill:#D4D4D4;" points="
			85.4,-0.3 85.4,-0.3 86.1,-0.3 86.1,-0.3 85.4,-0.3 		"/>
		
			<polyline style="clip-path:url(#SVGID_00000051376673183758486340000003859682358139362990_);fill-rule:evenodd;clip-rule:evenodd;fill:#D4D4D4;" points="
			98.7,-0.3 98.7,-0.3 99.3,-0.3 99.3,-0.3 98.7,-0.3 		"/>
		
			<polyline style="clip-path:url(#SVGID_00000051376673183758486340000003859682358139362990_);fill-rule:evenodd;clip-rule:evenodd;fill:#D4D4D4;" points="
			113.2,-0.3 113.2,-0.3 113.9,-0.3 113.9,-0.3 113.2,-0.3 		"/>
		
			<polyline style="clip-path:url(#SVGID_00000051376673183758486340000003859682358139362990_);fill-rule:evenodd;clip-rule:evenodd;fill:#D4D4D4;" points="
			127.8,-0.3 127.8,-0.3 128.5,-0.3 128.5,-0.3 127.8,-0.3 		"/>
		
			<polyline style="clip-path:url(#SVGID_00000051376673183758486340000003859682358139362990_);fill-rule:evenodd;clip-rule:evenodd;fill:#D4D4D4;" points="
			142.4,-0.3 142.4,-0.3 143,-0.3 143,-0.3 142.4,-0.3 		"/>
		
			<line style="clip-path:url(#SVGID_00000051376673183758486340000003859682358139362990_);fill:none;stroke:#D4D4D4;stroke-width:0;stroke-linecap:square;stroke-miterlimit:10;" x1="42.4" y1="12.9" x2="42.4" y2="24.8"/>
		
			<polyline style="clip-path:url(#SVGID_00000051376673183758486340000003859682358139362990_);fill-rule:evenodd;clip-rule:evenodd;fill:#D4D4D4;" points="
			42.4,12.9 42.4,24.8 43,24.8 43,12.9 42.4,12.9 		"/>
		
			<line style="clip-path:url(#SVGID_00000051376673183758486340000003859682358139362990_);fill:none;stroke:#D4D4D4;stroke-width:0;stroke-linecap:square;stroke-miterlimit:10;" x1="43" y1="24.8" x2="56.9" y2="24.8"/>
		
			<polyline style="clip-path:url(#SVGID_00000051376673183758486340000003859682358139362990_);fill-rule:evenodd;clip-rule:evenodd;fill:#D4D4D4;" points="
			43,24.8 43,25.5 56.9,25.5 56.9,24.8 43,24.8 		"/>
		
			<line style="clip-path:url(#SVGID_00000051376673183758486340000003859682358139362990_);fill:none;stroke:#D4D4D4;stroke-width:0;stroke-linecap:square;stroke-miterlimit:10;" x1="72.2" y1="24.8" x2="85.4" y2="24.8"/>
		
			<polyline style="clip-path:url(#SVGID_00000051376673183758486340000003859682358139362990_);fill-rule:evenodd;clip-rule:evenodd;fill:#D4D4D4;" points="
			72.2,24.8 72.2,25.5 85.4,25.5 85.4,24.8 72.2,24.8 		"/>
		
			<line style="clip-path:url(#SVGID_00000051376673183758486340000003859682358139362990_);fill:none;stroke:#D4D4D4;stroke-width:0;stroke-linecap:square;stroke-miterlimit:10;" x1="85.4" y1="12.9" x2="85.4" y2="24.8"/>
		
			<polyline style="clip-path:url(#SVGID_00000051376673183758486340000003859682358139362990_);fill-rule:evenodd;clip-rule:evenodd;fill:#D4D4D4;" points="
			85.4,12.9 85.4,24.8 86.1,24.8 86.1,12.9 85.4,12.9 		"/>
		
			<line style="clip-path:url(#SVGID_00000051376673183758486340000003859682358139362990_);fill:none;stroke:#D4D4D4;stroke-width:0;stroke-linecap:square;stroke-miterlimit:10;" x1="98.7" y1="12.9" x2="98.7" y2="24.8"/>
		
			<polyline style="clip-path:url(#SVGID_00000051376673183758486340000003859682358139362990_);fill-rule:evenodd;clip-rule:evenodd;fill:#D4D4D4;" points="
			98.7,12.9 98.7,24.8 99.3,24.8 99.3,12.9 98.7,12.9 		"/>
		
			<line style="clip-path:url(#SVGID_00000051376673183758486340000003859682358139362990_);fill:none;stroke:#D4D4D4;stroke-width:0;stroke-linecap:square;stroke-miterlimit:10;" x1="99.3" y1="24.8" x2="127.8" y2="24.8"/>
		
			<polyline style="clip-path:url(#SVGID_00000051376673183758486340000003859682358139362990_);fill-rule:evenodd;clip-rule:evenodd;fill:#D4D4D4;" points="
			99.3,24.8 99.3,25.5 127.8,25.5 127.8,24.8 99.3,24.8 		"/>
		
			<line style="clip-path:url(#SVGID_00000051376673183758486340000003859682358139362990_);fill:none;stroke:#D4D4D4;stroke-width:0;stroke-linecap:square;stroke-miterlimit:10;" x1="15.2" y1="37.4" x2="29.1" y2="37.4"/>
		
			<polyline style="clip-path:url(#SVGID_00000051376673183758486340000003859682358139362990_);fill-rule:evenodd;clip-rule:evenodd;fill:#D4D4D4;" points="
			15.2,37.4 15.2,38 29.1,38 29.1,37.4 15.2,37.4 		"/>
		
			<line style="clip-path:url(#SVGID_00000051376673183758486340000003859682358139362990_);fill:none;stroke:#D4D4D4;stroke-width:0;stroke-linecap:square;stroke-miterlimit:10;" x1="56.9" y1="25.5" x2="56.9" y2="37.4"/>
		
			<polyline style="clip-path:url(#SVGID_00000051376673183758486340000003859682358139362990_);fill-rule:evenodd;clip-rule:evenodd;fill:#D4D4D4;" points="
			56.9,25.5 56.9,37.4 57.6,37.4 57.6,25.5 56.9,25.5 		"/>
		
			<line style="clip-path:url(#SVGID_00000051376673183758486340000003859682358139362990_);fill:none;stroke:#D4D4D4;stroke-width:0;stroke-linecap:square;stroke-miterlimit:10;" x1="57.6" y1="37.4" x2="85.4" y2="37.4"/>
		
			<polyline style="clip-path:url(#SVGID_00000051376673183758486340000003859682358139362990_);fill-rule:evenodd;clip-rule:evenodd;fill:#D4D4D4;" points="
			57.6,37.4 57.6,38 85.4,38 85.4,37.4 57.6,37.4 		"/>
		
			<line style="clip-path:url(#SVGID_00000051376673183758486340000003859682358139362990_);fill:none;stroke:#D4D4D4;stroke-width:0;stroke-linecap:square;stroke-miterlimit:10;" x1="113.2" y1="12.9" x2="113.2" y2="37.4"/>
		
			<polyline style="clip-path:url(#SVGID_00000051376673183758486340000003859682358139362990_);fill-rule:evenodd;clip-rule:evenodd;fill:#D4D4D4;" points="
			113.2,12.9 113.2,37.4 113.9,37.4 113.9,12.9 113.2,12.9 		"/>
		
			<line style="clip-path:url(#SVGID_00000051376673183758486340000003859682358139362990_);fill:none;stroke:#D4D4D4;stroke-width:0;stroke-linecap:square;stroke-miterlimit:10;" x1="127.8" y1="25.5" x2="127.8" y2="37.4"/>
		
			<polyline style="clip-path:url(#SVGID_00000051376673183758486340000003859682358139362990_);fill-rule:evenodd;clip-rule:evenodd;fill:#D4D4D4;" points="
			127.8,25.5 127.8,37.4 128.5,37.4 128.5,25.5 127.8,25.5 		"/>
		
			<line style="clip-path:url(#SVGID_00000051376673183758486340000003859682358139362990_);fill:none;stroke:#D4D4D4;stroke-width:0;stroke-linecap:square;stroke-miterlimit:10;" x1="29.1" y1="38" x2="29.1" y2="49.9"/>
		
			<polyline style="clip-path:url(#SVGID_00000051376673183758486340000003859682358139362990_);fill-rule:evenodd;clip-rule:evenodd;fill:#D4D4D4;" points="
			29.1,38 29.1,49.9 29.8,49.9 29.8,38 29.1,38 		"/>
		
			<line style="clip-path:url(#SVGID_00000051376673183758486340000003859682358139362990_);fill:none;stroke:#D4D4D4;stroke-width:0;stroke-linecap:square;stroke-miterlimit:10;" x1="29.8" y1="49.9" x2="42.4" y2="49.9"/>
		
			<polyline style="clip-path:url(#SVGID_00000051376673183758486340000003859682358139362990_);fill-rule:evenodd;clip-rule:evenodd;fill:#D4D4D4;" points="
			29.8,49.9 29.8,50.6 42.4,50.6 42.4,49.9 29.8,49.9 		"/>
		
			<line style="clip-path:url(#SVGID_00000051376673183758486340000003859682358139362990_);fill:none;stroke:#D4D4D4;stroke-width:0;stroke-linecap:square;stroke-miterlimit:10;" x1="71.5" y1="25.5" x2="71.5" y2="49.9"/>
		
			<polyline style="clip-path:url(#SVGID_00000051376673183758486340000003859682358139362990_);fill-rule:evenodd;clip-rule:evenodd;fill:#D4D4D4;" points="
			71.5,25.5 71.5,49.9 72.2,49.9 72.2,25.5 71.5,25.5 		"/>
		
			<line style="clip-path:url(#SVGID_00000051376673183758486340000003859682358139362990_);fill:none;stroke:#D4D4D4;stroke-width:0;stroke-linecap:square;stroke-miterlimit:10;" x1="72.2" y1="49.9" x2="98.7" y2="49.9"/>
		
			<polyline style="clip-path:url(#SVGID_00000051376673183758486340000003859682358139362990_);fill-rule:evenodd;clip-rule:evenodd;fill:#D4D4D4;" points="
			72.2,49.9 72.2,50.6 98.7,50.6 98.7,49.9 72.2,49.9 		"/>
		
			<line style="clip-path:url(#SVGID_00000051376673183758486340000003859682358139362990_);fill:none;stroke:#D4D4D4;stroke-width:0;stroke-linecap:square;stroke-miterlimit:10;" x1="142.4" y1="25.5" x2="142.4" y2="49.9"/>
		
			<polyline style="clip-path:url(#SVGID_00000051376673183758486340000003859682358139362990_);fill-rule:evenodd;clip-rule:evenodd;fill:#D4D4D4;" points="
			142.4,25.5 142.4,49.9 143,49.9 143,25.5 142.4,25.5 		"/>
		
			<line style="clip-path:url(#SVGID_00000051376673183758486340000003859682358139362990_);fill:none;stroke:#D4D4D4;stroke-width:0;stroke-linecap:square;stroke-miterlimit:10;" x1="29.8" y1="62.5" x2="56.9" y2="62.5"/>
		
			<polyline style="clip-path:url(#SVGID_00000051376673183758486340000003859682358139362990_);fill-rule:evenodd;clip-rule:evenodd;fill:#D4D4D4;" points="
			29.8,62.5 29.8,63.2 56.9,63.2 56.9,62.5 29.8,62.5 		"/>
		
			<line style="clip-path:url(#SVGID_00000051376673183758486340000003859682358139362990_);fill:none;stroke:#D4D4D4;stroke-width:0;stroke-linecap:square;stroke-miterlimit:10;" x1="85.4" y1="38" x2="85.4" y2="62.5"/>
		
			<polyline style="clip-path:url(#SVGID_00000051376673183758486340000003859682358139362990_);fill-rule:evenodd;clip-rule:evenodd;fill:#D4D4D4;" points="
			85.4,38 85.4,62.5 86.1,62.5 86.1,38 85.4,38 		"/>
		
			<line style="clip-path:url(#SVGID_00000051376673183758486340000003859682358139362990_);fill:none;stroke:#D4D4D4;stroke-width:0;stroke-linecap:square;stroke-miterlimit:10;" x1="86.1" y1="62.5" x2="127.8" y2="62.5"/>
		
			<polyline style="clip-path:url(#SVGID_00000051376673183758486340000003859682358139362990_);fill-rule:evenodd;clip-rule:evenodd;fill:#D4D4D4;" points="
			86.1,62.5 86.1,63.2 127.8,63.2 127.8,62.5 86.1,62.5 		"/>
		
			<line style="clip-path:url(#SVGID_00000051376673183758486340000003859682358139362990_);fill:none;stroke:#D4D4D4;stroke-width:0;stroke-linecap:square;stroke-miterlimit:10;" x1="15.2" y1="75.1" x2="29.1" y2="75.1"/>
		
			<polyline style="clip-path:url(#SVGID_00000051376673183758486340000003859682358139362990_);fill-rule:evenodd;clip-rule:evenodd;fill:#D4D4D4;" points="
			15.2,75.1 15.2,75.7 29.1,75.7 29.1,75.1 15.2,75.1 		"/>
		
			<line style="clip-path:url(#SVGID_00000051376673183758486340000003859682358139362990_);fill:none;stroke:#D4D4D4;stroke-width:0;stroke-linecap:square;stroke-miterlimit:10;" x1="29.1" y1="63.2" x2="29.1" y2="75.1"/>
		
			<polyline style="clip-path:url(#SVGID_00000051376673183758486340000003859682358139362990_);fill-rule:evenodd;clip-rule:evenodd;fill:#D4D4D4;" points="
			29.1,63.2 29.1,75.1 29.8,75.1 29.8,63.2 29.1,63.2 		"/>
		
			<line style="clip-path:url(#SVGID_00000051376673183758486340000003859682358139362990_);fill:none;stroke:#D4D4D4;stroke-width:0;stroke-linecap:square;stroke-miterlimit:10;" x1="42.4" y1="50.6" x2="42.4" y2="75.1"/>
		
			<polyline style="clip-path:url(#SVGID_00000051376673183758486340000003859682358139362990_);fill-rule:evenodd;clip-rule:evenodd;fill:#D4D4D4;" points="
			42.4,50.6 42.4,75.1 43,75.1 43,50.6 42.4,50.6 		"/>
		
			<line style="clip-path:url(#SVGID_00000051376673183758486340000003859682358139362990_);fill:none;stroke:#D4D4D4;stroke-width:0;stroke-linecap:square;stroke-miterlimit:10;" x1="43" y1="75.1" x2="71.5" y2="75.1"/>
		
			<polyline style="clip-path:url(#SVGID_00000051376673183758486340000003859682358139362990_);fill-rule:evenodd;clip-rule:evenodd;fill:#D4D4D4;" points="
			43,75.1 43,75.7 71.5,75.7 71.5,75.1 43,75.1 		"/>
		
			<line style="clip-path:url(#SVGID_00000051376673183758486340000003859682358139362990_);fill:none;stroke:#D4D4D4;stroke-width:0;stroke-linecap:square;stroke-miterlimit:10;" x1="98.7" y1="50.6" x2="98.7" y2="75.1"/>
		
			<polyline style="clip-path:url(#SVGID_00000051376673183758486340000003859682358139362990_);fill-rule:evenodd;clip-rule:evenodd;fill:#D4D4D4;" points="
			98.7,50.6 98.7,75.1 99.3,75.1 99.3,50.6 98.7,50.6 		"/>
		
			<line style="clip-path:url(#SVGID_00000051376673183758486340000003859682358139362990_);fill:none;stroke:#D4D4D4;stroke-width:0;stroke-linecap:square;stroke-miterlimit:10;" x1="15.2" y1="87.6" x2="29.1" y2="87.6"/>
		
			<polyline style="clip-path:url(#SVGID_00000051376673183758486340000003859682358139362990_);fill-rule:evenodd;clip-rule:evenodd;fill:#D4D4D4;" points="
			15.2,87.6 15.2,88.3 29.1,88.3 29.1,87.6 15.2,87.6 		"/>
		
			<line style="clip-path:url(#SVGID_00000051376673183758486340000003859682358139362990_);fill:none;stroke:#D4D4D4;stroke-width:0;stroke-linecap:square;stroke-miterlimit:10;" x1="56.9" y1="63.2" x2="56.9" y2="87.6"/>
		
			<polyline style="clip-path:url(#SVGID_00000051376673183758486340000003859682358139362990_);fill-rule:evenodd;clip-rule:evenodd;fill:#D4D4D4;" points="
			56.9,63.2 56.9,87.6 57.6,87.6 57.6,63.2 56.9,63.2 		"/>
		
			<line style="clip-path:url(#SVGID_00000051376673183758486340000003859682358139362990_);fill:none;stroke:#D4D4D4;stroke-width:0;stroke-linecap:square;stroke-miterlimit:10;" x1="57.6" y1="87.6" x2="85.4" y2="87.6"/>
		
			<polyline style="clip-path:url(#SVGID_00000051376673183758486340000003859682358139362990_);fill-rule:evenodd;clip-rule:evenodd;fill:#D4D4D4;" points="
			57.6,87.6 57.6,88.3 85.4,88.3 85.4,87.6 57.6,87.6 		"/>
		
			<line style="clip-path:url(#SVGID_00000051376673183758486340000003859682358139362990_);fill:none;stroke:#D4D4D4;stroke-width:0;stroke-linecap:square;stroke-miterlimit:10;" x1="113.2" y1="50.6" x2="113.2" y2="87.6"/>
		
			<polyline style="clip-path:url(#SVGID_00000051376673183758486340000003859682358139362990_);fill-rule:evenodd;clip-rule:evenodd;fill:#D4D4D4;" points="
			113.2,50.6 113.2,87.6 113.9,87.6 113.9,50.6 113.2,50.6 		"/>
		
			<line style="clip-path:url(#SVGID_00000051376673183758486340000003859682358139362990_);fill:none;stroke:#D4D4D4;stroke-width:0;stroke-linecap:square;stroke-miterlimit:10;" x1="127.8" y1="63.2" x2="127.8" y2="87.6"/>
		
			<polyline style="clip-path:url(#SVGID_00000051376673183758486340000003859682358139362990_);fill-rule:evenodd;clip-rule:evenodd;fill:#D4D4D4;" points="
			127.8,63.2 127.8,87.6 128.5,87.6 128.5,63.2 127.8,63.2 		"/>
		
			<line style="clip-path:url(#SVGID_00000051376673183758486340000003859682358139362990_);fill:none;stroke:#D4D4D4;stroke-width:0;stroke-linecap:square;stroke-miterlimit:10;" x1="15.2" y1="100.2" x2="42.4" y2="100.2"/>
		
			<polyline style="clip-path:url(#SVGID_00000051376673183758486340000003859682358139362990_);fill-rule:evenodd;clip-rule:evenodd;fill:#D4D4D4;" points="
			15.2,100.2 15.2,100.9 42.4,100.9 42.4,100.2 15.2,100.2 		"/>
		
			<line style="clip-path:url(#SVGID_00000051376673183758486340000003859682358139362990_);fill:none;stroke:#D4D4D4;stroke-width:0;stroke-linecap:square;stroke-miterlimit:10;" x1="57.6" y1="100.2" x2="98.7" y2="100.2"/>
		
			<polyline style="clip-path:url(#SVGID_00000051376673183758486340000003859682358139362990_);fill-rule:evenodd;clip-rule:evenodd;fill:#D4D4D4;" points="
			57.6,100.2 57.6,100.9 98.7,100.9 98.7,100.2 57.6,100.2 		"/>
		
			<line style="clip-path:url(#SVGID_00000051376673183758486340000003859682358139362990_);fill:none;stroke:#D4D4D4;stroke-width:0;stroke-linecap:square;stroke-miterlimit:10;" x1="29.1" y1="88.3" x2="29.1" y2="112.8"/>
		
			<polyline style="clip-path:url(#SVGID_00000051376673183758486340000003859682358139362990_);fill-rule:evenodd;clip-rule:evenodd;fill:#D4D4D4;" points="
			29.1,88.3 29.1,112.8 29.8,112.8 29.8,88.3 29.1,88.3 		"/>
		
			<line style="clip-path:url(#SVGID_00000051376673183758486340000003859682358139362990_);fill:none;stroke:#D4D4D4;stroke-width:0;stroke-linecap:square;stroke-miterlimit:10;" x1="29.8" y1="112.8" x2="42.4" y2="112.8"/>
		
			<polyline style="clip-path:url(#SVGID_00000051376673183758486340000003859682358139362990_);fill-rule:evenodd;clip-rule:evenodd;fill:#D4D4D4;" points="
			29.8,112.8 29.8,113.4 42.4,113.4 42.4,112.8 29.8,112.8 		"/>
		
			<line style="clip-path:url(#SVGID_00000051376673183758486340000003859682358139362990_);fill:none;stroke:#D4D4D4;stroke-width:0;stroke-linecap:square;stroke-miterlimit:10;" x1="71.5" y1="75.7" x2="71.5" y2="112.8"/>
		
			<polyline style="clip-path:url(#SVGID_00000051376673183758486340000003859682358139362990_);fill-rule:evenodd;clip-rule:evenodd;fill:#D4D4D4;" points="
			71.5,75.7 71.5,112.8 72.2,112.8 72.2,75.7 71.5,75.7 		"/>
		
			<line style="clip-path:url(#SVGID_00000051376673183758486340000003859682358139362990_);fill:none;stroke:#D4D4D4;stroke-width:0;stroke-linecap:square;stroke-miterlimit:10;" x1="72.2" y1="112.8" x2="98.7" y2="112.8"/>
		
			<polyline style="clip-path:url(#SVGID_00000051376673183758486340000003859682358139362990_);fill-rule:evenodd;clip-rule:evenodd;fill:#D4D4D4;" points="
			72.2,112.8 72.2,113.4 98.7,113.4 98.7,112.8 72.2,112.8 		"/>
		
			<line style="clip-path:url(#SVGID_00000051376673183758486340000003859682358139362990_);fill:none;stroke:#D4D4D4;stroke-width:0;stroke-linecap:square;stroke-miterlimit:10;" x1="142.4" y1="63.2" x2="142.4" y2="112.8"/>
		
			<polyline style="clip-path:url(#SVGID_00000051376673183758486340000003859682358139362990_);fill-rule:evenodd;clip-rule:evenodd;fill:#D4D4D4;" points="
			142.4,63.2 142.4,112.8 143,112.8 143,63.2 142.4,63.2 		"/>
		
			<line style="clip-path:url(#SVGID_00000051376673183758486340000003859682358139362990_);fill:none;stroke:#D4D4D4;stroke-width:0;stroke-linecap:square;stroke-miterlimit:10;" x1="29.8" y1="125.3" x2="56.9" y2="125.3"/>
		
			<polyline style="clip-path:url(#SVGID_00000051376673183758486340000003859682358139362990_);fill-rule:evenodd;clip-rule:evenodd;fill:#D4D4D4;" points="
			29.8,125.3 29.8,126 56.9,126 56.9,125.3 29.8,125.3 		"/>
		
			<line style="clip-path:url(#SVGID_00000051376673183758486340000003859682358139362990_);fill:none;stroke:#D4D4D4;stroke-width:0;stroke-linecap:square;stroke-miterlimit:10;" x1="72.2" y1="125.3" x2="127.8" y2="125.3"/>
		
			<polyline style="clip-path:url(#SVGID_00000051376673183758486340000003859682358139362990_);fill-rule:evenodd;clip-rule:evenodd;fill:#D4D4D4;" points="
			72.2,125.3 72.2,126 127.8,126 127.8,125.3 72.2,125.3 		"/>
		
			<line style="clip-path:url(#SVGID_00000051376673183758486340000003859682358139362990_);fill:none;stroke:#D4D4D4;stroke-width:0;stroke-linecap:square;stroke-miterlimit:10;" x1="0" y1="126" x2="0" y2="126.7"/>
		
			<polyline style="clip-path:url(#SVGID_00000051376673183758486340000003859682358139362990_);fill-rule:evenodd;clip-rule:evenodd;fill:#D4D4D4;" points="
			0,126 0,126.7 0.7,126.7 0.7,126 0,126 		"/>
		
			<line style="clip-path:url(#SVGID_00000051376673183758486340000003859682358139362990_);fill:none;stroke:#D4D4D4;stroke-width:0;stroke-linecap:square;stroke-miterlimit:10;" x1="14.6" y1="126" x2="14.6" y2="126.7"/>
		
			<polyline style="clip-path:url(#SVGID_00000051376673183758486340000003859682358139362990_);fill-rule:evenodd;clip-rule:evenodd;fill:#D4D4D4;" points="
			14.6,126 14.6,126.7 15.2,126.7 15.2,126 14.6,126 		"/>
		
			<line style="clip-path:url(#SVGID_00000051376673183758486340000003859682358139362990_);fill:none;stroke:#D4D4D4;stroke-width:0;stroke-linecap:square;stroke-miterlimit:10;" x1="29.1" y1="126" x2="29.1" y2="126.7"/>
		
			<polyline style="clip-path:url(#SVGID_00000051376673183758486340000003859682358139362990_);fill-rule:evenodd;clip-rule:evenodd;fill:#D4D4D4;" points="
			29.1,126 29.1,126.7 29.8,126.7 29.8,126 29.1,126 		"/>
		
			<line style="clip-path:url(#SVGID_00000051376673183758486340000003859682358139362990_);fill:none;stroke:#D4D4D4;stroke-width:0;stroke-linecap:square;stroke-miterlimit:10;" x1="42.4" y1="113.4" x2="42.4" y2="126.7"/>
		
			<polyline style="clip-path:url(#SVGID_00000051376673183758486340000003859682358139362990_);fill-rule:evenodd;clip-rule:evenodd;fill:#D4D4D4;" points="
			42.4,113.4 42.4,126.7 43,126.7 43,113.4 42.4,113.4 		"/>
		
			<line style="clip-path:url(#SVGID_00000051376673183758486340000003859682358139362990_);fill:none;stroke:#D4D4D4;stroke-width:0;stroke-linecap:square;stroke-miterlimit:10;" x1="56.9" y1="126" x2="56.9" y2="126.7"/>
		
			<polyline style="clip-path:url(#SVGID_00000051376673183758486340000003859682358139362990_);fill-rule:evenodd;clip-rule:evenodd;fill:#D4D4D4;" points="
			56.9,126 56.9,126.7 57.6,126.7 57.6,126 56.9,126 		"/>
		
			<line style="clip-path:url(#SVGID_00000051376673183758486340000003859682358139362990_);fill:none;stroke:#D4D4D4;stroke-width:0;stroke-linecap:square;stroke-miterlimit:10;" x1="71.5" y1="126" x2="71.5" y2="126.7"/>
		
			<polyline style="clip-path:url(#SVGID_00000051376673183758486340000003859682358139362990_);fill-rule:evenodd;clip-rule:evenodd;fill:#D4D4D4;" points="
			71.5,126 71.5,126.7 72.2,126.7 72.2,126 71.5,126 		"/>
		
			<line style="clip-path:url(#SVGID_00000051376673183758486340000003859682358139362990_);fill:none;stroke:#D4D4D4;stroke-width:0;stroke-linecap:square;stroke-miterlimit:10;" x1="85.4" y1="88.3" x2="85.4" y2="126.7"/>
		
			<polyline style="clip-path:url(#SVGID_00000051376673183758486340000003859682358139362990_);fill-rule:evenodd;clip-rule:evenodd;fill:#D4D4D4;" points="
			85.4,88.3 85.4,126.7 86.1,126.7 86.1,88.3 85.4,88.3 		"/>
		
			<line style="clip-path:url(#SVGID_00000051376673183758486340000003859682358139362990_);fill:none;stroke:#D4D4D4;stroke-width:0;stroke-linecap:square;stroke-miterlimit:10;" x1="98.7" y1="113.4" x2="98.7" y2="126.7"/>
		
			<polyline style="clip-path:url(#SVGID_00000051376673183758486340000003859682358139362990_);fill-rule:evenodd;clip-rule:evenodd;fill:#D4D4D4;" points="
			98.7,113.4 98.7,126.7 99.3,126.7 99.3,113.4 98.7,113.4 		"/>
		
			<line style="clip-path:url(#SVGID_00000051376673183758486340000003859682358139362990_);fill:none;stroke:#D4D4D4;stroke-width:0;stroke-linecap:square;stroke-miterlimit:10;" x1="113.2" y1="113.4" x2="113.2" y2="126.7"/>
		
			<polyline style="clip-path:url(#SVGID_00000051376673183758486340000003859682358139362990_);fill-rule:evenodd;clip-rule:evenodd;fill:#D4D4D4;" points="
			113.2,113.4 113.2,126.7 113.9,126.7 113.9,113.4 113.2,113.4 		"/>
		
			<line style="clip-path:url(#SVGID_00000051376673183758486340000003859682358139362990_);fill:none;stroke:#D4D4D4;stroke-width:0;stroke-linecap:square;stroke-miterlimit:10;" x1="127.8" y1="126" x2="127.8" y2="126.7"/>
		
			<polyline style="clip-path:url(#SVGID_00000051376673183758486340000003859682358139362990_);fill-rule:evenodd;clip-rule:evenodd;fill:#D4D4D4;" points="
			127.8,126 127.8,126.7 128.5,126.7 128.5,126 127.8,126 		"/>
		
			<line style="clip-path:url(#SVGID_00000051376673183758486340000003859682358139362990_);fill:none;stroke:#D4D4D4;stroke-width:0;stroke-linecap:square;stroke-miterlimit:10;" x1="142.4" y1="126" x2="142.4" y2="126.7"/>
		
			<polyline style="clip-path:url(#SVGID_00000051376673183758486340000003859682358139362990_);fill-rule:evenodd;clip-rule:evenodd;fill:#D4D4D4;" points="
			142.4,126 142.4,126.7 143,126.7 143,126 142.4,126 		"/>
		
			<line style="clip-path:url(#SVGID_00000051376673183758486340000003859682358139362990_);fill:none;stroke:#D4D4D4;stroke-width:0;stroke-linecap:square;stroke-miterlimit:10;" x1="143" y1="-0.3" x2="143.7" y2="-0.3"/>
		
			<polyline style="clip-path:url(#SVGID_00000051376673183758486340000003859682358139362990_);fill-rule:evenodd;clip-rule:evenodd;fill:#D4D4D4;" points="
			143,-0.3 143,0.3 143.7,0.3 143.7,-0.3 143,-0.3 		"/>
		
			<line style="clip-path:url(#SVGID_00000051376673183758486340000003859682358139362990_);fill:none;stroke:#D4D4D4;stroke-width:0;stroke-linecap:square;stroke-miterlimit:10;" x1="143" y1="12.2" x2="143.7" y2="12.2"/>
		
			<polyline style="clip-path:url(#SVGID_00000051376673183758486340000003859682358139362990_);fill-rule:evenodd;clip-rule:evenodd;fill:#D4D4D4;" points="
			143,12.2 143,12.9 143.7,12.9 143.7,12.2 143,12.2 		"/>
		
			<line style="clip-path:url(#SVGID_00000051376673183758486340000003859682358139362990_);fill:none;stroke:#D4D4D4;stroke-width:0;stroke-linecap:square;stroke-miterlimit:10;" x1="143" y1="24.8" x2="143.7" y2="24.8"/>
		
			<polyline style="clip-path:url(#SVGID_00000051376673183758486340000003859682358139362990_);fill-rule:evenodd;clip-rule:evenodd;fill:#D4D4D4;" points="
			143,24.8 143,25.5 143.7,25.5 143.7,24.8 143,24.8 		"/>
		
			<line style="clip-path:url(#SVGID_00000051376673183758486340000003859682358139362990_);fill:none;stroke:#D4D4D4;stroke-width:0;stroke-linecap:square;stroke-miterlimit:10;" x1="128.5" y1="37.4" x2="143.7" y2="37.4"/>
		
			<polyline style="clip-path:url(#SVGID_00000051376673183758486340000003859682358139362990_);fill-rule:evenodd;clip-rule:evenodd;fill:#D4D4D4;" points="
			128.5,37.4 128.5,38 143.7,38 143.7,37.4 128.5,37.4 		"/>
		
			<line style="clip-path:url(#SVGID_00000051376673183758486340000003859682358139362990_);fill:none;stroke:#D4D4D4;stroke-width:0;stroke-linecap:square;stroke-miterlimit:10;" x1="143" y1="49.9" x2="143.7" y2="49.9"/>
		
			<polyline style="clip-path:url(#SVGID_00000051376673183758486340000003859682358139362990_);fill-rule:evenodd;clip-rule:evenodd;fill:#D4D4D4;" points="
			143,49.9 143,50.6 143.7,50.6 143.7,49.9 143,49.9 		"/>
		
			<line style="clip-path:url(#SVGID_00000051376673183758486340000003859682358139362990_);fill:none;stroke:#D4D4D4;stroke-width:0;stroke-linecap:square;stroke-miterlimit:10;" x1="143" y1="62.5" x2="143.7" y2="62.5"/>
		
			<polyline style="clip-path:url(#SVGID_00000051376673183758486340000003859682358139362990_);fill-rule:evenodd;clip-rule:evenodd;fill:#D4D4D4;" points="
			143,62.5 143,63.2 143.7,63.2 143.7,62.5 143,62.5 		"/>
		
			<line style="clip-path:url(#SVGID_00000051376673183758486340000003859682358139362990_);fill:none;stroke:#D4D4D4;stroke-width:0;stroke-linecap:square;stroke-miterlimit:10;" x1="99.3" y1="75.1" x2="143.7" y2="75.1"/>
		
			<polyline style="clip-path:url(#SVGID_00000051376673183758486340000003859682358139362990_);fill-rule:evenodd;clip-rule:evenodd;fill:#D4D4D4;" points="
			99.3,75.1 99.3,75.7 143.7,75.7 143.7,75.1 99.3,75.1 		"/>
		
			<line style="clip-path:url(#SVGID_00000051376673183758486340000003859682358139362990_);fill:none;stroke:#D4D4D4;stroke-width:0;stroke-linecap:square;stroke-miterlimit:10;" x1="128.5" y1="87.6" x2="143.7" y2="87.6"/>
		
			<polyline style="clip-path:url(#SVGID_00000051376673183758486340000003859682358139362990_);fill-rule:evenodd;clip-rule:evenodd;fill:#D4D4D4;" points="
			128.5,87.6 128.5,88.3 143.7,88.3 143.7,87.6 128.5,87.6 		"/>
		
			<line style="clip-path:url(#SVGID_00000051376673183758486340000003859682358139362990_);fill:none;stroke:#D4D4D4;stroke-width:0;stroke-linecap:square;stroke-miterlimit:10;" x1="128.5" y1="100.2" x2="143.7" y2="100.2"/>
		
			<polyline style="clip-path:url(#SVGID_00000051376673183758486340000003859682358139362990_);fill-rule:evenodd;clip-rule:evenodd;fill:#D4D4D4;" points="
			128.5,100.2 128.5,100.9 143.7,100.9 143.7,100.2 128.5,100.2 		"/>
		
			<line style="clip-path:url(#SVGID_00000051376673183758486340000003859682358139362990_);fill:none;stroke:#D4D4D4;stroke-width:0;stroke-linecap:square;stroke-miterlimit:10;" x1="143" y1="112.8" x2="143.7" y2="112.8"/>
		
			<polyline style="clip-path:url(#SVGID_00000051376673183758486340000003859682358139362990_);fill-rule:evenodd;clip-rule:evenodd;fill:#D4D4D4;" points="
			143,112.8 143,113.4 143.7,113.4 143.7,112.8 143,112.8 		"/>
		
			<line style="clip-path:url(#SVGID_00000051376673183758486340000003859682358139362990_);fill:none;stroke:#D4D4D4;stroke-width:0;stroke-linecap:square;stroke-miterlimit:10;" x1="143" y1="125.3" x2="143.7" y2="125.3"/>
		
			<polyline style="clip-path:url(#SVGID_00000051376673183758486340000003859682358139362990_);fill-rule:evenodd;clip-rule:evenodd;fill:#D4D4D4;" points="
			143,125.3 143,126 143.7,126 143.7,125.3 143,125.3 		"/>
	</g>
</g>
</svg>
