<?xml version="1.0" encoding="utf-8"?>
<!-- Generator: Adobe Illustrator 25.4.1, SVG Export Plug-In . SVG Version: 6.00 Build 0)  -->
<svg version="1.1" id="图层_1" xmlns="http://www.w3.org/2000/svg" xmlns:xlink="http://www.w3.org/1999/xlink" x="0px" y="0px"
	 viewBox="0 0 350 260" style="enable-background:new 0 0 350 260;" xml:space="preserve">
<style type="text/css">
	.st0{fill-rule:evenodd;clip-rule:evenodd;fill:#FFFC78;}
	.st1{fill:none;stroke:#000000;stroke-width:0.75;stroke-miterlimit:8;}
	.st2{font-family:'ArialMT';}
	.st3{font-size:22px;}
	.st4{fill:none;stroke:#FF2600;stroke-width:2.25;stroke-linejoin:round;stroke-miterlimit:10;}
	.st5{fill:none;stroke:#000000;stroke-width:0.75;stroke-linejoin:round;stroke-miterlimit:10;stroke-dasharray:3,2.25;}
	.st6{fill:none;stroke:#000000;stroke-width:0.75;stroke-linejoin:round;stroke-miterlimit:10;}
</style>
<g>
	<rect x="2.9" y="3" class="st0" width="342" height="252"/>
	<rect x="2.9" y="3" class="st1" width="342" height="252"/>
	<text transform="matrix(1 0 0 1 47.2 142.4751)" class="st2 st3">Global alignment </text>
	<line class="st4" x1="230.9" y1="39" x2="284.9" y2="87"/>
	<line class="st5" x1="230.9" y1="39" x2="8.9" y2="9"/>
	<line class="st5" x1="284.9" y1="87" x2="344.9" y2="249"/>
	<path class="st6" d="M5.9,8.9c3,1,6.2,2.5,9,4c2.1,1.1,6,4,6,4c3.6,5.5,12.2,8.2,17,13c1,1,1.9,2.1,3,3c1.9,1.5,6,4,6,4
		c2.4,3.6,4.5,3.6,8,6c2.7,4.1,6.7,4.9,11,7c15.1,7.6,33.4,7.2,50,8c6.5,2.1,12.2,7.1,18,11c1.1,0.8,1.9,2.1,3,3c1.9,1.5,6,4,6,4
		c2.5,3.9,4.6,3.1,8,6c14.2,11.9,17.6,10.9,37,12c7.1,2.4,4.2,0.9,9,4c3.9,5.8,6.2,10.1,12,14c1.9,5.8-0.6,1,4,4
		c1.1,0.8,1.9,2.1,3,3c1.9,1.5,6,4,6,4c4.9,7.2,9.6,18.1,17,23c2.8,4.1,6.9,7,10,11c3.9,5,6.6,10.4,12,14c3,4.5,5.2,8.2,9,12
		c2.2,6.7-0.9-1.2,5,7c4.4,6.1-3.2,0.1,4,5c7.4,11,20.1,14,32,18c3.2,1.1,5.7,2.9,9,4c2.2,3.4,9.6,10.8,13,13c2.6,3.9,5.1,7.8,7,12
		c0.9,1.9,0.9,4.2,2,6c4.1,6.2,4,3.6,4,7"/>
	<text transform="matrix(1 0 0 1 161.2 64.6)" class="st2 st3">Local alignment </text>
</g>
</svg>
