<svg width="3173" height="1851" xmlns="http://www.w3.org/2000/svg" xmlns:xlink="http://www.w3.org/1999/xlink" overflow="hidden"><defs><clipPath id="clip0"><rect x="47" y="425" width="3173" height="1851"/></clipPath></defs><g clip-path="url(#clip0)" transform="translate(-47 -425)"><text font-family="Times New Roman,Times New Roman_MSFontService,sans-serif" font-weight="400" font-size="128" transform="matrix(1 0 0 1 133.44 588)">Dynamic<tspan font-size="128" x="501.875" y="0">Programming</tspan><tspan font-size="128" x="1207.71" y="0">—</tspan>formula<tspan fill="#31B6FD" font-family="Segoe UI Symbol,Segoe UI Symbol_MSFontService,sans-serif" font-size="128" x="0" y="212">➢</tspan><tspan font-size="128" x="165" y="212">Input</tspan><tspan font-size="128" x="468.073" y="212">two</tspan><tspan font-size="128" x="692.656" y="212">sequences</tspan><tspan font-size="128" x="1211.72" y="212">:</tspan><tspan font-size="128" x="1279.32" y="212">x</tspan><tspan font-size="128" x="1375.57" y="212">and</tspan><tspan font-size="128" x="1592.71" y="212">y</tspan><tspan font-size="128" x="192.5" y="424">-</tspan>F(i,j<tspan font-size="128" x="453.177" y="424">)</tspan>:<tspan font-size="128" x="563.75" y="424">the</tspan><tspan font-size="128" x="752.24" y="424">best</tspan><tspan font-size="128" x="990.573" y="424">alignment</tspan><tspan font-size="128" x="1534.84" y="424">between</tspan><tspan font-size="128" x="1993.75" y="424">x</tspan><tspan font-size="86" x="2057.92" y="455">1</tspan><tspan font-size="86" x="2100.89" y="455">…</tspan><tspan font-size="86" x="2186.25" y="455">i</tspan><tspan font-size="128" x="2230.94" y="424">and</tspan><tspan font-size="128" x="2448.07" y="424">y</tspan><tspan font-size="86" x="2512.24" y="455">1</tspan><tspan font-size="86" x="2555.21" y="455">…</tspan><tspan font-size="86" x="2640.57" y="455">j</tspan><tspan font-size="128" x="192.5" y="637">-</tspan>s(A,B)<tspan font-size="128" x="581.51" y="637">:</tspan><tspan font-size="128" x="649.115" y="637">substitution</tspan><tspan font-size="128" x="1279.32" y="637">A</tspan><tspan font-size="128" x="1404.22" y="637">with</tspan><tspan font-size="128" x="1664.32" y="637">B</tspan>;<tspan font-size="128" x="1817.29" y="637">d</tspan>:<tspan font-size="128" x="1949.06" y="637">gap</tspan><tspan font-size="128" x="2166.2" y="637">penalty</tspan><tspan font-style="italic" font-size="147" x="340.537" y="1354">F(</tspan><tspan font-style="italic" font-size="147" x="478.61" y="1354">i,j</tspan><tspan font-style="italic" font-size="147" x="596.631" y="1354">)</tspan><tspan font-size="147" x="625.862" y="1348">=</tspan><tspan font-size="147" x="730.971" y="1354">max</tspan><tspan font-style="italic" font-size="147" x="1186.42" y="1127">F(i</tspan><tspan font-style="italic" font-size="147" x="1365.17" y="1127">-</tspan><tspan font-style="italic" font-size="147" x="1413.87" y="1127">1,j</tspan><tspan font-style="italic" font-size="147" x="1564.55" y="1127">-</tspan><tspan font-style="italic" font-size="147" x="1613.24" y="1127">1)+s(</tspan><tspan font-style="italic" font-size="147" x="1940.38" y="1127">x</tspan><tspan font-style="italic" font-size="98" x="2005.69" y="1163">i</tspan><tspan font-style="italic" font-size="147" x="2032.62" y="1127">,y</tspan><tspan font-style="italic" font-size="98" x="2134.6" y="1163">j</tspan><tspan font-style="italic" font-size="147" x="2161.52" y="1127">)</tspan><tspan font-style="italic" font-size="147" x="1186.42" y="1357">F(i</tspan><tspan font-style="italic" font-size="147" x="1365.17" y="1357">-</tspan><tspan font-style="italic" font-size="147" x="1413.87" y="1357">1,j)+d</tspan><tspan font-style="italic" font-size="147" x="1192.1" y="1565">F(i,j</tspan><tspan font-style="italic" font-size="147" x="1448.19" y="1565">-</tspan><tspan font-style="italic" font-size="147" x="1496.89" y="1565">1)+d</tspan></text><path d="M1281.5 2180.5C1251.68 2180.5 1227.5 2176.46 1227.5 2171.45L1227.5 1890.55C1227.5 1885.54 1203.33 1881.5 1173.5 1881.5 1203.33 1881.5 1227.5 1877.46 1227.5 1872.45L1227.5 1591.55C1227.5 1586.54 1251.68 1582.5 1281.5 1582.5" stroke="#000000" stroke-width="3.4375" stroke-linejoin="round" stroke-miterlimit="10" fill="none" fill-rule="evenodd"/><text font-family="Times New Roman,Times New Roman_MSFontService,sans-serif" font-style="italic" font-weight="400" font-size="147" transform="matrix(1 0 0 1 473.978 1545)">F(0,0)<tspan font-style="normal" font-size="147" x="416.505" y="-5">=</tspan><tspan font-style="normal" font-size="147" x="569.94" y="0">0</tspan><tspan font-weight="700" font-size="92" x="1962.49" y="159">x</tspan><tspan font-weight="700" font-size="61" x="2008.32" y="181">i</tspan><tspan font-family="SimSun,SimSun_MSFontService,sans-serif" font-style="normal" font-size="92" x="2048.43" y="159">与</tspan><tspan font-weight="700" font-size="92" x="2163.01" y="159">y</tspan><tspan font-weight="700" font-size="61" x="2203.69" y="181">j</tspan><tspan font-family="SimSun,SimSun_MSFontService,sans-serif" font-style="normal" font-size="92" x="2236.34" y="159">配对</tspan><tspan font-weight="700" font-size="92" x="1962.49" y="345">x</tspan><tspan font-weight="700" font-size="61" x="2008.32" y="367">i</tspan><tspan font-family="SimSun,SimSun_MSFontService,sans-serif" font-style="normal" font-size="92" x="2048.43" y="345">与一个空位配对</tspan><tspan font-weight="700" font-size="92" x="1952.56" y="558">y</tspan><tspan font-weight="700" font-size="61" x="1993.24" y="580">j</tspan><tspan font-family="SimSun,SimSun_MSFontService,sans-serif" font-style="normal" font-size="92" x="2033.34" y="558">与一个空位配对</tspan></text></g></svg>