<?xml version="1.0" encoding="utf-8"?>
<!-- Generator: Adobe Illustrator 16.0.0, SVG Export Plug-In . SVG Version: 6.00 Build 0)  -->
<!DOCTYPE svg PUBLIC "-//W3C//DTD SVG 1.1//EN" "http://www.w3.org/Graphics/SVG/1.1/DTD/svg11.dtd">
<svg version="1.1" id="Layer_1" xmlns="http://www.w3.org/2000/svg" xmlns:xlink="http://www.w3.org/1999/xlink" x="0px" y="0px"
	 width="806px" height="800px" viewBox="0 0 806 800" enable-background="new 0 0 806 800" xml:space="preserve">
<g>
	<g>
		<path d="M388.431,26.134c17.042-0.992,34.169-0.555,51.169,0.939c7.012,1.355,14.118,1.921,21.193,2.87
			c22.57,3.415,45.118,7.844,66.642,15.623c77.677,25.813,145.792,78.722,190.985,146.858
			c23.125,34.479,39.996,73.034,50.625,113.127c13.201,51.468,15.495,105.741,6.286,158.085
			c-13.979,81.422-56.121,157.658-117.566,212.85c-65.33,59.397-152.354,94.303-240.647,96.288
			c-69.226,2.103-138.855-15.826-198.615-50.796c-11.034-6.541-22.046-13.264-32.024-21.364
			c-30.253-22.335-57.252-49.12-79.917-79.138c-24.843-33.273-44.019-70.794-56.28-110.48
			c-12.926-41.096-17.909-84.507-16.17-127.479c1.921-69.973,24.875-139.111,64.775-196.586
			c19.07-27.661,42.269-52.333,67.741-74.178c35.781-30.264,77.474-53.474,121.994-68.094c24.363-8.174,49.686-13.158,75.169-16.21
			C371.912,26.881,380.192,26.603,388.431,26.134z M386.809,40.892c-37.008,2.348-73.652,10.404-108.25,23.775
			c-63.303,24.448-120.031,66.579-160.038,121.568c-45.225,61.317-70.548,137.073-70.943,213.288
			c0.544,52.108,12.529,104.056,34.767,151.18c17.362,36.944,41.01,70.934,69.598,100.076
			c61.83,62.064,146.72,100.588,234.193,105.935c20.574,1.761,41.267,0.427,61.733-1.89
			c86.907-10.671,169.823-53.506,227.607-119.465c56.719-64.636,89.427-149.868,90.056-235.889
			c-0.331-100.215-44.436-199.586-119.135-266.527c-31.214-27.884-67.304-50.272-106.082-66.012
			C491.825,47.434,439.077,37.723,386.809,40.892z"/>
	</g>
	<g>
		<path d="M321.948,70.782c3.853-2.017,2.807-7.448,6.402-9.828c1.398,2.07,2.498,4.428,4.387,6.125
			c3.938,0.459,7.213-1.964,10.639-3.426c3.713-1.259,5.912,2.433,7.801,4.898c1.996,2.443,2.048,5.837,1.419,8.793
			c-1.579,7.886-6.829,15.483-14.736,18.023c-3.906,1.088-6.063,4.738-8.484,7.672c6.318-2.944,12.112-7.384,19.102-8.61
			c-0.139,1.909,0.875,4.609-1.174,5.783c-6.861,4.364-14.972,6.915-20.691,12.912c6.872-3.232,13.478-7.821,21.268-8.345
			c3.073,0.149,4.545,2.731,5.015,5.463c-1.439,2.337-2.476,5.08-4.662,6.852c-2.349,1.247-4.931,1.941-7.471,2.668
			c-0.118-1.388-0.214-2.765-0.299-4.142c-2.177-0.427-4.269-1.846-6.499-1.579c-2.262,2.061-4.333,4.354-6.04,6.872
			c-0.096,4.738-0.267,10.811,4.354,13.627c3.147,2.593,6.787-0.843,10.18-0.992c1.878,1.814,2.273,5.165-0.064,6.798
			c-4.78,1.313-10.403,0.319-13.916-3.329c-3.874-4.738-4.908-11.056-4.962-17.011c-4.717,2.7-9.571,5.347-13.274,9.412
			c-4.558,4.515-7.875,10.042-11.761,15.089c-0.972-0.565-1.899-1.174-2.795-1.824c7.481-11.375,18.088-20.105,26.849-30.402
			c-4.482,1.611-8.389,6.221-13.51,4.749c-0.021-0.608-0.064-1.825-0.085-2.433c4.471-3.628,10.372-5.635,13.69-10.575
			c-2.166,0.299-4.3,0.822-6.392,1.44c-0.619-1.194-2.124-2.177-1.708-3.702c0.289-3.757,4.406-5.059,7.021-6.97l0.513,0.704
			c0.181,0.459,0.555,1.377,0.735,1.835c2.668-1.59,5.977-2.967,6.809-6.285c-2.135,0.896-4.023,2.337-6.189,3.127
			c-0.043-0.256-0.139-0.758-0.182-1.003c2.252-2.197,5.08-3.767,7-6.307c-2.326,0.384-4.791,0.982-6.553,2.636
			c-1.077,1.602-1.696,3.437-2.699,5.08c-2.999,0.268-4.791-2.785-6.605-4.706c0.032-3.052,1.782-6.028,0.917-9.209
			c-2.358,0.961-4.621,2.146-6.723,3.575c0.246,5.677,1.302,11.28,3.318,16.594c-2.39,1.867-5.934,0.801-7.374-1.729
			c-3.959-5.977-6.029-13.606-4.664-20.725c0.214-2.443,2.529-3.691,4.119-5.229c1.431,1.206,2.817,2.444,4.194,3.714
			c2.156-1.27,4.514-2.284,6.478-3.863c2.637-2.38,2.061-7.139,5.581-8.644C321.575,66.226,321.511,68.627,321.948,70.782z
			 M334.647,74.026c-0.396,2.455,1.984,3.959,3.265,5.677c-1.271,4.065-2.71,8.078-4.172,12.08c0.938-0.427,1.878-0.854,2.838-1.27
			c4.034,1.505,6.69-2.294,8.762-5.102c2.358-3.159,4.022-7.374,2.326-11.237C346.001,68.413,337.016,69.32,334.647,74.026z
			 M326.825,74.208c-1.271,1.89,0.438,3.917,2.476,3.82C332.022,76.47,328.682,74.272,326.825,74.208z M341.146,108.74
			c-1.738,1.398-3.585,2.646-5.421,3.906c2.519,0.961,5.037,2.229,7.802,2.272c2.476-1.023,3.415-3.746,4.694-5.891
			C345.874,108.719,343.504,108.687,341.146,108.74z"/>
	</g>
	<g>
		<path d="M473.908,70.089c0.842-2.753,6.167-4.396,6.008-0.267c-0.907,5.143-2.743,10.073-4.792,14.865
			c1.174,2.497,4.995,1.249,7.236,2.102c-0.225-2.604-0.331-5.218-0.386-7.833c0.694-0.139,2.071-0.406,2.753-0.544
			c0.651-3.232-0.832-7.907,3.105-9.423c2.081-1.59,4.396,0.854,4.279,3.02c-0.011,2.497-1.024,4.835-1.622,7.225
			c2.571-1.003,5.772-4.13,8.355-1.644c1.835,1.494,4.215,3.8,2.903,6.382c-0.813,2.209-3.383,2.935-5.496,2.54
			c-2.604-0.896-4.418-3.095-6.35-4.92c-1.238,2.07-2.765,3.948-4.473,5.656c6.787,1.419,13.606,2.838,20.147,5.144
			c2.636,0.821,5.208,3.275,4.877,6.221c0.405,1.569-1.431,2.028-2.541,2.209c-5.015-0.448-9.583-2.839-14.48-3.853
			c0.054,3.959-2.999,6.008-6.083,7.693c-0.053,1.345-0.256,2.657-0.607,3.927c-1.761,1.719-4.397,1.762-6.639,2.349
			c1.261,0.406,2.529,0.821,3.8,1.249c-0.556,1.322-1.11,2.646-1.675,3.959c-1.579,0.501-3.159,0.981-4.675,1.633
			c2.742,2.86,7.16,2.102,10.714,3.02c0.149,1.964-0.159,4.184-2.124,5.154c-3.286,0.523-6.595-0.672-9.85-0.235
			c-3.212,3.757-4.066,9.136-7.938,12.39c-1.708,0.938-3.703,1.151-5.539,1.729c-0.747-0.971-1.506-1.953-2.241-2.913
			c0.063-1.505,0.128-3.009,0.191-4.514c1.645-0.096,3.329-0.043,4.974-0.331c2.134-1.558,3.223-4.396,3.223-6.99
			c-4.557-1.836-9.721-0.971-14.522-1.163l-0.192,0.48c0.673,2.113,3.575,1.409,5.197,2.188c-1.75,2.273-3.244,4.813-5.433,6.691
			c-1.334,0.277-2.679-0.075-4.002-0.148c-0.299-1.88-0.704-3.768-0.683-5.678c0.662-1.354,1.868-2.348,2.796-3.521
			c-1.302-1.526-1.846-3.266-1.43-5.24c3.724-0.619,7.427-1.334,11.119-2.124c-0.938-1.078-1.867-2.156-2.773-3.233
			c1.248-1.622,2.806-2.944,4.706-3.734c-1.697-0.715-3.362-1.504-4.995-2.326c0.406-2.593,1.953-4.642,3.917-6.296
			c-3.948-1.206-3.351-5.368-3.297-8.633c-6.274-0.171-12.539,0.374-18.803,0.245c-1.922-0.011-3.224-1.729-4.771-2.604
			c0.961-2.785,3.415-4.76,6.382-4.951c9.327-0.65,18.654,0.342,27.98,0.299C470.269,80.034,471.816,74.912,473.908,70.089z
			 M464.24,101.153c3.083-0.384,6.2-0.565,9.295-0.96c1.387-0.736,2.145-2.326,3.265-3.404c1.152,0.95,2.316,1.921,3.479,2.893
			c2.082-1.067,3.885-2.572,5.378-4.365c-5.122-1.249-10.395-1.676-15.526-2.839C469.714,96.298,467.302,99.072,464.24,101.153z"/>
	</g>
	<path d="M457.848,78.434c0.523-2.294,2.326-4.108,4.194-5.41c2.721-1.174,5.613,0.096,8.323,0.683
		c-2.486,3.159-4.322,7.321-8.504,8.548C459.544,83.193,458.125,80.28,457.848,78.434z"/>
	<path d="M343.515,120.82c4.365,0.843,6.095-4.375,10.042-5.101c0.257,1.718,0.428,3.446,0.779,5.153
		c4.823,1.228,9.775-1.142,14.673-0.373c1.782,0.117,3.5,1.121,4.322,2.753c-2.061,1.569-4.344,2.796-6.479,4.259
		c-7.971,1.046-16.103-0.054-23.968,1.707c-0.427-0.363-1.27-1.1-1.695-1.463c-3.042-1.397-6.243-2.39-9.381-3.521
		c1.271-1.271,2.241-3.255,4.184-3.596C338.5,120.415,341.007,120.799,343.515,120.82z"/>
	<g>
		<path d="M198.63,134.084c2.54-3.159,5.73-5.74,9.498-7.299c1.451,1.846,3.617,3.991,2.454,6.574
			c-2.476,4.695-7,7.78-10.447,11.685c-1.505,1.579,0.512,3.404,1.014,4.951c3.628-2.966,6.925-6.274,10.126-9.679
			c1.719-1.718,4.653-4.023,6.873-1.708c4.108,4.226,8.089,9.252,8.697,15.335c0.213,5.507,0.182,11.184-1.654,16.455
			c5.678-2.315,11.589-4.023,17.096-6.755c2.358-0.875,6.008-2.871,7.672,0.075c0.641,2.465-1.601,4.418-2.486,6.542
			c-7.523,3.787-15.196,7.608-23.647,8.729c2.988,4.226,6.381,8.153,9.455,12.326c-0.917,1.792-1.867,3.585-2.881,5.335
			c-5.517-2.646-7.726-8.688-12.144-12.517c-1.846,0.96-1.376,3.553-2.027,5.238c-2.326,9.231-3.532,19.539-10.533,26.646
			c-0.662-9.732,2.583-19.123,4.525-28.546c-3.361,1.835-7.214,1.046-10.853,1.408c-3.832,0.064-7.107-2.325-10.565-3.616
			c-5.026-1.976-9.198-7.354-7.928-12.945c1.12-4.514,3.756-8.43,5.634-12.635c-5.527,2.656-7.619,9.081-12.837,12.016
			c-3.596,1.452-6.254-2.742-5.432-5.869c1.164-4.119,4.237-7.289,7.246-10.18c3.768-3.884,7.908-7.363,11.962-10.927
			c-1.985-3.896-7.118-8.015-4.588-12.688c0.555-1.74,2.817-1.697,4.034-0.694c2.679,2.038,4.205,5.154,6.424,7.619
			C195.611,138.14,196.923,135.728,198.63,134.084z M205.951,157.284c2.646,0.427,6.68-0.736,8.057,2.369
			c1.217,1.697,0.171,3.66-0.16,5.453c0.448,0.629,1.344,1.889,1.793,2.508c3.457-2.251,7.619-5.667,6.499-10.341
			c-1.035-3.97-3.959-7.438-7.332-9.711C211.714,150.657,207.936,153.25,205.951,157.284z M190.339,174.22
			c3.457,3.639,7.64,6.487,12.101,8.75c1.558-2.7,2.935-5.507,4.727-8.068c0.608,0,1.825,0.011,2.422,0.021
			c-0.949-0.746-1.899-1.482-2.838-2.22c-2.081,1.761-5.635,4.142-7.801,1.206c-3.425-3.661,1.26-7.78,2.7-11.248
			C195.824,163.868,193.786,170.122,190.339,174.22z"/>
	</g>
	<path d="M480.353,131.929c0.939-1.024,1.825-2.103,2.871-3.021c2.337,0.512,5.037,2.146,5.026,4.855
		c0.992,2.678-2.379,4.951-4.759,4.044c-1.933-1.559-3.597-3.427-5.699-4.781C478.646,132.665,479.5,132.302,480.353,131.929z"/>
	<path d="M620.222,141.619c2.166-2.156,5.433-1.771,8.229-2.134c0.448,0.459,1.366,1.366,1.825,1.825
		c-0.106,2.743-0.214,5.549-1.408,8.067c-0.813-0.074-2.412-0.234-3.212-0.319c-4.759,3.531-9.412,7.171-14.107,10.789
		c4.086,1.964,8.143,3.99,12.282,5.815c0.608-0.459,1.813-1.377,2.422-1.836c1.515,1.931,3.297,3.799,4.13,6.157
		c0.331,2.903-2.284,4.781-4.034,6.659c-0.928,1.439-2.55,0.875-3.831,0.352c-6.584-2.945-13.179-5.912-19.678-9.007
		c-7.887,1.664-14.577,6.968-22.538,8.43c-8.024,1.024-16.188,4.119-24.288,2.188c-4.472-1.1-2.668-6.424-2.945-9.765
		c7.886,2.689,16.775,3.063,24.49-0.447c4.558-2.124,9.614-3.053,13.915-5.764c-3.436-2.315-7.257-4.343-11.524-4.087
		c-2.443-2.369-3.041-6.989,0.406-8.739c3.563-1.024,7.684-2.519,11.204-0.588c3.906,1.579,7.258,4.322,11.248,5.721
		c2.156,0.117,3.714-1.867,5.476-2.881C612.72,149.121,616.359,145.236,620.222,141.619z"/>
	<g>
		<path d="M379.339,147.584c45.47-4.737,92.264,2.434,133.925,21.396c35.066,15.698,66.43,39.463,91.24,68.776
			c24.885,29.453,43.123,64.498,52.738,101.848c11.621,44.627,11.012,92.371-1.805,136.667
			c-11.546,40.295-33.177,77.645-62.331,107.749c-25.835,26.7-57.443,47.85-92.104,61.264
			c-48.693,19.166-103.245,22.655-154.125,10.641c-37.852-9.006-73.675-26.637-103.715-51.415
			c-32.345-26.209-57.945-60.604-74.251-98.88c-22.111-51.564-26.22-110.375-12.528-164.713
			c8.761-33.796,24.043-66.033,45.503-93.63c25.664-33.508,59.695-60.484,98.08-78.018
			C325.022,157.796,351.988,150.732,379.339,147.584z M385.816,157.337c-49.142,4.119-96.863,23.359-135.249,54.307
			c-22.901,18.429-42.354,41.042-57.541,66.193c-18.621,31.471-30.445,67.005-33.817,103.438
			c-5.368,54.359,8.281,110.288,37.648,156.303c19.283,30.094,44.873,56.228,74.998,75.531
			c40.381,26.241,88.583,40.125,136.71,39.826c22.036,0.096,43.858-3.832,65.147-9.252c54.328-14.652,103.01-48.843,135.707-94.59
			c24.79-34.404,40.52-75.298,45.086-117.471c0.192-7.159,1.014-14.289,1.355-21.438c0.683-24.608-2.454-49.303-9.178-72.972
			c-16.423-57.935-54.615-109.487-105.592-141.629C495.389,166.269,439.92,152.514,385.816,157.337z"/>
	</g>
	<g>
		<path d="M316.367,180.302c55.533-22.592,119.594-23.37,175.606-1.933c36.091,13.553,68.82,35.91,94.475,64.701
			c29.004,32.206,49.013,72.458,57.176,115.026c3.117,15.035,4.717,30.35,5.411,45.673c-0.693,27.361-5.794,54.573-14.577,80.494
			c-1.259,3.169-1.91,7.522-5.891,8.334c-27.574,8.91-56.665,12.005-85.499,13.179c-29.518,1.985-59.184,1.281-88.646-1.173
			c-22.452-1.324-44.905-2.668-67.25-5.4c-21.033-2.807-42.184-4.759-63.377-5.645c-9.06-0.79-18.152-0.833-27.222-0.672
			c-10-0.128-19.999-0.268-29.987-0.011c-15.495,0.607-30.83,3.329-45.865,7.021c-10.575,2.593-21.065,5.677-31.075,10.01
			c-12.752-25.792-20.457-54.007-23.339-82.606c-2.358-21.258-1.088-42.771,2.348-63.836c6.958-41.734,25.451-81.39,52.524-113.862
			C246.566,219.146,279.551,195.071,316.367,180.302z M407.116,194.986c-6.317,13.969-12.336,28.076-18.611,42.066
			c12.379,0.053,24.747,0.043,37.115,0.011C419.356,223.083,413.657,208.837,407.116,194.986z M379.605,257.338
			c18.236,0.022,36.474,0.022,54.712-0.01c-2.552-5.208-3.906-11.301-7.428-15.869c-13.359-0.31-26.753,0.032-40.124-0.16
			C384.205,246.571,382.007,251.992,379.605,257.338z M370.78,277.594c24.105,0.021,48.213,0.021,72.318,0
			c-2.091-5.091-4.375-10.106-6.53-15.164c-19.699,0.042-39.409,0.01-59.119,0.01C375.23,267.487,372.989,272.534,370.78,277.594z
			 M286.189,275.522c-3.319,7.812-6.595,15.634-9.988,23.413c6.851,0.117,13.702,0.075,20.553,0.032
			C293.221,291.156,289.902,283.248,286.189,275.522z M525.632,276.312c-3.468,7.522-6.638,15.185-10.138,22.687
			c6.681,0.012,13.361,0.054,20.041-0.043C532.109,291.465,529.217,283.739,525.632,276.312z M367.653,284.486
			c-2.081,4.845-4.193,9.657-6.285,14.491c30.359,0.054,60.72,0.021,91.08,0.021c-2.081-4.845-4.27-9.646-6.223-14.545
			C420.039,284.433,393.841,284.379,367.653,284.486z M266.618,321.793c13.414-0.171,26.849,0.405,40.252-0.319
			c-2.391-4.962-4.545-10.031-6.84-15.036c-9.017,0.096-18.023,0-27.041,0.053C270.897,311.613,268.603,316.639,266.618,321.793z
			 M351.273,321.761c36.997,0.097,73.994,0.011,110.992,0.043c-2.092-5.165-4.321-10.256-6.616-15.324
			c-32.516-0.032-65.031,0.043-97.547-0.032C355.745,311.506,353.525,316.639,351.273,321.761z M512.292,306.853
			c-2.614,4.802-4.481,9.967-6.712,14.951c13.188,0,26.39-0.012,39.591,0.011c-2.113-4.994-3.959-10.127-6.488-14.918
			C529.996,306.181,520.989,306.223,512.292,306.853z M262.819,330.458c-2.134,5.154-4.322,10.298-6.574,15.398
			c20.478,0.033,40.967,0,61.456,0.021c-2.422-5.09-4.663-10.266-6.915-15.431C294.8,330.383,278.804,330.383,262.819,330.458z
			 M347.677,330.5c-2.839,4.889-4.536,10.34-7.139,15.356c44.094,0.043,88.198-0.021,132.303,0.033
			c-2.252-5.145-4.493-10.299-6.723-15.453C426.634,330.447,387.15,330.309,347.677,330.5z M501.664,330.458
			c-2.134,5.165-4.418,10.255-6.638,15.377c20.2,0.064,40.401,0.032,60.612,0.032c-2.294-5.101-4.493-10.245-6.604-15.42
			C533.24,330.394,517.447,330.373,501.664,330.458z M252.393,355.034c-1.943,4.664-3.949,9.305-5.923,13.947
			c27.169,0.011,54.328,0,81.497,0.011c-2.134-4.621-4.257-9.263-6.243-13.948C298.61,354.98,275.496,354.991,252.393,355.034z
			 M336.568,355.002c-1.964,4.686-4.098,9.307-6.114,13.97c50.838,0.063,101.666-0.032,152.493,0.053
			c-2.135-4.643-4.119-9.337-6.167-14.001C430.038,354.991,383.298,355.023,336.568,355.002z M491.078,355.034
			c-1.942,4.642-3.906,9.294-5.869,13.938c26.742,0.063,53.484-0.032,80.228,0.043c-1.922-4.696-3.959-9.35-5.955-14.013
			C536.677,355.034,513.883,354.97,491.078,355.034z M236.77,391.914c112.849-0.032,225.688,0.032,338.537-0.032
			c-1.761-3.969-3.383-8.003-5.187-11.94c-109.413,0.063-218.826,0.021-328.239,0.021
			C240.164,383.942,238.466,387.923,236.77,391.914z M230.655,406.235c-1.537,3.714-3.116,7.417-4.685,11.12
			c120.063,0.063,240.125,0,360.189,0.032c-1.537-3.746-3.139-7.449-4.749-11.152C464.496,406.246,347.57,406.235,230.655,406.235z
			 M215.427,442.454c127.191,0.064,254.383-0.011,381.563,0.032c-1.323-2.956-2.604-5.943-3.811-8.953
			c-123.818-0.042-247.638,0.012-371.458-0.031C217.124,433.159,217.284,439.54,215.427,442.454z M206.794,462.665
			c-1.003,2.358-2.039,4.706-3.074,7.064c134.981,0.01,269.952-0.032,404.922,0.021c-1.014-2.348-2.006-4.694-2.986-7.043
			C472.702,462.634,339.748,462.729,206.794,462.665z"/>
	</g>
	<path d="M594.974,176.418c2.785-0.769,7.118-2.422,8.42,1.26c0.331,7.63,2.902,14.918,6.083,21.791
		c2.221,4.845,7.311,7.906,8.452,13.316c1.067,3.148-2.027,5.229-4.013,7.043c-1.654-2.858-4.46-2.815-7.278-1.877
		c-3.959-5.229-6.926-11.184-9.817-17.063C593.01,193.289,594.76,184.549,594.974,176.418z"/>
	<g>
		<path d="M675.51,261.649c-1.889-3.063,1.152-6.595,4.087-7.459c4.631-0.694,8.9,2.314,11.494,5.9
			c1.323,2.54,1.516,5.581,3.361,7.887c2.923-4.61,5.496-11.61,11.866-11.856c2.508-0.299,5.005-0.79,7.545-0.928
			c2.593,1.644,3.895,4.738,6.52,6.424c3.267,2.113,4.686,6.467,2.37,9.829c-1.057,0.619-2.06,1.259-3.052,1.942
			c1.376,1.644,2.422,3.586,3.991,5.09c1.653,0.65,3.425,0.971,5.165,1.387c0.427,0.683,1.27,2.049,1.686,2.721
			c-1.397,2.027-3.767,1.985-5.965,2.018c-0.288,0.555-0.864,1.665-1.153,2.22c-1.163,0.042-2.314,0.107-3.447,0.17
			c-1.439,1.579-3.414,2.134-5.484,1.579c-1.953,1.217-4.055,2.22-6.328,2.646c-0.363-2.092-0.384-4.216-0.747-6.297
			c-2.839-3.095-7.758-5.346-7.043-10.394c2.55,1.963,4.94,4.14,7.384,6.243c0.16-1.186,0.311-2.369,0.47-3.543
			c-3.543-0.875-8.12-3.649-7.331-7.833c1.665-1.933,4.524-2.636,5.347-5.314c-3.746,1.868-6.979,4.674-9.071,8.323
			c4.952,8.751,9.828,17.544,13.553,26.902c2.07-1.825,2.668-4.524,3.756-6.915c1.121-0.16,2.251-0.256,3.404-0.289
			c1.366-0.608,3.212-2.006,4.578-0.544c0.992,2.124,2.444,4.802,1.237,7.106c-1.313,1.91-3.469-0.021-5.132-0.182
			c-0.93,0.95-1.837,1.911-2.732,2.871c1.451,0.47,2.913,0.95,4.375,1.431c2.22-0.929,5.176-1.227,6.414-3.618
			c0.31-2.901-1.494-5.549-1.889-8.388c0.374-1.483,2.251-1.932,3.223-2.967c4.13,3.19,6.307,8.59,5.729,13.745
			c-0.202,2.282-2.422,3.659-4.375,4.375c-5.047,1.813-10.403,0.288-15.505-0.32c1.505,4.429,5.09,9.38,2.294,14.054
			c-2.017,1.611-4.877,1.89-7.342,1.504c-2.764-0.735-4.087-3.425-5.293-5.752c0.599-1.088,1.195-2.177,1.793-3.254
			c-1.302-1.44-2.145-3.682-4.076-4.301c-4.685,1.281-7.277-3.532-11.022-5.314c-0.48,1.398-0.971,2.796-1.441,4.194
			c1.654,4.729,4.482,9.209,4.43,14.374c-5.453,0.47-9.637-3.436-12.636-7.48c-4.599,0.064-9.614,1.015-13.787-1.462
			c-4.706-2.593-9.21-6.04-11.931-10.756c-1.121-4.802,4.3-6.531,6.968-9.337c3.617,4.653,2.637,12.24,8.249,15.313
			c2.583-0.183,6.104,0.79,7.982-1.451c-3.607-9.295-9.273-17.586-14.15-26.219c-0.938-1.805-1.941-4.387-0.288-6.073
			c1.644-1.143,4.396-1.419,5.656,0.459c2.326,3.232,3.233,7.32,5.954,10.33c2.583,2.859,4.184,6.392,6.457,9.465
			c4.588,0.779,8.345,3.489,12.026,6.179c-2.839-5.218-5.561-10.532-9.253-15.217c-1.952-2.369-3.063-5.261-3.5-8.281
			c1.739-0.245,3.489-0.479,5.25-0.715c2.146,1.782,3.746,4.087,5.026,6.552c3.756,6.969,8.292,13.585,11.066,21.056
			c-1.334,4.098,3.767,4.93,6.231,6.7c-6.05-15.687-14.854-30.113-23.349-44.563C681.828,264.626,676.919,265.672,675.51,261.649z
			 M707.204,262.78c2.465,3.084,6.84,4.802,7.758,8.932c-1.611,0.459-3.223,0.917-4.834,1.376c2.678,1.431,5.41,2.743,8.186,3.971
			c-0.044-2.146-0.097-4.29-0.15-6.424c-1.248-2.657-1.687-5.561-1.899-8.452C713.287,260.849,710.074,261.553,707.204,262.78z
			 M710.245,276.803c0.896,1.963,1.612,4.065,2.914,5.825c1.782,1.782,4.375,2.358,6.626,3.33
			C720.554,280.281,714.151,278.862,710.245,276.803z"/>
	</g>
	<g>
		<path d="M130.164,259.686c1.643-1.963,3.319-4.771,6.253-4.621c5.389,0.544,10.191,3.275,15.132,5.304
			c3.618,1.44,7.118,3.532,9.498,6.68c2.444,4.856,4.45,10.33,2.444,15.72c-1.676,0.938-3.383,1.836-5.133,2.625
			c-2.913,5.923-5.069,12.196-6.712,18.579c-2.966,6.766-5.699,13.658-7.694,20.788c-1.302,4.312-2.775,8.836-5.966,12.154
			c-3.297,0.608-7.267,0.736-10.127-1.366c-7.129-4.822-13.969-10.243-19.454-16.913c-3.852-4.664-5.635-11.217-3.927-17.096
			c2.145-4.781,6.659-7.908,11.205-10.19c-7.044-8.75-19.017-12.411-24.406-22.646c-3.158-3.458-0.374-10.383,4.599-9.658
			c6.073,1.483,9.871,7,14.844,10.395c7.129,5.837,14.876,10.81,22.517,15.932c3.351,2.167,6.563,4.632,10.277,6.168
			c2.497-4.802,4.546-9.839,6.499-14.876c0.864-2.026,1.12-4.664-0.705-6.254c-3.159-2.667-6.765-4.951-10.735-6.178
			c-1.28,0.341-2.518,0.758-3.746,1.249C132.949,263.816,131.466,261.799,130.164,259.686z M115.832,298.583
			c0.01,2.306-0.106,4.631,0.021,6.938c3.137,7.619,8.986,14.214,16.466,17.777c2.796-5.976,4.364-12.441,6.435-18.695
			c-3.938-1.952-7.63-4.493-11.856-5.794C123.216,298.615,119.514,298.722,115.832,298.583z"/>
	</g>
	<path d="M684.325,483.848c-0.128-3.863,1.281-7.523,2.646-11.056c1.825,5.655,7.022,9.007,10.49,13.563
		c3.415,4.962,9.775,6.274,15.356,7.075c0.949-1.302,1.932-2.572,2.999-3.778c-1.024,6.253-3.244,12.262-5.507,18.163
		c-0.276-1.75-0.427-3.521-0.512-5.272c-4.034-2.453-8.708-5.016-13.574-3.927c-5.624,0.93-11.418,0.865-16.935,2.444
		c2.913,1.345,6.008,2.401,8.654,4.29c-2.401,0.139-4.803-0.096-7.183,0.191c-2.272,0.513-3.383,2.785-4.664,4.493
		c8.688,3.831,17.202,8.089,26.06,11.524c1.836-0.736,2.956-2.55,4.471-3.756c-1.664,6.019-4.183,11.78-6.958,17.361
		c-0.17-1.855-0.148-3.713-0.341-5.549c-2.06-1.898-4.749-2.859-7.213-4.077c-6.36-2.881-12.528-6.188-18.975-8.867
		c-0.106,2.368-1.142,5.164,0.641,7.182c1.354,1.847,2.987,3.479,4.354,5.335c-3.19-1.216-6.157-2.923-9.327-4.172
		c0.428,1.665,0.812,3.639,2.657,4.311c7.331,3.884,14.588,7.95,22.059,11.579c2.017-0.363,3.318-2.295,5.047-3.287
		c-2.188,5.592-4.803,11.024-7.833,16.199c-0.149-1.782-0.106-3.574-0.032-5.335c-7.149-4.749-14.854-8.59-22.335-12.773
		c-2.188-1.61-4.375,0.704-6.307,1.517c7.159-14.471,13.776-29.272,18.663-44.682c0.556-1.771,1.323-3.468,2.273-5.068
		c0.106,1.633,0.267,3.266,0.469,4.897c5.165-0.159,10.319-0.747,15.419-1.579c-3.831-3.682-6.915-8.217-11.546-10.979
		C686.342,481.158,685.349,482.514,684.325,483.848z"/>
	<path d="M116.76,484.413c3.201-5.292,12.282-6.198,15.708-0.704c2.273,3.021,2.017,6.979,2.092,10.554
		c0.48,0.171,1.419,0.522,1.9,0.693c0.704,5.794,3.617,10.971,5.26,16.509c-1.483-0.832-2.646-2.326-4.322-2.732
		c-3.746,0.993-7.16,2.913-10.714,4.429c1.11,3.244,2.412,6.425,3.81,9.563c3.511-1.878,7.331-3.244,10.618-5.519
		c0.373-1.643,0.607-3.317,0.682-5.004c2.593,4.696,4.684,9.658,6.499,14.694c-1.249-0.875-2.444-1.804-3.639-2.732
		c-4.471,1.677-8.633,4.066-12.901,6.189c-4.983,2.604-10.287,4.749-14.588,8.441c-1.537-4.312-3.682-8.389-5.058-12.753
		c1.452,1.004,2.828,2.113,4.205,3.224c3.991-1.612,7.854-3.511,11.706-5.389c-1.185-3.287-2.497-6.51-3.884-9.71
		c-3.789,1.974-7.972,3.2-11.536,5.591c-0.715,1.174,0.47,5.123-1.302,4.386c-2.401-5.026-4.076-10.383-5.784-15.688
		c1.398,0.992,2.625,2.315,4.183,3.096c4.322-0.844,8.185-3.096,12.262-4.643c4.247-1.91,8.793-3.232,12.826-5.581
		c0.555-1.622,1.024-3.275,1.409-4.94c-3.35,1.344-6.691,2.796-10.245,3.521c2.113-2.838,5.271-5.048,6.318-8.559
		c0.821-2.54-0.128-5.773-2.625-6.968c-2.466-0.79-5.496,0.683-6.254,3.189c-1.366,4.29-1.238,8.943-2.849,13.158
		c-2.305,5.805-10.832,8.355-15.484,3.842c-3.885-3.714-4.439-9.337-4.557-14.417c-0.64-0.544-1.921-1.633-2.561-2.188
		c4.162-1.537,8.377-3.042,12.784-3.692c-2.465,2.774-6.008,4.716-7.523,8.249c-1.057,2.946-0.459,6.617,1.846,8.825
		c2.614,2.241,7.053,0.491,7.875-2.732C114.21,493.9,114.071,488.66,116.76,484.413z"/>
	<g>
		<path d="M598.271,520.856c10.512-4.963,19.529-12.379,28.952-19.06c-7.438,17.469-17.521,33.785-28.939,48.917
			c-24.427,32.354-57.508,57.935-94.591,74.187c-29.912,13.254-62.514,19.816-95.104,21.343
			c-18.675-0.299-37.243-3.073-55.512-6.775c-19.721-3.618-38.299-11.61-56.142-20.5c-39.334-20.073-73.109-50.998-96.052-88.774
			c2.22-0.812,4.536-1.334,6.873-1.697c13.189-2.037,26.4-4.022,39.708-5.025c34.842-1.846,69.833-0.864,104.526,2.743
			c22.143,2.688,44.286,5.293,66.311,8.813c16.307,1.985,32.676,3.352,49.035,4.707c27.788,0.864,55.79,0.981,83.312-3.521
			C567.132,533.512,583.79,529.489,598.271,520.856z M236.599,535.998c4.535,2.136,9.103,4.248,13.862,5.87
			c15.452,5.39,31.118,10.159,47.007,14.128c10.564,3.276,21.524,4.823,32.313,7.14c23.263,3.287,46.729,5.943,70.27,5.645
			c42.131,0.599,84.208-5.762,124.737-17.074c4.322-1.482,8.537-3.275,12.913-4.599c-21.588,2.945-43.4,2.379-65.127,2.018
			c-13.948-0.993-27.874-2.241-41.769-3.811c-19.262-1.601-38.234-5.496-57.465-7.278c-24.79-2.924-49.696-5.688-74.688-4.907
			C277.929,532.146,257.238,534.302,236.599,535.998z M453.429,594.765c-0.811,4.962-0.213,10.042-0.394,15.057
			c-0.161,3.683,0.544,8.078,4.149,9.989c5.955,3.009,13.266,2.752,19.391,0.309c2.807-1.151,4.566-4.098,4.375-7.106
			c-0.117-3.725,0.863-8.078-1.537-11.27c-4.13-3.66-10.255-3.223-14.908-0.811c0.011-2.614-0.16-5.25,0.149-7.843
			c1.259-1.516,3.298-0.651,4.962-0.747c0.085,1.313,0.17,2.625,0.267,3.959c3.788-0.043,7.587-0.032,11.386-0.053
			c-0.587-2.156-0.918-4.718-2.935-6.052c-4.503-3.052-10.34-3.02-15.538-2.391C458.851,588.385,454.198,590.39,453.429,594.765z
			 M351.251,589.771c-3.564,2.295-7.651,3.458-11.77,4.269c-0.012,1.132-0.012,2.284-0.012,3.438
			c2.604,0.203,5.442-0.298,7.801,1.088c1.077,7.47-0.054,15.121,0.385,22.677c4.055,0.074,8.131,0.042,12.196,0.054
			c0.118-10.863-0.042-21.717,0.064-32.569C357.025,588.864,353.781,587.978,351.251,589.771z M375.636,590.625
			c-3.072,2.135-2.871,6.223-2.881,9.54c0.021,2.979-0.182,6.756,2.657,8.612c4.215,2.936,9.7,2.006,14.172,0.203
			c-0.021,3.02-0.224,6.051-0.843,9.028c-1.398-0.213-2.774-0.523-4.12-0.918c-0.203-0.896-0.586-2.689-0.779-3.575
			c-3.831-0.021-7.662-0.085-11.481,0.075c0.875,2.764,2.006,5.9,4.951,7.063c5.496,2.092,11.729,1.963,17.33,0.32
			c3.438-1.003,6.125-4.279,5.977-7.929c0.096-5.773,0.32-11.567-0.149-17.319c-0.299-3.596-3.596-6.115-6.86-6.947
			C387.716,587.231,380.896,587.221,375.636,590.625z M418.684,589.132c-2.443,0.948-4.983,2.731-5.367,5.526
			c-1.195,6.008-0.684,12.219-0.533,18.301c0.011,4.259,3.436,7.95,7.587,8.592c5.368,1.045,11.589,1.354,16.315-1.847
			c3.832-2.731,3.181-7.938,3.224-12.048c-0.288-4.982,0.812-10.352-1.398-15.015C433.869,586.965,425.119,586.868,418.684,589.132z
			"/>
	</g>
	<g>
		<path d="M124.774,540.405c10.042-1.291,19.988-3.223,29.997-4.716c-7.054,10.063-16.359,18.536-22.452,29.292
			c1.003,0.918,1.996,1.846,3.009,2.774c6.926-3.874,13.361-8.56,20.094-12.752c2.721-1.355,2.935-4.664,3.916-7.183
			c1.665,2.454,3.49,4.876,4.61,7.651c-2.849,7.918-6.338,15.622-8.996,23.625c4.301-3.147,8.729-6.157,12.773-9.625
			c2.038-1.418,0.939-4.119,1.26-6.146c3.778,4.813,7.043,10.011,10.864,14.791c2.55,3.201,4.674,7.064,4.354,11.302
			c-0.011,3.606-2.113,6.647-4.001,9.55c3.82-2.048,8.216-4.204,12.635-2.893c4.151,0.993,7.811,4.014,9.134,8.143
			c2.358,5.815-0.533,12.133-4.162,16.732c-3.554,4.258-8.633,8.078-14.449,7.79c-8.388-0.427-15.1-9.731-12.539-17.81
			c0.683-2.689,2.369-4.941,3.98-7.139c-4.706,3.212-11.216,4.344-16.018,0.683c-5.24-4.066-8.857-9.861-12.336-15.42
			c1.408,0.673,2.796,1.377,4.183,2.112c5.399-3.511,10.287-7.735,15.398-11.62c2.433-1.964,5.133-3.671,7.15-6.083
			c0.949-2.284-2.284-4.087-3.906-2.401c-8.388,5.901-16.178,12.646-24.8,18.216c2.593-11.034,7.171-21.492,11.194-32.057
			c-5.624,3.777-11.397,7.342-16.925,11.259c-2.54,1.387-1.397,4.471-1.632,6.787c-4.674-7.086-9.092-14.438-12.454-22.25
			c0.982,0.8,2.946,2.391,3.927,3.18c1.868-1.632,3.714-3.329,5.154-5.346c-1.132-3.159-2.871-6.05-4.461-8.996
			c-2.166,0.396-4.333,0.822-6.488,1.271c-0.054,1.835-0.085,3.659-0.16,5.506c-1.835-2.486-3.18-5.271-4.685-7.95
			c0.395-0.726,0.789-1.451,1.195-2.156C119.887,541.25,122.758,540.651,124.774,540.405z M131.679,541.537
			c1.238,2.434,2.465,4.866,3.692,7.311c2.657-3.17,5.389-6.264,8.078-9.401C139.522,540.129,135.616,540.918,131.679,541.537z
			 M154.792,597.859c2.071,2.839,5.336,5.378,9.05,3.875c6.616-2.688,12.219-8.004,15.687-14.215
			c1.846-3.021,0.555-6.574-2.092-8.602C169.989,585.343,161.879,591.03,154.792,597.859z M191.182,600.474
			c-4.865,2.177-8.899,5.857-12.485,9.743c-2.198,2.604-4.557,5.538-4.717,9.103c-0.299,3.628,3.938,6.895,7.321,5.282
			c5.624-1.921,9.657-6.669,13.371-11.098c2.23-3.116,5.09-6.767,4.194-10.854C197.862,599.524,193.765,599.023,191.182,600.474z"/>
	</g>
	<g>
		<path d="M660.773,536.629c3.628,1.909,7.267,3.862,10.574,6.307c-4.333,0.395-10.361-1.814-12.88,3.02
			c-2.476,3.564,2.412,8.218,6.05,6.659c4.151-1.622,7.438-5.025,11.846-6.071c6.787-1.058,13.83,6.008,11.674,12.848
			c-0.693,3.714-3.703,6.21-5.667,9.229c-1.408,3.479-3.521,6.596-5.603,9.7c-6.136-0.395-12.229-1.249-18.376-1.419
			c3.352,2.774,6.734,5.604,10.564,7.727c1.59-0.544,3.116-1.261,4.706-1.878c-7.587,12.025-16.338,23.358-25.953,33.827
			c-0.085-2.081,1.665-4.706-0.406-6.264c-5.857-5.72-12.068-11.055-18.12-16.562c-1.407-2.092-5.624-0.47-4.075,2.08
			c5.005,10.31,11.354,19.987,15.719,30.616c-10.735-3.81-20.425-10-30.701-14.822c-1.729-1.313-2.753,1.345-3.927,2.124
			c5.784,7.063,12.005,13.766,18.151,20.51c1.431,1.761,3.585,0.352,5.294-0.118c0.159,0.213,0.457,0.64,0.607,0.854
			c-3.948,3.371-7.427,7.319-11.781,10.212c0.32-1.794,1.131-3.479,1.206-5.305c-3.756-5.132-8.271-9.657-12.25-14.608
			c-2.124-2.306-3.884-5.154-6.775-6.573c-1.046,0.811-2.028,1.665-2.968,2.572c6.371,9.167,14.406,17.063,20.83,26.197
			c-10.81-2.112-21.183-6.008-31.501-9.774c4.888,6.072,8.772,12.986,14.321,18.493c1.143-0.245,3.425-0.758,4.578-1.015
			c-2.551,2.871-5.72,5.037-8.996,6.969c0.491-2.134,2.454-4.609,0.618-6.647c-4.46-6.232-8.953-12.454-13.552-18.579
			c-1.355-1.408-5.977-2.913-5.134,0.555c3.757,6.596,8.975,12.272,12.593,18.974c1.408,2.54,2.026,5.869,0.502,8.516
			c-2.178,3.714-6.137,6.308-10.395,6.895c-3.458,0.224-6.572-1.953-8.388-4.749c-4.087-6.115-7.331-12.774-11.75-18.676
			c-1.067-0.031-3.19-0.085-4.247-0.116c3.874-2.925,8.057-5.411,12.293-7.78c-0.736,1.409-1.366,2.871-1.878,4.375
			c1.302,3.703,3.896,6.766,5.88,10.116c3.201,4.727,5.518,10.649,11.151,13.029c2.284-1.194,5.153-2.357,5.965-5.059
			c0.929-4.29-2.188-7.865-4.375-11.172c-3.127-4.162-5.646-8.804-9.177-12.646c-1.654-0.405-3.373-0.288-5.047-0.417
			c4.183-3.201,8.525-6.188,12.709-9.412c7.651,2.968,15.408,5.688,23.284,8.025c-3.458-3.979-6.595-8.238-10.095-12.176
			c-1.452-2.061-4.226-0.865-6.243-1.11c8.517-7.268,16.572-15.024,24.759-22.645c-0.386,1.151-1.164,3.446-1.549,4.599
			c5.935,3.948,12.519,6.766,18.856,9.989c-3.31-6.254-6.435-12.657-10.438-18.504c-1.578,0.522-3.137,1.057-4.717,1.525
			c6.286-7.534,12.881-14.821,18.761-22.697l0.812-0.021c3.233,1.249,5.848,3.853,7.907,6.595c-2.945-0.598-5.997-3.298-8.964-1.548
			c-2.412,1.186-3.854,3.564-5.325,5.699c3.393,2.892,6.69,5.912,10.031,8.889c0.629-1.696,1.984-3.436,1.313-5.313
			c-0.896-2.038-2.209-3.831-3.191-5.806c5.145,3.447,9.936,7.491,14.269,11.92c-2.562-0.65-4.94-2.188-7.608-2.24
			c-1.259,0.683-2.348,1.59-3.468,2.465c3.703,2.913,6.767,6.809,11.034,8.899c3.031-2.295,5.218-6.157,4.663-10.021
			c-0.555-2.7-1.803-5.165-2.55-7.79c3.03,2.156,5.356,5.111,7.769,7.907c0.064-2.049,1.376-4.664-0.822-6.029
			c-6.84-5.453-13.702-10.906-20.819-15.975c-0.992,0.63-2.028,1.078-3.116,1.345c-0.448-2.198,1.782-3.725,2.731-5.496
			c3.053-3.927,5.262-9.135,10.148-11.12c3.553-1.473,7.651,0.727,9.765,3.64c1.622,2.326,1.078,5.282,1.195,7.949
			c5.271,0.16,10.553,0.363,15.836,0.268c-2.786-1.933-5.698-3.726-8.132-6.094c3.276,0.311,6.531,1.483,9.85,1.046
			c3.319-0.556,5.442-3.853,5.624-7.054c-0.693-2.753-3.575-5.484-6.563-4.6c-3.777,1.568-6.958,4.386-10.938,5.485
			c-5.677,1.941-11.803-2.86-13.062-8.303c-0.907-4.566,2.4-8.302,5.699-10.938C661.232,539.264,660.922,537.503,660.773,536.629z
			 M645.78,567.393c3.649,3.404,7.843,6.158,11.802,9.188c1.014-2.337,2.625-5.186,1.057-7.65c-1.975-2.358-4.664-4.545-7.812-4.888
			C648.49,563.68,647.316,566.145,645.78,567.393z"/>
	</g>
	<path d="M385.272,592.844c1.462-1.249,4.087-0.032,3.979,1.932c0.416,3.18,0.501,6.479-0.106,9.646
		c-0.32,2.38-4.589,2.283-4.803-0.106c-0.256-3.648-0.417-7.374,0.192-10.992L385.272,592.844z"/>
	<path d="M424.104,593.271c1.419-0.651,3.938-1.43,4.236,0.833c0.235,7.278,0.311,14.598,0,21.876
		c0.01,2.273-3.521,2.38-4.087,0.288C423.87,608.616,424.233,600.933,424.104,593.271z"/>
	<path d="M464.698,604.828c1.109-1.75,4.312-1.558,4.94,0.534c0.342,3.575,0.106,7.171,0.085,10.768
		c-0.672,0.427-2.017,1.292-2.688,1.718c-0.896-0.886-2.54-1.377-2.422-2.893C464.4,611.584,464.304,608.179,464.698,604.828z"/>
	<path d="M205.333,616.748c2.208-1.995,1.718-5.196,2.198-7.854c2.102,1.974,4.204,3.959,6.317,5.954
		c-1.537,8.153-2.487,16.423-3.394,24.672c3.404-4.322,6.979-8.516,10.213-12.955c1.377-1.771-0.278-4.065-0.363-5.976
		c2.562,2.026,5.614,3.724,7.193,6.732c-1.227-0.32-2.444-0.65-3.66-0.992c-7.321,8.121-13.585,17.127-20.713,25.431
		c-0.587-3.64-0.107-7.321,0.203-10.949c0.768-7.438,1.59-14.886,2.956-22.239c-4.706,5.346-9.551,10.576-14.182,15.986
		c-1.793,1.898,0.191,4.29,0.555,6.371c-3.052-2.209-5.816-4.781-8.334-7.566c2.038-0.075,4.664,1.526,6.222-0.374
		C195.632,627.719,200.37,622.127,205.333,616.748z"/>
	<path d="M217.146,638.037c4.333-4.599,10.874-8.813,17.395-6.487c4.055,0.821,6.125,4.631,8.035,7.886
		c1.195-0.416,2.401-0.811,3.618-1.206c-2.167,3.906-4.578,7.694-7.534,11.055c0.267-3.575,1.238-7.171,0.544-10.746
		c-0.629-2.849-3.606-5.688-6.659-4.363c-4.898,1.835-8.131,6.253-11.162,10.287c-2.465,3.639-5.261,7.684-4.781,12.305
		c0.182,3.052,3.287,4.45,5.475,5.997c2.412-2.422,4.588-5.154,5.997-8.281c-0.267-1.792-1.643-3.211-2.326-4.833
		c4.471,2.646,9.124,5.239,12.848,8.931c-1.056-0.159-3.18-0.49-4.236-0.65c-2.177,2.668-4.077,5.539-6.008,8.377
		c-6.125-1.292-12.688-4.173-15.526-10.139C209.963,649.989,212.877,642.786,217.146,638.037z"/>
	<g>
		<path d="M259.03,684.318c8.217-7.341,15.079-16.071,23.2-23.498c-0.736,10.757-2.636,21.428-3.084,32.229
			c0,2.017,0.96,3.885,1.526,5.795c-4.589-1.89-9.327-3.565-13.542-6.243c1.644-0.106,3.276-0.256,4.909-0.438
			c0.555-2.348,0.779-4.737,0.971-7.128c-2.615-1.216-5.208-2.465-7.779-3.745c-1.697,1.653-3.351,3.36-4.941,5.121
			c0.95,1.441,1.889,2.86,2.796,4.345c-3.116-1.131-6.157-2.509-8.943-4.29C255.743,685.706,257.558,685.334,259.03,684.318z
			 M266.746,679.527c2.198,1.1,4.408,2.166,6.616,3.266c0.448-4.056,1.056-8.078,1.611-12.111
			C272.22,673.616,269.531,676.614,266.746,679.527z"/>
	</g>
	<g>
		<path d="M513.061,670.489c4.354-2.263,8.965-3.991,13.563-5.688c-0.875,1.27-1.835,2.498-2.604,3.842
			c0.097,3.042,1.856,5.709,2.913,8.505c2.828,6.167,4.889,12.699,8.346,18.568c2.455-1.206,5.453-1.985,7-4.45
			c2.124-3.17,1.194-7.15,1.45-10.704c2.669,3.223,3.031,7.619,4.397,11.45c-10.052,4.77-20.372,8.942-30.852,12.678
			c-1.322,0.458-2.699,0.747-4.087,0.854c0.93-1.26,2.178-2.23,3.362-3.233c-1.397-2.049-2.465-4.503-4.557-5.933
			c-2.796,0.607-5.454,1.665-8.164,2.57c0.063,2.316-0.213,4.717,0.438,6.99c1.516,0.384,3.042,0.715,4.589,1.003
			c-4.609,2.508-9.85,3.415-14.844,4.876c-4.226-4.48-8.281-9.145-12.71-13.435c0.833,4.012,1.537,8.089,2.956,11.95
			c0.651,1.933,3.276,1.441,4.664,2.466c-4.834,1.761-9.892,3.052-15.036,3.468c1.228-1.645,4.055-2.7,3.083-5.133
			c-1.003-5.794-2.593-11.473-3.724-17.234c-0.715-3.03-1.121-6.243-2.753-8.953c-1.847-0.598-4.407,0.395-3.649,2.731
			c1.013,7.502,3.521,14.791,3.926,22.378c0.79,10.436-16.987,13.316-20.222,3.734c-2.06-7.256-1.996-14.939-3.5-22.303
			c-0.341-1.227-1.302-2.154-1.974-3.169c0.085,3.298,0.576,6.584,0.64,9.903c-2.198-3.639-3.745-8.676-8.931-8.623
			c0.917,9.839,1.515,19.742,3.126,29.506c1.558,0.48,3.116,0.993,4.664,1.526c-5.197,1.909-10.863,1.59-16.307,1.909
			c1.569-1.516,4.738-2.24,4.279-4.962c-0.523-9.07-1.366-18.119-2.102-27.169c-1.708,0.694-3.863,0.96-4.856,2.722
			c-1.088,2.241-1.547,4.717-2.508,7.011c-0.789-3.564-0.832-7.224-0.886-10.854c11.718-0.512,23.307-2.314,34.948-3.563
			c-1.162,0.928-2.38,1.803-3.585,2.688c0.107,6.895,1.762,13.648,2.646,20.468c0.587,2.945,1.419,6.724,4.706,7.748
			c4.438,1.27,8.74-3.234,7.854-7.651c-0.971-6.755-2.422-13.457-3.874-20.126c-0.384-2.454-3.34-2.583-5.133-3.597
			c5.271-1.547,10.725-2.326,16.049-3.66c3.671-0.907,7.577-1.9,11.333-0.843c3.97,1.473,5.879,6.21,5.314,10.212
			c-0.278,2.337-2.337,3.832-3.671,5.592c4.044,3.948,7.961,8.036,12.283,11.685c1.813-11.855-0.075-23.945,0.928-35.854
			c7.063,8.804,13.446,18.236,21.279,26.39c1.547,2.614,5.538,0.021,4.257-2.401c-2.988-7.896-6.157-15.75-9.443-23.53
			C517.542,670.595,514.608,671.301,513.061,670.489z M477.429,683.561c1.271,4.599,2.38,9.242,3.5,13.873
			c1.985-1.013,5.166-1.59,5.262-4.364c0.106-3.361-0.779-6.979-3.116-9.476C481.517,681.896,479.233,683.017,477.429,683.561z
			 M503.66,684.895c0.021,3.874,0.096,7.748,0.16,11.621c2.327-0.747,4.652-1.505,6.979-2.241
			C508.344,691.202,506.028,688.022,503.66,684.895z"/>
	</g>
	<path d="M293.381,673.84c3.458-2.86,8.334-3.64,12.582-2.294c2.305,1.003,3.97,2.987,5.763,4.694
		c1.143-0.726,2.295-1.44,3.457-2.134c-1.259,4.29-2.465,8.654-4.557,12.646c-0.96-4.354-0.501-10.053-4.652-12.892
		c-3.36-2.177-6.937,1.014-8.687,3.778c-3.575,5.879-6.574,12.549-6.68,19.539c-0.128,3.948,4.546,7.864,8.217,5.763
		c1.462-2.743,2.54-5.752,2.977-8.825c-1.078-1.1-2.305-2.039-3.446-3.042c5.144,0.085,9.796,2.689,14.608,4.227
		c-1.482,0.447-2.945,0.95-4.386,1.505c-1.622,2.688-2.241,5.837-3.244,8.793c-5.901,0.929-12.528-0.224-16.988-4.429
		c-3.404-3.126-4.504-8.131-3.554-12.55C285.645,682.836,288.921,677.543,293.381,673.84z"/>
	<g>
		<path d="M316.815,676.092c5.527,1.867,11.504,2.604,16.689,5.378c5.208,2.679,5.016,10.606,0.843,14.129
			c-1.547,1.11-3.382,1.664-5.122,2.411c1.696,5.102,2.742,10.437,4.728,15.441c1.803,1.602,3.223-0.821,3.532-2.38
			c1.813-7.812,3.553-15.634,5.239-23.466c0.641-2.284-2.026-3.596-3.042-5.283c4.76,0.972,9.625,1.612,14.258,3.139
			c-1.611,1.056-4.834,0.82-4.931,3.382c-1.729,7.801-3.201,15.655-4.823,23.477c-1.131,2.775,2.263,3.991,3.629,5.827
			c-7.277-1.067-14.459-2.658-21.566-4.493c-1.59-5.858-2.529-11.877-4.429-17.64c-1.517,4.15-2.689,8.42-3.618,12.73
			c1.142,1.121,2.284,2.264,3.36,3.447c-5.175-1.014-10.606-1.932-15.163-4.717c1.077-0.096,3.232-0.288,4.311-0.384
			c3.319-8.121,5.464-16.668,8.164-24.993C320.07,679.773,317.722,678.002,316.815,676.092z M322.087,694.904
			c2.113,0.021,4.759,0.897,6.349-1.013c1.996-2.689,2.871-6.232,2.582-9.54c-0.49-2.199-2.741-3.01-4.662-3.468
			C324.349,685.354,323.346,690.188,322.087,694.904z"/>
	</g>
	<path d="M353.738,692.547c2.422-3.745,6.626-6.425,11.162-6.425c3.158-0.213,5.592,2.156,8.334,3.299
		c0.459-0.386,1.354-1.164,1.804-1.549c4.61,0.608,9.284,0.716,13.851,1.688c-1.376,0.672-2.699,1.419-3.979,2.241
		c-1.366,7.063-1.333,14.32-2.017,21.47c-0.353,3.383,1.345,7.929,5.367,7.822c4.29,0.374,7.043-3.853,7.064-7.715
		c0.234-6.104,0.587-12.208,0.758-18.302c0.565-2.773-2.38-3.959-3.98-5.591c7.087-0.118,14.172,0.234,21.258,0.149
		c-1.708,1.58-4.846,2.614-4.216,5.507c0.106,8.569-0.33,17.17,0.32,25.718c2.583,1.216,5.891,0.79,8.271-0.736
		c3.223-2.24,3.905-6.414,6.008-9.498c0.181,4.185-0.523,8.324-0.886,12.486c-8.238,0.171-16.487,0.405-24.715,0.075
		c1.805-1.568,4.974-2.689,4.365-5.656c0.021-7.854,0.234-15.719,0.245-23.563c0.354-2.444-2.828-3.884-4.204-1.739
		c-1.525,7.993-0.128,16.316-1.782,24.299c-1.921,10.042-19.433,8.814-20.511-1.152c-0.213-7.534,1.537-14.973,1.814-22.484
		c0.384-1.665-1.045-2.679-2.007-3.692c-0.629,3.554-0.918,7.171-1.504,10.746c-2.348-3.628-2.679-8.847-6.787-11.098
		c-2.742-1.953-6.094,0.438-7.342,2.999c-3.009,5.933-4.162,12.772-3.895,19.399c0.021,3.896,3.127,7.833,7.225,7.748
		c3.692-0.191,6.424-2.924,9.039-5.208c0.298,0.406,0.907,1.229,1.206,1.633c-2.679,2.38-5.441,5.134-9.177,5.613
		c-5.784,0.662-12.112-2.593-14.161-8.206C348.232,706.078,349.907,698.437,353.738,692.547z"/>
</g>
</svg>
