<?xml version="1.0" encoding="utf-8"?>
<!-- Generator: Adobe Illustrator 16.0.0, SVG Export Plug-In . SVG Version: 6.00 Build 0)  -->
<!DOCTYPE svg PUBLIC "-//W3C//DTD SVG 1.1//EN" "http://www.w3.org/Graphics/SVG/1.1/DTD/svg11.dtd">
<svg version="1.1" id="Layer_1" xmlns="http://www.w3.org/2000/svg" xmlns:xlink="http://www.w3.org/1999/xlink" x="0px" y="0px"
	 width="1207px" height="313.451px" viewBox="0 0 1207 313.451" enable-background="new 0 0 1207 313.451" xml:space="preserve">
<g>
	<g>
		<g>
			<path fill="#FFFFFF" d="M710.057,52.65c2.273,0.462,4.548,0.934,6.842,1.297c0.619,1.121,1.249,2.251,1.867,3.394
				c-2.081,2.769-2.304,6.24-1.838,9.646c5.654,0.088,11.36-0.363,16.942,0.879c3.868,3.702,9.126,8.536,7.157,14.854
				c-2.69,8.932-7.319,17.49-14.16,23.412c-3.787,2.494-7.147,5.636-10.213,9.097c-5.178,0.516-10.364,1-15.531,1.691
				c-6.009,0.923-11.979,2.154-17.927,3.462c-1.686,0.396-3.411,0.109-5.097-0.11c0.03-1.604,0.081-3.186,0.133-4.779
				c3.196-3.538,7.583-5.13,11.277-7.866c0.456-2.593-2.183-3.977-3.412-5.778c-2.639,0.988-5.318,1.076-7.876-0.176
				c-0.061-2.065-0.375-4.175,0.051-6.207c2.161-2.263,5.208-3.604,6.517-6.702c-4.924-0.726-10.832,2.374-11.44,8.196
				c-0.437,5.965,3.717,10.656,5.411,16.029c-0.862,1.153-1.716,2.318-2.567,3.483c-0.519-0.022-1.533-0.078-2.041-0.11
				c-2.641-2.385-5.492-4.681-7.106-8.053c-3.34-7.417-4.629-16.337-1.726-24.181c1.716-4.944,4.091-10.865,9.451-11.909
				c0.689,1.484,1.381,2.977,2.061,4.494c3.593,0.494,6.607-1.868,9.644-3.548c0.031-3.121-0.354-6.295,0.203-9.361
				c2.274-3.922,6.09-7.173,10.537-7.152c0.802,1.077,1.695,2.099,2.385,3.273c0.143,4.438-3.269,8.009-3.156,12.48
				c3.583-0.439,7.806-1.56,9.876-5.042C707.478,62.417,706.615,56.693,710.057,52.65z M716.168,82.708
				c1.929,1.823,4.396,2.658,6.832,3.361c0.021,2.801-0.527,5.823-2.741,7.591c-4.578,4.098-9.846,7.833-12.231,14.007
				c3.491-0.363,7.236-0.901,9.938-3.559c-0.376-0.758-1.127-2.286-1.502-3.043c5.229-3.406,11.318-6.537,13.826-12.986
				c1.361-2.779-0.396-5.58-1.311-8.151C724.522,79.28,720.005,80.115,716.168,82.708z M694.82,87.388
				c3.44,0.835,6.802-0.329,9.948-1.77c-0.121-0.571-0.365-1.713-0.487-2.285C700.982,84.257,697.784,85.564,694.82,87.388z
				 M698.728,98.594c-0.589,1.527-1.166,3.076-1.686,4.647c0.792,0.308,1.583,0.626,2.386,0.945
				c1.117-1.252,2.234-2.494,3.351-3.735C701.418,99.824,700.079,99.209,698.728,98.594z"/>
		</g>
		<g>
			<path fill="#FFFFFF" d="M552.653,57.044c0.984-1.504,2.375-4.12,4.375-2.921c2.942,0.702,5.531,3.151,6.242,6.372
				c1.604,4.735,0.133,9.722-0.11,14.556c7.288-0.472,14.525-2.944,21.854-1.548c1.025,1.472,3.138,2.57,2.863,4.713
				c-0.213,2.131-2.163,3.351-3.583,4.559c-6.223,4.142-13.774,4.329-20.678,6.284c-1.005,2.878-1.198,5.944-0.6,8.964
				c8.07-0.494,15.948-3.042,24.079-2.581c4.73,5.734,6.081,13.974,5.563,21.423c-1.32,10.338-8.903,17.819-16.882,22.697
				c0.01,0.769,0.051,2.285,0.071,3.054c-4.122,1.043-8.293,1.813-12.445,2.681c0.192,1.669-0.66,3.988,1.087,4.933
				c6.171,4.91,12.322,10.216,19.754,12.732c7.603,2.561,15.216,5.195,23.042,6.898c-0.091,1.867-0.183,3.748-0.274,5.625
				c-2.526,0.484-5.044,0.957-7.583,1.341c-1.533,1.813-3.126,3.581-4.698,5.36c-2.071-1.549-4.193-3.043-6.498-4.164
				c-9.685-4.438-18.708-10.338-27.824-15.961c-0.68,9.393,0.983,18.808,0.01,28.201c-2.294,2.922-6.607,2.866-8.862-0.1
				c-0.183-11.712-0.122-23.424-0.396-35.134c-0.822-0.121-1.624-0.231-2.437-0.341c-8.242,9.35-18.108,16.743-27.388,24.795
				c-4.974,4.021-9.38,8.91-14.821,12.228c0.65-3.153,2.244-5.933,4.274-8.261c6.426-7.701,12.73-15.514,19.115-23.236
				c2.648-3.45,7.521-5.8,7.42-10.909c-1.411-0.099-2.822-0.187-4.224-0.274c-0.426-5.229,3.858-8.789,7.816-10.678
				c2.954-1.758,7.604-2.527,7.705-7.054c-3.218,0.309-6.486,0.32-9.511-1.098c0.313-1.604,0.669-3.197,1.035-4.79
				c3.756-2.307,7.906-3.823,11.521-6.383c0.274-0.659,0.822-1.978,1.097-2.637c-8.151-1.099-15.805,3.208-22.952,6.877
				c-0.73,6.427,2.375,12.37,2.355,18.73c-0.508,1.077-1.167,2.055-1.767,3.077c-1.573-0.396-3.938,0.219-4.508-1.979
				c-2.242-6.262-4.416-12.831-4.162-19.653c0.062-4.032-0.324-8.273,1.238-12.064c2.609-6.602,8.334-10.766,12.121-16.456
				c-0.7-2.889-3.847-1-5.695-0.846c-0.699-0.253-2.091-0.769-2.791-1.021c-0.629-1.66-1.229-3.329-1.827-4.988
				c2.052-2.801,4.609-5.218,7.816-6.295c6.436-2.263,13.207-2.999,19.866-4.086C554.023,70.931,551.232,63.889,552.653,57.044z
				 M541.253,97.759c-2.873,2.483-7.471,4.581-6.406,9.437c5.208-2.208,10.547-3.988,15.988-5.416
				c0.396-0.604,1.188-1.813,1.583-2.417c-0.172-2.12-0.396-4.229-0.741-6.317C547.679,92.849,544.288,95.232,541.253,97.759z
				 M564.601,113.392c-1.178,0.549-1.076,2.098-1.492,3.197c2.143-0.22,4.264-0.692,6.345-1.286
				c0.567,0.374,1.695,1.131,2.253,1.506c0.152,2.965,0.122,5.954-0.143,8.92c-0.862,0.703-1.716,1.428-2.578,2.153
				c-1.938,0.834-4.324,1.461-5.391,3.636c-0.243,1.681-0.192,3.384-0.203,5.098c1.065-0.802,2.133-1.604,3.207-2.395
				c7.767,0.528,14.029-6.394,16.09-13.997c0.863-3.845-0.283-7.909-2.883-10.656C574.58,109.723,569.108,110.25,564.601,113.392z"
				/>
		</g>
		<g>
			<path fill="#FFFFFF" d="M1136.882,59.978c5.329-4.812,12.719-2.681,18.668-0.593c0.904,2.57,0.853,5.339,0.761,8.063
				c-0.335,7.844,0.285,15.82-1.329,23.544c-1.898,5.064-5.44,9.238-6.791,14.589c5.563-1.516,11.207-3.021,17.003-2.318
				c2.223,5.086,1.288,10.81,0.161,16.062c-1.837,1.747-3.715,3.988-6.416,3.614c-3.572-0.176-6.923,1.098-10.14,2.593
				c-0.062-5.515,5.298-7.954,7.278-12.502c-8.6-0.604-17.084,1.165-25.521,2.681c-12.78,1.868-25.438,4.67-38.188,6.735
				c-4.142,0.824-8.466,1.461-12.17,3.724c-4.111,2.922-4.519,8.668-5.219,13.436c-1.513,1.571-3.705,2.153-5.521,3.197
				c-2.457-1.626-6.333-3.329-5.512-7.218c0.984-7.283,4.548-13.864,8.537-19.72c2.091,0.188,4.923-0.296,4.964,2.89
				c1.105-2.065,3.237-2.868,5.034-4.032c0.559-6.79-0.518-13.624,0-20.423c0.509-4.988,1.93-9.843,2.052-14.875
				c-0.701-2.626-2.193-4.954-2.538-7.712c6.07-4.68,13.003-8.009,20.189-10.096c2.335-0.242,5.045-1,7.229,0.12
				c0.943,2.396-0.457,4.889-0.893,7.241c-3.32,2.176-7.259,2.823-10.578,4.954c-2.751,2.527-5.351,5.757-5.867,9.767
				c3.674-2.615,7.745-4.307,12.232-3.56c0.305,0.626,0.913,1.9,1.218,2.538c-0.711,1.549-1.381,3.121-2.04,4.703
				c3.421-1.582,5.815-4.735,8.121-7.778c-1.098-0.67-2.172-1.351-3.249-2.021c0.295-2.318,1.168-4.449,2.385-6.372
				c1.697,0.022,3.421,0.044,5.137,0.066c1.025-3.186,0.233-8.009,3.817-9.35c2.284-1.296,5.317-0.626,5.999,2.351
				c-1.229,2.802-2.73,5.471-3.686,8.416c2.813,3.471,5.473,7.13,7.147,11.426c-1.188,2.757-3.36,4.702-5.106,7.008
				c-0.608,2.834,2.386,4.384,3.888,6.12c-0.101,2.582-0.629,5.658-3.034,6.867c-1.554,0.12-3.097-0.066-4.63-0.144
				c-0.589-1.043-1.178-2.076-1.756-3.098c-1.238-0.01-2.477-0.022-3.685-0.01c-2.213,2.625-5.319,5.284-8.821,4.186
				c-1.473-0.604-0.244-2.516,0.405-3.263c1.645-2.274,3.533-4.328,5.461-6.329c-2.578-1.406-2.456-4.69-3.552-7.162
				c-5.432,2.659-0.325,10.535-4.781,13.81c-3.451,3.208-8.416,2.285-12.374,4.032c-0.183,2.021-0.082,4.043-0.011,6.075
				c16.831-0.571,33.449-3.702,50.117-6.042c-0.387-1.757-0.793-3.515-1.168-5.273c1.543-0.044,3.087-0.066,4.649-0.087
				c4.202-8.119,5.188-17.6,4.416-26.74c-0.233-1.549-1.269-2.823-2.375-3.747c-4.578,0.132-8.852,2.296-13.369,2.934
				c-1.787-0.033-3.897-1.439-3.645-3.647C1129.828,65.064,1134.162,62.713,1136.882,59.978z M1117.768,79.983
				c-2.802,2.296-5.258,5.01-8.02,7.339c0.498,0.526,1.015,1.066,1.543,1.604c2.761,0.505,5.542,0.978,8.354,1.208
				c0.701-1.35,1.433-2.69,2.011-4.108C1121.454,83.389,1119.331,81.73,1117.768,79.983z M1090.999,92.288
				c-0.365,2.187-0.629,4.384-0.842,6.603c0.396-0.11,1.197-0.309,1.593-0.407c2.538-2.658,5.897-3.999,8.883-5.944
				c-0.061-0.67-0.192-1.988-0.254-2.658C1097.699,92.255,1094.329,92.584,1090.999,92.288z"/>
		</g>
		<path fill="#FFFFFF" d="M978.818,65.757c1.808-3.131,5.48-3.395,8.457-4.362c1.177,0.55,2.375,1.077,3.572,1.605
			c2.031,8.174-3.229,14.875-5.827,22.004c-2.05,4.933-1.694,10.481-1.289,15.732c1.381,1.385,2.375,3.944,4.599,3.692
			c3.024,0.23,5.492-1.934,7.969-3.472c6.263,0.616,11.42,5.944,13.379,12.239c-4.628,4.812-11.511,4.076-17.267,6.064
			c-5.025,1.801-11.207,2.021-14.852,6.69c-5.289,10.898-9.34,22.829-17.217,32.003c-11.084,12.193-23.916,22.355-36.503,32.639
			c-0.549-0.296-1.646-0.912-2.192-1.219c2.294-3.57,5.582-6.186,8.201-9.448c6.405-7.745,12.386-15.886,18.526-23.873
			c4.021-5.175,7.349-10.943,10.009-17.063c1.634-3.813,3.959-7.449,4.273-11.755c-7.461,0.769-15.298,4.35-22.586,0.922
			c-1.421-5.646,2.883-10.326,7.023-12.896c6.284-3.01,14.801-0.099,19.876-6.031c4.375-6.646,6.751-14.93,5.949-23.115
			C972.322,78.731,975.692,72.029,978.818,65.757z"/>
		<path fill="#FFFFFF" d="M847.615,68.657c1.816-3.263,5.807-3.361,8.873-2.582c2.517,3.438,1.146,8.338,2.313,12.381
			c1.462-2.538,2.6-5.285,3.553-8.075c2.144-0.241,4.873-1.143,6.396,1.133c2.192,2.108,1.36,5.481,1.472,8.272
			c-3.756,3.592-9.217,1.823-13.176,5.031c-0.528,2-1.056,3.988-1.471,6.021c9.063,1.625,17.53-3.703,26.545-2.626
			c1.756,0.417,4.05,0.231,5.064,2.208c0.519,2.582,0.548,6.065-2.142,7.24c-6.537,2.999-13.826,2.977-20.79,3.637
			c-2.955,6.811-9.471,9.964-15.064,13.677c3.513,0.265,6.699-1.681,10.142-1.966c2.151-0.209,4.009,1.208,5.897,2.098
			c-0.082,1.461-0.071,2.955-0.314,4.406c-3.208,3.614-7.675,5.285-11.786,7.316c-0.254,0.638-0.772,1.912-1.025,2.55
			c2.751,0.406,6.224-0.88,8.345,1.713c1.572,1.022,1.563,3.043,1.807,4.779c-2.659,1.911-5.37,3.735-8.263,5.196
			c-0.062,0.494-0.184,1.472-0.244,1.966c4.771-0.34,9.023-3.592,13.917-2.735c2.518-0.363,4.081,1.9,5.693,3.548
			c-0.313,4.812-4.485,8.448-8.78,8.635c-3.146,0.23-6.293,0.077-9.431,0.065c-0.923,11.504-5.755,22.425-13.369,30.466
			c-2.589,2.45-6.486,3.592-9.725,2.174c-2.151-2.272-3.37-5.328-4.902-8.074c-0.518-0.109-1.554-0.317-2.07-0.418
			c-1.179-1.582-2.7-2.625-4.628-2.351c-3.533,4.406-8.203,9.087-14.08,7.833c-0.965-0.604-1.939-1.176-2.903-1.734
			c-0.446-1.066-0.883-2.109-1.32-3.153c0.355-0.869,0.711-1.726,1.077-2.582c5.441-4.274,11.663-8.503,18.698-7.735
			c2.437-0.525,4.06,1.539,5.654,3.143c3.34-0.166,6.404,1.132,8.994,3.373c1.48,1.594,3.399,0.439,5.096-0.021
			c2.711-6.283,5.279-12.898,5.319-19.961c-6.191-0.506-11.998,2.164-17.846,3.911c-6.751,2.131-13.195,6.194-20.394,6.13
			c-2.202,0.043-3.715-4.055-1.299-5.109c8.485-6.734,19.021-9.15,28.473-13.787l-0.456-1.802c-2.182,0.187-4.325,0.725-6.457,1.219
			c-3.289,1.725-6.943,2.208-10.557,1.879c-0.579-2.428-1.106-5.833,1.513-7.163c6.171-3.493,14.343-4.383,17.957-11.745
			c-1.583,0.682-3.147,1.417-4.699,2.187c-5.837-0.318-11.055,3.846-16.942,2.549c-0.051-2.099-0.051-4.186,0-6.273
			c8.385-1.374,15.978-6.021,23.135-10.733c5.146-4.12,11.176-7.284,15.206-12.81c-8.161,1.098-16.222,3.229-24.464,3.471
			c-0.771,1-1.543,2.011-2.305,3.021c2.325-0.011,4.669,0.011,7.015,0.055c-0.041,1.988,0.041,3.998-0.244,5.987
			c-1.249,1.669-2.883,2.978-4.578,4.076c-2.924,0.549-4.721-2.45-6.71-4.196c-0.062-2.615-0.09-5.229-0.102-7.845
			c-6.436,2.396-13.48,2.494-19.632,5.846c-3.178,1.438-7.39,3.196-10.323,0.285c-0.6-0.869-2.121-2.593-0.904-3.494
			c9.604-7.679,21.693-9.734,33.174-11.897c-1.381-5.428-2.578-11.063-1.979-16.721c1.024-4.976,4.213-8.921,7.269-12.612
			c1.411,0.022,2.832,0.055,4.253,0.099c0.386,0.957,0.771,1.922,1.178,2.878c-1.237,3.681-3.036,7.075-4.648,10.569
			c-2.659,4.24,1.543,8.547,4.01,11.602c3.878,0.604,8.354-0.056,11.398-2.879c2.69-4.317,3.595-9.656,4.306-14.721
			c-1.543,0.099-3.086,0.197-4.619,0.296C846.681,73.392,846.092,70.678,847.615,68.657z"/>
		<g>
			<path fill="#FFFFFF" d="M399.949,89.409c0.041-6.185,3.198-12.634,8.679-14.93c3.066-0.516,6.679-0.659,8.964,2.021
				c8.243,7.778,11.41,20.061,11.674,31.53c-0.161,3.691,0.438,7.537-0.527,11.14c-1.086,8.152-3.715,16.04-7.391,23.246
				c-2.527,4.999-6.313,8.999-9.562,13.425c8.537,0.736,16.952-1.494,25.408-2.395c4.548-0.911,9.43-0.703,13.603-3.12
				c4.478-2.879,5.258-9.459,3.421-14.326c-1.553-4.614-4.497-8.415-7.349-12.14c-0.081-1.461-0.152-2.9-0.203-4.35
				c2.711-0.044,5.421,0.054,8.121,0.231c6.304,5.25,8.842,14.117,9.999,22.312c-0.619,12.052-6.305,23.455-14.618,31.366
				c-1.837,1.924-4.324,2.68-6.842,2.45c-4.71-7.69-14.131-5.978-21.349-5.011c-9.593,0.55-19.073,2.33-28.454,4.473
				c-7.004,1.77-14.354,2.395-21.479,1.152c-5.299-2.108-8.669-7.854-10.232-13.479c-0.589-5.878-0.07-11.81-0.242-17.709
				c3.685-7.031,9.542-14.633,17.702-14.48c9.085,1.132,16.131,8.097,23.755,12.876c1.391,1.032,3.034,1.407,4.699,1.505
				c3.106-6.163,7.959-11.426,9.432-18.446c1.421-8.306-0.376-16.885-3.756-24.378C410.74,96.254,405.258,92.485,399.949,89.409z
				 M376.033,144.175c-4.224,4.504-3.979,11.25-3.238,17.139c7.745-0.221,15.379-1.869,23.104-2.451
				c0.658-0.317,1.989-0.944,2.658-1.252c-1.807-4.735-4-9.392-6.923-13.424C387.869,139.088,379.555,138.451,376.033,144.175z"/>
		</g>
		<path fill="#FFFFFF" d="M1131.787,86.29c0.203-3.988,2.558-8.756,6.75-8.602c2.081,0.144,5.076-0.758,6.325,1.658
			c0.832,1.374,0.699,3.11,0.588,4.681c0.052,2.516-2.791,2.944-4.264,4.229c0.854,1.439,1.889,2.801,2.355,4.483
			c-0.822,4.361-4.7,8.315-9.014,7.536c-2.437,0.099-3.461-2.646-4.853-4.284c1.239-2.824,3.005-5.307,4.832-7.713
			C1133.828,87.784,1132.466,86.784,1131.787,86.29z"/>
		<path fill="#FFFFFF" d="M814.31,82.257c3.422-0.846,5.827,1.802,7.218,4.856c0.213,2.295,0.04,4.603-0.021,6.899
			c-2.518,1.11-5.035,3.099-7.878,2.482c-1.33-0.966-2.446-2.208-3.583-3.405C809.619,88.806,811.427,85.048,814.31,82.257z"/>
		<g>
			<path fill="#FFFFFF" d="M715.354,119.314c5.857-0.626,12.05-4.109,17.725-0.681c0.011,1.274,0.031,2.56,0.051,3.844
				c-4.284,2.396-8.821,4.9-13.806,4.527c-6.396-0.352-12.558,1.725-18.679,3.417c-4.739,1.429-9.733,2.724-13.663,6.12
				c1.949,0.813,4.091,0.725,6.091,0.143c7.847-2.307,15.248-6.196,23.165-8.195c3.827-0.638,9.421,2.416,8.841,7.218
				c-12.465,3.691-25.235,7.207-38.259,7.042c-1.573,0-3.076,0.494-4.578,0.911c-0.01,1.143-0.021,3.45-0.021,4.592
				c5.624-1.219,11.379-1.669,16.973-3.108c7.725-1.648,15.277-4.142,23.084-5.306c3.594-0.824,6.953,1.307,10.222,2.604
				c1.563,0.373,2.223,1.999,3.024,3.307c-1.908,1.253-3.837,2.538-5.979,3.274c-3.198,0.67-6.486,0.011-9.684,0.637
				c-3.229,0.944-6.335,2.56-9.725,2.724c-7.938,0.275-15.796,1.571-23.692,2.385c-0.803,3.679-1.523,7.382-2.314,11.083
				c3.381-2.273,6.771-5.229,10.852-5.767c5.319,0.165,9.928,3.429,14.802,5.351c10.729,4.625,22.393,6.063,33.863,6.185
				c4.762,0.626,9.491,4.866,8.953,10.448c-3.796,1.131-7.958,1.131-11.339,3.525c-1.746,0.868-3.411,2.735-5.48,2.021
				c-8.446-2.582-16.974-4.9-25.297-7.898c-1.533-0.527-3.127-0.781-4.689-1.033c0.711,4.813,0.801,9.701,0.741,14.578
				c-2.964,2.692-5.614,6.361-9.41,7.582c-7.167-1.297-13.166-6.395-18.911-10.921c-7.441-6.657-6.03-18.095-7.238-27.354
				c-3.958,8.14-7.685,16.424-11.968,24.367c-2.224,4.361-7.085,5.195-10.903,7.131c-0.375-0.221-1.126-0.67-1.502-0.891
				c0.315-2.076-0.041-4.537,1.462-6.141c7.441-7.646,12.202-17.645,18.02-26.664c2.041-2.734,1.888-6.24,2.021-9.536
				c1.522-4.691,4.478-8.734,5.563-13.634c-3.929,0.352-7.938,1.428-11.796-0.065c-0.082-2.802-0.021-5.603,0.264-8.394
				c11.348,0.583,21.967-4.252,32.94-6.493C701.723,120.511,708.544,119.83,715.354,119.314z M684.659,178.749
				c1.552,3.428,4.111,6.13,6.344,9.02c4.426-1.945,7.877-5.592,11.735-8.524c-0.041-0.912-0.122-1.813-0.213-2.704
				c-4.549-5.592-11.533-7.844-18.263-7.58C684.344,172.211,683.958,175.552,684.659,178.749z"/>
		</g>
		<path fill="#FFFFFF" d="M1108.854,123.488c9.106-1.966,18.242-4.778,27.622-4.086c2.365,0.198,4.325,1.813,6.375,2.944
			c0.446,1.472,1.057,2.901,1.238,4.46c-1.726,6.186-6.983,9.844-11.024,14.151c-0.121,0.735-0.364,2.197-0.498,2.933
			c4.519,0.022,8.984-1.615,13.491-0.813c2.69,0.495,4.854,2.34,6.69,4.417c-1.329,2.055-2.365,4.734-4.548,5.889
			c-4.386,0.604-8.821,0.033-13.216,0.285c1.197,7.351,2.121,15.446-1.482,22.214c-4.365,8.01-11.623,13.479-18.708,18.402
			c-2.162-0.045-4.306-0.066-6.456-0.1c0.313-1.582,0.66-3.152,1.056-4.701c-0.335-1.615-0.589-3.241-0.792-4.867
			c4.081-0.342,8.994,1.285,12.223-2.297c5.887-5.327,10.049-14.698,6.739-22.817c-1.137-2.758-4.365-1.956-6.547-1.692
			c-7.228,0.615-13.806,4.098-20.678,6.25c-4.729,0.979-9.603,0.824-14.394,0.639c2.477-4.9,5.177-10.086,9.947-12.767
			c5.157-3.637,11.553-3.186,17.288-4.987c6.294-1.473,10.75-6.845,15.604-11.009c2.294-1.911,4.354-4.372,4.72-7.635
			c-7.746,0.647-15.054,3.702-22.313,6.47c-3.674,1.33-4.842,6.263-8.253,7.911c-3.42-0.033-7.674-0.66-9.814-3.845
			c0.294-3.274,2.74-5.692,4.457-8.219C1100.318,126.751,1104.479,124.4,1108.854,123.488z"/>
		<path fill="#FFFFFF" d="M972.16,150.636c2.354-1.221,4.781-2.352,7.399-2.726c2.132,2.834,4.143,6.032,7.319,7.614
			c11.745,5.954,23.957,10.954,36.595,14.206c4.771,1.187,10.04,1.242,14.009,4.756c-0.011,0.473-0.021,1.418-0.03,1.89
			c-5.604,2.526-11.43,5.383-17.644,4.966c-7.156-0.021-13.755-3.395-20.647-4.966c-0.062-0.153-0.184-0.481-0.234-0.647
			c-7.369-1.89-14.678-5.646-19.134-12.535C977.276,159.019,972.921,155.788,972.16,150.636z"/>
		<path fill="#FFFFFF" d="M716.959,153.788c4.284-2.768,9.339-4.482,14.202-2.307c-0.031,2.736,0.232,5.559-0.467,8.241
			c-4.365,4.536-11.016,2.284-16.396,3.844c0.722-1.912,1.493-3.813,2.254-5.701C716.686,156.502,716.817,155.139,716.959,153.788z"
			/>
		<path fill="#FFFFFF" d="M860.264,159.544c4.04-0.242,9.767-2.186,12.304,2.428c1.208,1.725,1.553,3.889,1.756,5.987
			c-2.406,3.582-6.324,3.878-10.08,3.34c-1.563-1.548-3.098-3.12-4.588-4.724C859.685,164.214,859.655,161.83,860.264,159.544z"/>
		<path fill="#FFFFFF" d="M374.053,226.626c1.198-0.736,2.396-1.461,3.604-2.165c0.122,3.911,0.081,7.833,0.041,11.744
			c-0.467,0.022-1.392,0.077-1.857,0.099c-0.792-2.416-1.157-5.24-3.086-6.965c-1.746-1.999-4.487-1.109-6.7-0.912
			c-0.416,0.737-1.259,2.23-1.675,2.977c3.045,6.89,12.323,6.9,14.709,14.25c1.645,3.857-1.208,7.459-3.431,10.174
			c-5.065,0.527-10.142-0.286-15.207,0.121c0.071-3.405,0.081-6.813,0.061-10.207c0.487-0.012,1.452-0.033,1.929-0.033
			c0.934,2.484,1.237,5.813,3.705,7.152c2.284,1.57,5.146,1.152,7.441-0.131c0.234-0.791,0.711-2.352,0.944-3.133
			c-2.396-6.492-10.324-6.898-13.501-12.721c-0.975-1.702-0.538-3.824-0.487-5.691c0.254-3.098,3.238-4.525,5.299-6.129
			c2.091,0.021,4.192,0.076,6.284,0.176C372.602,225.582,373.576,226.285,374.053,226.626z"/>
		<g>
			<path fill="#FFFFFF" d="M381.738,225.384c4.142,0.064,8.294,0.057,12.435,0.045c0,0.846,0,1.691,0,2.549
				c-0.842,0.065-2.518,0.207-3.35,0.274c-0.152,3.69-0.163,7.382-0.152,11.084c3.502-0.056,7.004-0.056,10.507-0.044
				c0.051-3.669,0.062-7.35-0.061-11.008c-1.127-0.143-2.243-0.286-3.37-0.407c0.061-0.626,0.183-1.868,0.232-2.481
				c4.051,0.065,8.111,0.043,12.161,0.01c0.081,0.549,0.233,1.66,0.315,2.219c-1.127,0.197-2.264,0.396-3.39,0.593
				c-0.854,8.481,0.02,17.028,0,25.544c1.979,0.088,3.969,0.143,5.947,0.098c3.99-8.394,7.004-17.271,10.456-25.916
				c0.589-1.396,1.584-2.526,2.447-3.703c3.807,8.328,6.547,17.172,10.06,25.642c0.762,2.121,2.355,3.638,4.011,4.955
				c1.553-0.539,3.105-1.044,4.669-1.538c0.061-7.768,0.589-15.621-0.265-23.322c-1.847-1.274-3.888-2.23-5.593-3.748
				c3.096-0.537,6.243-0.516,9.36-0.197c4.72,6.395,9.014,13.305,14.638,18.82c0.071-5.351,0.274-10.711-0.102-16.051
				c-1.513-0.88-3.137-1.494-4.69-2.253c4.081-1.604,8.385-1.065,12.608-0.702c6.619-0.594,13.42-0.781,19.896,1
				c8.142,3.053,10.374,14.94,6.081,22.346c-2.375,4.361-7.126,6.767-11.725,6.711c-5.178,0.076-10.396,0.375-15.541-0.385
				c1.512-0.877,3.096-1.613,4.578-2.525c0.538-8.262,0.233-16.579,0.122-24.852c-2.508-0.121-5.016-0.143-7.532-0.065
				c-0.681,9.284-0.172,18.612-0.294,27.917c-0.894-0.077-1.786-0.143-2.681-0.198c-5.064-6.933-10.201-13.81-15.521-20.511
				c0,5.932-0.062,11.863,0.081,17.797c1.594,0.779,3.188,1.561,4.761,2.417c-8.283,0.792-16.678,0.614-24.972,0.153
				c1.015-1.098,2.232-1.922,3.431-2.746c-0.812-2.297-1.685-4.559-2.639-6.778c-2.954,0.056-5.897,0.077-8.842,0.088
				c-0.854,2.417-1.705,4.834-2.508,7.284c0.741,0.076,2.224,0.24,2.965,0.33c0.111,0.525,0.335,1.582,0.446,2.119
				c-7.685,0-15.358,0.033-23.043,0c0.071-0.526,0.224-1.559,0.294-2.076c0.771-0.033,2.314-0.109,3.086-0.143
				c0.173-3.779,0.163-7.569,0.143-11.349c-3.624-0.055-7.248-0.088-10.872,0.132c0.02,3.088,0.031,6.176-0.224,9.262
				c-0.354,0.24-1.065,0.713-1.421,0.955c0.447-0.121,1.33-0.352,1.767-0.473c1.531,1.164,3.167,2.186,4.639,3.46
				c-4.487,0.44-9.004,0.208-13.511,0.263c0.041-0.537,0.122-1.625,0.162-2.174c0.792,0,2.376-0.012,3.156-0.012
				c0.375-8.536,0.355-17.094,0.041-25.62c-0.812-0.044-2.436-0.131-3.247-0.175C381.707,227.121,381.717,226.252,381.738,225.384z
				 M479.362,228.955c0.111,7.954,0.02,15.897,0.051,23.853c2.497,0.021,5.055,0.328,7.512-0.309
				c7.441-4.516,7.745-18.116,0.385-22.873C484.924,227.944,481.98,228.373,479.362,228.955z M421.053,243.588
				c2.254-0.022,4.507-0.044,6.762-0.044c-1.107-3.055-2.243-6.086-3.31-9.152C423.378,237.47,422.221,240.522,421.053,243.588z"/>
		</g>
		<g>
			<path fill="#FFFFFF" d="M510.79,225.494c4.436-1.229,9.552-0.341,12.801,3.373c7.654,7.151,5.573,22.587-3.827,26.838
				c-4.669,0.286-10.334,1.67-14.1-2.187C497.309,245.995,499.725,228.493,510.79,225.494z M508.972,230.658
				c-3.543,6.7-2.853,15.403,0.844,21.874c3.156,1.713,7.623,2.131,9.968-1.286c2.639-4.306,2.578-9.821,1.979-14.743
				c-0.468-3.131-1.563-6.734-4.447-8.129C514.474,227.681,510.668,227.56,508.972,230.658z"/>
		</g>
		<g>
			<path fill="#FFFFFF" d="M613.205,225c0.446,0.022,1.36,0.065,1.817,0.087c3.197,8.383,6.414,16.766,9.593,25.159
				c0.853,2.504,3.146,3.767,4.893,5.471c-4.405,0.44-8.832,0.298-13.236,0.089c0.122-0.441,0.364-1.318,0.486-1.759
				c0.771-0.144,2.305-0.418,3.077-0.562c-0.771-2.471-1.595-4.91-2.468-7.328c-2.995,0.033-5.989,0.023-8.983,0.012
				c-0.833,2.428-1.654,4.867-2.437,7.316c0.782,0.121,2.335,0.352,3.105,0.473c0.082,0.482,0.225,1.449,0.294,1.934
				c-3.664,0.065-7.391,0.396-11.004-0.418c1.127-0.846,2.305-1.625,3.482-2.384C606.079,243.952,609.185,234.261,613.205,225z
				 M612.799,235.163c-1.086,2.791-2.151,5.58-3.105,8.438c2.254-0.012,4.507-0.033,6.771-0.088
				C615.275,240.698,614.098,237.897,612.799,235.163z"/>
		</g>
		<path fill="#FFFFFF" d="M632.38,232.416c3.147-6.03,10.192-8.821,16.263-6.821c2.111,1.032,4.132,0.174,6.08-0.814
			c0.225,3.561,0.366,7.119,0.487,10.679c-0.497-0.099-1.482-0.317-1.979-0.417c-1.097-2.615-2.324-5.702-5.006-6.725
			c-3.167-0.658-7.146-0.725-9.276,2.373c-3.797,5.131-3.036,12.306-1.34,18.184c1.583,1.91,3.177,4.107,5.624,4.756
			c2.172,0.439,4.385-0.011,6.567-0.1c0.162-3.954,0.152-7.898,0.112-11.842c-1.482-0.638-2.955-1.285-4.416-1.967
			c4.477-1.154,9.115-0.715,13.653-0.385c-1.117,0.9-2.255,1.758-3.401,2.626c-0.051,3.955-0.092,7.92-0.02,11.888
			c-4.021,3.031-9.025,2.086-13.613,2.164c-5.351,0.373-9.735-4.527-11.501-9.568C629.914,241.765,629.619,236.414,632.38,232.416z"
			/>
		<g>
			<path fill="#FFFFFF" d="M658.996,225.396c5.888,0.176,11.968-0.526,17.684,1.33c3.655,1.318,4.781,5.525,4.619,9.305
				c-1.604,2.473-3.908,4.154-6.162,5.855c2.224,3.385,4.355,6.846,6.813,10.041c1.979,2.715,5.471,1.715,8.232,1.813
				c0.021-8.282,0.365-16.6-0.111-24.86c-1.492-0.956-3.117-1.604-4.649-2.461c4.954-1.417,10.242-1.549,15.155,0.132
				c-1.583,0.77-3.218,1.395-4.75,2.254c-0.305,8.008-0.355,16.071,0.02,24.068c1.473,1.044,3.097,1.824,4.649,2.736
				c-7.4,0.734-14.861,0.285-22.282,0.285c-3.289-4.713-5.878-10.053-9.908-14.106c-0.273,3.942-0.273,7.911-0.051,11.864
				c0.781,0.065,2.365,0.197,3.157,0.264c-0.01,0.516-0.01,1.55-0.01,2.064c-4.162-0.021-8.334,0.013-12.497-0.043
				c0.01-0.517,0.021-1.549,0.03-2.065c0.813-0.011,2.427-0.033,3.238-0.043c1.005-8.472,0.69-17.104,0.203-25.599
				c-1.188-0.131-2.365-0.252-3.542-0.375C658.875,227.241,658.956,226.011,658.996,225.396z M668.122,239.798
				c4.284,0.407,7.705-3.143,7.238-7.865c-1.665-2.604-4.212-4-7.167-3.594C668.051,232.151,668.072,235.976,668.122,239.798z"/>
		</g>
		<path fill="#FFFFFF" d="M746.185,225.362c4.924-0.231,9.827,0.967,14.74,0.22c3.624-0.417,7.27-0.011,10.831,0.791
			c-1.533,1.099-3.299,1.681-4.942,2.517c-0.509,7.965-0.071,15.973-0.203,23.959c3.299,0.1,6.588,0.1,9.887-0.063
			c1.696-2.231,2.385-5.966,5.482-6.308c-0.62,3.197-1.555,6.33-2.428,9.459c-7.704-0.209-15.47,0.67-23.124-0.494
			c1.554-0.846,3.198-1.494,4.681-2.473c0.396-8.097,0.254-16.248,0.041-24.355c-2.446-1.592-5.188-1.131-7.775-0.274
			c-0.265,6.075,0.009,12.162-0.173,18.237c-0.173,3.703-2.01,7.294-5.056,9.085c-4.039,0.702-8.161,0.265-12.223,0.231
			c-2.172-2.209-4.74-4.681-4.791-8.162c-0.264-6.396,0-12.789-0.162-19.172c-1.391-0.461-2.771-0.934-4.132-1.406
			c0.995-1.131,2.152-2.086,3.706-1.68c3.542,0.088,7.065,0.45,10.598,0.813c-1.595,0.824-3.138,1.736-4.64,2.713
			c-0.406,4.713-0.132,9.471-0.193,14.205c0.152,3.109,0.163,6.548,1.837,9.218c3.665,3.054,11.005,1.538,11.38-4.131
			c0.273-6.701,0.081-13.425,0.061-20.126c-0.812-0.044-2.446-0.133-3.259-0.165C746.266,227.108,746.225,226.229,746.185,225.362z"
			/>
		<g>
			<path fill="#FFFFFF" d="M804.138,225.362c4.011,0.078,8.03,0.099,12.051,0.043c0.121,0.494,0.354,1.494,0.466,2
				c-1.289,0.285-2.568,0.593-3.848,0.9c-0.386,6.734-0.771,13.623,0.152,20.325c0.426,7.986,12.892,6.515,12.993-0.957
				c0.396-6.207,0.365-12.501,0.07-18.708c-1.462-1.011-3.065-1.714-4.567-2.626c4.122-1.396,8.375-0.604,12.577-0.493
				c5.705-0.484,11.593-0.912,17.156,0.856c4.11,1.405,6.161,7.547,3.339,11.239c-1.097,1.845-3.126,2.525-4.872,3.394
				c2.231,3.769,4.405,7.681,7.309,10.909c1.421,1.791,3.756,1.374,5.705,1.715c4.518-9.547,7.776-19.721,11.999-29.421
				c0.833,0.67,1.918,1.187,2.284,2.351c3.583,8.943,6.528,18.205,10.588,26.928c2.212,0.055,4.446,0.011,6.668-0.144
				c0.113-8.427,0.254-16.862-0.041-25.29c-1.299-0.318-2.578-0.637-3.857-0.943c0.071-0.517,0.203-1.549,0.274-2.065
				c4.355,0.099,8.709,0.065,13.065,0.022c0.091,0.494,0.263,1.494,0.354,1.998c-1.401,0.408-2.802,0.748-4.142,1.309
				c-0.355,8.031-0.122,16.095-0.112,24.137c2.812,0.066,5.654,0.264,8.466-0.066c2.862,0,3.38-3.658,4.7-5.713
				c0.649-0.406,1.309-0.802,1.969-1.186c-0.313,3.34-1.188,6.581-1.775,9.865c-11.888,0.33-23.835,0.517-35.702-0.143
				c1.117-0.824,2.213-1.682,3.34-2.516c-0.589-2.188-1.046-4.482-2.203-6.404c-2.599-0.99-5.553-0.419-8.273-0.408
				c-2.375,1.428-2.152,4.912-2.74,7.416c0.649,0.045,1.938,0.109,2.579,0.154c0.029,0.538,0.102,1.615,0.142,2.143
				c-5.807-0.032-11.612,0.078-17.419-0.088c-3.319-4.68-5.796-10.117-9.948-14.039c-0.284,3.888-0.264,7.799-0.111,11.699
				c1.188,0.154,2.375,0.309,3.572,0.473c0.112,0.461,0.315,1.385,0.426,1.846c-4.669,0.044-9.399,0.516-14.019-0.385
				c1.167-1.34,2.832-1.68,4.406-2.131c0.365-8.195,0.335-16.436,0.091-24.641c-2.324-1.813-5.136-0.979-7.674-0.363
				c-0.385,6.769,0.366,13.611-0.497,20.356c-0.264,3.142-2.7,5.042-4.588,7.099c-3.838,0.152-7.695,0.461-11.513,0.01
				c-3.625-1.109-5.745-5.416-5.785-9.293c-0.184-5.988,0.102-11.965-0.122-17.941c-1.167-0.385-2.314-0.758-3.461-1.131
				C803.742,226.923,804.006,225.879,804.138,225.362z M842.682,239.646c1.452-0.144,2.903-0.275,4.365-0.396
				c1.259-1.77,3.117-3.504,2.67-5.986c0.184-2.229-1.816-3.484-3.015-4.9c-0.995,0.043-2.964,0.143-3.959,0.187
				C842.651,232.239,842.651,235.942,842.682,239.646z M870.79,243.61c2.244-0.033,4.497-0.033,6.75-0.045
				c-1.056-2.933-2.212-5.832-3.583-8.602C872.973,237.864,871.866,240.731,870.79,243.61z"/>
		</g>
		<path fill="#FFFFFF" d="M972.292,225.45c5.035-0.494,10.029,1,15.044,0.209c4.05-0.615,8.09,0.615,12.15,0.252
			c3.897-0.165,7.958-1.219,11.674,0.682c-1.37,0.725-2.731,1.438-4.091,2.143c1.948,6.351,4.862,12.293,6.882,18.611
			c2.325-6.098,4.802-12.14,6.649-18.435c-1.574-0.55-2.721-1.66-3.299-3.33c3.248-0.177,6.496-0.132,9.755-0.329
			c-0.029,0.9-0.041,1.813-0.05,2.734c-0.539,0.209-1.625,0.627-2.163,0.836c-3.959,8.789-7.055,18.061-10.444,27.146
			c-0.925-0.055-1.828-0.089-2.731-0.121c-3.492-9.119-7.106-18.183-10.78-27.213c-1.117-0.516-2.223-1.021-3.318-1.527
			c-1.301,0.418-2.6,0.847-3.878,1.275c-0.102,8.436-0.092,16.885,0.041,25.334c0.771,0.032,2.313,0.12,3.086,0.164
			c0.101,0.506,0.313,1.506,0.416,2.01c-4.253,0.1-8.508,0.1-12.76,0.066c0.051-0.516,0.152-1.549,0.192-2.064
			c0.781-0.045,2.355-0.133,3.137-0.176c0.253-8.427,0.162-16.863,0.021-25.279c-1.37-0.451-2.71-0.891-4.061-1.34
			c-1.288,0.504-2.578,1.01-3.856,1.516c-0.314,9.15-0.214,18.324-0.152,27.488c-0.894-0.123-1.776-0.231-2.648-0.33
			c-5.035-6.713-9.867-13.623-15.369-19.908c-0.193,5.9-0.143,11.8,0,17.689c1.198,0.131,2.396,0.264,3.614,0.396
			c0.071,0.483,0.232,1.461,0.305,1.944c-4.051,0.131-8.121,0.242-12.142-0.285c1.503-0.922,3.097-1.692,4.568-2.692
			c0.437-7.306,0.233-14.666,0.122-21.983c-1.198-3.547-5.086-2.681-7.806-2.769c-0.355,6.284,0.101,12.601-0.366,18.885
			c-0.274,3.69-2.152,7.195-5.32,8.767c-3.938,0.406-7.896,0.121-11.846,0.043c-1.675-1.823-3.796-3.537-4.212-6.24
			c-1.27-6.898-0.163-13.984-0.782-20.95c-1.593-0.704-3.177-1.396-4.72-2.175c4.893-1.373,10.06-1.516,14.962-0.154
			c-1.299,1.241-2.954,1.846-4.628,2.176c-0.274,5.975-0.305,11.975-0.103,17.961c0.295,2.526,0.701,5.877,3.208,6.987
			c3.249,0.989,7.654,0.429,9.432-3.065c1.521-7.119,0.995-14.566,0.526-21.795c-1.481-0.648-2.883-1.439-4.212-2.363
			c6.264-0.879,12.587-0.241,18.881-0.438c5.208,6.568,10.029,13.489,15.228,20.082c0.01-5.834,0.244-11.678-0.152-17.5
			C974.271,228.351,972.383,227.966,972.292,225.45z"/>
		<g>
			<path fill="#FFFFFF" d="M1052.841,225.405c5.563,0.166,11.229-0.504,16.688,0.968c3.686,0.912,6.485,5.196,5.431,9.272
				c-0.833,3.108-3.796,4.416-5.938,6.283c1.746,2.713,3.563,5.383,5.339,8.086c1.604,2.823,4.843,3.516,6.954,5.756
				c-3.035,0.265-6.082,0.199-9.115,0.121c-3.411-4.646-5.93-10.063-10.03-14.062c-0.244,3.921-0.224,7.854-0.07,11.788
				c0.771,0.066,2.314,0.188,3.085,0.252c0.063,0.527,0.193,1.583,0.254,2.109c-4.264,0.012-8.518,0-12.77-0.045
				c0.061-0.516,0.192-1.56,0.264-2.086c0.771-0.012,2.325-0.056,3.106-0.078c0.904-8.502,0.924-17.192,0.051-25.697
				c-0.792-0.02-2.386-0.075-3.188-0.098C1052.872,227.108,1052.851,226.265,1052.841,225.405z M1061.957,239.787
				c1.919-0.396,4.203-0.198,5.583-2c1.553-1.483,1.381-3.89,1.726-5.888c-1.706-2.418-4.102-4.33-7.045-3.362
				C1061.794,232.263,1062.008,236.041,1061.957,239.787z"/>
		</g>
		<path fill="#FFFFFF" d="M1103.587,225.405c4.649,0.318,9.572-0.91,13.968,1.254c-1.593,0.681-3.196,1.307-4.802,1.934
			c-0.071,8.205-0.101,16.424,0.031,24.641c1.431,0.496,2.873,0.99,4.283,1.617c-0.335,1.34-1.857,0.877-2.762,1.108
			c-3.634,0.144-7.258,0.013-10.871-0.022c0.03-0.525,0.101-1.592,0.132-2.119c0.771,0.043,2.294,0.131,3.065,0.175
			c1.532-8.36,0.446-16.974,0.69-25.443c-1.33-0.362-2.65-0.714-3.959-1.065C1103.414,226.955,1103.526,225.923,1103.587,225.405z"
			/>
		<path fill="#FFFFFF" d="M547.252,226.208c3.807-0.548,7.644-0.395,11.481-0.352l-0.133,2.078
			c-0.821,0.076-2.477,0.207-3.299,0.274c-0.445,9.261,0.053,18.534-0.313,27.794c-0.649-0.044-1.959-0.121-2.608-0.154
			c-4.873-7.02-10.242-13.588-15.247-20.5c-0.122,5.955-0.203,11.908,0.03,17.863c1.432,0.67,2.873,1.374,4.121,2.417
			c-3.808,0.526-7.653,0.386-11.491,0.329c0.021-0.538,0.061-1.615,0.081-2.152c0.832-0.012,2.507-0.033,3.34-0.045
			c0.223-8.031,0.264-16.072,0.03-24.092c-1.492-0.648-2.984-1.286-4.497-1.835l-0.132-1.966c2.71-0.064,5.431-0.077,8.141,0.011
			c4.792,6.733,9.908,13.183,14.771,19.851c0.07-5.723,0.051-11.447,0-17.158C549.922,228.12,548.501,227.34,547.252,226.208z"/>
		<path fill="#FFFFFF" d="M566.875,227.329c3.857-2.834,8.822-2.779,13.146-1.385c1.654,0.736,3.168-0.647,4.699-1.098
			c0.173,3.438,0.275,6.887,0.528,10.327c-0.487,0.033-1.441,0.099-1.919,0.142c-1.065-2.569-2.233-5.305-4.567-6.767
			c-3.502-1.043-8.231-1.099-10.293,2.757c-3.451,5.955-3.217,14.766,1.167,20.139c2.559,3.131,6.72,2.318,10.131,2.066
			c0.111-3.462,0.284-6.934,0.052-10.383c-0.103-2-2.528-2.549-3.411-3.979c4.192-0.131,8.404-0.207,12.598,0.188
			c-0.813,0.66-2.446,1.977-3.258,2.626c-0.163,3.779,0.04,7.581-0.213,11.36c-1.563,2.515-4.722,2.691-7.248,2.701
			c-4.478-0.164-9.755,1.022-13.269-2.801C557.434,246.785,558.825,232.625,566.875,227.329z"/>
		<path fill="#FFFFFF" d="M706.534,228.075c3.675-3.415,8.883-3.657,13.349-2.176c1.756,0.804,3.392-0.549,5.035-1.031
			c0.172,3.955,0.305,7.92,0.731,11.875c-3.654-1.153-3.32-6.569-6.75-8.163c-3.065-1.011-7.188-1.175-9.278,1.966
			c-2.761,3.835-3.126,9.107-2.66,13.788c0.67,3.405,2.091,7.207,5.34,8.558c2.894,1.506,6.13,0.418,8.974-0.67
			c0.943-1.361,1.897-2.703,2.843-4.054c0.588,0.032,1.766,0.099,2.354,0.121c-1.675,3.845-4.771,8.042-9.115,7.7
			c-3.919-0.098-8.589,1.033-11.664-2.317C698.667,247.203,699.114,233.976,706.534,228.075z"/>
		<path fill="#FFFFFF" d="M778.892,226.056c8.029-0.474,16.13-1.066,24.149-0.033c-0.132,2.779-0.193,5.569-0.305,8.371
			c-1.767-0.912-2.813-2.494-3.056-4.56c-0.498-0.353-1.502-1.056-2-1.407c-0.994-0.011-2.983-0.044-3.969-0.066
			c-0.101,8.481-0.264,16.975,0.132,25.445c0.803,0,2.396,0,3.197,0c0.051,0.549,0.173,1.637,0.233,2.174
			c-4.74-0.043-9.491,0.221-14.202-0.461c1.481-1.064,3.117-1.779,4.862-2.197c0.306-8.35,0.092-16.709,0.122-25.059
			c-1.635,0.12-3.278,0.12-4.873,0.473c-1.359,1.746-2.122,3.91-3.156,5.877C778.739,231.965,778.963,228.933,778.892,226.056z"/>
		<path fill="#FFFFFF" d="M1027.818,228.218c-0.011-1.021-0.011-2.031,0-3.031c7.318,1.318,14.709-0.221,22.067,0.23
			c0.072,2.977,0.123,5.955-0.11,8.932c-1.746-1.561-2.721-3.734-3.695-5.867c-2.954-0.033-5.908-0.043-8.853-0.088
			c-0.527,3.561-0.477,7.187,0.184,10.734c2.284-0.076,4.578-0.121,6.882-0.176c0.62-1.646,1.229-3.307,1.888-4.932
			c3.137,3.086,0.863,8.447,1.473,12.447c-2.254-0.341-2.527-2.912-3.513-4.593c-2.284-0.099-4.567-0.164-6.842-0.241
			c-0.447,3.438-0.751,6.943-0.305,10.403c1.532,2.517,4.933,1.044,7.309,1.286c3.146-0.121,4.415-3.582,5.908-6.01
			c0.498-0.088,1.472-0.254,1.969-0.342c-0.345,3.131-1.319,6.109-2.365,9.043c-7.684-0.231-15.388,0.34-23.042-0.408
			c1.441-1.088,3.056-1.846,4.75-2.383c0.122-8.373,0.093-16.744,0-25.115C1030.59,228.142,1028.742,228.196,1027.818,228.218z"/>
		<path fill="#FFFFFF" d="M1082.817,236.437c-2.468-5.207,2.061-11.381,7.086-11.371c3.268-0.252,6.791,2.638,9.603-0.439
			c0.204,3.945,0.172,7.898,0.103,11.854c-0.863-0.242-1.727-0.472-2.569-0.69c-0.02-3.043-1.188-5.703-3.299-7.647
			c-2.305-0.011-6.71-0.877-6.588,2.912c-0.548,2.823,2.162,4.197,3.938,5.493c3.573,2.505,8.313,4.153,9.958,8.833
			c1.858,4.01-0.964,8.119-3.746,10.568c-4.952,0.253-9.896-0.329-14.829-0.032c0.01-3.549,0-7.108,0.132-10.646
			c3.105,0.549,2.983,4.459,4.121,6.942c2.507,1.274,5.42,2.45,8.142,1.065c1.938-1.67,2.04-5.021,0.142-6.756
			C1091.101,242.961,1085.467,241.457,1082.817,236.437z"/>
		<path fill="#FFFFFF" d="M1117.961,226c3.787-0.638,7.624-0.659,11.46-0.56c1.696-0.012,3.401-0.012,5.127-0.012
			c2.05-0.012,4.102,0,6.172,0.02c-0.102,2.924,2.821,7.406-0.984,8.57c-0.59-1.834-0.649-4.076-2.254-5.272
			c-1.584-0.297-3.188-0.319-4.762-0.429c-0.254,8.525-0.436,17.029,0.132,25.554c0.771-0.022,2.305-0.056,3.076-0.077
			c0.091,0.527,0.285,1.583,0.376,2.109c-4.264,0.1-8.526,0.056-12.791,0.1c-0.02-0.516-0.061-1.538-0.082-2.043
			c1.158-0.109,2.325-0.221,3.493-0.33c0.234-8.503,0.172-17.027,0.051-25.531c-1.959,0.34-3.877,0.726-5.786,1.219
			c-0.599,1.867-0.752,4.537-3.259,4.011C1117.819,230.877,1117.93,228.438,1117.961,226z"/>
		<path fill="#FFFFFF" d="M1143.4,226.735c0.111-0.362,0.345-1.088,0.457-1.45c4.101,0.231,8.212,0.483,12.303,1
			c-1.433,0.89-2.923,1.681-4.375,2.483c1.837,3.789,4.03,7.35,6.121,10.976c1.737-3.308,3.775-6.416,5.371-9.812
			c-0.469-1.033-1.421-3.098-1.889-4.129c3.686-0.035,7.369-0.078,11.056,0.328c-6.741,3.045-8.812,11.174-12.994,16.952
			c0,3.373,0,6.745,0.081,10.129c1.686,0.562,3.33,1.229,4.822,2.317c-4.69,0.77-9.44,0.406-14.141,0.33
			c0.05-0.482,0.173-1.449,0.233-1.944c0.822-0.033,2.457-0.099,3.269-0.131c0.417-4.417,1.38-9.503-1.431-13.25
			c-2.528-3.823-4.385-8.185-7.441-11.568C1144.476,228.405,1143.755,227.296,1143.4,226.735z"/>
	</g>
	<g>
		<g>
			<path fill="#FFFFFF" d="M172.504,14.99c6.618-0.385,13.269-0.215,19.87,0.365c2.723,0.526,5.483,0.746,8.23,1.115
				c8.765,1.326,17.521,3.045,25.879,6.067c30.164,10.024,56.615,30.57,74.167,57.03c8.979,13.39,15.531,28.361,19.658,43.931
				c5.126,19.987,6.018,41.063,2.441,61.39c-5.428,31.619-21.794,61.225-45.655,82.657c-25.37,23.065-59.164,36.62-93.451,37.392
				c-26.883,0.816-53.922-6.146-77.129-19.726c-4.285-2.54-8.561-5.151-12.436-8.297c-11.748-8.673-22.233-19.075-31.034-30.731
				c-9.648-12.92-17.094-27.492-21.855-42.902c-5.02-15.959-6.954-32.817-6.279-49.504c0.747-27.173,9.66-54.021,25.155-76.341
				C67.47,66.691,76.479,57.111,86.37,48.628c13.896-11.752,30.086-20.766,47.375-26.443c9.461-3.174,19.295-5.11,29.19-6.294
				C166.089,15.281,169.305,15.173,172.504,14.99z M171.874,20.722c-14.371,0.912-28.602,4.04-42.037,9.232
				c-24.583,9.494-46.612,25.855-62.148,47.209c-17.563,23.811-27.396,53.229-27.549,82.826
				c0.211,20.236,4.865,40.408,13.501,58.709c6.742,14.346,15.926,27.545,27.027,38.861c24.01,24.103,56.976,39.063,90.944,41.139
				c7.99,0.684,16.026,0.166,23.973-0.734c33.749-4.145,65.948-20.777,88.387-46.393c22.026-25.1,34.727-58.198,34.972-91.602
				c-0.129-38.917-17.257-77.506-46.264-103.501c-12.122-10.828-26.136-19.522-41.195-25.634
				C212.655,23.263,192.172,19.491,171.874,20.722z"/>
		</g>
		<g>
			<path fill="#FFFFFF" d="M146.687,32.329c1.496-0.783,1.09-2.892,2.487-3.816c0.543,0.805,0.97,1.72,1.703,2.379
				c1.529,0.178,2.801-0.763,4.131-1.331c1.442-0.488,2.296,0.945,3.03,1.902c0.775,0.949,0.795,2.267,0.551,3.415
				c-0.613,3.063-2.652,6.013-5.723,6.999c-1.517,0.422-2.354,1.84-3.295,2.979c2.454-1.144,4.704-2.867,7.418-3.344
				c-0.054,0.742,0.34,1.791-0.456,2.246c-2.665,1.695-5.814,2.685-8.035,5.014c2.668-1.255,5.233-3.038,8.259-3.241
				c1.193,0.058,1.765,1.061,1.948,2.121c-0.559,0.908-0.961,1.973-1.811,2.661c-0.912,0.484-1.915,0.754-2.901,1.037
				c-0.046-0.54-0.083-1.074-0.116-1.608c-0.845-0.166-1.658-0.717-2.524-0.613c-0.878,0.8-1.683,1.691-2.346,2.668
				c-0.037,1.84-0.103,4.198,1.691,5.292c1.222,1.006,2.636-0.328,3.953-0.386c0.729,0.705,0.883,2.006-0.025,2.64
				c-1.856,0.51-4.04,0.124-5.404-1.292c-1.504-1.84-1.906-4.293-1.927-6.606c-1.831,1.049-3.717,2.076-5.155,3.655
				c-1.77,1.753-3.058,3.899-4.567,5.86c-0.377-0.22-0.737-0.456-1.085-0.708c2.905-4.418,7.024-7.808,10.426-11.806
				c-1.741,0.625-3.257,2.416-5.246,1.844c-0.008-0.237-0.025-0.709-0.033-0.945c1.736-1.409,4.028-2.188,5.316-4.106
				c-0.841,0.116-1.67,0.319-2.482,0.56c-0.24-0.464-0.825-0.846-0.663-1.438c0.112-1.458,1.711-1.964,2.727-2.707l0.199,0.274
				c0.071,0.178,0.216,0.534,0.286,0.712c1.036-0.617,2.321-1.152,2.644-2.44c-0.829,0.348-1.563,0.907-2.404,1.214
				c-0.017-0.099-0.054-0.294-0.071-0.39c0.875-0.853,1.973-1.462,2.719-2.449c-0.904,0.149-1.861,0.382-2.545,1.023
				c-0.418,0.623-0.659,1.335-1.048,1.973c-1.164,0.104-1.86-1.082-2.565-1.828c0.012-1.185,0.692-2.34,0.356-3.576
				c-0.916,0.373-1.794,0.833-2.611,1.389c0.095,2.204,0.505,4.38,1.289,6.444c-0.928,0.725-2.304,0.311-2.864-0.671
				c-1.538-2.32-2.342-5.284-1.812-8.048c0.083-0.949,0.982-1.434,1.6-2.031c0.555,0.469,1.094,0.95,1.629,1.442
				c0.837-0.493,1.753-0.887,2.515-1.5c1.024-0.924,0.8-2.772,2.167-3.356C146.542,30.56,146.517,31.492,146.687,32.329z
				 M151.619,33.589c-0.154,0.954,0.77,1.538,1.267,2.205c-0.493,1.579-1.052,3.137-1.62,4.691c0.365-0.166,0.729-0.332,1.102-0.494
				c1.566,0.585,2.598-0.891,3.403-1.981c0.916-1.226,1.562-2.863,0.903-4.363C156.027,31.41,152.538,31.762,151.619,33.589z
				 M148.581,33.66c-0.493,0.733,0.17,1.521,0.961,1.483C150.599,34.539,149.302,33.685,148.581,33.66z M154.142,47.069
				c-0.675,0.543-1.392,1.028-2.105,1.518c0.978,0.373,1.956,0.865,3.03,0.882c0.961-0.398,1.326-1.455,1.823-2.288
				C155.978,47.062,155.058,47.049,154.142,47.069z"/>
		</g>
		<g>
			<path fill="#FFFFFF" d="M205.698,32.06c0.327-1.069,2.395-1.708,2.333-0.104c-0.352,1.997-1.065,3.912-1.861,5.772
				c0.456,0.97,1.94,0.485,2.81,0.816c-0.087-1.011-0.129-2.026-0.15-3.042c0.27-0.054,0.804-0.158,1.07-0.211
				c0.253-1.255-0.323-3.07,1.206-3.659c0.808-0.617,1.707,0.332,1.662,1.172c-0.004,0.97-0.398,1.878-0.63,2.806
				c0.999-0.39,2.241-1.604,3.245-0.638c0.712,0.58,1.636,1.475,1.128,2.478c-0.316,0.857-1.314,1.14-2.135,0.986
				c-1.011-0.349-1.716-1.202-2.466-1.911c-0.481,0.804-1.074,1.533-1.737,2.197c2.635,0.551,5.284,1.102,7.823,1.997
				c1.024,0.319,2.023,1.272,1.894,2.416c0.157,0.609-0.556,0.788-0.987,0.858c-1.948-0.174-3.722-1.103-5.623-1.497
				c0.021,1.538-1.165,2.333-2.362,2.987c-0.021,0.523-0.1,1.032-0.236,1.525c-0.684,0.667-1.708,0.685-2.578,0.912
				c0.49,0.158,0.982,0.318,1.476,0.485c-0.216,0.514-0.431,1.027-0.65,1.538c-0.613,0.194-1.227,0.381-1.815,0.634
				c1.065,1.111,2.78,0.816,4.16,1.173c0.058,0.763-0.062,1.625-0.825,2.001c-1.276,0.203-2.561-0.261-3.824-0.091
				c-1.248,1.459-1.58,3.548-3.083,4.811c-0.663,0.364-1.438,0.448-2.151,0.672c-0.29-0.377-0.585-0.759-0.871-1.132
				c0.025-0.584,0.05-1.168,0.075-1.752c0.638-0.037,1.293-0.017,1.931-0.128c0.828-0.605,1.251-1.707,1.251-2.715
				c-1.769-0.713-3.775-0.377-5.639-0.452l-0.074,0.187c0.261,0.82,1.388,0.547,2.018,0.849c-0.68,0.883-1.26,1.869-2.11,2.598
				c-0.518,0.108-1.04-0.029-1.554-0.057c-0.116-0.73-0.273-1.463-0.265-2.205c0.257-0.526,0.726-0.912,1.086-1.367
				c-0.506-0.593-0.717-1.269-0.555-2.035c1.446-0.241,2.884-0.519,4.318-0.825c-0.365-0.418-0.725-0.838-1.077-1.256
				c0.484-0.629,1.09-1.143,1.827-1.45c-0.659-0.278-1.305-0.584-1.94-0.903c0.158-1.007,0.759-1.803,1.521-2.446
				c-1.533-0.468-1.301-2.084-1.28-3.352c-2.437-0.066-4.869,0.146-7.302,0.095c-0.746-0.004-1.252-0.671-1.853-1.011
				c0.373-1.082,1.326-1.848,2.478-1.923c3.622-0.252,7.244,0.133,10.866,0.117C204.284,35.922,204.886,33.933,205.698,32.06z
				 M201.943,44.124c1.197-0.149,2.408-0.22,3.609-0.373c0.539-0.286,0.833-0.904,1.268-1.322c0.448,0.37,0.9,0.746,1.351,1.124
				c0.809-0.415,1.509-0.999,2.088-1.695c-1.989-0.485-4.037-0.651-6.029-1.103C204.069,42.238,203.132,43.315,201.943,44.124z"/>
		</g>
		<path fill="#FFFFFF" d="M199.461,35.301c0.203-0.891,0.904-1.596,1.629-2.101c1.056-0.456,2.18,0.037,3.232,0.266
			c-0.965,1.227-1.678,2.843-3.302,3.319C200.119,37.149,199.569,36.018,199.461,35.301z"/>
		<path fill="#FFFFFF" d="M155.062,51.761c1.695,0.327,2.367-1.699,3.899-1.98c0.1,0.667,0.166,1.338,0.302,2
			c1.873,0.477,3.796-0.443,5.698-0.145c0.692,0.045,1.359,0.436,1.679,1.069c-0.8,0.61-1.687,1.086-2.516,1.654
			c-3.095,0.406-6.253-0.021-9.308,0.663c-0.166-0.141-0.493-0.427-0.658-0.568c-1.181-0.542-2.424-0.928-3.643-1.367
			c0.493-0.494,0.87-1.264,1.624-1.396C153.114,51.604,154.088,51.752,155.062,51.761z"/>
		<g>
			<path fill="#FFFFFF" d="M98.798,56.911c0.986-1.227,2.225-2.229,3.688-2.834c0.563,0.717,1.405,1.55,0.953,2.553
				c-0.962,1.823-2.719,3.021-4.057,4.538c-0.584,0.613,0.199,1.321,0.394,1.922c1.409-1.151,2.689-2.436,3.932-3.758
				c0.667-0.667,1.807-1.562,2.669-0.663c1.595,1.641,3.141,3.593,3.377,5.955c0.083,2.138,0.071,4.343-0.642,6.39
				c2.205-0.899,4.5-1.562,6.639-2.623c0.915-0.339,2.333-1.115,2.979,0.029c0.249,0.958-0.622,1.715-0.965,2.541
				c-2.921,1.471-5.901,2.955-9.183,3.39c1.16,1.641,2.478,3.166,3.672,4.787c-0.356,0.696-0.725,1.392-1.119,2.072
				c-2.143-1.028-3-3.374-4.716-4.861c-0.717,0.373-0.534,1.379-0.787,2.034c-0.903,3.585-1.372,7.588-4.09,10.348
				c-0.257-3.779,1.003-7.426,1.757-11.085c-1.305,0.713-2.801,0.406-4.214,0.547c-1.488,0.025-2.76-0.903-4.103-1.404
				c-1.952-0.768-3.572-2.856-3.079-5.027c0.435-1.752,1.458-3.273,2.188-4.907c-2.147,1.032-2.959,3.527-4.985,4.666
				c-1.396,0.564-2.429-1.064-2.11-2.279c0.452-1.6,1.646-2.831,2.814-3.953c1.463-1.508,3.071-2.859,4.645-4.243
				c-0.771-1.513-2.764-3.112-1.781-4.927c0.215-0.676,1.094-0.659,1.567-0.27c1.04,0.792,1.633,2.002,2.494,2.959
				C97.626,58.487,98.135,57.55,98.798,56.911z M101.642,65.92c1.027,0.166,2.594-0.286,3.129,0.92
				c0.472,0.659,0.066,1.421-0.062,2.117c0.174,0.245,0.522,0.734,0.696,0.974c1.343-0.874,2.959-2.2,2.524-4.015
				c-0.402-1.542-1.537-2.889-2.847-3.771C103.879,63.347,102.412,64.354,101.642,65.92z M95.579,72.498
				c1.343,1.413,2.967,2.519,4.699,3.398c0.605-1.049,1.14-2.139,1.836-3.133c0.236,0,0.709,0.003,0.94,0.008
				c-0.368-0.29-0.738-0.576-1.102-0.862c-0.808,0.683-2.188,1.608-3.03,0.468c-1.33-1.422,0.49-3.021,1.049-4.368
				C97.709,68.478,96.917,70.906,95.579,72.498z"/>
		</g>
		<path fill="#FFFFFF" d="M208.201,56.075c0.364-0.398,0.708-0.816,1.115-1.173c0.907,0.199,1.956,0.834,1.952,1.886
			c0.385,1.04-0.924,1.923-1.848,1.571c-0.751-0.605-1.397-1.332-2.213-1.857C207.538,56.36,207.869,56.22,208.201,56.075z"/>
		<path fill="#FFFFFF" d="M262.516,59.837c0.841-0.837,2.11-0.688,3.195-0.829c0.174,0.178,0.531,0.531,0.709,0.708
			c-0.042,1.066-0.083,2.155-0.547,3.133c-0.315-0.029-0.937-0.091-1.247-0.124c-1.848,1.371-3.655,2.785-5.478,4.189
			c1.587,0.763,3.162,1.55,4.769,2.259c0.237-0.179,0.705-0.535,0.941-0.713c0.588,0.75,1.28,1.476,1.604,2.391
			c0.128,1.127-0.887,1.857-1.567,2.586c-0.36,0.559-0.99,0.339-1.488,0.136c-2.556-1.144-5.117-2.296-7.641-3.497
			c-3.063,0.646-5.661,2.706-8.752,3.273c-3.116,0.397-6.286,1.6-9.432,0.85c-1.736-0.427-1.036-2.494-1.144-3.792
			c3.063,1.044,6.514,1.189,9.51-0.174c1.77-0.824,3.733-1.186,5.404-2.238c-1.334-0.899-2.818-1.687-4.476-1.587
			c-0.949-0.919-1.181-2.714,0.158-3.394c1.384-0.397,2.984-0.978,4.351-0.228c1.517,0.613,2.819,1.678,4.368,2.222
			c0.837,0.045,1.442-0.726,2.126-1.119C259.603,62.751,261.016,61.242,262.516,59.837z"/>
		<g>
			<path fill="#FFFFFF" d="M168.974,62.154c17.657-1.839,35.829,0.945,52.007,8.309c13.617,6.096,25.797,15.325,35.431,26.708
				c9.664,11.438,16.746,25.047,20.48,39.551c4.512,17.33,4.276,35.871-0.701,53.072c-4.484,15.646-12.884,30.152-24.205,41.842
				c-10.033,10.369-22.307,18.582-35.767,23.791c-18.909,7.443-40.093,8.799-59.852,4.133c-14.699-3.498-28.61-10.345-40.276-19.967
				c-12.561-10.177-22.502-23.533-28.834-38.398c-8.587-20.023-10.182-42.861-4.865-63.963c3.402-13.124,9.336-25.643,17.67-36.359
				c9.966-13.012,23.181-23.488,38.088-30.296C147.881,66.12,158.352,63.376,168.974,62.154z M171.489,65.941
				c-19.083,1.6-37.615,9.071-52.521,21.089c-8.893,7.156-16.447,15.937-22.345,25.705c-7.231,12.221-11.823,26.02-13.132,40.168
				c-2.085,21.11,3.216,42.829,14.619,60.698c7.489,11.687,17.426,21.834,29.125,29.332c15.681,10.189,34.4,15.582,53.089,15.465
				c8.557,0.037,17.032-1.487,25.299-3.592c21.097-5.691,40.002-18.968,52.699-36.732c9.626-13.36,15.735-29.241,17.508-45.618
				c0.075-2.78,0.394-5.55,0.526-8.325c0.265-9.556-0.953-19.146-3.564-28.337c-6.378-22.498-21.209-42.518-41.005-54.999
				C214.039,69.41,192.499,64.068,171.489,65.941z"/>
		</g>
		<g>
			<path fill="#FFFFFF" d="M144.519,74.86c21.566-8.774,46.443-9.075,68.194-0.751c14.015,5.263,26.725,13.945,36.688,25.125
				c11.263,12.507,19.033,28.138,22.203,44.668c1.21,5.839,1.832,11.786,2.102,17.738c-0.27,10.625-2.25,21.191-5.661,31.258
				c-0.489,1.229-0.742,2.92-2.287,3.235c-10.708,3.459-22.005,4.662-33.202,5.118c-11.463,0.771-22.983,0.498-34.425-0.456
				c-8.719-0.515-17.438-1.036-26.115-2.097c-8.168-1.09-16.381-1.848-24.611-2.192c-3.518-0.308-7.049-0.323-10.571-0.261
				c-3.883-0.051-7.766-0.104-11.645-0.004c-6.017,0.236-11.972,1.293-17.811,2.727c-4.107,1.006-8.18,2.204-12.067,3.887
				c-4.952-10.016-7.944-20.973-9.063-32.08c-0.916-8.254-0.423-16.607,0.911-24.789c2.702-16.207,9.884-31.606,20.397-44.216
				C117.413,89.943,130.222,80.595,144.519,74.86z M179.76,80.562c-2.453,5.424-4.79,10.903-7.227,16.335
				c4.807,0.021,9.61,0.017,14.413,0.005C184.514,91.473,182.3,85.94,179.76,80.562z M169.077,104.775
				c7.082,0.009,14.164,0.009,21.247-0.004c-0.991-2.023-1.517-4.388-2.885-6.162c-5.188-0.121-10.389,0.012-15.581-0.063
				C170.863,100.594,170.01,102.699,169.077,104.775z M165.65,112.641c9.361,0.008,18.723,0.008,28.083,0
				c-0.812-1.977-1.699-3.925-2.536-5.889c-7.65,0.017-15.304,0.004-22.958,0.004C167.378,108.716,166.508,110.676,165.65,112.641z
				 M132.8,111.836c-1.289,3.034-2.561,6.071-3.878,9.093c2.66,0.045,5.321,0.029,7.981,0.012
				C135.531,117.907,134.242,114.837,132.8,111.836z M225.784,112.144c-1.347,2.921-2.578,5.896-3.937,8.81
				c2.594,0.005,5.188,0.021,7.782-0.017C228.299,118.027,227.176,115.027,225.784,112.144z M164.435,115.317
				c-0.808,1.881-1.628,3.75-2.44,5.627c11.79,0.021,23.58,0.008,35.369,0.008c-0.808-1.881-1.658-3.746-2.416-5.648
				C184.779,115.296,174.605,115.275,164.435,115.317z M125.2,129.805c5.209-0.066,10.426,0.157,15.631-0.124
				c-0.928-1.927-1.765-3.896-2.656-5.839c-3.502,0.037-6.999,0-10.501,0.02C126.862,125.852,125.971,127.804,125.2,129.805z
				 M158.075,129.792c14.367,0.038,28.734,0.004,43.102,0.017c-0.812-2.006-1.678-3.982-2.569-5.951
				c-12.627-0.012-25.254,0.017-37.881-0.012C159.811,125.81,158.949,127.804,158.075,129.792z M220.604,124.003
				c-1.015,1.865-1.74,3.871-2.606,5.806c5.121,0,10.248-0.005,15.374,0.004c-0.82-1.939-1.537-3.933-2.519-5.793
				C227.478,123.743,223.981,123.758,220.604,124.003z M123.725,133.17c-0.828,2.001-1.678,3.999-2.553,5.979
				c7.952,0.013,15.909,0,23.865,0.008c-0.94-1.977-1.81-3.986-2.685-5.992C136.144,133.141,129.933,133.141,123.725,133.17z
				 M156.678,133.187c-1.103,1.898-1.762,4.015-2.772,5.963c17.123,0.017,34.25-0.008,51.377,0.013c-0.874-1.998-1.745-4-2.61-6.001
				C187.34,133.166,172.007,133.112,156.678,133.187z M216.476,133.17c-0.829,2.005-1.716,3.982-2.578,5.971
				c7.845,0.025,15.689,0.013,23.538,0.013c-0.891-1.981-1.745-3.979-2.565-5.988C228.738,133.146,222.605,133.137,216.476,133.17z
				 M119.676,142.713c-0.755,1.812-1.534,3.614-2.3,5.416c10.551,0.004,21.097,0,31.648,0.004c-0.828-1.794-1.653-3.597-2.425-5.417
				C137.624,142.693,128.648,142.696,119.676,142.713z M152.364,142.701c-0.762,1.819-1.591,3.614-2.374,5.425
				c19.742,0.024,39.48-0.013,59.219,0.021c-0.829-1.804-1.6-3.626-2.395-5.438C188.662,142.696,170.511,142.709,152.364,142.701z
				 M212.365,142.713c-0.754,1.803-1.517,3.609-2.28,5.413c10.385,0.024,20.77-0.013,31.155,0.017
				c-0.746-1.824-1.537-3.631-2.313-5.441C230.073,142.713,221.221,142.688,212.365,142.713z M113.609,157.035
				c43.823-0.012,87.642,0.012,131.465-0.012c-0.683-1.542-1.313-3.108-2.014-4.637c-42.489,0.025-84.977,0.008-127.466,0.008
				C114.927,153.939,114.268,155.485,113.609,157.035z M111.234,162.597c-0.596,1.441-1.21,2.881-1.819,4.318
				c46.624,0.023,93.248,0,139.873,0.012c-0.597-1.455-1.218-2.893-1.844-4.33C202.043,162.601,156.637,162.597,111.234,162.597z
				 M105.321,176.662c49.392,0.024,98.785-0.004,148.174,0.012c-0.514-1.147-1.012-2.308-1.48-3.478
				c-48.083-0.016-96.165,0.005-144.249-0.012C105.98,173.052,106.042,175.53,105.321,176.662z M101.969,184.511
				c-0.39,0.916-0.792,1.827-1.194,2.742c52.417,0.004,104.831-0.012,157.245,0.008c-0.394-0.912-0.779-1.822-1.16-2.734
				C205.229,184.498,153.599,184.535,101.969,184.511z"/>
		</g>
		<path fill="#FFFFFF" d="M252.712,73.351c1.081-0.299,2.764-0.941,3.27,0.489c0.128,2.963,1.127,5.794,2.362,8.463
			c0.862,1.881,2.839,3.07,3.282,5.17c0.414,1.223-0.787,2.031-1.558,2.735c-0.643-1.11-1.732-1.093-2.826-0.729
			c-1.537-2.031-2.69-4.343-3.812-6.626C251.949,79.902,252.628,76.508,252.712,73.351z"/>
		<g>
			<path fill="#FFFFFF" d="M283.986,106.449c-0.734-1.188,0.448-2.561,1.587-2.896c1.798-0.27,3.456,0.899,4.463,2.291
				c0.514,0.986,0.588,2.167,1.305,3.063c1.135-1.791,2.135-4.509,4.608-4.604c0.974-0.116,1.944-0.307,2.93-0.36
				c1.007,0.638,1.512,1.84,2.532,2.495c1.268,0.821,1.819,2.512,0.92,3.817c-0.41,0.241-0.8,0.489-1.185,0.754
				c0.533,0.639,0.94,1.393,1.55,1.977c0.642,0.253,1.33,0.377,2.006,0.539c0.166,0.265,0.493,0.796,0.654,1.056
				c-0.542,0.788-1.463,0.771-2.316,0.784c-0.112,0.215-0.336,0.647-0.448,0.862c-0.452,0.017-0.898,0.042-1.339,0.066
				c-0.559,0.613-1.325,0.829-2.13,0.613c-0.759,0.473-1.574,0.862-2.458,1.028c-0.141-0.813-0.149-1.637-0.29-2.446
				c-1.103-1.202-3.013-2.076-2.735-4.036c0.99,0.763,1.918,1.607,2.867,2.425c0.062-0.461,0.121-0.92,0.183-1.376
				c-1.376-0.34-3.154-1.417-2.847-3.042c0.646-0.75,1.757-1.023,2.076-2.064c-1.455,0.726-2.71,1.815-3.523,3.233
				c1.923,3.398,3.817,6.813,5.263,10.447c0.803-0.709,1.036-1.757,1.458-2.685c0.435-0.063,0.874-0.1,1.322-0.113
				c0.529-0.236,1.247-0.779,1.777-0.211c0.386,0.825,0.949,1.865,0.48,2.759c-0.51,0.742-1.348-0.008-1.993-0.07
				c-0.361,0.369-0.713,0.742-1.062,1.115c0.564,0.183,1.132,0.37,1.699,0.556c0.862-0.36,2.011-0.476,2.491-1.405
				c0.12-1.127-0.58-2.155-0.733-3.257c0.146-0.576,0.874-0.75,1.251-1.152c1.604,1.238,2.449,3.335,2.226,5.337
				c-0.079,0.886-0.94,1.421-1.699,1.699c-1.96,0.705-4.04,0.112-6.021-0.124c0.584,1.72,1.977,3.643,0.891,5.458
				c-0.783,0.625-1.894,0.733-2.851,0.584c-1.073-0.286-1.587-1.33-2.055-2.234c0.232-0.422,0.464-0.845,0.696-1.264
				c-0.506-0.56-0.833-1.429-1.583-1.67c-1.819,0.497-2.826-1.372-4.28-2.064c-0.187,0.543-0.377,1.086-0.56,1.629
				c0.642,1.836,1.741,3.577,1.72,5.582c-2.117,0.183-3.742-1.334-4.907-2.905c-1.786,0.024-3.734,0.394-5.354-0.568
				c-1.827-1.007-3.576-2.346-4.633-4.177c-0.436-1.865,1.67-2.537,2.706-3.626c1.405,1.807,1.023,4.753,3.203,5.947
				c1.003-0.071,2.37,0.306,3.099-0.563c-1.401-3.609-3.601-6.83-5.495-10.182c-0.365-0.701-0.754-1.704-0.112-2.358
				c0.638-0.444,1.708-0.551,2.197,0.178c0.903,1.256,1.255,2.843,2.312,4.012c1.003,1.11,1.625,2.482,2.508,3.675
				c1.781,0.303,3.24,1.355,4.67,2.399c-1.103-2.026-2.16-4.09-3.593-5.909c-0.758-0.92-1.189-2.043-1.359-3.216
				c0.675-0.095,1.355-0.186,2.039-0.277c0.833,0.692,1.454,1.587,1.952,2.544c1.458,2.707,3.22,5.276,4.297,8.177
				c-0.518,1.591,1.463,1.914,2.42,2.602c-2.35-6.091-5.768-11.694-9.067-17.305C286.44,107.605,284.533,108.011,283.986,106.449z
				 M296.294,106.889c0.957,1.197,2.656,1.864,3.013,3.468c-0.626,0.179-1.252,0.356-1.876,0.535
				c1.04,0.556,2.101,1.065,3.178,1.542c-0.018-0.833-0.038-1.666-0.059-2.495c-0.484-1.032-0.655-2.159-0.736-3.282
				C298.656,106.139,297.409,106.412,296.294,106.889z M297.475,112.334c0.348,0.762,0.625,1.579,1.132,2.262
				c0.691,0.692,1.698,0.916,2.572,1.293C301.478,113.684,298.992,113.133,297.475,112.334z"/>
		</g>
		<g>
			<path fill="#FFFFFF" d="M72.211,105.687c0.638-0.762,1.289-1.853,2.428-1.794c2.093,0.211,3.957,1.271,5.876,2.06
				c1.405,0.559,2.765,1.371,3.688,2.593c0.949,1.886,1.729,4.012,0.949,6.105c-0.651,0.364-1.314,0.713-1.993,1.02
				c-1.132,2.3-1.969,4.736-2.607,7.215c-1.151,2.627-2.213,5.304-2.987,8.072c-0.506,1.675-1.078,3.432-2.317,4.721
				c-1.28,0.236-2.822,0.286-3.933-0.531c-2.768-1.873-5.425-3.978-7.554-6.568c-1.495-1.811-2.188-4.355-1.525-6.638
				c0.833-1.857,2.586-3.072,4.351-3.958c-2.736-3.398-7.385-4.82-9.478-8.794c-1.227-1.343-0.145-4.032,1.786-3.75
				c2.358,0.576,3.833,2.719,5.765,4.037c2.768,2.267,5.777,4.198,8.744,6.187c1.301,0.841,2.549,1.798,3.991,2.395
				c0.97-1.865,1.766-3.821,2.524-5.777c0.335-0.787,0.435-1.811-0.274-2.429c-1.227-1.035-2.627-1.923-4.169-2.399
				c-0.497,0.132-0.978,0.294-1.455,0.485C73.292,107.291,72.716,106.507,72.211,105.687z M66.645,120.792
				c0.004,0.896-0.042,1.798,0.008,2.694c1.218,2.959,3.49,5.52,6.394,6.904c1.086-2.32,1.695-4.832,2.499-7.26
				c-1.53-0.758-2.963-1.745-4.604-2.25C69.512,120.804,68.075,120.846,66.645,120.792z"/>
		</g>
		<path fill="#FFFFFF" d="M287.41,192.735c-0.05-1.5,0.498-2.922,1.027-4.293c0.709,2.197,2.727,3.498,4.074,5.268
			c1.326,1.926,3.796,2.438,5.962,2.747c0.369-0.505,0.75-0.999,1.165-1.468c-0.397,2.429-1.26,4.762-2.138,7.054
			c-0.108-0.681-0.166-1.367-0.199-2.047c-1.566-0.953-3.382-1.948-5.271-1.524c-2.184,0.36-4.434,0.336-6.576,0.949
			c1.131,0.521,2.333,0.932,3.361,1.666c-0.933,0.053-1.865-0.038-2.79,0.074c-0.882,0.199-1.313,1.082-1.811,1.744
			c3.374,1.488,6.68,3.142,10.12,4.476c0.713-0.286,1.148-0.989,1.736-1.458c-0.646,2.338-1.625,4.575-2.702,6.742
			c-0.066-0.721-0.057-1.441-0.132-2.154c-0.8-0.738-1.844-1.111-2.801-1.584c-2.47-1.119-4.865-2.402-7.369-3.443
			c-0.041,0.92-0.443,2.006,0.249,2.791c0.526,0.717,1.16,1.35,1.691,2.07c-1.239-0.472-2.391-1.135-3.623-1.621
			c0.167,0.647,0.315,1.414,1.032,1.676c2.847,1.508,5.665,3.086,8.566,4.496c0.783-0.142,1.289-0.892,1.96-1.276
			c-0.849,2.171-1.865,4.28-3.042,6.291c-0.058-0.692-0.042-1.388-0.012-2.071c-2.777-1.845-5.769-3.336-8.674-4.96
			c-0.85-0.625-1.699,0.272-2.449,0.589c2.78-5.619,5.349-11.367,7.247-17.351c0.216-0.688,0.514-1.349,0.883-1.97
			c0.042,0.635,0.104,1.269,0.182,1.902c2.006-0.063,4.008-0.289,5.988-0.613c-1.488-1.43-2.685-3.189-4.484-4.264
			C288.193,191.692,287.807,192.22,287.41,192.735z"/>
		<path fill="#FFFFFF" d="M67.005,192.956c1.243-2.057,4.77-2.407,6.1-0.273c0.883,1.174,0.783,2.711,0.812,4.098
			c0.187,0.066,0.551,0.203,0.738,0.27c0.273,2.25,1.404,4.26,2.042,6.411c-0.576-0.323-1.027-0.903-1.678-1.062
			c-1.455,0.387-2.78,1.131-4.16,1.72c0.431,1.26,0.937,2.495,1.479,3.714c1.364-0.729,2.847-1.26,4.123-2.143
			c0.145-0.639,0.236-1.289,0.265-1.943c1.007,1.824,1.819,3.75,2.524,5.706c-0.485-0.339-0.949-0.7-1.414-1.062
			c-1.736,0.651-3.352,1.58-5.01,2.403c-1.935,1.013-3.995,1.845-5.665,3.278c-0.597-1.674-1.43-3.258-1.964-4.952
			c0.564,0.39,1.098,0.819,1.633,1.251c1.55-0.626,3.05-1.363,4.546-2.092c-0.46-1.277-0.97-2.528-1.508-3.771
			c-1.472,0.768-3.096,1.243-4.48,2.172c-0.278,0.455,0.183,1.988-0.506,1.702c-0.932-1.952-1.583-4.032-2.246-6.092
			c0.543,0.386,1.019,0.899,1.625,1.202c1.678-0.328,3.178-1.202,4.761-1.803c1.649-0.742,3.415-1.256,4.981-2.168
			c0.215-0.629,0.398-1.271,0.547-1.918c-1.301,0.521-2.598,1.086-3.979,1.367c0.821-1.102,2.047-1.961,2.454-3.324
			c0.319-0.986-0.05-2.242-1.02-2.705c-0.957-0.307-2.134,0.265-2.428,1.238c-0.53,1.666-0.481,3.473-1.106,5.109
			c-0.896,2.254-4.207,3.245-6.013,1.492c-1.509-1.442-1.724-3.627-1.77-5.598c-0.249-0.211-0.746-0.636-0.994-0.851
			c1.616-0.597,3.253-1.181,4.964-1.435c-0.958,1.078-2.333,1.832-2.921,3.203c-0.411,1.146-0.178,2.57,0.717,3.428
			c1.015,0.869,2.739,0.191,3.058-1.063C66.015,196.64,65.961,194.604,67.005,192.956z"/>
		<g>
			<path fill="#FFFFFF" d="M253.992,207.106c4.082-1.926,7.583-4.807,11.243-7.4c-2.888,6.783-6.804,13.12-11.238,18.996
				c-9.486,12.564-22.333,22.498-36.733,28.809c-11.616,5.147-24.276,7.695-36.932,8.288c-7.252-0.116-14.462-1.192-21.557-2.631
				c-7.658-1.405-14.873-4.509-21.802-7.961c-15.275-7.795-28.391-19.804-37.3-34.474c0.862-0.315,1.761-0.519,2.669-0.66
				c5.122-0.79,10.252-1.563,15.42-1.95c13.531-0.718,27.118-0.335,40.591,1.065c8.599,1.043,17.198,2.055,25.751,3.422
				c6.332,0.771,12.689,1.302,19.042,1.828c10.791,0.336,21.665,0.381,32.353-1.367C241.9,212.022,248.369,210.46,253.992,207.106z
				 M113.543,212.987c1.761,0.83,3.535,1.65,5.383,2.279c6.001,2.094,12.084,3.945,18.254,5.486
				c4.103,1.271,8.359,1.873,12.548,2.773c9.034,1.275,18.146,2.308,27.288,2.191c16.361,0.232,32.701-2.238,48.44-6.631
				c1.678-0.576,3.315-1.271,5.015-1.785c-8.383,1.143-16.854,0.924-25.291,0.782c-5.416-0.385-10.824-0.87-16.219-1.479
				c-7.48-0.621-14.848-2.133-22.315-2.826c-9.627-1.135-19.299-2.209-29.004-1.905
				C129.593,211.492,121.558,212.329,113.543,212.987z M197.745,235.81c-0.315,1.926-0.083,3.899-0.153,5.846
				c-0.063,1.431,0.211,3.138,1.612,3.88c2.313,1.168,5.151,1.069,7.53,0.12c1.09-0.447,1.773-1.592,1.699-2.76
				c-0.046-1.447,0.335-3.138-0.597-4.377c-1.604-1.42-3.982-1.252-5.789-0.314c0.004-1.016-0.063-2.039,0.058-3.045
				c0.489-0.588,1.281-0.254,1.927-0.291c0.033,0.51,0.066,1.02,0.103,1.537c1.471-0.016,2.947-0.012,4.422-0.02
				c-0.228-0.838-0.356-1.832-1.139-2.351c-1.749-1.185-4.015-1.173-6.034-0.929C199.85,233.331,198.044,234.11,197.745,235.81z
				 M158.066,233.87c-1.385,0.891-2.971,1.343-4.571,1.658c-0.005,0.438-0.005,0.887-0.005,1.334
				c1.011,0.08,2.113-0.115,3.029,0.423c0.418,2.899-0.021,5.872,0.149,8.806c1.575,0.029,3.157,0.018,4.736,0.021
				c0.046-4.219-0.016-8.434,0.025-12.647C160.309,233.519,159.049,233.173,158.066,233.87z M167.536,234.201
				c-1.194,0.829-1.115,2.416-1.119,3.704c0.008,1.156-0.071,2.623,1.032,3.345c1.636,1.14,3.767,0.778,5.503,0.079
				c-0.008,1.172-0.087,2.35-0.327,3.506c-0.543-0.083-1.077-0.203-1.6-0.355c-0.079-0.349-0.228-1.045-0.303-1.389
				c-1.487-0.008-2.975-0.033-4.458,0.029c0.34,1.074,0.779,2.292,1.922,2.744c2.135,0.813,4.555,0.762,6.73,0.123
				c1.335-0.389,2.378-1.661,2.321-3.078c0.037-2.242,0.124-4.493-0.058-6.727c-0.116-1.396-1.396-2.375-2.664-2.697
				C172.226,232.883,169.578,232.879,167.536,234.201z M184.252,233.621c-0.949,0.368-1.935,1.062-2.084,2.146
				c-0.464,2.334-0.265,4.746-0.207,7.107c0.004,1.654,1.334,3.087,2.946,3.336c2.085,0.406,4.5,0.525,6.336-0.717
				c1.488-1.061,1.235-3.083,1.252-4.68c-0.112-1.935,0.315-4.02-0.543-5.83C190.149,232.78,186.751,232.742,184.252,233.621z"/>
		</g>
		<g>
			<path fill="#FFFFFF" d="M70.118,214.698c3.899-0.5,7.762-1.25,11.649-1.831c-2.739,3.907-6.353,7.198-8.719,11.375
				c0.39,0.356,0.776,0.716,1.169,1.077c2.69-1.504,5.188-3.324,7.803-4.952c1.056-0.526,1.14-1.812,1.521-2.79
				c0.647,0.953,1.355,1.895,1.79,2.972c-1.106,3.075-2.461,6.065-3.493,9.175c1.67-1.224,3.389-2.392,4.96-3.738
				c0.791-0.551,0.365-1.6,0.489-2.387c1.467,1.869,2.735,3.887,4.219,5.744c0.99,1.242,1.815,2.743,1.691,4.389
				c-0.005,1.399-0.821,2.582-1.554,3.709c1.483-0.795,3.19-1.633,4.907-1.125c1.612,0.387,3.033,1.56,3.547,3.162
				c0.916,2.258-0.207,4.711-1.616,6.498c-1.381,1.653-3.353,3.137-5.611,3.025c-3.257-0.166-5.864-3.779-4.869-6.917
				c0.265-1.044,0.92-1.918,1.546-2.771c-1.828,1.246-4.355,1.686-6.22,0.265c-2.035-1.58-3.44-3.83-4.791-5.989
				c0.546,0.262,1.085,0.535,1.624,0.821c2.096-1.363,3.995-3.005,5.979-4.513c0.945-0.764,1.994-1.426,2.777-2.362
				c0.368-0.888-0.887-1.587-1.517-0.933c-3.257,2.291-6.282,4.91-9.631,7.074c1.007-4.287,2.785-8.348,4.347-12.449
				c-2.184,1.467-4.426,2.851-6.573,4.371c-0.986,0.539-0.542,1.736-0.634,2.635c-1.815-2.752-3.531-5.606-4.836-8.639
				c0.381,0.311,1.145,0.928,1.525,1.234c0.725-0.635,1.442-1.292,2.001-2.076c-0.439-1.227-1.115-2.35-1.732-3.494
				c-0.841,0.154-1.683,0.319-2.519,0.493c-0.021,0.713-0.033,1.421-0.063,2.138c-0.712-0.965-1.235-2.047-1.819-3.086
				c0.153-0.281,0.306-0.564,0.464-0.838C68.22,215.026,69.334,214.794,70.118,214.698z M72.799,215.14
				c0.481,0.944,0.957,1.889,1.434,2.838c1.032-1.23,2.093-2.433,3.137-3.65C75.845,214.592,74.328,214.897,72.799,215.14z
				 M81.775,237.011c0.804,1.102,2.072,2.088,3.514,1.506c2.569-1.045,4.745-3.108,6.091-5.521c0.717-1.174,0.216-2.553-0.812-3.342
				C87.676,232.149,84.527,234.358,81.775,237.011z M95.906,238.026c-1.889,0.846-3.455,2.275-4.848,3.783
				c-0.854,1.012-1.77,2.151-1.832,3.535c-0.116,1.409,1.529,2.678,2.843,2.051c2.184-0.746,3.75-2.59,5.193-4.31
				c0.866-1.21,1.977-2.627,1.629-4.214C98.5,237.657,96.909,237.462,95.906,238.026z"/>
		</g>
		<g>
			<path fill="#FFFFFF" d="M278.264,213.231c1.409,0.742,2.822,1.5,4.106,2.451c-1.682,0.152-4.023-0.707-5.001,1.172
				c-0.962,1.383,0.937,3.19,2.349,2.584c1.612-0.629,2.889-1.951,4.6-2.356c2.636-0.411,5.371,2.333,4.533,4.989
				c-0.269,1.443-1.438,2.412-2.201,3.584c-0.547,1.351-1.367,2.562-2.176,3.767c-2.383-0.153-4.749-0.485-7.136-0.551
				c1.302,1.077,2.615,2.176,4.103,3c0.617-0.211,1.21-0.489,1.828-0.729c-2.947,4.67-6.345,9.07-10.079,13.137
				c-0.033-0.809,0.647-1.827-0.158-2.432c-2.274-2.222-4.686-4.293-7.036-6.433c-0.547-0.812-2.184-0.183-1.583,0.808
				c1.943,4.004,4.409,7.762,6.104,11.889c-4.169-1.479-7.932-3.883-11.923-5.756c-0.671-0.51-1.069,0.522-1.525,0.826
				c2.246,2.742,4.662,5.344,7.049,7.963c0.555,0.685,1.392,0.137,2.056-0.045c0.062,0.082,0.177,0.248,0.236,0.332
				c-1.533,1.309-2.884,2.842-4.575,3.967c0.124-0.697,0.439-1.353,0.469-2.062c-1.458-1.993-3.211-3.75-4.758-5.673
				c-0.824-0.896-1.508-2.001-2.631-2.553c-0.406,0.313-0.787,0.646-1.152,0.998c2.474,3.561,5.594,6.627,8.089,10.174
				c-4.198-0.82-8.226-2.334-12.233-3.795c1.898,2.357,3.406,5.043,5.561,7.182c0.444-0.096,1.33-0.295,1.778-0.395
				c-0.99,1.115-2.221,1.957-3.493,2.707c0.191-0.83,0.953-1.791,0.24-2.582c-1.731-2.42-3.476-4.836-5.262-7.215
				c-0.527-0.547-2.321-1.131-1.994,0.215c1.459,2.563,3.485,4.767,4.89,7.367c0.547,0.987,0.787,2.28,0.195,3.307
				c-0.846,1.443-2.383,2.451-4.036,2.679c-1.343,0.087-2.552-0.758-3.257-1.845c-1.587-2.375-2.847-4.961-4.563-7.252
				c-0.414-0.012-1.239-0.032-1.649-0.045c1.505-1.135,3.129-2.101,4.774-3.021c-0.286,0.548-0.53,1.115-0.729,1.699
				c0.506,1.438,1.513,2.627,2.283,3.928c1.243,1.835,2.143,4.136,4.331,5.06c0.887-0.463,2.001-0.916,2.316-1.963
				c0.36-1.668-0.85-3.056-1.699-4.34c-1.214-1.615-2.193-3.418-3.564-4.91c-0.642-0.158-1.31-0.112-1.96-0.162
				c1.624-1.243,3.311-2.403,4.935-3.655c2.972,1.153,5.984,2.209,9.042,3.116c-1.343-1.545-2.561-3.198-3.92-4.727
				c-0.564-0.801-1.641-0.338-2.424-0.432c3.307-2.823,6.436-5.835,9.615-8.794c-0.149,0.446-0.452,1.338-0.601,1.786
				c2.305,1.533,4.861,2.627,7.323,3.879c-1.285-2.43-2.499-4.916-4.053-7.186c-0.613,0.202-1.218,0.41-1.832,0.592
				c2.442-2.926,5.002-5.754,7.286-8.813l0.315-0.009c1.256,0.484,2.271,1.496,3.071,2.561c-1.144-0.232-2.329-1.281-3.481-0.601
				c-0.937,0.46-1.497,1.384-2.068,2.213c1.317,1.123,2.598,2.296,3.896,3.452c0.244-0.659,0.77-1.334,0.51-2.063
				c-0.348-0.791-0.858-1.488-1.239-2.255c1.998,1.339,3.858,2.909,5.541,4.628c-0.995-0.252-1.918-0.849-2.955-0.869
				c-0.489,0.264-0.911,0.617-1.346,0.957c1.438,1.131,2.627,2.645,4.285,3.457c1.177-0.892,2.026-2.392,1.81-3.892
				c-0.215-1.05-0.7-2.006-0.99-3.024c1.177,0.836,2.08,1.983,3.017,3.069c0.025-0.796,0.534-1.812-0.32-2.341
				c-2.656-2.117-5.321-4.235-8.085-6.204c-0.385,0.245-0.787,0.418-1.21,0.522c-0.174-0.854,0.692-1.447,1.061-2.135
				c1.186-1.525,2.043-3.548,3.941-4.318c1.38-0.572,2.971,0.283,3.792,1.414c0.63,0.904,0.418,2.051,0.464,3.086
				c2.047,0.063,4.098,0.141,6.15,0.104c-1.082-0.75-2.213-1.446-3.157-2.366c1.272,0.121,2.536,0.576,3.825,0.406
				c1.289-0.216,2.114-1.496,2.184-2.738c-0.269-1.07-1.389-2.131-2.549-1.787c-1.467,0.608-2.702,1.703-4.248,2.129
				c-2.205,0.754-4.583-1.109-5.072-3.223c-0.353-1.773,0.932-3.225,2.213-4.248C278.442,214.256,278.321,213.571,278.264,213.231z
				 M272.441,225.181c1.417,1.321,3.046,2.391,4.583,3.567c0.394-0.908,1.019-2.015,0.41-2.972
				c-0.767-0.916-1.811-1.764-3.033-1.896C273.494,223.737,273.038,224.694,272.441,225.181z"/>
		</g>
		<path fill="#FFFFFF" d="M171.278,235.063c0.567-0.485,1.587-0.014,1.545,0.75c0.162,1.234,0.194,2.516-0.042,3.746
			c-0.124,0.924-1.782,0.887-1.865-0.041c-0.099-1.418-0.162-2.865,0.075-4.27L171.278,235.063z"/>
		<path fill="#FFFFFF" d="M186.358,235.229c0.551-0.252,1.529-0.556,1.645,0.324c0.091,2.825,0.12,5.668,0,8.494
			c0.003,0.883-1.367,0.924-1.587,0.111C186.266,241.188,186.407,238.204,186.358,235.229z"/>
		<path fill="#FFFFFF" d="M202.122,239.716c0.43-0.679,1.674-0.604,1.918,0.208c0.133,1.39,0.042,2.785,0.033,4.183
			c-0.26,0.166-0.783,0.5-1.044,0.666c-0.348-0.344-0.986-0.535-0.94-1.123C202.006,242.34,201.968,241.019,202.122,239.716z"/>
		<path fill="#FFFFFF" d="M101.401,244.347c0.857-0.775,0.667-2.02,0.853-3.051c0.817,0.768,1.633,1.538,2.453,2.313
			c-0.597,3.168-0.966,6.377-1.318,9.582c1.322-1.68,2.71-3.308,3.966-5.031c0.535-0.688-0.108-1.579-0.141-2.32
			c0.995,0.787,2.18,1.446,2.793,2.614c-0.477-0.124-0.949-0.252-1.422-0.386c-2.843,3.154-5.275,6.652-8.043,9.877
			c-0.228-1.414-0.042-2.844,0.079-4.252c0.298-2.889,0.618-5.781,1.148-8.637c-1.827,2.075-3.709,4.106-5.507,6.207
			c-0.696,0.738,0.074,1.668,0.215,2.475c-1.185-0.857-2.259-1.856-3.237-2.938c0.792-0.028,1.812,0.593,2.417-0.146
			C97.634,248.606,99.474,246.435,101.401,244.347z"/>
		<path fill="#FFFFFF" d="M105.989,252.612c1.682-1.786,4.223-3.422,6.755-2.52c1.575,0.319,2.379,1.799,3.12,3.063
			c0.464-0.162,0.932-0.315,1.405-0.469c-0.842,1.518-1.778,2.988-2.926,4.293c0.104-1.387,0.481-2.785,0.211-4.172
			c-0.244-1.106-1.4-2.209-2.586-1.695c-1.902,0.714-3.157,2.429-4.334,3.996c-0.957,1.412-2.043,2.982-1.857,4.777
			c0.071,1.186,1.277,1.729,2.126,2.329c0.937-0.94,1.781-2.002,2.329-3.216c-0.104-0.695-0.638-1.247-0.903-1.876
			c1.736,1.028,3.543,2.034,4.99,3.468c-0.41-0.063-1.235-0.189-1.645-0.252c-0.845,1.036-1.583,2.15-2.333,3.253
			c-2.378-0.502-4.927-1.62-6.029-3.938C103.199,257.254,104.331,254.457,105.989,252.612z"/>
		<g>
			<path fill="#FFFFFF" d="M122.254,270.585c3.191-2.852,5.855-6.24,9.009-9.126c-0.286,4.179-1.023,8.321-1.198,12.517
				c0,0.782,0.373,1.508,0.593,2.25c-1.782-0.734-3.622-1.386-5.259-2.425c0.638-0.04,1.272-0.099,1.906-0.17
				c0.215-0.911,0.303-1.839,0.377-2.769c-1.015-0.471-2.023-0.957-3.021-1.453c-0.658,0.642-1.301,1.305-1.918,1.988
				c0.369,0.561,0.734,1.111,1.086,1.688c-1.21-0.438-2.391-0.976-3.473-1.667C120.977,271.124,121.682,270.979,122.254,270.585z
				 M125.25,268.726c0.853,0.426,1.711,0.84,2.569,1.268c0.174-1.575,0.41-3.137,0.626-4.703
				C127.376,266.429,126.332,267.593,125.25,268.726z"/>
		</g>
		<g>
			<path fill="#FFFFFF" d="M220.902,265.215c1.691-0.878,3.481-1.55,5.267-2.209c-0.34,0.494-0.713,0.97-1.011,1.493
				c0.038,1.182,0.721,2.217,1.131,3.303c1.098,2.395,1.898,4.932,3.24,7.209c0.954-0.468,2.118-0.771,2.719-1.729
				c0.825-1.23,0.464-2.776,0.563-4.156c1.036,1.25,1.177,2.958,1.708,4.445c-3.904,1.853-7.911,3.473-11.981,4.924
				c-0.514,0.178-1.048,0.29-1.587,0.332c0.361-0.489,0.846-0.866,1.305-1.256c-0.542-0.795-0.957-1.748-1.769-2.305
				c-1.086,0.236-2.118,0.647-3.17,0.998c0.025,0.9-0.083,1.832,0.17,2.715c0.588,0.148,1.181,0.277,1.782,0.39
				c-1.79,0.974-3.825,1.325-5.764,1.894c-1.641-1.74-3.216-3.552-4.936-5.218c0.323,1.558,0.597,3.142,1.148,4.642
				c0.253,0.75,1.272,0.56,1.811,0.957c-1.877,0.685-3.841,1.186-5.839,1.348c0.477-0.639,1.574-1.049,1.197-1.993
				c-0.389-2.25-1.007-4.455-1.446-6.692c-0.278-1.178-0.436-2.425-1.069-3.478c-0.718-0.231-1.712,0.153-1.417,1.062
				c0.394,2.912,1.367,5.743,1.525,8.689c0.307,4.053-6.597,5.171-7.853,1.449c-0.8-2.817-0.775-5.801-1.359-8.66
				c-0.132-0.477-0.506-0.838-0.766-1.23c0.032,1.28,0.224,2.557,0.248,3.846c-0.854-1.414-1.454-3.369-3.468-3.348
				c0.356,3.819,0.588,7.666,1.214,11.457c0.605,0.188,1.21,0.387,1.811,0.594c-2.018,0.74-4.219,0.617-6.332,0.74
				c0.609-0.589,1.84-0.869,1.661-1.927c-0.203-3.522-0.53-7.036-0.816-10.552c-0.663,0.271-1.5,0.373-1.885,1.058
				c-0.423,0.87-0.601,1.832-0.974,2.722c-0.306-1.383-0.323-2.805-0.344-4.213c4.551-0.199,9.051-0.9,13.572-1.385
				c-0.451,0.361-0.924,0.7-1.392,1.044c0.042,2.677,0.684,5.3,1.028,7.948c0.228,1.145,0.551,2.611,1.827,3.009
				c1.724,0.493,3.395-1.256,3.05-2.971c-0.376-2.623-0.94-5.226-1.504-7.815c-0.149-0.953-1.297-1.002-1.993-1.396
				c2.047-0.602,4.165-0.903,6.232-1.422c1.426-0.352,2.942-0.737,4.401-0.328c1.542,0.574,2.283,2.412,2.064,3.967
				c-0.108,0.908-0.907,1.488-1.425,2.172c1.571,1.533,3.091,3.121,4.77,4.538c0.704-4.604-0.029-9.299,0.36-13.924
				c2.743,3.418,5.221,7.081,8.263,10.247c0.601,1.016,2.151,0.009,1.653-0.932c-1.16-3.066-2.391-6.117-3.667-9.138
				C222.642,265.256,221.503,265.53,220.902,265.215z M207.065,270.292c0.493,1.786,0.924,3.589,1.359,5.387
				c0.771-0.393,2.006-0.617,2.043-1.693c0.042-1.305-0.303-2.711-1.21-3.68C208.652,269.646,207.766,270.08,207.065,270.292z
				 M217.251,270.81c0.008,1.504,0.037,3.008,0.062,4.512c0.904-0.289,1.807-0.584,2.71-0.869
				C219.07,273.258,218.171,272.022,217.251,270.81z"/>
		</g>
		<path fill="#FFFFFF" d="M135.593,266.517c1.343-1.111,3.236-1.414,4.886-0.892c0.895,0.39,1.541,1.16,2.238,1.823
			c0.444-0.282,0.891-0.559,1.343-0.829c-0.489,1.666-0.957,3.36-1.77,4.911c-0.372-1.691-0.194-3.903-1.806-5.006
			c-1.305-0.846-2.694,0.394-3.373,1.467c-1.388,2.283-2.553,4.873-2.594,7.587c-0.05,1.534,1.765,3.054,3.191,2.237
			c0.568-1.064,0.987-2.232,1.156-3.426c-0.418-0.428-0.895-0.791-1.338-1.182c1.998,0.031,3.804,1.044,5.673,1.641
			c-0.576,0.174-1.144,0.371-1.703,0.586c-0.63,1.043-0.871,2.267-1.26,3.414c-2.291,0.36-4.865-0.086-6.597-1.72
			c-1.322-1.214-1.749-3.157-1.38-4.874C132.589,270.009,133.861,267.954,135.593,266.517z"/>
		<g>
			<path fill="#FFFFFF" d="M144.694,267.39c2.146,0.727,4.467,1.012,6.481,2.09c2.022,1.039,1.948,4.119,0.328,5.486
				c-0.601,0.432-1.313,0.646-1.989,0.936c0.659,1.981,1.065,4.054,1.835,5.998c0.7,0.621,1.252-0.319,1.372-0.924
				c0.704-3.033,1.379-6.072,2.034-9.113c0.249-0.887-0.787-1.396-1.181-2.051c1.848,0.377,3.738,0.625,5.537,1.219
				c-0.625,0.41-1.877,0.318-1.915,1.313c-0.672,3.029-1.243,6.079-1.873,9.117c-0.439,1.078,0.879,1.551,1.409,2.264
				c-2.826-0.414-5.615-1.033-8.375-1.746c-0.618-2.273-0.982-4.611-1.72-6.85c-0.589,1.611-1.044,3.27-1.404,4.943
				c0.443,0.436,0.886,0.879,1.305,1.339c-2.01-0.394-4.119-0.75-5.889-1.832c0.418-0.037,1.255-0.11,1.674-0.147
				c1.289-3.154,2.122-6.474,3.17-9.707C145.958,268.819,145.045,268.133,144.694,267.39z M146.741,274.696
				c0.821,0.009,1.848,0.349,2.466-0.393c0.775-1.045,1.115-2.421,1.002-3.705c-0.19-0.854-1.064-1.168-1.811-1.348
				C147.619,270.987,147.229,272.864,146.741,274.696z"/>
		</g>
		<path fill="#FFFFFF" d="M159.032,273.78c0.94-1.454,2.573-2.494,4.335-2.494c1.226-0.083,2.171,0.837,3.237,1.281
			c0.178-0.149,0.526-0.453,0.7-0.603c1.79,0.237,3.605,0.278,5.379,0.655c-0.535,0.261-1.048,0.551-1.546,0.871
			c-0.53,2.742-0.518,5.561-0.783,8.337c-0.137,1.313,0.522,3.079,2.084,3.038c1.666,0.145,2.735-1.497,2.744-2.996
			c0.091-2.371,0.228-4.741,0.294-7.107c0.219-1.076-0.924-1.537-1.546-2.17c2.752-0.047,5.503,0.09,8.255,0.057
			c-0.663,0.613-1.881,1.016-1.637,2.139c0.041,3.328-0.128,6.668,0.124,9.986c1.003,0.474,2.288,0.308,3.212-0.285
			c1.252-0.87,1.517-2.491,2.333-3.688c0.07,1.625-0.203,3.232-0.344,4.848c-3.199,0.066-6.403,0.158-9.597,0.029
			c0.7-0.609,1.931-1.045,1.695-2.197c0.008-3.049,0.091-6.104,0.095-9.149c0.137-0.95-1.099-1.508-1.633-0.676
			c-0.592,3.104-0.049,6.336-0.692,9.437c-0.745,3.899-7.546,3.424-7.965-0.447c-0.083-2.926,0.597-5.814,0.705-8.73
			c0.149-0.646-0.406-1.041-0.78-1.436c-0.244,1.381-0.356,2.785-0.584,4.175c-0.911-1.41-1.04-3.437-2.635-4.31
			c-1.065-0.759-2.366,0.168-2.851,1.164c-1.168,2.305-1.616,4.961-1.512,7.533c0.008,1.514,1.215,3.042,2.806,3.01
			c1.434-0.074,2.494-1.136,3.51-2.022c0.116,0.157,0.353,0.478,0.469,0.634c-1.041,0.924-2.113,1.994-3.564,2.18
			c-2.246,0.258-4.704-1.007-5.499-3.187C156.894,279.035,157.544,276.067,159.032,273.78z"/>
	</g>
</g>
</svg>
