<?xml version="1.0" encoding="utf-8"?>
<!-- Generator: Adobe Illustrator 16.0.0, SVG Export Plug-In . SVG Version: 6.00 Build 0)  -->
<!DOCTYPE svg PUBLIC "-//W3C//DTD SVG 1.1//EN" "http://www.w3.org/Graphics/SVG/1.1/DTD/svg11.dtd">
<svg version="1.1" id="图层_1" xmlns="http://www.w3.org/2000/svg" xmlns:xlink="http://www.w3.org/1999/xlink" x="0px" y="0px"
	 width="64px" height="64px" viewBox="0 0 64 64" enable-background="new 0 0 64 64" xml:space="preserve">
<circle cx="32" cy="32" r="31.242"/>
<path fill="#F9F9F9" d="M21.678,37.734h-1.146c-0.633,0-1.147-0.514-1.147-1.146v-6.406l-4.252-4.25
	c-0.449-0.447-0.45-1.174-0.002-1.622c0-0.001,0.001-0.001,0.002-0.002l4.252-4.25v-6.406c0-0.633,0.514-1.147,1.147-1.147l0,0
	h6.406l4.25-4.252c0.448-0.449,1.174-0.45,1.622-0.002c0.002,0,0.002,0.001,0.003,0.002l4.25,4.252h6.406
	c0.634,0,1.147,0.514,1.147,1.147v6.406l4.252,4.25c0.448,0.447,0.449,1.174,0.002,1.622c0,0-0.001,0.001-0.002,0.002l-4.252,4.25
	v6.406c0,0.633-0.514,1.146-1.147,1.146h-1.147v17.203c0,0.633-0.513,1.146-1.146,1.146c-0.179,0-0.354-0.041-0.515-0.121L32,51.635
	l-8.661,4.33c-0.566,0.283-1.255,0.055-1.539-0.512c-0.08-0.16-0.122-0.338-0.122-0.516V37.734z M23.972,53.082l7.514-3.758
	c0.323-0.162,0.704-0.162,1.028,0l7.514,3.756V37.734h-2.966l-4.25,4.252c-0.447,0.449-1.174,0.449-1.622,0.002
	c-0.001,0-0.001,0-0.002-0.002l-4.25-4.252h-2.966V53.082z M32,10.685l-3.775,3.778c-0.215,0.215-0.508,0.335-0.812,0.334h-5.735
	v5.735c0.001,0.304-0.12,0.596-0.334,0.812l-3.778,3.775l3.778,3.776c0.215,0.215,0.335,0.507,0.334,0.812v5.733h5.735
	c0.304,0,0.596,0.121,0.812,0.336L32,39.553l3.776-3.777c0.215-0.215,0.507-0.336,0.812-0.336h5.733v-5.733
	c0-0.304,0.121-0.596,0.336-0.812l3.777-3.776l-3.777-3.775c-0.215-0.215-0.336-0.508-0.336-0.812v-5.735h-5.733
	c-0.305,0.001-0.597-0.12-0.812-0.334L32,10.685z M40.028,25.119c0,4.434-3.595,8.027-8.028,8.027s-8.028-3.593-8.028-8.027
	c0-4.434,3.594-8.028,8.028-8.028S40.028,20.686,40.028,25.119z M36.348,25.093c0.001-2.4-1.944-4.348-4.347-4.349
	c-2.4-0.001-4.348,1.945-4.349,4.346c0,0.002,0,0.002,0,0.003c0.001,2.401,1.948,4.347,4.349,4.346S36.347,27.492,36.348,25.093z"/>
</svg>
