<?xml version="1.0" encoding="utf-8"?>
<!-- Generator: Adobe Illustrator 16.0.0, SVG Export Plug-In . SVG Version: 6.00 Build 0)  -->
<!DOCTYPE svg PUBLIC "-//W3C//DTD SVG 1.1//EN" "http://www.w3.org/Graphics/SVG/1.1/DTD/svg11.dtd">
<svg version="1.1" id="图层_1" xmlns="http://www.w3.org/2000/svg" xmlns:xlink="http://www.w3.org/1999/xlink" x="0px" y="0px"
	 width="164.25px" height="157.25px" viewBox="0 0 164.25 157.25" enable-background="new 0 0 164.25 157.25" xml:space="preserve">
<title>Page 1</title>
<desc>Created with Sketch.</desc>
<g id="Page-1">
	<g id="Group-48" transform="translate(0.000000, -1.000000)">
		<g transform="translate(0.000000, 0.945000)">
			<path id="Fill-2" fill="#FEFEFE" d="M139.866,31.983L90.708,2.803c-5.867-3.482-13.099-3.482-18.966,0l-49.158,29.18
				c-5.865,3.482-9.48,9.918-9.48,16.884v58.359c0,6.965,3.615,13.403,9.483,16.887l49.157,29.176
				c2.934,1.741,6.206,2.609,9.482,2.609c3.276,0,6.547-0.868,9.481-2.609l49.158-29.176c5.867-3.483,9.483-9.922,9.483-16.887
				V48.867C149.348,41.901,145.731,35.466,139.866,31.983z"/>
			<path id="Fill-4" fill="#3E474A" d="M73.462,150.3l-49.158-29.174c-4.808-2.856-7.795-8.18-7.795-13.899V48.868
				c0-5.72,2.987-11.045,7.793-13.898l49.16-29.18c2.357-1.399,5.042-2.138,7.764-2.138c2.721,0,5.406,0.739,7.764,2.138
				l49.158,29.18c4.051,2.405,6.783,6.569,7.553,11.241c-1.631-3.479-5.307-4.426-9.592-1.923L89.603,73.013
				c-5.798,3.391-10.074,7.194-10.078,14.187v57.304c-0.003,4.186,1.688,6.898,4.285,7.687c-0.854,0.147-1.713,0.249-2.583,0.249
				C78.503,152.439,75.819,151.7,73.462,150.3 M139.866,31.982L90.708,2.804c-2.934-1.743-6.208-2.613-9.482-2.613
				c-3.275,0-6.55,0.87-9.484,2.613L22.584,31.982c-5.865,3.482-9.48,9.92-9.48,16.886v58.358c0,6.963,3.615,13.403,9.482,16.886
				l49.158,29.177c2.935,1.739,6.207,2.611,9.482,2.611c3.276,0,6.547-0.872,9.481-2.611l49.16-29.177
				c5.867-3.482,9.481-9.923,9.481-16.886V48.868C149.348,41.902,145.733,35.465,139.866,31.982"/>
			<path id="Fill-6" fill="#47B353" d="M126.979,112.869l-12.24,7.325c-0.325,0.189-0.563,0.402-0.565,0.791v3.204
				c0,0.391,0.263,0.555,0.587,0.363l12.431-7.554c0.324-0.189,0.373-0.552,0.375-0.942v-2.824
				C127.566,112.842,127.305,112.68,126.979,112.869"/>
			<path id="Fill-8" fill="#FEFEFE" d="M100.914,85.907c0.396-0.201,0.723,0.047,0.729,0.565l0.041,4.234
				c1.771-0.706,3.313-0.894,4.709-0.572c0.301,0.081,0.436,0.493,0.311,0.982l-0.932,3.752c-0.072,0.285-0.231,0.57-0.424,0.749
				c-0.08,0.079-0.162,0.142-0.245,0.183c-0.126,0.064-0.249,0.084-0.368,0.061c-0.637-0.144-2.15-0.476-4.533,0.731
				c-2.499,1.264-3.373,3.437-3.355,5.047c0.021,1.925,1.008,2.508,4.417,2.566c4.542,0.076,6.504,2.059,6.552,6.636
				c0.047,4.492-2.352,9.315-6.02,12.271l0.08,4.192c0.005,0.505-0.322,1.083-0.719,1.284l-2.482,1.43
				c-0.398,0.201-0.725-0.047-0.73-0.552l-0.042-4.122c-2.126,0.884-4.282,1.097-5.658,0.543c-0.259-0.1-0.371-0.482-0.268-0.918
				l0.9-3.792c0.072-0.299,0.229-0.597,0.444-0.788c0.075-0.073,0.154-0.131,0.234-0.169c0.143-0.072,0.281-0.089,0.4-0.042
				c1.482,0.499,3.379,0.265,5.204-0.659c2.317-1.172,3.868-3.535,3.844-5.886c-0.023-2.129-1.176-3.014-3.982-3.034
				c-3.57,0.011-6.898-0.693-6.953-5.95c-0.044-4.329,2.206-8.831,5.767-11.678L97.79,88.74c-0.005-0.52,0.313-1.093,0.721-1.297
				L100.914,85.907z"/>
		</g>
	</g>
</g>
</svg>
