<?xml version="1.0" encoding="utf-8"?>
<!-- Generator: Adobe Illustrator 16.0.0, SVG Export Plug-In . SVG Version: 6.00 Build 0)  -->
<!DOCTYPE svg PUBLIC "-//W3C//DTD SVG 1.1//EN" "http://www.w3.org/Graphics/SVG/1.1/DTD/svg11.dtd">
<svg version="1.1" id="图层_1" xmlns:serif="http://www.serif.com/"
	 xmlns="http://www.w3.org/2000/svg" xmlns:xlink="http://www.w3.org/1999/xlink" x="0px" y="0px" width="595.281px"
	 height="841.891px" viewBox="0 0 595.281 841.891" enable-background="new 0 0 595.281 841.891" xml:space="preserve">
<g transform="matrix(1,0,0,1,-71.6603,-49.6972)">
	<g>
		<g transform="matrix(0.950105,-0.280615,0.398296,1.34855,-384.52,-305.245)">
			
				<path fill="none" stroke="#999999" stroke-width="2" stroke-linecap="round" stroke-linejoin="round" stroke-miterlimit="1.5" d="
				M280.723,854.966c0,0,215.286,19.735,238.952-169.527"/>
			<g transform="matrix(-1.00172,0.000103295,-0.000105572,-1.0238,1848.3,2193.24)">
				
					<path fill="none" stroke="#999999" stroke-width="2" stroke-linecap="round" stroke-linejoin="round" stroke-miterlimit="1.5" d="
					M1087.141,1642.252c0,0,215.285,19.734,238.952-169.528"/>
			</g>
		</g>
		<g transform="matrix(0.603348,-0.713728,-0.713728,-0.603348,557.144,1566.87)">
			<g transform="matrix(0.947184,0.4722,-0.670224,1.3444,616.657,-1699.79)">
				
					<path fill="none" stroke="#999999" stroke-width="2" stroke-linecap="round" stroke-linejoin="round" stroke-miterlimit="1.5" d="
					M981.833,1681.439c0,0,215.286,19.734,238.951-169.528"/>
			</g>
			<g transform="matrix(-0.948879,-0.472871,0.686073,-1.37644,897.375,2121.57)">
				
					<path fill="none" stroke="#999999" stroke-width="2" stroke-linecap="round" stroke-linejoin="round" stroke-miterlimit="1.5" d="
					M387.323,834.923c0,0,215.285,19.735,238.951-169.527"/>
			</g>
		</g>
		<g transform="matrix(0.973614,0,0,0.958753,-9.72429,74.7149)">
			
				<path fill="none" stroke="#999999" stroke-width="2" stroke-linecap="round" stroke-linejoin="round" stroke-miterlimit="1.5" d="
				M116.743,527.961l178.744,173.272C295.487,701.233,116.23,527.651,116.743,527.961z"/>
		</g>
		<g transform="matrix(0.940368,0,0,0.952523,248.776,-155.877)">
			
				<path fill="none" stroke="#999999" stroke-width="2" stroke-linecap="round" stroke-linejoin="round" stroke-miterlimit="1.5" d="
				M-56.125,682.528L122.619,855.8C122.619,855.8-56.638,682.218-56.125,682.528z"/>
		</g>
		<g transform="matrix(0.902874,0,0,0.896632,803.999,-638.773)">
			
				<path fill="none" stroke="#999999" stroke-width="2" stroke-linecap="round" stroke-linejoin="round" stroke-miterlimit="1.5" d="
				M-452.017,1040.963l178.746,173.272C-273.272,1214.235-452.53,1040.653-452.017,1040.963z"/>
		</g>
		<g transform="matrix(0.897357,0,0,0.891206,1038.35,-893.913)">
			
				<path fill="none" stroke="#999999" stroke-width="2" stroke-linecap="round" stroke-linejoin="round" stroke-miterlimit="1.5" d="
				M-621.202,1226.704l178.745,173.272C-442.457,1399.976-621.714,1226.394-621.202,1226.704z"/>
		</g>
	</g>
</g>
</svg>
