<?xml version="1.0" encoding="utf-8"?>
<!-- Generator: Adobe Illustrator 16.0.0, SVG Export Plug-In . SVG Version: 6.00 Build 0)  -->
<!DOCTYPE svg PUBLIC "-//W3C//DTD SVG 1.1//EN" "http://www.w3.org/Graphics/SVG/1.1/DTD/svg11.dtd">
<svg version="1.1" id="图层_1" xmlns="http://www.w3.org/2000/svg" xmlns:xlink="http://www.w3.org/1999/xlink" x="0px" y="0px"
	 width="64px" height="64px" viewBox="0 0 64 64" enable-background="new 0 0 64 64" xml:space="preserve">
<circle cx="32.109" cy="32.115" r="31.242"/>
<path fill="#00CC00" d="M27.35,37.987h9.462v1.875H27.35V37.987z"/>
<path fill="#FFFFFF" d="M48.888,52.469l-0.882-4.881c-0.168-0.944-0.699-1.77-1.487-2.313c-0.706-0.488-1.544-0.707-2.388-0.625
	c0.2-0.682,0.307-1.4,0.307-2.145v-8.574h1.138c1.649,0,2.993-1.344,2.993-2.994v-0.031L47.906,20.35
	c-0.019-1.638-1.356-2.962-2.994-2.962h-0.493c-0.263-6.25-5.432-11.25-11.744-11.25h-1.212c-6.313,0-11.475,5-11.744,11.25h-0.563
	c-1.638,0-2.975,1.325-2.994,2.962l-0.656,10.531v0.056c0,1.65,1.344,2.994,2.994,2.994h1.206v8.574
	c0,0.744,0.106,1.457,0.307,2.138c-0.819-0.063-1.625,0.156-2.313,0.632c-0.788,0.55-1.319,1.368-1.488,2.313l-0.881,4.881
	c-0.168,0.943,0.038,1.9,0.588,2.688c0.55,0.787,1.369,1.318,2.313,1.487l0.175,0.031c0.138,0.025,0.281,0.044,0.419,0.05
	l-0.006,0.013c0.269,0.057,6.594,1.356,13.306,1.356c6.719,0,13.044-1.3,13.307-1.356l-0.007-0.019
	c0.119-0.013,0.237-0.025,0.356-0.044l0.175-0.031c0.944-0.169,1.769-0.7,2.313-1.487C48.85,54.369,49.057,53.412,48.888,52.469z
	 M44.463,19.263h0.456c0.618,0,1.118,0.5,1.118,1.119v0.031l0.663,10.55c-0.013,0.606-0.513,1.094-1.119,1.094h-1.118V19.263z
	 M19.638,32.056h-1.119c-0.606,0-1.106-0.487-1.119-1.094l0.656-10.525v-0.056c0-0.619,0.5-1.119,1.119-1.119h0.457v12.793H19.638z
	 M21.638,48.557l-0.881,4.881c-0.082,0.45-0.332,0.844-0.712,1.106c-0.375,0.263-0.832,0.362-1.288,0.281l-0.175-0.031
	c-0.45-0.081-0.844-0.331-1.106-0.713c-0.263-0.381-0.363-0.831-0.281-1.287l0.881-4.882c0.081-0.449,0.331-0.844,0.712-1.105
	c0.293-0.2,0.631-0.307,0.975-0.307c0.1,0,0.206,0.006,0.306,0.025l0.175,0.031c0.45,0.081,0.844,0.331,1.106,0.712
	C21.612,47.65,21.719,48.106,21.638,48.557z M32.156,56.219c-3.931,0-7.8-0.475-10.269-0.856c0.362-0.456,0.612-1,0.719-1.594
	l0.844-4.706c1.15,0.693,2.494,1.088,3.931,1.088h9.413c1.462,0,2.831-0.413,3.993-1.132l0.856,4.744
	c0.106,0.594,0.356,1.144,0.726,1.6C39.894,55.75,36.057,56.219,32.156,56.219z M42.568,42.506c0,3.188-2.594,5.775-5.774,5.775
	h-9.413c-3.188,0-5.775-2.594-5.775-5.775V17.888c0-5.45,4.431-9.881,9.881-9.881h1.2c5.45,0,9.881,4.431,9.881,9.881V42.506z
	 M46.763,54.088c-0.263,0.375-0.656,0.631-1.106,0.712l-0.175,0.031c-0.45,0.081-0.906-0.019-1.288-0.281
	c-0.381-0.263-0.631-0.656-0.712-1.112L42.6,48.557c-0.081-0.45,0.02-0.906,0.281-1.288c0.263-0.375,0.656-0.631,1.106-0.712
	l0.175-0.031c0.101-0.02,0.207-0.025,0.307-0.025c0.35,0,0.688,0.106,0.975,0.307c0.375,0.262,0.632,0.656,0.713,1.105l0.881,4.882
	C47.125,53.25,47.025,53.706,46.763,54.088z"/>
<path fill="#FFFFFF" d="M34.307,21.837H24.3v1.875h5.325l-1.319,10.219h7.563L34.55,23.712h5.319v-1.875H34.307z M30.438,32.056
	l1.075-8.344h1.144l1.075,8.344H30.438z"/>
</svg>
