<?xml version="1.0" encoding="utf-8"?>
<!-- Generator: Adobe Illustrator 16.0.0, SVG Export Plug-In . SVG Version: 6.00 Build 0)  -->
<!DOCTYPE svg PUBLIC "-//W3C//DTD SVG 1.1//EN" "http://www.w3.org/Graphics/SVG/1.1/DTD/svg11.dtd">
<svg version="1.1" id="图层_1" xmlns="http://www.w3.org/2000/svg" xmlns:xlink="http://www.w3.org/1999/xlink" x="0px" y="0px"
	 width="64px" height="64px" viewBox="0 0 64 64" enable-background="new 0 0 64 64" xml:space="preserve">
<path enable-background="new    " d="M1.28,31.483c0,13.402,8.589,24.796,20.56,28.979c1.613,0.409,1.367-0.742,1.367-1.521v-5.316
	c-9.308,1.09-9.68-5.069-10.309-6.096c-1.265-2.158-4.245-2.709-3.356-3.735c2.12-1.091,4.28,0.276,6.779,3.976
	c1.81,2.68,5.34,2.227,7.135,1.779c0.385-1.588,1.21-3.033,2.381-4.173c-9.641-1.726-13.663-7.61-13.663-14.612
	c0-3.395,1.121-6.515,3.315-9.034c-1.397-4.152,0.131-7.703,0.333-8.23c3.988-0.358,8.125,2.854,8.448,3.105
	c2.265-0.612,4.849-0.934,7.739-0.934c2.905,0,5.504,0.333,7.782,0.952c0.769-0.589,4.613-3.346,8.319-3.008
	c0.197,0.527,1.69,3.996,0.377,8.089c2.225,2.524,3.356,5.673,3.356,9.078c0,7.012-4.045,12.902-13.714,14.607
	c1.672,1.648,2.613,3.898,2.611,6.246v7.719c0.053,0.617,0,1.229,1.031,1.229c12.145-4.094,20.89-15.572,20.89-29.094
	c0-16.957-13.745-30.689-30.687-30.689C15.012,0.791,1.28,14.525,1.28,31.483z"/>
</svg>
