<?xml version="1.0" encoding="utf-8"?>
<!-- Generator: Adobe Illustrator 16.0.0, SVG Export Plug-In . SVG Version: 6.00 Build 0)  -->
<!DOCTYPE svg PUBLIC "-//W3C//DTD SVG 1.1//EN" "http://www.w3.org/Graphics/SVG/1.1/DTD/svg11.dtd">
<svg version="1.1" id="图层_1" xmlns="http://www.w3.org/2000/svg" xmlns:xlink="http://www.w3.org/1999/xlink" x="0px" y="0px"
	 width="64px" height="64px" viewBox="0 0 64 64" enable-background="new 0 0 64 64" xml:space="preserve">
<circle cx="32" cy="32" r="31.242"/>
<path fill="#FFFFFF" d="M29.108,13.408c-0.967,0.647-5.689,3.782-10.492,6.972c-4.807,3.188-8.734,5.825-8.734,5.856
	c0,0.034,0.241,0.194,0.54,0.354c0.295,0.169,5.036,2.797,10.541,5.848l9.994,5.556l0.255-0.133c0.145-0.07,3.833-2.176,8.202-4.668
	l7.939-4.539l0.049,14.042h4.715V26.263l-6.114-4.1c-8.242-5.52-14.83-9.871-14.993-9.906
	C30.931,12.242,30.079,12.764,29.108,13.408 M19.257,39.188l0.025,3.543l5.85,3.512l5.849,3.502l5.897-3.535l5.889-3.543v-3.502
	c0-1.928-0.023-3.504-0.049-3.504c-0.024,0-2.328,1.383-5.124,3.076l-5.843,3.527l-0.761,0.453l-2.333-1.398
	c-1.939-1.16-3.875-2.326-5.807-3.496l-3.543-2.139c-0.042-0.016-0.057,1.561-0.047,3.504"/>
</svg>
