<?xml version="1.0" encoding="utf-8"?>
<!-- Generator: Adobe Illustrator 16.0.0, SVG Export Plug-In . SVG Version: 6.00 Build 0)  -->
<!DOCTYPE svg PUBLIC "-//W3C//DTD SVG 1.1//EN" "http://www.w3.org/Graphics/SVG/1.1/DTD/svg11.dtd">
<svg version="1.1" id="图层_1" xmlns="http://www.w3.org/2000/svg" xmlns:xlink="http://www.w3.org/1999/xlink" x="0px" y="0px"
	 width="64px" height="64px" viewBox="0 0 64 64" enable-background="new 0 0 64 64" xml:space="preserve">
<circle cx="32" cy="32" r="31.242"/>
<path fill="#FFFFFF" d="M28.99,28.74c-1.131-0.225-2.184,0.69-2.184,1.844v3.905c0,0.79,0.55,1.425,1.294,1.703
	c1.411,0.526,2.425,1.891,2.425,3.487c0,2.052-1.666,3.718-3.718,3.718c-2.053,0-3.718-1.666-3.718-3.718V20.467
	c0-1.03-0.829-1.859-1.859-1.859h-3.719c-1.03,0-1.859,0.829-1.859,1.859v19.211c0,6.932,6.36,12.41,13.556,10.899
	c4.213-0.884,7.615-4.292,8.499-8.498C39.053,35.658,34.84,29.902,28.99,28.74z M31.841,11.171
	c-0.713-0.039-1.317,0.527-1.317,1.239v2.448c0,0.658,0.512,1.2,1.163,1.231c10.023,0.543,18.081,8.677,18.661,18.709
	c0.039,0.649,0.582,1.162,1.232,1.162h2.486c0.713,0,1.279-0.604,1.239-1.316C54.646,22,44.484,11.837,31.841,11.171z
	 M31.865,18.608c-0.72-0.055-1.339,0.519-1.339,1.247v2.486c0,0.651,0.503,1.185,1.146,1.232
	c5.949,0.488,10.691,5.283,11.226,11.248c0.063,0.643,0.589,1.139,1.231,1.139h2.495c0.721,0,1.301-0.62,1.246-1.34
	C47.219,26.091,40.395,19.267,31.865,18.608z"/>
</svg>
