<?xml version="1.0" standalone="no"?><!DOCTYPE svg PUBLIC "-//W3C//DTD SVG 1.1//EN" "http://www.w3.org/Graphics/SVG/1.1/DTD/svg11.dtd"><svg t="1660532736748" class="icon" viewBox="0 0 1024 1024" version="1.1" xmlns="http://www.w3.org/2000/svg" p-id="5571" xmlns:xlink="http://www.w3.org/1999/xlink" width="64" height="64"><defs><style type="text/css">@font-face { font-family: feedback-iconfont; src: url("//at.alicdn.com/t/font_1031158_u69w8yhxdu.woff2?t=1630033759944") format("woff2"), url("//at.alicdn.com/t/font_1031158_u69w8yhxdu.woff?t=1630033759944") format("woff"), url("//at.alicdn.com/t/font_1031158_u69w8yhxdu.ttf?t=1630033759944") format("truetype"); }
</style></defs><path d="M0 0 0 0 0 0Z" p-id="5572"></path><path d="M512 20.48c-271.456 0-491.52 220.064-491.52 491.52s220.064 491.52 491.52 491.52 491.52-220.064 491.52-491.52-220.064-491.52-491.52-491.52zM391.68 715.712l-99.52 0 0-320.256 99.52 0 0 320.256zM341.312 356.16c-31.424 0-51.776-22.336-51.776-49.824 0-28.16 20.928-49.76 53.056-49.76s51.776 21.6 52.384 49.76c0.064 27.552-20.288 49.824-53.664 49.824zM755.136 715.712l-99.488 0 0-177.504c0-41.28-14.432-69.376-50.432-69.376-27.488 0-43.84 19.008-51.104 37.312-2.624 6.496-3.264 15.712-3.264 24.832l0 184.672-99.584 0 0-218.112c0-39.936-1.28-73.376-2.624-102.144l86.432 0 4.608 44.48 1.952 0c13.12-20.928 45.216-51.712 98.912-51.712 65.472 0 114.592 43.84 114.592 138.144l0 189.376z" p-id="5573"></path></svg>