<?xml version="1.0" encoding="utf-8"?>
<!-- Generator: Adobe Illustrator 16.0.0, SVG Export Plug-In . SVG Version: 6.00 Build 0)  -->
<!DOCTYPE svg PUBLIC "-//W3C//DTD SVG 1.1//EN" "http://www.w3.org/Graphics/SVG/1.1/DTD/svg11.dtd">
<svg version="1.1" id="图层_1" xmlns="http://www.w3.org/2000/svg" xmlns:xlink="http://www.w3.org/1999/xlink" x="0px" y="0px"
	 width="595.281px" height="841.891px" viewBox="0 0 595.281 841.891" enable-background="new 0 0 595.281 841.891"
	 xml:space="preserve">
<g>
	<g>
		<g>
			<path fill="#333333" d="M300.839,821.685L107.995,447.867c-29.587-57.413-66.982-107.152-66.982-174.121
				c0-143.466,116.314-259.793,259.793-259.793v111.603c0,0-145.38,7.228-145.38,144.534s145.414,149.524,145.414,149.524v402.064
				V821.685z"/>
			<path fill="#333333" d="M300.48,821.645l192.844-373.845c28.68-55.052,66.963-107.126,66.963-174.108
				c0-143.465-116.314-259.793-259.793-259.793l-3.951,111.656c0,0,155.377,3.684,153.041,149.238
				c-2.336,145.554-153.054,144.827-153.054,144.827l3.937,402.037L300.48,821.645z"/>
		</g>
		<path fill="#333333" d="M312.343,22.715c0,0,135.545,56.111,164.6,212.516c28.332,152.641-127.451,419.36-169.156,553.751
			C266.081,923.372,560.66,307.05,560.66,307.05s6.465-288.045-248.322-284.328L312.343,22.715z"/>
	</g>
	<g>
		<path fill="none" stroke="#000000" stroke-width="4.167" stroke-linecap="round" stroke-linejoin="round" d="M153.811,272.578
			c-0.166-81.039,65.395-146.869,146.435-147.035c0.199-0.001,0.4-0.001,0.602,0c81.039-0.166,146.869,65.395,147.035,146.435
			c0,0.2,0,0.4,0,0.601c0.17,81.04-65.389,146.873-146.428,147.043c-0.203,0-0.406,0-0.607,0
			c-81.041,0.166-146.871-65.396-147.037-146.435c0-0.2,0-0.401,0-0.602V272.578z"/>
		
			<path fill="none" stroke="#000000" stroke-width="4.167" stroke-linecap="round" stroke-linejoin="round" stroke-miterlimit="10" d="
			M300.833,821.685L107.988,447.726c-29.581-57.272-67.115-107.012-67.115-173.974c0-143.466,116.314-259.8,259.792-259.8
			 M300.72,821.645l192.844-373.845c28.68-55.052,66.963-107.126,66.963-174.108C560.533,130.227,444.218,13.899,300.74,13.899"/>
	</g>
</g>
</svg>
