<?xml version="1.0" standalone="no"?><!DOCTYPE svg PUBLIC "-//W3C//DTD SVG 1.1//EN" "http://www.w3.org/Graphics/SVG/1.1/DTD/svg11.dtd"><svg t="1659772716312" class="icon" viewBox="0 0 1024 1024" version="1.1" xmlns="http://www.w3.org/2000/svg" p-id="2374" xmlns:xlink="http://www.w3.org/1999/xlink" width="200" height="200"><defs><style type="text/css">@font-face { font-family: feedback-iconfont; src: url("//at.alicdn.com/t/font_1031158_u69w8yhxdu.woff2?t=1630033759944") format("woff2"), url("//at.alicdn.com/t/font_1031158_u69w8yhxdu.woff?t=1630033759944") format("woff"), url("//at.alicdn.com/t/font_1031158_u69w8yhxdu.ttf?t=1630033759944") format("truetype"); }
</style></defs><path d="M165.563733 955.733333l-0.546133-0.017066C102.621867 953.736533 68.266667 917.384533 68.266667 853.333333V170.666667c0-66.030933 36.369067-102.4 102.4-102.4h682.666666c66.030933 0 102.4 36.369067 102.4 102.4v682.666666c0 64.034133-34.048 100.4032-95.880533 102.382934-9.540267 0.853333-17.322667-7.082667-17.595733-16.503467a17.032533 17.032533 0 0 1 16.503466-17.595733C902.212267 920.2176 921.6 899.157333 921.6 853.333333V170.666667c0-47.223467-21.0432-68.266667-68.266667-68.266667H170.666667c-47.223467 0-68.266667 21.0432-68.266667 68.266667v682.666666c0 45.824 19.643733 66.8672 63.6928 68.283734A17.066667 17.066667 0 0 1 165.563733 955.733333zM512 955.733333a17.066667 17.066667 0 0 1-17.066667-17.066666v-68.266667H273.066667v68.266667a17.066667 17.066667 0 1 1-34.133334 0v-85.333334a17.066667 17.066667 0 0 1 17.066667-17.066666h256a17.066667 17.066667 0 0 1 17.066667 17.066666v85.333334a17.066667 17.066667 0 0 1-17.066667 17.066666z m256-341.333333h-85.333333a17.066667 17.066667 0 1 1 0-34.133333h68.266666v-51.2h-68.266666a17.066667 17.066667 0 1 1 0-34.133334h68.266666v-51.2h-68.266666a17.066667 17.066667 0 1 1 0-34.133333h85.333333a17.066667 17.066667 0 0 1 17.066667 17.066667v170.666666a17.066667 17.066667 0 0 1-17.066667 17.066667z m-256 0a17.066667 17.066667 0 0 1-17.066667-17.066667v-68.266666h-68.266666a17.066667 17.066667 0 1 1 0-34.133334h68.266666v-68.266666a17.066667 17.066667 0 0 1 34.133334 0v68.266666h68.266666a17.066667 17.066667 0 1 1 0 34.133334h-68.266666v68.266666a17.066667 17.066667 0 0 1-17.066667 17.066667z m-170.666667 0h-85.333333a17.066667 17.066667 0 0 1-17.066667-17.066667v-85.333333a17.066667 17.066667 0 0 1 17.066667-17.066667h68.266667v-51.2h-68.266667a17.066667 17.066667 0 0 1 0-34.133333h85.333333a17.066667 17.066667 0 0 1 17.066667 17.066667v85.333333a17.066667 17.066667 0 0 1-17.066667 17.066667h-68.266666v51.2h68.266666a17.066667 17.066667 0 1 1 0 34.133333z" p-id="2375" fill="#000000"></path><path d="M938.666667 972.8H85.333333a34.133333 34.133333 0 0 1 0-68.266667h853.333334a34.133333 34.133333 0 0 1 0 68.266667z" p-id="2376" fill="#000000"></path></svg>