<?xml version="1.0" encoding="utf-8"?>
<!-- Generator: Adobe Illustrator 16.0.0, SVG Export Plug-In . SVG Version: 6.00 Build 0)  -->
<!DOCTYPE svg PUBLIC "-//W3C//DTD SVG 1.1//EN" "http://www.w3.org/Graphics/SVG/1.1/DTD/svg11.dtd">
<svg version="1.1" id="图层_1" xmlns="http://www.w3.org/2000/svg" xmlns:xlink="http://www.w3.org/1999/xlink" x="0px" y="0px"
	 width="64px" height="64px" viewBox="0 0 64 64" enable-background="new 0 0 64 64" xml:space="preserve">
<path d="M31.861,0c17.596,0,31.861,14.265,31.861,31.861S49.457,63.722,31.861,63.722S0,49.457,0,31.861S14.265,0,31.861,0z
	 M35.484,8.587h-0.241c-1.044,0-1.865,0.794-1.991,1.796c-0.004,0.052-0.021,0.091-0.026,0.143
	c-0.003,0.034-0.021,0.064-0.021,0.099v25.935c-1.136-0.605-2.406-0.981-3.779-0.981h-5.398c-4.47,0-8.097,3.628-8.097,8.098
	s3.627,8.097,8.097,8.097h5.398c4.47,0,8.098-3.627,8.098-8.097c0-0.186-0.043-0.357-0.056-0.54h0.056v-28.65l5.796,3.347
	c0.325,0.189,0.697,0.29,1.076,0.29c0.747,0,1.471-0.389,1.869-1.08c0.6-1.033,0.246-2.354-0.785-2.954l-8.842-5.101
	C36.306,8.756,35.926,8.587,35.484,8.587L35.484,8.587z M28.376,40.821c1.919,0,3.484,1.565,3.484,3.485
	c0,1.919-1.565,3.485-3.485,3.485h-4.979c-1.919,0-3.484-1.566-3.484-3.485c0-1.92,1.565-3.485,3.484-3.485H28.376L28.376,40.821z"
	/>
</svg>
