<?xml version="1.0" encoding="utf-8"?>
<!-- Generator: Adobe Illustrator 16.0.0, SVG Export Plug-In . SVG Version: 6.00 Build 0)  -->
<!DOCTYPE svg PUBLIC "-//W3C//DTD SVG 1.1//EN" "http://www.w3.org/Graphics/SVG/1.1/DTD/svg11.dtd">
<svg version="1.1" id="图层_1" xmlns="http://www.w3.org/2000/svg" xmlns:xlink="http://www.w3.org/1999/xlink" x="0px" y="0px"
	 width="64px" height="64px" viewBox="0 0 64 64" enable-background="new 0 0 64 64" xml:space="preserve">
<circle cx="32" cy="32" r="31.242"/>
<g>
	<path fill="#FFFFFF" d="M42.985,14.581h-20.4c-1.803,0-3.266,1.474-3.266,3.285v3.285h-3.567v2.188h3.563v2.188h-3.563v2.188h3.563
		v2.189h-3.563v2.189h3.563v2.188h-3.563v2.188h3.563v7.667c0,1.81,1.467,3.283,3.266,3.283h20.4c1.804,0,3.267-1.474,3.267-3.283
		V17.865C46.251,16.054,44.785,14.581,42.985,14.581z M44.073,44.143c0,0.604-0.486,1.095-1.088,1.095h-20.4
		c-0.601,0-1.088-0.49-1.088-1.095v-7.667h2.177v-2.188h-2.177v-2.188h2.177v-2.189h-2.177v-2.188h2.177v-2.188h-2.177v-2.188h2.177
		v-2.188h-2.177v-3.285c0-0.604,0.487-1.096,1.088-1.096h20.4c0.602,0,1.088,0.492,1.088,1.096V44.143z"/>
	<path fill="#FFFFFF" d="M26.218,18.961h15.679v8.757H26.218V18.961z"/>
</g>
</svg>
