<?xml version="1.0" encoding="utf-8"?>
<!-- Generator: Adobe Illustrator 16.0.0, SVG Export Plug-In . SVG Version: 6.00 Build 0)  -->
<!DOCTYPE svg PUBLIC "-//W3C//DTD SVG 1.1//EN" "http://www.w3.org/Graphics/SVG/1.1/DTD/svg11.dtd">
<svg version="1.1" id="图层_1" xmlns="http://www.w3.org/2000/svg" xmlns:xlink="http://www.w3.org/1999/xlink" x="0px" y="0px"
	 width="64px" height="64px" viewBox="0 0 64 64" enable-background="new 0 0 64 64" xml:space="preserve">
<circle cx="32" cy="32" r="31.242"/>
<g enable-background="new    ">
	<path fill="#FFFFFF" d="M18.529,21.695c-0.874,0-1.629-0.298-2.265-0.894c-0.636-0.597-0.954-1.305-0.954-2.126
		c0-0.848,0.318-1.569,0.954-2.166c0.636-0.596,1.391-0.894,2.265-0.894c0.9,0,1.669,0.298,2.305,0.894
		c0.636,0.597,0.954,1.318,0.954,2.166c0,0.821-0.318,1.529-0.954,2.126C20.198,21.397,19.43,21.695,18.529,21.695z M15.51,46.172
		V24.517h6.04v21.655H15.51z"/>
	<path fill="#FFFFFF" d="M36.688,46.172H26.436V17.285h10.332c2.913,0,5.423,0.576,7.529,1.729c2.105,1.152,3.721,2.801,4.848,4.946
		c1.125,2.146,1.688,4.729,1.688,7.749c0,2.993-0.57,5.576-1.708,7.748c-1.141,2.172-2.762,3.834-4.868,4.986
		S39.628,46.172,36.688,46.172z M32.555,40.927h3.895c2.701,0,4.754-0.735,6.158-2.205s2.106-3.808,2.106-7.013
		s-0.702-5.543-2.106-7.014c-1.404-1.47-3.457-2.205-6.158-2.205h-3.895V40.927z"/>
</g>
</svg>
