<?xml version="1.0" standalone="no"?><!DOCTYPE svg PUBLIC "-//W3C//DTD SVG 1.1//EN" "http://www.w3.org/Graphics/SVG/1.1/DTD/svg11.dtd"><svg t="1660478255618" class="icon" viewBox="0 0 1025 1024" version="1.1" xmlns="http://www.w3.org/2000/svg" p-id="3678" xmlns:xlink="http://www.w3.org/1999/xlink" width="64.0625" height="64"><defs><style type="text/css">@font-face { font-family: feedback-iconfont; src: url("//at.alicdn.com/t/font_1031158_u69w8yhxdu.woff2?t=1630033759944") format("woff2"), url("//at.alicdn.com/t/font_1031158_u69w8yhxdu.woff?t=1630033759944") format("woff"), url("//at.alicdn.com/t/font_1031158_u69w8yhxdu.ttf?t=1630033759944") format("truetype"); }
</style></defs><path d="M516.900194 157.534208c18.665472-17.11104 29.554688-18.665472 68.442112-18.665472 20.221952 0 38.887424 1.55648 51.33312 4.667392 4.667392 3.110912 4.667392 10.889216 4.667392 24.889344 3.110912 45.109248-14.000128 111.996928-41.998336 150.8864-4.667392 4.667392-7.778304 7.778304-14.000128 10.889216-26.443776 10.889216-51.33312-20.221952-118.218752 105.775104-48.222208 85.553152-60.665856 135.329792-60.665856 163.330048 0 38.887424 21.776384 35.776512 24.889344 60.665856 0 6.221824-3.110912 28.000256-14.000128 49.77664-23.332864 45.109248-63.776768 99.55328-97.998848 99.55328-10.889216 3.110912-24.889344-7.778304-35.776512-7.778304-14.000128 7.778304-10.889216 28.000256-14.000128 38.887424-3.110912 94.885888 133.77536 138.440704 241.106944 133.77536 230.217728-10.889216 460.435456-177.330176 463.546368-469.768192 0-194.441216-141.551616-438.657024-463.546368-452.657152C322.458978 40.869888 53.353826 202.643456 50.242914 504.414208c-3.110912 111.996928 34.22208 216.2176 124.442624 321.992704-35.776512 24.889344-77.776896-28.000256-93.331456-57.554944C8.24253 656.857088-2.644638 560.41472 0.466274 504.414208 6.688098 202.643456 261.793122-5.79584 509.12189 1.980416c348.43648 9.332736 514.87744 292.438016 514.87744 502.433792-1.55648 346.882048-279.994368 522.655744-527.323136 519.544832-132.21888 0-269.105152-59.109376-269.105152-172.662784 0-28.000256 6.221824-38.887424 28.000256-77.776896 0-3.110912-4.667392-10.889216-4.667392-10.889216-14.000128-10.889216-9.332736-24.887296-12.443648-32.6656-1.55648-94.885888 59.109376-269.105152 147.775488-405.991424C425.12317 260.1984 482.678114 182.421504 516.900194 157.534208z" p-id="3679"></path><path d="M347.348322 826.40896c35.776512 21.776384 59.109376 28.000256 66.88768 28.000256 35.776512-6.221824 94.885888-94.885888 94.885888-124.442624 0-28.000256-28.000256-38.887424-52.887552-62.220288C431.344994 757.9648 397.124962 793.741312 347.348322 826.40896z" p-id="3680"></path><path d="M619.564386 337.973248c18.665472 7.778304 41.998336 10.889216 57.554944 10.889216 17.11104-3.110912 23.332864-4.667392 31.111168-15.55456 10.889216-28.000256 31.111168-63.776768 32.6656-97.998848 0-10.889216 3.110912-24.889344-1.55648-32.6656-6.221824-9.332736-31.111168-34.22208-62.220288-45.109248C675.56285 235.309056 658.45181 277.30944 619.564386 337.973248z" p-id="3681"></path></svg>