<?xml version="1.0" standalone="no"?><!DOCTYPE svg PUBLIC "-//W3C//DTD SVG 1.1//EN" "http://www.w3.org/Graphics/SVG/1.1/DTD/svg11.dtd"><svg t="1659773010162" class="icon" viewBox="0 0 1024 1024" version="1.1" xmlns="http://www.w3.org/2000/svg" p-id="4456" xmlns:xlink="http://www.w3.org/1999/xlink" width="200" height="200"><defs><style type="text/css">@font-face { font-family: feedback-iconfont; src: url("//at.alicdn.com/t/font_1031158_u69w8yhxdu.woff2?t=1630033759944") format("woff2"), url("//at.alicdn.com/t/font_1031158_u69w8yhxdu.woff?t=1630033759944") format("woff"), url("//at.alicdn.com/t/font_1031158_u69w8yhxdu.ttf?t=1630033759944") format("truetype"); }
</style></defs><path d="M300.137931 370.758621a370.758621 326.62069 90 1 0 653.241379 0 370.758621 326.62069 90 1 0-653.241379 0Z" fill="#E6E7E8" p-id="4457"></path><path d="M926.896552 909.241379m-97.103449 0a97.103448 97.103448 0 1 0 194.206897 0 97.103448 97.103448 0 1 0-194.206897 0Z" fill="#ECF0F1" p-id="4458"></path><path d="M370.758621 600.275862h512.194207C926.931862 537.12331 953.37931 457.516138 953.37931 370.758621 953.37931 165.993931 807.141517 0 626.758621 0S300.137931 165.993931 300.137931 370.758621c0 86.881103 26.518069 166.611862 70.62069 229.817379V600.275862z" fill="#546A79" p-id="4459"></path><path d="M300.137931 370.758621c0-143.289379 71.732966-267.369931 176.551724-329.074759C431.721931 15.201103 380.769103 0 326.62069 0 146.237793 0 0 165.993931 0 370.758621s146.237793 370.758621 326.62069 370.75862c54.148414 0 105.101241-15.201103 150.068965-41.683862C371.870897 638.110897 300.137931 514.048 300.137931 370.758621z" fill="#E6E7E8" p-id="4460"></path><path d="M300.137931 370.758621c0-143.289379 71.732966-267.369931 176.551724-329.074759C431.721931 15.201103 380.769103 0 326.62069 0 146.237793 0 0 165.993931 0 370.758621c0 86.881103 26.518069 166.611862 70.62069 229.817379V600.275862h299.943724C326.585379 537.12331 300.137931 457.516138 300.137931 370.758621z" fill="#E64C3C" p-id="4461"></path><path d="M706.206897 730.006069c-25.476414 7.238621-51.994483 11.511172-79.448276 11.511172s-53.971862-4.272552-79.448276-11.511172V847.448276h158.896552v-117.442207zM547.310345 976.260414A47.739586 47.739586 0 0 0 595.049931 1024h63.399724A47.757241 47.757241 0 0 0 706.206897 976.260414V882.758621h-158.896552v93.501793zM406.068966 730.006069c-25.476414 7.238621-51.994483 11.511172-79.448276 11.511172s-53.971862-4.272552-79.448276-11.511172V847.448276h158.896552v-117.442207zM247.172414 976.260414A47.739586 47.739586 0 0 0 294.912 1024h63.399724A47.757241 47.757241 0 0 0 406.068966 976.260414V882.758621h-158.896552v93.501793z" fill="#CB8252" p-id="4462"></path><path d="M247.172414 847.448276h158.896552v35.310345h-158.896552zM547.310345 847.448276h158.896552v35.310345h-158.896552z" fill="#7F5B53" p-id="4463"></path></svg>