<?xml version="1.0" encoding="utf-8"?>
<!-- Generator: Adobe Illustrator 16.0.0, SVG Export Plug-In . SVG Version: 6.00 Build 0)  -->
<!DOCTYPE svg PUBLIC "-//W3C//DTD SVG 1.1//EN" "http://www.w3.org/Graphics/SVG/1.1/DTD/svg11.dtd">
<svg version="1.1" id="图层_1" xmlns="http://www.w3.org/2000/svg" xmlns:xlink="http://www.w3.org/1999/xlink" x="0px" y="0px"
	 width="62.484px" height="62.484px" viewBox="-1.602 -3.204 62.484 62.484" enable-background="new -1.602 -3.204 62.484 62.484"
	 xml:space="preserve">
<circle cx="29.641" cy="28.038" r="31.242"/>
<path fill="#FFFFFF" d="M20.85,42.107c-0.764,0.776-1.773,1.158-2.784,1.158c-1.01,0-2.017-0.384-2.787-1.154
	c-1.54-1.539-1.54-4.035,0-5.575c0.768-0.772,1.777-1.154,2.787-1.154c1.011,0,2.018,0.384,2.788,1.154
	C22.389,38.079,22.389,40.567,20.85,42.107z M33.043,43.252c-0.074-0.099-0.135,0.012-0.308,0.012c-1.544,0-2.844-1.201-2.947-2.764
	c-0.33-6.732-6.168-12.571-12.905-13.014c-1.629-0.104-2.864-1.513-2.758-3.141c0.106-1.632,1.528-2.81,3.144-2.757
	c9.59,0.624,17.897,8.93,18.525,18.525C35.901,41.749,34.669,43.154,33.043,43.252z M44.794,43.154
	c-0.037,0.111-0.086,0.111-0.234,0.111c-1.577,0-2.885-1.243-2.953-2.833c-0.435-13.105-11.544-24.216-24.65-24.869
	c-1.625,0.037-2.898-1.33-2.83-2.969c0.069-1.626,1.463-2.931,3.077-2.833c16.099,0.674,29.746,14.325,30.313,30.313
	C47.688,41.823,46.433,43.191,44.794,43.154z"/>
</svg>
