<?xml version="1.0" standalone="no"?><!DOCTYPE svg PUBLIC "-//W3C//DTD SVG 1.1//EN" "http://www.w3.org/Graphics/SVG/1.1/DTD/svg11.dtd"><svg t="1659772763148" class="icon" viewBox="0 0 1024 1024" version="1.1" xmlns="http://www.w3.org/2000/svg" p-id="3479" xmlns:xlink="http://www.w3.org/1999/xlink" width="200" height="200"><defs><style type="text/css">@font-face { font-family: feedback-iconfont; src: url("//at.alicdn.com/t/font_1031158_u69w8yhxdu.woff2?t=1630033759944") format("woff2"), url("//at.alicdn.com/t/font_1031158_u69w8yhxdu.woff?t=1630033759944") format("woff"), url("//at.alicdn.com/t/font_1031158_u69w8yhxdu.ttf?t=1630033759944") format("truetype"); }
</style></defs><path d="M725.333333 853.333333V640h-85.333333v213.333333H384V386.133333h-85.333333V853.333333H42.666667v85.333334h938.666666v-85.333334z" p-id="3480"></path><path d="M110.933333 445.866667l162.133334-125.866667c19.2 12.8 42.666667 21.333333 68.266666 21.333333 25.6 0 51.2-8.533333 70.4-21.333333l147.2 110.933333c-2.133333 12.8-4.266667 25.6-4.266666 38.4 0 70.4 57.6 128 128 128s128-57.6 128-128c0-14.933333-2.133333-27.733333-6.4-40.533333l160-123.733333-51.2-68.266667-162.133334 125.866667c-19.2-12.8-42.666667-19.2-68.266666-19.2-25.6 0-51.2 8.533333-70.4 21.333333l-147.2-110.933333c4.266667-12.8 6.4-25.6 6.4-38.4 0-70.4-57.6-128-128-128s-128 57.6-128 128c0 14.933333 2.133333 27.733333 6.4 40.533333l-162.133334 125.866667 51.2 64zM682.666667 426.666667c23.466667 0 42.666667 19.2 42.666666 42.666666s-19.2 42.666667-42.666666 42.666667-42.666667-19.2-42.666667-42.666667 19.2-42.666667 42.666667-42.666666zM341.333333 170.666667c23.466667 0 42.666667 19.2 42.666667 42.666666s-19.2 42.666667-42.666667 42.666667-42.666667-19.2-42.666666-42.666667 19.2-42.666667 42.666666-42.666666z" p-id="3481"></path></svg>