<?xml version="1.0" encoding="utf-8"?>
<!-- Generator: Adobe Illustrator 16.0.0, SVG Export Plug-In . SVG Version: 6.00 Build 0)  -->
<!DOCTYPE svg PUBLIC "-//W3C//DTD SVG 1.1//EN" "http://www.w3.org/Graphics/SVG/1.1/DTD/svg11.dtd">
<svg version="1.1" id="图层_1" xmlns="http://www.w3.org/2000/svg" xmlns:xlink="http://www.w3.org/1999/xlink" x="0px" y="0px"
	 width="64px" height="64px" viewBox="0 0 64 64" enable-background="new 0 0 64 64" xml:space="preserve">
<path fill="#181818" d="M36.561,17.702c-3.17,1.155-5.169,4.125-4.941,7.379l0.073,1.255l-1.269-0.152
	c-4.61-0.59-8.64-2.589-12.064-5.947l-1.674-1.662l-0.428,1.23c-0.911,2.739-0.331,5.637,1.573,7.584
	c1.011,1.077,0.783,1.229-0.96,0.592c-0.612-0.205-1.143-0.362-1.193-0.282c-0.177,0.182,0.433,2.509,0.913,3.431
	c0.661,1.286,1.999,2.539,3.472,3.286l1.243,0.592l-1.471,0.018c-1.423,0-1.473,0.027-1.318,0.564
	c0.503,1.668,2.507,3.438,4.738,4.203l1.573,0.54l-1.366,0.822c-2.07,1.193-4.408,1.845-6.796,1.895
	c-1.143,0.026-2.081,0.127-2.081,0.204c0,0.253,3.097,1.69,4.891,2.257c5.4,1.661,11.812,0.943,16.627-1.898
	c3.422-2.025,6.844-6.048,8.442-9.945c0.86-2.072,1.721-5.866,1.721-7.685c0-1.179,0.078-1.334,1.497-2.741
	c0.838-0.824,1.62-1.719,1.775-1.976c0.252-0.485,0.223-0.485-1.066-0.051c-2.15,0.77-2.458,0.67-1.392-0.484
	c0.784-0.82,1.723-2.309,1.723-2.742c0-0.075-0.38,0.053-0.812,0.282c-0.454,0.255-1.47,0.64-2.228,0.87l-1.372,0.437l-1.24-0.852
	c-0.683-0.456-1.648-0.975-2.151-1.127C39.702,17.238,37.726,17.29,36.561,17.702 M32.125,0C49.731,0,64,14.269,64,31.875
	C64,49.477,49.731,63.75,32.125,63.75C14.519,63.75,0.25,49.477,0.25,31.875C0.25,14.269,14.519,0,32.125,0"/>
</svg>
