<?xml version="1.0" standalone="no"?><!DOCTYPE svg PUBLIC "-//W3C//DTD SVG 1.1//EN" "http://www.w3.org/Graphics/SVG/1.1/DTD/svg11.dtd"><svg t="1660482213951" class="icon" viewBox="0 0 1024 1024" version="1.1" xmlns="http://www.w3.org/2000/svg" p-id="11298" xmlns:xlink="http://www.w3.org/1999/xlink" width="64" height="64"><defs><style type="text/css">@font-face { font-family: feedback-iconfont; src: url("//at.alicdn.com/t/font_1031158_u69w8yhxdu.woff2?t=1630033759944") format("woff2"), url("//at.alicdn.com/t/font_1031158_u69w8yhxdu.woff?t=1630033759944") format("woff"), url("//at.alicdn.com/t/font_1031158_u69w8yhxdu.ttf?t=1630033759944") format("truetype"); }
</style></defs><path d="M781.077333 993.92l-83.52 17.493333-32.64-156.053333 27.818667-15.168a597.418667 597.418667 0 0 0 33.258667-19.136 382.933333 382.933333 0 0 0 58.154666-45.866667 366.933333 366.933333 0 0 0 82.986667-118.997333A351.616 351.616 0 0 0 896 516.309333C896 314.026667 724.458667 149.333333 512 149.333333S128 314.026667 128 516.309333c0 202.282667 171.541333 366.976 384 366.976 25.514667 0 50.709333-2.389333 75.306667-7.04l15.914666 83.84c-29.845333 5.653333-60.352 8.533333-91.221333 8.533334-258.816 0-469.333333-202.112-469.333333-452.309334C42.666667 266.112 253.184 64 512 64s469.333333 202.112 469.333333 452.309333c0 60.373333-12.288 119.125333-35.861333 173.717334a452.245333 452.245333 0 0 1-102.229333 146.709333 468.266667 468.266667 0 0 1-71.125334 56.106667c-3.093333 2.005333-6.698667 4.202667-10.794666 6.634666l19.754666 94.442667z" p-id="11299"></path><path d="M298.666667 405.333333h106.666666v106.666667h-106.666666zM618.666667 405.333333h106.666666v106.666667h-106.666666z" p-id="11300"></path></svg>