<?xml version="1.0" encoding="utf-8"?>
<!-- Generator: Adobe Illustrator 16.0.0, SVG Export Plug-In . SVG Version: 6.00 Build 0)  -->
<!DOCTYPE svg PUBLIC "-//W3C//DTD SVG 1.1//EN" "http://www.w3.org/Graphics/SVG/1.1/DTD/svg11.dtd">
<svg version="1.1" id="图层_1" xmlns="http://www.w3.org/2000/svg" xmlns:xlink="http://www.w3.org/1999/xlink" x="0px" y="0px"
	 width="51.825px" height="51.825px" viewBox="7.263 7.263 51.825 51.825" enable-background="new 7.263 7.263 51.825 51.825"
	 xml:space="preserve">
<path fill="#040000" stroke="#000000" stroke-miterlimit="10" d="M40.088,57.271c-0.475,0-0.94-0.226-1.23-0.646l-2.682-3.898
	c-0.267-0.389-0.334-0.88-0.183-1.326c0.151-0.445,0.507-0.793,0.954-0.938c0.69-0.223,1.742-0.685,2.672-1.093l7.165-2.656
	c6.659-2.433-1.137,1.193-0.808,1.947s3.215,0.258,2.46,0.588l-7.618,2.851c-0.373,0.164-0.75,0.33-1.119,0.487l1.615,2.349
	c0.467,0.679,0.295,1.607-0.383,2.073C40.684,57.18,40.39,57.271,40.088,57.271z M47.354,49.581c-0.586,0-1.141-0.347-1.378-0.921
	c-0.314-0.762,0.047-1.633,0.808-1.947c3.901-1.614,5.421-3.241,5.808-6.219c0.481-3.723-2.121-4.944-2.42-5.07
	c-0.559-0.238-0.933-0.797-0.924-1.402c0.002-0.062,0.013-6.576-4.838-9.566c-4.76-2.936-11.438-2.559-11.502-2.552
	c-0.506,0.035-1.006-0.201-1.305-0.618l-4.831-6.717l-3.209,11.657c-0.218,0.794-1.042,1.259-1.833,1.042
	c-0.793-0.218-1.26-1.04-1.042-1.834l4.037-14.662c0.153-0.553,0.609-0.97,1.174-1.072c0.563-0.102,1.138,0.131,1.474,0.597
	l6.187,8.604c2.145-0.027,7.867,0.212,12.416,3.017c5.107,3.148,6.047,8.94,6.218,11.211c1.736,1.104,3.89,3.613,3.354,7.747
	c-0.655,5.051-4.052,7.114-7.625,8.592C47.744,49.543,47.55,49.582,47.354,49.581z M12.486,55.889c-0.147,0-0.296-0.021-0.443-0.066
	c-0.786-0.244-1.226-1.081-0.98-1.867l9.778-29.072c0.244-0.785,0.102,2.143,0.89,2.384c0.786,0.245,1.968-1.544,1.723-0.757
	l-9.544,28.33C13.71,55.479,13.122,55.889,12.486,55.889z"/>
</svg>
