<?xml version="1.0" encoding="utf-8"?>
<!-- Generator: Adobe Illustrator 16.0.0, SVG Export Plug-In . SVG Version: 6.00 Build 0)  -->
<!DOCTYPE svg PUBLIC "-//W3C//DTD SVG 1.1//EN" "http://www.w3.org/Graphics/SVG/1.1/DTD/svg11.dtd">
<svg version="1.1" id="图层_1" xmlns="http://www.w3.org/2000/svg" xmlns:xlink="http://www.w3.org/1999/xlink" x="0px" y="0px"
	 width="256px" height="256px" viewBox="0 0 256 256" enable-background="new 0 0 256 256" xml:space="preserve">
<g id="_x23_383635ff">
	<path fill="#6699FF" d="M124.24,0h6.029c30.569,0.84,60.779,12.63,83.221,33.5c22.64,20.69,37.439,49.86,40.3,80.43
		c0.36,8.37,0.29,16.77,0.06,25.15c-2.14,25.24-12.438,49.641-28.64,69.08c-19.09,23.1-46.61,39.061-76.2,43.91
		c-28.89,4.9-59.46-0.471-84.76-15.32c-23.51-13.641-42.44-35.04-53.02-60.1C-0.38,149.43-1.97,118.1,6.68,89.81
		c8.78-29.13,28.58-54.7,54.44-70.68C79.99,7.26,102.04,1.03,124.24,0 M76.96,52.92c-13.5,12.7-21.57,30.3-24.8,48.37
		c-3.33,18.93-3.36,38.61,1.17,57.351c3.91,15.959,12.59,31.209,26.1,40.899c14.58,10.479,33.91,12.7,51.12,8.75
		c15.69-3.7,28.091-15.851,34.979-30.069c1.271,9.389,1.41,19.889,7.641,27.6c5.25,6.33,17.59,0.381,15.12-7.76
		c-4.74-22-5.09-44.74-2.64-67.051c4.648,1.99,8.648,5.26,13.398,6.99c6.561,1.9,13.08-5.33,11.61-11.72
		c-1.011-4.62-4.99-7.74-8.78-10.14c-17.271-10.42-38.279-11.8-57.93-10.31c-8.65,1.03-18,2.41-24.88,8.22
		c-6.08,4.95-1.93,16.57,5.88,16.43c5.949-0.641,11.51-3.121,17.408-4.061c8-1.65,16.201-0.65,24.142,0.82
		c-2.01,11.491-4.95,22.901-9.681,33.6c-3.92,8.7-9.391,17.12-17.449,22.52c-6.79,4.701-15.17,6.771-23.37,6.432
		c-10.73,0.25-21.58-3.949-28.98-11.8c-10.16-10.69-14.32-25.58-15.5-39.962c-0.85-13.5-0.47-27.258,3.09-40.378
		c3.91-15.15,13.08-29.32,26.75-37.34c14.38-8.71,31.821-10.23,48.23-8.77c8.479,1.11,16.87,3.46,24.37,7.62
		c3.432,1.72,7.012,4.22,11.05,3.26c5.58-1.83,8.761-8.98,5.86-14.21c-2.811-4.62-7.729-7.33-12.45-9.63
		c-15.608-7.47-33.42-8.72-50.44-7.34C109.26,32.72,90.56,39.7,76.96,52.92 M183.34,67.59c-9.29,2.67-12.59,14.91-7.88,22.8
		c4.25,8.13,16.601,9.35,22.95,3.06c6.21-6.34,5.83-18.11-1.29-23.63C193.311,66.72,187.939,66.57,183.34,67.59z"/>
</g>
<g id="_x23_727171ff">
	<path d="M76.96,52.92c13.6-13.22,32.3-20.2,51.02-21.68c17.02-1.38,34.831-0.13,50.44,7.34c4.721,2.3,9.641,5.01,12.45,9.63
		c2.899,5.23-0.28,12.38-5.86,14.21c-4.039,0.96-7.619-1.54-11.05-3.26c-7.5-4.16-15.89-6.51-24.37-7.62
		c-16.41-1.46-33.85,0.06-48.23,8.77C87.69,68.33,78.52,82.5,74.61,97.65c-3.56,13.12-3.94,26.88-3.09,40.379
		c1.18,14.381,5.34,29.271,15.5,39.961c7.4,7.85,18.25,12.05,28.98,11.8c8.2,0.34,16.58-1.729,23.37-6.431
		c8.06-5.399,13.53-13.819,17.45-22.521c4.729-10.698,7.67-22.108,9.68-33.6c-7.939-1.47-16.141-2.47-24.141-0.82
		c-5.899,0.94-11.459,3.42-17.409,4.062c-7.81,0.14-11.96-11.48-5.88-16.432c6.88-5.81,16.23-7.19,24.88-8.22
		c19.649-1.49,40.659-0.11,57.93,10.31c3.79,2.4,7.771,5.52,8.78,10.14c1.47,6.39-5.051,13.622-11.61,11.72
		c-4.75-1.729-8.75-5-13.399-6.989c-2.449,22.311-2.101,45.051,2.641,67.051c2.471,8.14-9.87,14.09-15.12,7.76
		c-6.229-7.711-6.37-18.211-7.642-27.6c-6.889,14.219-19.288,26.368-34.979,30.068c-17.21,3.949-36.54,1.729-51.12-8.75
		c-13.51-9.689-22.19-24.939-26.1-40.898c-4.53-18.74-4.5-38.42-1.17-57.352C55.39,83.22,63.46,65.62,76.96,52.92z"/>
</g>
<g id="_x23_14ae67ff">
	<path fill="#9900CC" d="M183.34,67.59c4.6-1.02,9.971-0.87,13.78,2.23c7.12,5.52,7.5,17.29,1.29,23.63
		c-6.35,6.29-18.7,5.07-22.95-3.06C170.75,82.5,174.05,70.26,183.34,67.59z"/>
</g>
</svg>
