<?xml version="1.0" encoding="utf-8"?>
<!-- Generator: Adobe Illustrator 16.0.0, SVG Export Plug-In . SVG Version: 6.00 Build 0)  -->
<!DOCTYPE svg PUBLIC "-//W3C//DTD SVG 1.1//EN" "http://www.w3.org/Graphics/SVG/1.1/DTD/svg11.dtd">
<svg version="1.1" id="图层_1" xmlns="http://www.w3.org/2000/svg" xmlns:xlink="http://www.w3.org/1999/xlink" x="0px" y="0px"
	 width="118.666px" height="48.5px" viewBox="0 0 118.666 48.5" enable-background="new 0 0 118.666 48.5" xml:space="preserve">
<path fill="#664498" d="M116.659,6.78l-0.213,0.858l-0.912,1.018l-0.75,1.072v1.018l0.537,0.965l0.535,0.75v1.554l-0.535,1.339
	l-0.857,1.072l-1.125,0.911l-1.395,0.107l-1.553-0.107l-0.912-0.589l-1.072-0.75l-0.965-1.125l-1.231-1.501l-0.536-1.446
	l-0.215-1.072l0.215-1.018l0.536-1.179l0.75-0.912l1.554-0.856l1.34-0.215l1.982-0.214l1.93-0.536l1.34-0.107l0.965,0.107
	L116.659,6.78z"/>
<path d="M112.015,24.412l-0.178,0.296l-0.623,0.326l-0.416,0.356l-0.178,0.711l-0.118,0.979l-0.326,0.979l0.208,0.86l-0.268,0.711
	l-0.059,0.979l-0.119,1.038v1.038l0.119,1.275l-0.119,0.949v1.038l0.178,0.801l0.268,0.771l-0.268,0.919l0.326,0.8v1.394l0.06,0.534
	l0.237,0.801l0.059,0.86l0.238,0.593v0.563l0.236,0.534l-0.296,0.534l-0.356,0.148l-0.236-0.148l-0.268-0.593l-0.178-0.682
	l-0.118-0.534l-0.297-0.593v-0.563l-0.415-0.919v-0.83l-0.119-0.623v-0.83l-0.207-0.741l-0.119-1.809l-0.117-0.504l-0.061-1.156
	l0.061-0.771l-0.061-0.86v-0.741l-0.296-0.593l-0.504-0.296l-0.356-0.386l-0.355-1.156l-0.119-0.652v-2.372l0.119-1.038
	l-0.178-1.097l-0.06-0.711l-0.237-0.682l0.237-0.711l0.356-0.563l0.475-0.178l0.682-0.178l0.74,0.178l0.534,0.475l0.534,0.444h0.682
	l0.475,0.475l0.444,0.296l0.356,0.326V24.412z"/>
<path d="M18.913,11.722l-0.564,0.741h-0.771l-0.919-0.326L15.8,11.722l-0.891-0.652l-0.178-0.563l-1.097-0.237l-0.622-0.237
	l-1.217,0.178h-1.037l-1.067,0.059l-1.482,0.534l-1.067,0.623l-1.72,1.571l-0.356,0.86l-0.563,1.215l0.148,1.394l0.475,1.157
	L5.6,18.334l1.542,1.097l0.89,0.741l1.038,0.652l0.8,0.741l0.949,0.711l1.956,1.156l0.979,0.86l0.712,0.801l0.683,0.474l0.178,0.682
	l0.979,1.571l0.414,0.979l0.238,1.067l0.444,1.156l0.356,1.097l0.059,1.571l-0.237,1.216l-0.682,1.423l-0.356,1.126l-0.74,0.801
	L15.443,39l-0.86,0.889l-0.77,0.623l-1.275,0.474l-1.72,0.296L9.632,41.55l-1.363-0.267l-0.949-0.059L6.46,41.046L5.808,40.69H5.362
	l-0.236-0.296l0.118-0.682l0.237-0.356h0.444v0.356l0.118,0.237l0.416,0.267l0.859,0.356l1.928,0.119l0.622-0.178l0.949,0.059
	l1.274-0.356l1.156-0.504l1.424-0.979l0.236-0.711l0.594-0.979l0.355-1.038l0.445-0.771l0.059-0.919l0.297-1.334l-0.237-0.86
	l-0.237-1.156l-0.623-0.89l-0.296-1.097l-0.534-1.038l-0.385-0.979l-0.712-0.415l-0.563-0.623l-0.83-0.593L11.5,24.59l-1.334-0.593
	l-0.801-0.801l-0.89-0.178l-0.859-0.741l-1.098-0.771l-0.593-0.504l-1.097-0.296l-1.038-0.919l-0.919-1.067l-0.534-1.097
	l-0.563-1.157v-2.313l0.504-1.275l0.593-1.216l0.682-1.038l0.771-0.83l0.741-0.682l0.92-0.741l1.097-0.534l0.949-0.356l1.394-0.059
	l1.334-0.119l1.334-0.326l1.156-0.593l1.216-0.356l0.563-0.445l1.156,0.178l0.652,0.623l0.386,1.097l0.474,0.593l0.594,0.623
	l0.385,0.949l0.119,0.919L18.913,11.722z"/>
<path d="M51.884,6.148l-0.564,0.237l-0.414-0.119l-1.217-0.178l-1.689-0.208h-1.957L43.67,6.029l-2.55,0.356l-2.283,0.059
	l-2.016,0.415L35.19,7.156l-1.779,0.563l-1.334,0.356l-1.275,0.296l-0.414,0.504L29.587,9.35l-1.038,0.563l-1.216,0.355
	l-1.631,0.237l-1.631,0.06l-1.453-0.475l-0.859-0.563l-0.859-0.593l-0.771-0.682l-0.118-0.83l0.118-0.979l0.534-0.741l0.504-0.474
	l0.771-0.237l1.216-0.623l1.157-0.297l1.838-0.178h1.986l2.55,0.178h2.55l2.729-0.178l2.253-0.059l0.978-0.178l1.275,0.119
	l1.394-0.237l1.513,0.297l1.393-0.06l1.275,0.119l2.432,0.296h1.156l1.957,0.979l0.297,0.534V6.148z M36.288,11.07l-0.326,0.534
	l-0.238,1.216v1.097l-0.178,1.394v1.216l-0.118,0.979l-0.237,0.83l0.237,0.682l-0.415,0.771l-0.09,1.038v0.919L34.687,22.9
	l-0.119,1.334l-0.118,1.038l0.118,1.216l-0.236,1.394l-0.061,1.334v1.097l0.061,1.394l0.118,1.512l-0.118,1.453v1.571l-0.178,1.364
	l0.117,1.275v1.394l0.061,1.275l-0.061,1.275l-0.414,0.415l-0.119-0.296l-0.148-0.563l0.148-0.949l0.06-1.156l-0.267-0.682
	l0.059-1.156l-0.178-0.652l-0.178-0.919v-3.024l-0.237-0.979v-1.097l-0.118-1.156v-1.394l-0.119-1.156v-1.216l0.119-1.215v-1.631
	l-0.119-1.66v-2.609L32.7,18.779l0.236-0.919v-1.156l-0.059-1.453l-0.504-1.394l-0.297-1.275l-0.475-0.979l-0.119-0.979v-0.83
	l0.416-0.682l0.741-0.741l0.948-0.119l0.742,0.267l0.859,0.711l0.652,0.801L36.288,11.07z"/>
<path fill="#47AAE1" d="M59.519,39.086l-0.164,0.861l-1.516,1.311l-0.41,0.779l-0.615,0.819l-0.326,0.328l-0.574,0.86l-1.599,1.188
	l-0.942,0.083l-1.148-0.164l-0.696-0.615l-0.409-1.147l-0.246-0.533l-1.025-0.819l-0.245-0.533V40.93l-0.245-0.656l-0.083-0.86
	l1.024-0.901l1.926-1.107l1.763-0.819h2.254l0.984,0.41l0.368,0.574l0.902,0.164l0.859,0.532L59.519,39.086z"/>
<path d="M81.829,43.981l-0.178,0.89v0.563l-0.237,0.416l-0.386,0.296l-0.533-0.178l-0.504-0.771l-0.119-0.86l-0.415-0.415
	l-0.06-1.097l-0.475-1.601l-0.682-1.067l-0.593-1.275l-0.326-1.097l-0.534-1.601l-0.118-1.275l-0.682-0.949l-0.712-0.623
	l-0.919,0.504l-0.86,0.534l-2.49,0.534l-0.949-0.119l-1.097-0.059l-2.135-0.771l-1.394-0.623l-0.118-0.534l-1.097-0.504
	l-0.238-0.711l-0.504-0.504l-0.414-1.156l-0.179-1.008l-0.06-1.097l-0.059-1.72l0.059-1.809l0.355-1.512l-0.117-0.86l-0.238-1.453
	l-0.059-1.69l0.118-1.601l0.534-1.216l0.801-1.69l0.8-1.394l0.712-0.86l0.444-0.83l1.187-1.275l0.801-1.097l0.859-0.86l0.83-0.919
	l0.859-0.475l1.156,0.119l1.039-0.475l1.986-0.178l0.859-0.682l1.571-0.534l1.274,0.237l0.86,0.415l0.741,0.741l0.355,0.771
	l0.416,0.563l0.118,0.83l-0.06,0.445l-0.297,0.415l-0.8,0.623l-0.89,0.356H77.44l-0.948-0.296l-1.097-0.326l-1.156,0.326
	l-1.513,0.771l-1.216,0.859l-1.334,0.919l-0.267,0.711l-0.89,0.623l-0.801,1.097l-0.919,1.334l-0.593,0.949l-0.534,1.482
	l-0.563,1.394l-0.178,1.571V22.9l-0.297,1.394l-0.326,1.809l-0.118,1.542l0.444,1.809l0.771,1.275l0.859,0.86l1.217,0.415
	l1.512,0.682l1.689,0.296l1.216-0.178h0.622l0.475-0.386l0.92-1.008l0.682-0.919v-2.016l0.178-1.275l0.178-1.453l0.355-1.334
	l0.416-0.652l-0.178-1.334l0.178-0.563l0.326-0.415l0.355-0.445l0.475-0.237l0.919,0.06l0.979,0.623l0.356,1.156l0.296,1.512
	l0.208,1.275l0.414,1.038l0.475,1.334v1.571l0.06,1.394l-0.237,1.453v1.72l-0.059,1.453v1.986L80.851,39l0.415,1.809l0.148,1.749
	l0.118,0.86L81.829,43.981z"/>
<path d="M104.185,39.83l-0.296,0.504l-0.386,0.237l-0.475,0.059l-0.414-0.118l-0.268-0.297l-0.475-0.563l-0.592-0.475l-0.445-0.445
	l-0.771-1.69l-0.118-0.711l-0.208-0.623l-0.178-0.474h-0.236l-0.297,0.356l-0.355,0.593l-0.208,0.563l-0.178,0.593l-0.297,0.623
	l-0.355,0.534L97.188,39l-0.475,0.652l-0.801,0.444l-0.594,0.297l-1.156,0.296l-0.918,0.059l-0.713-0.119l-0.8-0.415l-0.979-0.267
	l-0.652-0.534L89.302,39l-0.475-0.504l-0.683-0.593l-0.237-0.919l-0.355-0.979l-0.237-0.949L87.048,33.9l-0.237-0.682l0.178-0.919
	l-0.296-1.097l-0.06-0.593l-0.06-0.919l-0.119-0.771l-0.118-0.563l0.06-0.771l0.178-0.623l0.594-0.652l0.8-0.326l0.622-0.059
	l0.771,0.119l0.741,0.385l0.534,0.415l0.504,0.741l0.297,0.652l0.236,0.919l-0.118,0.652l-0.415,0.563l-0.386,0.652l-0.06,0.86
	l-0.297,0.979v0.83l0.061,1.156l0.296,1.216l0.444,0.563l0.475,0.771l0.859,0.623l0.831,0.415l1.038,0.296l0.8-0.296l0.771-0.415
	l0.623-0.623l0.594-0.949l0.444-0.801l0.355-0.801l0.297-0.83l0.237-1.097l0.148-1.275l-0.268-1.097l-0.178-0.979l-0.178-0.415
	l0.119-0.801l-0.061-0.771l0.119-0.623l0.178-0.534l0.119-0.8l0.326-0.475l0.355-0.237l0.533,0.178l0.268,0.474l0.059,0.415
	l0.238,0.623l-0.061,0.593v0.919l-0.236,0.919v0.415l-0.268,0.356l0.148,0.741l0.119,0.86l0.297,0.771l0.059,1.216l0.297,0.801
	l0.236,1.038l0.119,0.83l0.326,0.919l0.355,0.682l0.475,0.593l0.504,0.534l1.334,0.623L104.185,39.83z"/>
</svg>
