<?xml version="1.0" encoding="utf-8"?>
<!-- Generator: Adobe Illustrator 25.4.1, SVG Export Plug-In . SVG Version: 6.00 Build 0)  -->
<svg version="1.1" id="图层_1" xmlns="http://www.w3.org/2000/svg" xmlns:xlink="http://www.w3.org/1999/xlink" x="0px" y="0px"
	 viewBox="0 0 190.93 201.15" style="enable-background:new 0 0 190.93 201.15;" xml:space="preserve">
<style type="text/css">
	
		.st0{clip-path:url(#SVGID_00000150813024464222884340000009951057937341052046_);fill-rule:evenodd;clip-rule:evenodd;fill:#DCE9F5;}
	
		.st1{clip-path:url(#SVGID_00000150813024464222884340000009951057937341052046_);fill-rule:evenodd;clip-rule:evenodd;fill:#F7C3CA;}
	
		.st2{clip-path:url(#SVGID_00000150813024464222884340000009951057937341052046_);fill-rule:evenodd;clip-rule:evenodd;fill:#F2F2F2;}
	.st3{clip-path:url(#SVGID_00000150813024464222884340000009951057937341052046_);}
	.st4{fill:#040000;}
	.st5{font-family:'DengXian-Bold';}
	.st6{font-size:12.7729px;}
	.st7{fill:#106AB2;}
	.st8{fill:#931D22;}
	.st9{font-family:'DengXian';}
	
		.st10{clip-path:url(#SVGID_00000013161480157543420590000008030550448155455670_);fill-rule:evenodd;clip-rule:evenodd;fill:#D4D4D4;}
	
		.st11{clip-path:url(#SVGID_00000013161480157543420590000008030550448155455670_);fill:none;stroke:#040000;stroke-width:0;stroke-linecap:square;stroke-miterlimit:10;}
	
		.st12{clip-path:url(#SVGID_00000013161480157543420590000008030550448155455670_);fill-rule:evenodd;clip-rule:evenodd;fill:#040000;}
	
		.st13{clip-path:url(#SVGID_00000013161480157543420590000008030550448155455670_);fill:none;stroke:#D4D4D4;stroke-width:0;stroke-linecap:square;stroke-miterlimit:10;}
</style>
<g>
	<g>
		<defs>
			<polygon id="SVGID_1_" points="3.94,3.85 187.23,3.85 187.23,198 3.94,198 3.94,3.85 			"/>
		</defs>
		<clipPath id="SVGID_00000144305032835242559920000008570845967398525622_">
			<use xlink:href="#SVGID_1_"  style="overflow:visible;"/>
		</clipPath>
		
			<polyline style="clip-path:url(#SVGID_00000144305032835242559920000008570845967398525622_);fill-rule:evenodd;clip-rule:evenodd;fill:#DCE9F5;" points="
			3.09,3 3.09,20.03 187.23,20.03 187.23,3 3.09,3 		"/>
		
			<polyline style="clip-path:url(#SVGID_00000144305032835242559920000008570845967398525622_);fill-rule:evenodd;clip-rule:evenodd;fill:#DCE9F5;" points="
			3.09,19.18 3.09,36.21 22.7,36.21 22.7,19.18 3.09,19.18 		"/>
		
			<polyline style="clip-path:url(#SVGID_00000144305032835242559920000008570845967398525622_);fill-rule:evenodd;clip-rule:evenodd;fill:#F7C3CA;" points="
			21.84,19.18 21.84,36.21 41.45,36.21 41.45,19.18 21.84,19.18 		"/>
		
			<polyline style="clip-path:url(#SVGID_00000144305032835242559920000008570845967398525622_);fill-rule:evenodd;clip-rule:evenodd;fill:#F2F2F2;" points="
			40.6,19.18 40.6,36.21 77.26,36.21 77.26,19.18 40.6,19.18 		"/>
		
			<polyline style="clip-path:url(#SVGID_00000144305032835242559920000008570845967398525622_);fill-rule:evenodd;clip-rule:evenodd;fill:#F7C3CA;" points="
			76.4,19.18 76.4,36.21 96.01,36.21 96.01,19.18 76.4,19.18 		"/>
		
			<polyline style="clip-path:url(#SVGID_00000144305032835242559920000008570845967398525622_);fill-rule:evenodd;clip-rule:evenodd;fill:#F2F2F2;" points="
			95.16,19.18 95.16,36.21 168.47,36.21 168.47,19.18 95.16,19.18 		"/>
		
			<polyline style="clip-path:url(#SVGID_00000144305032835242559920000008570845967398525622_);fill-rule:evenodd;clip-rule:evenodd;fill:#F7C3CA;" points="
			167.62,19.18 167.62,36.21 187.23,36.21 187.23,19.18 167.62,19.18 		"/>
		
			<polyline style="clip-path:url(#SVGID_00000144305032835242559920000008570845967398525622_);fill-rule:evenodd;clip-rule:evenodd;fill:#DCE9F5;" points="
			3.09,35.36 3.09,52.39 22.7,52.39 22.7,35.36 3.09,35.36 		"/>
		
			<polyline style="clip-path:url(#SVGID_00000144305032835242559920000008570845967398525622_);fill-rule:evenodd;clip-rule:evenodd;fill:#F2F2F2;" points="
			21.84,35.36 21.84,52.39 41.45,52.39 41.45,35.36 21.84,35.36 		"/>
		
			<polyline style="clip-path:url(#SVGID_00000144305032835242559920000008570845967398525622_);fill-rule:evenodd;clip-rule:evenodd;fill:#F7C3CA;" points="
			40.6,35.36 40.6,52.39 58.5,52.39 58.5,35.36 40.6,35.36 		"/>
		
			<polyline style="clip-path:url(#SVGID_00000144305032835242559920000008570845967398525622_);fill-rule:evenodd;clip-rule:evenodd;fill:#F2F2F2;" points="
			57.65,35.36 57.65,52.39 113.91,52.39 113.91,35.36 57.65,35.36 		"/>
		
			<polyline style="clip-path:url(#SVGID_00000144305032835242559920000008570845967398525622_);fill-rule:evenodd;clip-rule:evenodd;fill:#F7C3CA;" points="
			113.06,35.36 113.06,52.39 130.96,52.39 130.96,35.36 113.06,35.36 		"/>
		
			<polyline style="clip-path:url(#SVGID_00000144305032835242559920000008570845967398525622_);fill-rule:evenodd;clip-rule:evenodd;fill:#F2F2F2;" points="
			130.11,35.36 130.11,52.39 187.23,52.39 187.23,35.36 130.11,35.36 		"/>
		
			<polyline style="clip-path:url(#SVGID_00000144305032835242559920000008570845967398525622_);fill-rule:evenodd;clip-rule:evenodd;fill:#DCE9F5;" points="
			3.09,51.54 3.09,68.57 22.7,68.57 22.7,51.54 3.09,51.54 		"/>
		
			<polyline style="clip-path:url(#SVGID_00000144305032835242559920000008570845967398525622_);fill-rule:evenodd;clip-rule:evenodd;fill:#F2F2F2;" points="
			21.84,51.54 21.84,68.57 58.5,68.57 58.5,51.54 21.84,51.54 		"/>
		
			<polyline style="clip-path:url(#SVGID_00000144305032835242559920000008570845967398525622_);fill-rule:evenodd;clip-rule:evenodd;fill:#F7C3CA;" points="
			57.65,51.54 57.65,68.57 77.26,68.57 77.26,51.54 57.65,51.54 		"/>
		
			<polyline style="clip-path:url(#SVGID_00000144305032835242559920000008570845967398525622_);fill-rule:evenodd;clip-rule:evenodd;fill:#F2F2F2;" points="
			76.4,51.54 76.4,68.57 130.96,68.57 130.96,51.54 76.4,51.54 		"/>
		
			<polyline style="clip-path:url(#SVGID_00000144305032835242559920000008570845967398525622_);fill-rule:evenodd;clip-rule:evenodd;fill:#F7C3CA;" points="
			130.11,51.54 130.11,68.57 168.47,68.57 168.47,51.54 130.11,51.54 		"/>
		
			<polyline style="clip-path:url(#SVGID_00000144305032835242559920000008570845967398525622_);fill-rule:evenodd;clip-rule:evenodd;fill:#F2F2F2;" points="
			167.62,51.54 167.62,68.57 187.23,68.57 187.23,51.54 167.62,51.54 		"/>
		
			<polyline style="clip-path:url(#SVGID_00000144305032835242559920000008570845967398525622_);fill-rule:evenodd;clip-rule:evenodd;fill:#DCE9F5;" points="
			3.09,67.72 3.09,84.75 22.7,84.75 22.7,67.72 3.09,67.72 		"/>
		
			<polyline style="clip-path:url(#SVGID_00000144305032835242559920000008570845967398525622_);fill-rule:evenodd;clip-rule:evenodd;fill:#F7C3CA;" points="
			21.84,67.72 21.84,84.75 41.45,84.75 41.45,67.72 21.84,67.72 		"/>
		
			<polyline style="clip-path:url(#SVGID_00000144305032835242559920000008570845967398525622_);fill-rule:evenodd;clip-rule:evenodd;fill:#F2F2F2;" points="
			40.6,67.72 40.6,84.75 77.26,84.75 77.26,67.72 40.6,67.72 		"/>
		
			<polyline style="clip-path:url(#SVGID_00000144305032835242559920000008570845967398525622_);fill-rule:evenodd;clip-rule:evenodd;fill:#F7C3CA;" points="
			76.4,67.72 76.4,84.75 96.01,84.75 96.01,67.72 76.4,67.72 		"/>
		
			<polyline style="clip-path:url(#SVGID_00000144305032835242559920000008570845967398525622_);fill-rule:evenodd;clip-rule:evenodd;fill:#F2F2F2;" points="
			95.16,67.72 95.16,84.75 168.47,84.75 168.47,67.72 95.16,67.72 		"/>
		
			<polyline style="clip-path:url(#SVGID_00000144305032835242559920000008570845967398525622_);fill-rule:evenodd;clip-rule:evenodd;fill:#F7C3CA;" points="
			167.62,67.72 167.62,84.75 187.23,84.75 187.23,67.72 167.62,67.72 		"/>
		
			<polyline style="clip-path:url(#SVGID_00000144305032835242559920000008570845967398525622_);fill-rule:evenodd;clip-rule:evenodd;fill:#DCE9F5;" points="
			3.09,83.9 3.09,100.93 22.7,100.93 22.7,83.9 3.09,83.9 		"/>
		
			<polyline style="clip-path:url(#SVGID_00000144305032835242559920000008570845967398525622_);fill-rule:evenodd;clip-rule:evenodd;fill:#F2F2F2;" points="
			21.84,83.9 21.84,100.93 41.45,100.93 41.45,83.9 21.84,83.9 		"/>
		
			<polyline style="clip-path:url(#SVGID_00000144305032835242559920000008570845967398525622_);fill-rule:evenodd;clip-rule:evenodd;fill:#F7C3CA;" points="
			40.6,83.9 40.6,100.93 58.5,100.93 58.5,83.9 40.6,83.9 		"/>
		
			<polyline style="clip-path:url(#SVGID_00000144305032835242559920000008570845967398525622_);fill-rule:evenodd;clip-rule:evenodd;fill:#F2F2F2;" points="
			57.65,83.9 57.65,100.93 113.91,100.93 113.91,83.9 57.65,83.9 		"/>
		
			<polyline style="clip-path:url(#SVGID_00000144305032835242559920000008570845967398525622_);fill-rule:evenodd;clip-rule:evenodd;fill:#F7C3CA;" points="
			113.06,83.9 113.06,100.93 130.96,100.93 130.96,83.9 113.06,83.9 		"/>
		
			<polyline style="clip-path:url(#SVGID_00000144305032835242559920000008570845967398525622_);fill-rule:evenodd;clip-rule:evenodd;fill:#F2F2F2;" points="
			130.11,83.9 130.11,100.93 187.23,100.93 187.23,83.9 130.11,83.9 		"/>
		
			<polyline style="clip-path:url(#SVGID_00000144305032835242559920000008570845967398525622_);fill-rule:evenodd;clip-rule:evenodd;fill:#DCE9F5;" points="
			3.09,100.07 3.09,117.1 22.7,117.1 22.7,100.07 3.09,100.07 		"/>
		
			<polyline style="clip-path:url(#SVGID_00000144305032835242559920000008570845967398525622_);fill-rule:evenodd;clip-rule:evenodd;fill:#F2F2F2;" points="
			21.84,100.07 21.84,117.1 58.5,117.1 58.5,100.07 21.84,100.07 		"/>
		
			<polyline style="clip-path:url(#SVGID_00000144305032835242559920000008570845967398525622_);fill-rule:evenodd;clip-rule:evenodd;fill:#F7C3CA;" points="
			57.65,100.07 57.65,117.1 77.26,117.1 77.26,100.07 57.65,100.07 		"/>
		
			<polyline style="clip-path:url(#SVGID_00000144305032835242559920000008570845967398525622_);fill-rule:evenodd;clip-rule:evenodd;fill:#F2F2F2;" points="
			76.4,100.07 76.4,117.1 130.96,117.1 130.96,100.07 76.4,100.07 		"/>
		
			<polyline style="clip-path:url(#SVGID_00000144305032835242559920000008570845967398525622_);fill-rule:evenodd;clip-rule:evenodd;fill:#F7C3CA;" points="
			130.11,100.07 130.11,117.1 168.47,117.1 168.47,100.07 130.11,100.07 		"/>
		
			<polyline style="clip-path:url(#SVGID_00000144305032835242559920000008570845967398525622_);fill-rule:evenodd;clip-rule:evenodd;fill:#F2F2F2;" points="
			167.62,100.07 167.62,117.1 187.23,117.1 187.23,100.07 167.62,100.07 		"/>
		
			<polyline style="clip-path:url(#SVGID_00000144305032835242559920000008570845967398525622_);fill-rule:evenodd;clip-rule:evenodd;fill:#DCE9F5;" points="
			3.09,116.25 3.09,133.28 22.7,133.28 22.7,116.25 3.09,116.25 		"/>
		
			<polyline style="clip-path:url(#SVGID_00000144305032835242559920000008570845967398525622_);fill-rule:evenodd;clip-rule:evenodd;fill:#F2F2F2;" points="
			21.84,116.25 21.84,133.28 96.01,133.28 96.01,116.25 21.84,116.25 		"/>
		
			<polyline style="clip-path:url(#SVGID_00000144305032835242559920000008570845967398525622_);fill-rule:evenodd;clip-rule:evenodd;fill:#F7C3CA;" points="
			95.16,116.25 95.16,133.28 113.91,133.28 113.91,116.25 95.16,116.25 		"/>
		
			<polyline style="clip-path:url(#SVGID_00000144305032835242559920000008570845967398525622_);fill-rule:evenodd;clip-rule:evenodd;fill:#F2F2F2;" points="
			113.06,116.25 113.06,133.28 187.23,133.28 187.23,116.25 113.06,116.25 		"/>
		
			<polyline style="clip-path:url(#SVGID_00000144305032835242559920000008570845967398525622_);fill-rule:evenodd;clip-rule:evenodd;fill:#DCE9F5;" points="
			3.09,132.43 3.09,149.46 22.7,149.46 22.7,132.43 3.09,132.43 		"/>
		
			<polyline style="clip-path:url(#SVGID_00000144305032835242559920000008570845967398525622_);fill-rule:evenodd;clip-rule:evenodd;fill:#F2F2F2;" points="
			21.84,132.43 21.84,149.46 41.45,149.46 41.45,132.43 21.84,132.43 		"/>
		
			<polyline style="clip-path:url(#SVGID_00000144305032835242559920000008570845967398525622_);fill-rule:evenodd;clip-rule:evenodd;fill:#F7C3CA;" points="
			40.6,132.43 40.6,149.46 58.5,149.46 58.5,132.43 40.6,132.43 		"/>
		
			<polyline style="clip-path:url(#SVGID_00000144305032835242559920000008570845967398525622_);fill-rule:evenodd;clip-rule:evenodd;fill:#F2F2F2;" points="
			57.65,132.43 57.65,149.46 113.91,149.46 113.91,132.43 57.65,132.43 		"/>
		
			<polyline style="clip-path:url(#SVGID_00000144305032835242559920000008570845967398525622_);fill-rule:evenodd;clip-rule:evenodd;fill:#F7C3CA;" points="
			113.06,132.43 113.06,149.46 130.96,149.46 130.96,132.43 113.06,132.43 		"/>
		
			<polyline style="clip-path:url(#SVGID_00000144305032835242559920000008570845967398525622_);fill-rule:evenodd;clip-rule:evenodd;fill:#F2F2F2;" points="
			130.11,132.43 130.11,149.46 187.23,149.46 187.23,132.43 130.11,132.43 		"/>
		
			<polyline style="clip-path:url(#SVGID_00000144305032835242559920000008570845967398525622_);fill-rule:evenodd;clip-rule:evenodd;fill:#DCE9F5;" points="
			3.09,148.61 3.09,165.64 22.7,165.64 22.7,148.61 3.09,148.61 		"/>
		
			<polyline style="clip-path:url(#SVGID_00000144305032835242559920000008570845967398525622_);fill-rule:evenodd;clip-rule:evenodd;fill:#F2F2F2;" points="
			21.84,148.61 21.84,165.64 96.01,165.64 96.01,148.61 21.84,148.61 		"/>
		
			<polyline style="clip-path:url(#SVGID_00000144305032835242559920000008570845967398525622_);fill-rule:evenodd;clip-rule:evenodd;fill:#F7C3CA;" points="
			95.16,148.61 95.16,165.64 113.91,165.64 113.91,148.61 95.16,148.61 		"/>
		
			<polyline style="clip-path:url(#SVGID_00000144305032835242559920000008570845967398525622_);fill-rule:evenodd;clip-rule:evenodd;fill:#F2F2F2;" points="
			113.06,148.61 113.06,165.64 187.23,165.64 187.23,148.61 113.06,148.61 		"/>
		
			<polyline style="clip-path:url(#SVGID_00000144305032835242559920000008570845967398525622_);fill-rule:evenodd;clip-rule:evenodd;fill:#DCE9F5;" points="
			3.09,164.79 3.09,181.82 22.7,181.82 22.7,164.79 3.09,164.79 		"/>
		
			<polyline style="clip-path:url(#SVGID_00000144305032835242559920000008570845967398525622_);fill-rule:evenodd;clip-rule:evenodd;fill:#F2F2F2;" points="
			21.84,164.79 21.84,181.82 149.72,181.82 149.72,164.79 21.84,164.79 		"/>
		
			<polyline style="clip-path:url(#SVGID_00000144305032835242559920000008570845967398525622_);fill-rule:evenodd;clip-rule:evenodd;fill:#F7C3CA;" points="
			148.86,164.79 148.86,181.82 168.47,181.82 168.47,164.79 148.86,164.79 		"/>
		
			<polyline style="clip-path:url(#SVGID_00000144305032835242559920000008570845967398525622_);fill-rule:evenodd;clip-rule:evenodd;fill:#F2F2F2;" points="
			167.62,164.79 167.62,181.82 187.23,181.82 187.23,164.79 167.62,164.79 		"/>
		
			<polyline style="clip-path:url(#SVGID_00000144305032835242559920000008570845967398525622_);fill-rule:evenodd;clip-rule:evenodd;fill:#DCE9F5;" points="
			3.09,180.97 3.09,198 22.7,198 22.7,180.97 3.09,180.97 		"/>
		
			<polyline style="clip-path:url(#SVGID_00000144305032835242559920000008570845967398525622_);fill-rule:evenodd;clip-rule:evenodd;fill:#F2F2F2;" points="
			21.84,180.97 21.84,198 168.47,198 168.47,180.97 21.84,180.97 		"/>
		
			<polyline style="clip-path:url(#SVGID_00000144305032835242559920000008570845967398525622_);fill-rule:evenodd;clip-rule:evenodd;fill:#F7C3CA;" points="
			167.62,180.97 167.62,198 187.23,198 187.23,180.97 167.62,180.97 		"/>
		<g style="clip-path:url(#SVGID_00000144305032835242559920000008570845967398525622_);">
			<text transform="matrix(1.0011 0 0 1 27.8193 16.6294)" class="st4 st5 st6">A</text>
		</g>
		<g style="clip-path:url(#SVGID_00000144305032835242559920000008570845967398525622_);">
			<text transform="matrix(1.0011 0 0 1 46.5674 16.6294)" class="st4 st5 st6">T</text>
		</g>
		<g style="clip-path:url(#SVGID_00000144305032835242559920000008570845967398525622_);">
			<text transform="matrix(1.0011 0 0 1 63.6162 16.6294)" class="st4 st5 st6">G</text>
		</g>
		<g style="clip-path:url(#SVGID_00000144305032835242559920000008570845967398525622_);">
			<text transform="matrix(1.0011 0 0 1 82.374 16.6294)" class="st4 st5 st6">A</text>
		</g>
		<g style="clip-path:url(#SVGID_00000144305032835242559920000008570845967398525622_);">
			<text transform="matrix(1.0011 0 0 1 101.1328 16.6294)" class="st4 st5 st6">C</text>
		</g>
		<g style="clip-path:url(#SVGID_00000144305032835242559920000008570845967398525622_);">
			<text transform="matrix(1.0011 0 0 1 119.0361 16.6294)" class="st4 st5 st6">T</text>
		</g>
		<g style="clip-path:url(#SVGID_00000144305032835242559920000008570845967398525622_);">
			<text transform="matrix(1.0011 0 0 1 136.084 16.6294)" class="st4 st5 st6">G</text>
		</g>
		<g style="clip-path:url(#SVGID_00000144305032835242559920000008570845967398525622_);">
			<text transform="matrix(1.0011 0 0 1 154.832 16.6294)" class="st4 st5 st6">G</text>
		</g>
		<g style="clip-path:url(#SVGID_00000144305032835242559920000008570845967398525622_);">
			<text transform="matrix(1.0011 0 0 1 173.5908 16.6294)" class="st4 st5 st6">A</text>
		</g>
		<g style="clip-path:url(#SVGID_00000144305032835242559920000008570845967398525622_);">
			<text transform="matrix(1.0011 0 0 1 9.0615 32.813)" class="st7 st5 st6">A</text>
		</g>
		<g style="clip-path:url(#SVGID_00000144305032835242559920000008570845967398525622_);">
			<text transform="matrix(1.0011 0 0 1 28.6641 32.813)" class="st8 st9 st6">1</text>
		</g>
		<g style="clip-path:url(#SVGID_00000144305032835242559920000008570845967398525622_);">
			<text transform="matrix(1.0011 0 0 1 83.2295 32.813)" class="st8 st9 st6">1</text>
		</g>
		<g style="clip-path:url(#SVGID_00000144305032835242559920000008570845967398525622_);">
			<text transform="matrix(1.0011 0 0 1 174.4453 32.813)" class="st8 st9 st6">1</text>
		</g>
		<g style="clip-path:url(#SVGID_00000144305032835242559920000008570845967398525622_);">
			<text transform="matrix(1.0011 0 0 1 9.916 48.9966)" class="st7 st5 st6">T</text>
		</g>
		<g style="clip-path:url(#SVGID_00000144305032835242559920000008570845967398525622_);">
			<text transform="matrix(1.0011 0 0 1 46.5674 48.9966)" class="st8 st9 st6">1</text>
		</g>
		<g style="clip-path:url(#SVGID_00000144305032835242559920000008570845967398525622_);">
			<text transform="matrix(1.0011 0 0 1 119.0361 48.9966)" class="st8 st9 st6">1</text>
		</g>
		<g style="clip-path:url(#SVGID_00000144305032835242559920000008570845967398525622_);">
			<text transform="matrix(1.0011 0 0 1 9.0615 65.1792)" class="st7 st5 st6">G</text>
		</g>
		<g style="clip-path:url(#SVGID_00000144305032835242559920000008570845967398525622_);">
			<text transform="matrix(1.0011 0 0 1 64.4707 65.1792)" class="st8 st9 st6">1</text>
		</g>
		<g style="clip-path:url(#SVGID_00000144305032835242559920000008570845967398525622_);">
			<text transform="matrix(1.0011 0 0 1 136.9395 65.1792)" class="st8 st9 st6">1</text>
		</g>
		<g style="clip-path:url(#SVGID_00000144305032835242559920000008570845967398525622_);">
			<text transform="matrix(1.0011 0 0 1 155.6875 65.1792)" class="st8 st9 st6">1</text>
		</g>
		<g style="clip-path:url(#SVGID_00000144305032835242559920000008570845967398525622_);">
			<text transform="matrix(1.0011 0 0 1 9.0615 81.3433)" class="st7 st5 st6">A</text>
		</g>
		<g style="clip-path:url(#SVGID_00000144305032835242559920000008570845967398525622_);">
			<text transform="matrix(1.0011 0 0 1 28.6641 81.3433)" class="st8 st9 st6">1</text>
		</g>
		<g style="clip-path:url(#SVGID_00000144305032835242559920000008570845967398525622_);">
			<text transform="matrix(1.0011 0 0 1 83.2295 81.3433)" class="st8 st9 st6">1</text>
		</g>
		<g style="clip-path:url(#SVGID_00000144305032835242559920000008570845967398525622_);">
			<text transform="matrix(1.0011 0 0 1 174.4453 81.3433)" class="st8 st9 st6">1</text>
		</g>
		<g style="clip-path:url(#SVGID_00000144305032835242559920000008570845967398525622_);">
			<text transform="matrix(1.0011 0 0 1 9.916 97.5259)" class="st7 st5 st6">T</text>
		</g>
		<g style="clip-path:url(#SVGID_00000144305032835242559920000008570845967398525622_);">
			<text transform="matrix(1.0011 0 0 1 46.5674 97.5259)" class="st8 st9 st6">1</text>
		</g>
		<g style="clip-path:url(#SVGID_00000144305032835242559920000008570845967398525622_);">
			<text transform="matrix(1.0011 0 0 1 119.0361 97.5259)" class="st8 st9 st6">1</text>
		</g>
		<g style="clip-path:url(#SVGID_00000144305032835242559920000008570845967398525622_);">
			<text transform="matrix(1.0011 0 0 1 9.0615 113.6997)" class="st7 st5 st6">G</text>
		</g>
		<g style="clip-path:url(#SVGID_00000144305032835242559920000008570845967398525622_);">
			<text transform="matrix(1.0011 0 0 1 64.4707 113.6997)" class="st8 st9 st6">1</text>
		</g>
		<g style="clip-path:url(#SVGID_00000144305032835242559920000008570845967398525622_);">
			<text transform="matrix(1.0011 0 0 1 136.9395 113.6997)" class="st8 st9 st6">1</text>
		</g>
		<g style="clip-path:url(#SVGID_00000144305032835242559920000008570845967398525622_);">
			<text transform="matrix(1.0011 0 0 1 155.6875 113.6997)" class="st8 st9 st6">1</text>
		</g>
		<g style="clip-path:url(#SVGID_00000144305032835242559920000008570845967398525622_);">
			<text transform="matrix(1.0011 0 0 1 9.0615 129.8833)" class="st7 st5 st6">C</text>
		</g>
		<g style="clip-path:url(#SVGID_00000144305032835242559920000008570845967398525622_);">
			<text transform="matrix(1.0011 0 0 1 101.1328 129.8833)" class="st8 st9 st6">1</text>
		</g>
		<g style="clip-path:url(#SVGID_00000144305032835242559920000008570845967398525622_);">
			<text transform="matrix(1.0011 0 0 1 9.916 146.0669)" class="st7 st5 st6">T</text>
		</g>
		<g style="clip-path:url(#SVGID_00000144305032835242559920000008570845967398525622_);">
			<text transform="matrix(1.0011 0 0 1 46.5674 146.0669)" class="st8 st9 st6">1</text>
		</g>
		<g style="clip-path:url(#SVGID_00000144305032835242559920000008570845967398525622_);">
			<text transform="matrix(1.0011 0 0 1 119.0361 146.0669)" class="st8 st9 st6">1</text>
		</g>
		<g style="clip-path:url(#SVGID_00000144305032835242559920000008570845967398525622_);">
			<text transform="matrix(1.0011 0 0 1 9.0615 162.2495)" class="st7 st5 st6">C</text>
		</g>
		<g style="clip-path:url(#SVGID_00000144305032835242559920000008570845967398525622_);">
			<text transform="matrix(1.0011 0 0 1 101.1328 162.2495)" class="st8 st9 st6">1</text>
		</g>
		<g style="clip-path:url(#SVGID_00000144305032835242559920000008570845967398525622_);">
			<text transform="matrix(1.0011 0 0 1 9.0615 178.4331)" class="st7 st5 st6">G</text>
		</g>
		<g style="clip-path:url(#SVGID_00000144305032835242559920000008570845967398525622_);">
			<text transform="matrix(1.0011 0 0 1 155.6875 178.4331)" class="st8 st9 st6">1</text>
		</g>
		<g style="clip-path:url(#SVGID_00000144305032835242559920000008570845967398525622_);">
			<text transform="matrix(1.0011 0 0 1 9.0615 194.5962)" class="st7 st5 st6">A</text>
		</g>
		<g style="clip-path:url(#SVGID_00000144305032835242559920000008570845967398525622_);">
			<text transform="matrix(1.0011 0 0 1 174.4453 194.5962)" class="st8 st9 st6">1</text>
		</g>
	</g>
	<g>
		<defs>
			<polygon id="SVGID_00000094592063312049590430000002624171492972337828_" points="3.09,3 187.23,3 187.23,198 3.09,198 3.09,3 
							"/>
		</defs>
		<clipPath id="SVGID_00000041980568168318380880000010669943537698087581_">
			<use xlink:href="#SVGID_00000094592063312049590430000002624171492972337828_"  style="overflow:visible;"/>
		</clipPath>
		
			<polyline style="clip-path:url(#SVGID_00000041980568168318380880000010669943537698087581_);fill-rule:evenodd;clip-rule:evenodd;fill:#D4D4D4;" points="
			3.09,3 3.09,3 3.94,3 3.94,3 3.09,3 		"/>
		
			<polyline style="clip-path:url(#SVGID_00000041980568168318380880000010669943537698087581_);fill-rule:evenodd;clip-rule:evenodd;fill:#D4D4D4;" points="
			21.84,3 21.84,3 22.7,3 22.7,3 21.84,3 		"/>
		
			<polyline style="clip-path:url(#SVGID_00000041980568168318380880000010669943537698087581_);fill-rule:evenodd;clip-rule:evenodd;fill:#D4D4D4;" points="
			40.6,3 40.6,3 41.45,3 41.45,3 40.6,3 		"/>
		
			<polyline style="clip-path:url(#SVGID_00000041980568168318380880000010669943537698087581_);fill-rule:evenodd;clip-rule:evenodd;fill:#D4D4D4;" points="
			57.65,3 57.65,3 58.5,3 58.5,3 57.65,3 		"/>
		
			<polyline style="clip-path:url(#SVGID_00000041980568168318380880000010669943537698087581_);fill-rule:evenodd;clip-rule:evenodd;fill:#D4D4D4;" points="
			76.4,3 76.4,3 77.26,3 77.26,3 76.4,3 		"/>
		
			<polyline style="clip-path:url(#SVGID_00000041980568168318380880000010669943537698087581_);fill-rule:evenodd;clip-rule:evenodd;fill:#D4D4D4;" points="
			95.16,3 95.16,3 96.01,3 96.01,3 95.16,3 		"/>
		
			<polyline style="clip-path:url(#SVGID_00000041980568168318380880000010669943537698087581_);fill-rule:evenodd;clip-rule:evenodd;fill:#D4D4D4;" points="
			113.06,3 113.06,3 113.91,3 113.91,3 113.06,3 		"/>
		
			<polyline style="clip-path:url(#SVGID_00000041980568168318380880000010669943537698087581_);fill-rule:evenodd;clip-rule:evenodd;fill:#D4D4D4;" points="
			130.11,3 130.11,3 130.96,3 130.96,3 130.11,3 		"/>
		
			<polyline style="clip-path:url(#SVGID_00000041980568168318380880000010669943537698087581_);fill-rule:evenodd;clip-rule:evenodd;fill:#D4D4D4;" points="
			148.86,3 148.86,3 149.72,3 149.72,3 148.86,3 		"/>
		
			<polyline style="clip-path:url(#SVGID_00000041980568168318380880000010669943537698087581_);fill-rule:evenodd;clip-rule:evenodd;fill:#D4D4D4;" points="
			167.62,3 167.62,3 168.47,3 168.47,3 167.62,3 		"/>
		
			<line style="clip-path:url(#SVGID_00000041980568168318380880000010669943537698087581_);fill:none;stroke:#040000;stroke-width:0;stroke-linecap:square;stroke-miterlimit:10;" x1="3.94" y1="3" x2="187.23" y2="3"/>
		
			<polyline style="clip-path:url(#SVGID_00000041980568168318380880000010669943537698087581_);fill-rule:evenodd;clip-rule:evenodd;fill:#040000;" points="
			3.94,3 3.94,3.85 187.23,3.85 187.23,3 3.94,3 		"/>
		
			<polyline style="clip-path:url(#SVGID_00000041980568168318380880000010669943537698087581_);fill-rule:evenodd;clip-rule:evenodd;fill:#D4D4D4;" points="
			186.37,3 186.37,3 187.23,3 187.23,3 186.37,3 		"/>
		
			<line style="clip-path:url(#SVGID_00000041980568168318380880000010669943537698087581_);fill:none;stroke:#040000;stroke-width:0;stroke-linecap:square;stroke-miterlimit:10;" x1="3.94" y1="19.18" x2="187.23" y2="19.18"/>
		
			<polyline style="clip-path:url(#SVGID_00000041980568168318380880000010669943537698087581_);fill-rule:evenodd;clip-rule:evenodd;fill:#040000;" points="
			3.94,19.18 3.94,20.03 187.23,20.03 187.23,19.18 3.94,19.18 		"/>
		
			<line style="clip-path:url(#SVGID_00000041980568168318380880000010669943537698087581_);fill:none;stroke:#040000;stroke-width:0;stroke-linecap:square;stroke-miterlimit:10;" x1="3.94" y1="35.36" x2="187.23" y2="35.36"/>
		
			<polyline style="clip-path:url(#SVGID_00000041980568168318380880000010669943537698087581_);fill-rule:evenodd;clip-rule:evenodd;fill:#040000;" points="
			3.94,35.36 3.94,36.21 187.23,36.21 187.23,35.36 3.94,35.36 		"/>
		
			<line style="clip-path:url(#SVGID_00000041980568168318380880000010669943537698087581_);fill:none;stroke:#040000;stroke-width:0;stroke-linecap:square;stroke-miterlimit:10;" x1="3.94" y1="51.54" x2="187.23" y2="51.54"/>
		
			<polyline style="clip-path:url(#SVGID_00000041980568168318380880000010669943537698087581_);fill-rule:evenodd;clip-rule:evenodd;fill:#040000;" points="
			3.94,51.54 3.94,52.39 187.23,52.39 187.23,51.54 3.94,51.54 		"/>
		
			<line style="clip-path:url(#SVGID_00000041980568168318380880000010669943537698087581_);fill:none;stroke:#040000;stroke-width:0;stroke-linecap:square;stroke-miterlimit:10;" x1="3.94" y1="67.72" x2="187.23" y2="67.72"/>
		
			<polyline style="clip-path:url(#SVGID_00000041980568168318380880000010669943537698087581_);fill-rule:evenodd;clip-rule:evenodd;fill:#040000;" points="
			3.94,67.72 3.94,68.57 187.23,68.57 187.23,67.72 3.94,67.72 		"/>
		
			<line style="clip-path:url(#SVGID_00000041980568168318380880000010669943537698087581_);fill:none;stroke:#040000;stroke-width:0;stroke-linecap:square;stroke-miterlimit:10;" x1="3.94" y1="83.9" x2="187.23" y2="83.9"/>
		
			<polyline style="clip-path:url(#SVGID_00000041980568168318380880000010669943537698087581_);fill-rule:evenodd;clip-rule:evenodd;fill:#040000;" points="
			3.94,83.9 3.94,84.75 187.23,84.75 187.23,83.9 3.94,83.9 		"/>
		
			<line style="clip-path:url(#SVGID_00000041980568168318380880000010669943537698087581_);fill:none;stroke:#040000;stroke-width:0;stroke-linecap:square;stroke-miterlimit:10;" x1="3.94" y1="100.07" x2="187.23" y2="100.07"/>
		
			<polyline style="clip-path:url(#SVGID_00000041980568168318380880000010669943537698087581_);fill-rule:evenodd;clip-rule:evenodd;fill:#040000;" points="
			3.94,100.07 3.94,100.93 187.23,100.93 187.23,100.07 3.94,100.07 		"/>
		
			<line style="clip-path:url(#SVGID_00000041980568168318380880000010669943537698087581_);fill:none;stroke:#040000;stroke-width:0;stroke-linecap:square;stroke-miterlimit:10;" x1="3.94" y1="116.25" x2="187.23" y2="116.25"/>
		
			<polyline style="clip-path:url(#SVGID_00000041980568168318380880000010669943537698087581_);fill-rule:evenodd;clip-rule:evenodd;fill:#040000;" points="
			3.94,116.25 3.94,117.1 187.23,117.1 187.23,116.25 3.94,116.25 		"/>
		
			<line style="clip-path:url(#SVGID_00000041980568168318380880000010669943537698087581_);fill:none;stroke:#040000;stroke-width:0;stroke-linecap:square;stroke-miterlimit:10;" x1="3.94" y1="132.43" x2="187.23" y2="132.43"/>
		
			<polyline style="clip-path:url(#SVGID_00000041980568168318380880000010669943537698087581_);fill-rule:evenodd;clip-rule:evenodd;fill:#040000;" points="
			3.94,132.43 3.94,133.28 187.23,133.28 187.23,132.43 3.94,132.43 		"/>
		
			<line style="clip-path:url(#SVGID_00000041980568168318380880000010669943537698087581_);fill:none;stroke:#040000;stroke-width:0;stroke-linecap:square;stroke-miterlimit:10;" x1="3.94" y1="148.61" x2="187.23" y2="148.61"/>
		
			<polyline style="clip-path:url(#SVGID_00000041980568168318380880000010669943537698087581_);fill-rule:evenodd;clip-rule:evenodd;fill:#040000;" points="
			3.94,148.61 3.94,149.46 187.23,149.46 187.23,148.61 3.94,148.61 		"/>
		
			<line style="clip-path:url(#SVGID_00000041980568168318380880000010669943537698087581_);fill:none;stroke:#040000;stroke-width:0;stroke-linecap:square;stroke-miterlimit:10;" x1="3.94" y1="164.79" x2="187.23" y2="164.79"/>
		
			<polyline style="clip-path:url(#SVGID_00000041980568168318380880000010669943537698087581_);fill-rule:evenodd;clip-rule:evenodd;fill:#040000;" points="
			3.94,164.79 3.94,165.64 187.23,165.64 187.23,164.79 3.94,164.79 		"/>
		
			<line style="clip-path:url(#SVGID_00000041980568168318380880000010669943537698087581_);fill:none;stroke:#040000;stroke-width:0;stroke-linecap:square;stroke-miterlimit:10;" x1="3.94" y1="180.97" x2="187.23" y2="180.97"/>
		
			<polyline style="clip-path:url(#SVGID_00000041980568168318380880000010669943537698087581_);fill-rule:evenodd;clip-rule:evenodd;fill:#040000;" points="
			3.94,180.97 3.94,181.82 187.23,181.82 187.23,180.97 3.94,180.97 		"/>
		
			<line style="clip-path:url(#SVGID_00000041980568168318380880000010669943537698087581_);fill:none;stroke:#040000;stroke-width:0;stroke-linecap:square;stroke-miterlimit:10;" x1="3.09" y1="3" x2="3.09" y2="198"/>
		
			<polyline style="clip-path:url(#SVGID_00000041980568168318380880000010669943537698087581_);fill-rule:evenodd;clip-rule:evenodd;fill:#040000;" points="
			3.09,3 3.09,198 3.94,198 3.94,3 3.09,3 		"/>
		
			<line style="clip-path:url(#SVGID_00000041980568168318380880000010669943537698087581_);fill:none;stroke:#040000;stroke-width:0;stroke-linecap:square;stroke-miterlimit:10;" x1="21.84" y1="3.85" x2="21.84" y2="198"/>
		
			<polyline style="clip-path:url(#SVGID_00000041980568168318380880000010669943537698087581_);fill-rule:evenodd;clip-rule:evenodd;fill:#040000;" points="
			21.84,3.85 21.84,198 22.7,198 22.7,3.85 21.84,3.85 		"/>
		
			<line style="clip-path:url(#SVGID_00000041980568168318380880000010669943537698087581_);fill:none;stroke:#040000;stroke-width:0;stroke-linecap:square;stroke-miterlimit:10;" x1="40.6" y1="3.85" x2="40.6" y2="198"/>
		
			<polyline style="clip-path:url(#SVGID_00000041980568168318380880000010669943537698087581_);fill-rule:evenodd;clip-rule:evenodd;fill:#040000;" points="
			40.6,3.85 40.6,198 41.45,198 41.45,3.85 40.6,3.85 		"/>
		
			<line style="clip-path:url(#SVGID_00000041980568168318380880000010669943537698087581_);fill:none;stroke:#040000;stroke-width:0;stroke-linecap:square;stroke-miterlimit:10;" x1="57.65" y1="3.85" x2="57.65" y2="198"/>
		
			<polyline style="clip-path:url(#SVGID_00000041980568168318380880000010669943537698087581_);fill-rule:evenodd;clip-rule:evenodd;fill:#040000;" points="
			57.65,3.85 57.65,198 58.5,198 58.5,3.85 57.65,3.85 		"/>
		
			<line style="clip-path:url(#SVGID_00000041980568168318380880000010669943537698087581_);fill:none;stroke:#040000;stroke-width:0;stroke-linecap:square;stroke-miterlimit:10;" x1="76.4" y1="3.85" x2="76.4" y2="198"/>
		
			<polyline style="clip-path:url(#SVGID_00000041980568168318380880000010669943537698087581_);fill-rule:evenodd;clip-rule:evenodd;fill:#040000;" points="
			76.4,3.85 76.4,198 77.26,198 77.26,3.85 76.4,3.85 		"/>
		
			<line style="clip-path:url(#SVGID_00000041980568168318380880000010669943537698087581_);fill:none;stroke:#040000;stroke-width:0;stroke-linecap:square;stroke-miterlimit:10;" x1="95.16" y1="3.85" x2="95.16" y2="198"/>
		
			<polyline style="clip-path:url(#SVGID_00000041980568168318380880000010669943537698087581_);fill-rule:evenodd;clip-rule:evenodd;fill:#040000;" points="
			95.16,3.85 95.16,198 96.01,198 96.01,3.85 95.16,3.85 		"/>
		
			<line style="clip-path:url(#SVGID_00000041980568168318380880000010669943537698087581_);fill:none;stroke:#040000;stroke-width:0;stroke-linecap:square;stroke-miterlimit:10;" x1="113.06" y1="3.85" x2="113.06" y2="198"/>
		
			<polyline style="clip-path:url(#SVGID_00000041980568168318380880000010669943537698087581_);fill-rule:evenodd;clip-rule:evenodd;fill:#040000;" points="
			113.06,3.85 113.06,198 113.91,198 113.91,3.85 113.06,3.85 		"/>
		
			<line style="clip-path:url(#SVGID_00000041980568168318380880000010669943537698087581_);fill:none;stroke:#040000;stroke-width:0;stroke-linecap:square;stroke-miterlimit:10;" x1="130.11" y1="3.85" x2="130.11" y2="198"/>
		
			<polyline style="clip-path:url(#SVGID_00000041980568168318380880000010669943537698087581_);fill-rule:evenodd;clip-rule:evenodd;fill:#040000;" points="
			130.11,3.85 130.11,198 130.96,198 130.96,3.85 130.11,3.85 		"/>
		
			<line style="clip-path:url(#SVGID_00000041980568168318380880000010669943537698087581_);fill:none;stroke:#040000;stroke-width:0;stroke-linecap:square;stroke-miterlimit:10;" x1="148.86" y1="3.85" x2="148.86" y2="198"/>
		
			<polyline style="clip-path:url(#SVGID_00000041980568168318380880000010669943537698087581_);fill-rule:evenodd;clip-rule:evenodd;fill:#040000;" points="
			148.86,3.85 148.86,198 149.72,198 149.72,3.85 148.86,3.85 		"/>
		
			<line style="clip-path:url(#SVGID_00000041980568168318380880000010669943537698087581_);fill:none;stroke:#040000;stroke-width:0;stroke-linecap:square;stroke-miterlimit:10;" x1="167.62" y1="3.85" x2="167.62" y2="198"/>
		
			<polyline style="clip-path:url(#SVGID_00000041980568168318380880000010669943537698087581_);fill-rule:evenodd;clip-rule:evenodd;fill:#040000;" points="
			167.62,3.85 167.62,198 168.47,198 168.47,3.85 167.62,3.85 		"/>
		
			<line style="clip-path:url(#SVGID_00000041980568168318380880000010669943537698087581_);fill:none;stroke:#040000;stroke-width:0;stroke-linecap:square;stroke-miterlimit:10;" x1="3.94" y1="197.15" x2="187.23" y2="197.15"/>
		
			<polyline style="clip-path:url(#SVGID_00000041980568168318380880000010669943537698087581_);fill-rule:evenodd;clip-rule:evenodd;fill:#040000;" points="
			3.94,197.15 3.94,198 187.23,198 187.23,197.15 3.94,197.15 		"/>
		
			<line style="clip-path:url(#SVGID_00000041980568168318380880000010669943537698087581_);fill:none;stroke:#040000;stroke-width:0;stroke-linecap:square;stroke-miterlimit:10;" x1="186.37" y1="3.85" x2="186.37" y2="198"/>
		
			<polyline style="clip-path:url(#SVGID_00000041980568168318380880000010669943537698087581_);fill-rule:evenodd;clip-rule:evenodd;fill:#040000;" points="
			186.37,3.85 186.37,198 187.23,198 187.23,3.85 186.37,3.85 		"/>
		
			<line style="clip-path:url(#SVGID_00000041980568168318380880000010669943537698087581_);fill:none;stroke:#D4D4D4;stroke-width:0;stroke-linecap:square;stroke-miterlimit:10;" x1="3.09" y1="198" x2="3.09" y2="198.85"/>
		
			<polyline style="clip-path:url(#SVGID_00000041980568168318380880000010669943537698087581_);fill-rule:evenodd;clip-rule:evenodd;fill:#D4D4D4;" points="
			3.09,198 3.09,198.85 3.94,198.85 3.94,198 3.09,198 		"/>
		
			<line style="clip-path:url(#SVGID_00000041980568168318380880000010669943537698087581_);fill:none;stroke:#D4D4D4;stroke-width:0;stroke-linecap:square;stroke-miterlimit:10;" x1="21.84" y1="198" x2="21.84" y2="198.85"/>
		
			<polyline style="clip-path:url(#SVGID_00000041980568168318380880000010669943537698087581_);fill-rule:evenodd;clip-rule:evenodd;fill:#D4D4D4;" points="
			21.84,198 21.84,198.85 22.7,198.85 22.7,198 21.84,198 		"/>
		
			<line style="clip-path:url(#SVGID_00000041980568168318380880000010669943537698087581_);fill:none;stroke:#D4D4D4;stroke-width:0;stroke-linecap:square;stroke-miterlimit:10;" x1="40.6" y1="198" x2="40.6" y2="198.85"/>
		
			<polyline style="clip-path:url(#SVGID_00000041980568168318380880000010669943537698087581_);fill-rule:evenodd;clip-rule:evenodd;fill:#D4D4D4;" points="
			40.6,198 40.6,198.85 41.45,198.85 41.45,198 40.6,198 		"/>
		
			<line style="clip-path:url(#SVGID_00000041980568168318380880000010669943537698087581_);fill:none;stroke:#D4D4D4;stroke-width:0;stroke-linecap:square;stroke-miterlimit:10;" x1="57.65" y1="198" x2="57.65" y2="198.85"/>
		
			<polyline style="clip-path:url(#SVGID_00000041980568168318380880000010669943537698087581_);fill-rule:evenodd;clip-rule:evenodd;fill:#D4D4D4;" points="
			57.65,198 57.65,198.85 58.5,198.85 58.5,198 57.65,198 		"/>
		
			<line style="clip-path:url(#SVGID_00000041980568168318380880000010669943537698087581_);fill:none;stroke:#D4D4D4;stroke-width:0;stroke-linecap:square;stroke-miterlimit:10;" x1="76.4" y1="198" x2="76.4" y2="198.85"/>
		
			<polyline style="clip-path:url(#SVGID_00000041980568168318380880000010669943537698087581_);fill-rule:evenodd;clip-rule:evenodd;fill:#D4D4D4;" points="
			76.4,198 76.4,198.85 77.26,198.85 77.26,198 76.4,198 		"/>
		
			<line style="clip-path:url(#SVGID_00000041980568168318380880000010669943537698087581_);fill:none;stroke:#D4D4D4;stroke-width:0;stroke-linecap:square;stroke-miterlimit:10;" x1="95.16" y1="198" x2="95.16" y2="198.85"/>
		
			<polyline style="clip-path:url(#SVGID_00000041980568168318380880000010669943537698087581_);fill-rule:evenodd;clip-rule:evenodd;fill:#D4D4D4;" points="
			95.16,198 95.16,198.85 96.01,198.85 96.01,198 95.16,198 		"/>
		
			<line style="clip-path:url(#SVGID_00000041980568168318380880000010669943537698087581_);fill:none;stroke:#D4D4D4;stroke-width:0;stroke-linecap:square;stroke-miterlimit:10;" x1="113.06" y1="198" x2="113.06" y2="198.85"/>
		
			<polyline style="clip-path:url(#SVGID_00000041980568168318380880000010669943537698087581_);fill-rule:evenodd;clip-rule:evenodd;fill:#D4D4D4;" points="
			113.06,198 113.06,198.85 113.91,198.85 113.91,198 113.06,198 		"/>
		
			<line style="clip-path:url(#SVGID_00000041980568168318380880000010669943537698087581_);fill:none;stroke:#D4D4D4;stroke-width:0;stroke-linecap:square;stroke-miterlimit:10;" x1="130.11" y1="198" x2="130.11" y2="198.85"/>
		
			<polyline style="clip-path:url(#SVGID_00000041980568168318380880000010669943537698087581_);fill-rule:evenodd;clip-rule:evenodd;fill:#D4D4D4;" points="
			130.11,198 130.11,198.85 130.96,198.85 130.96,198 130.11,198 		"/>
		
			<line style="clip-path:url(#SVGID_00000041980568168318380880000010669943537698087581_);fill:none;stroke:#D4D4D4;stroke-width:0;stroke-linecap:square;stroke-miterlimit:10;" x1="148.86" y1="198" x2="148.86" y2="198.85"/>
		
			<polyline style="clip-path:url(#SVGID_00000041980568168318380880000010669943537698087581_);fill-rule:evenodd;clip-rule:evenodd;fill:#D4D4D4;" points="
			148.86,198 148.86,198.85 149.72,198.85 149.72,198 148.86,198 		"/>
		
			<line style="clip-path:url(#SVGID_00000041980568168318380880000010669943537698087581_);fill:none;stroke:#D4D4D4;stroke-width:0;stroke-linecap:square;stroke-miterlimit:10;" x1="167.62" y1="198" x2="167.62" y2="198.85"/>
		
			<polyline style="clip-path:url(#SVGID_00000041980568168318380880000010669943537698087581_);fill-rule:evenodd;clip-rule:evenodd;fill:#D4D4D4;" points="
			167.62,198 167.62,198.85 168.47,198.85 168.47,198 167.62,198 		"/>
		
			<line style="clip-path:url(#SVGID_00000041980568168318380880000010669943537698087581_);fill:none;stroke:#D4D4D4;stroke-width:0;stroke-linecap:square;stroke-miterlimit:10;" x1="186.37" y1="198" x2="186.37" y2="198.85"/>
		
			<polyline style="clip-path:url(#SVGID_00000041980568168318380880000010669943537698087581_);fill-rule:evenodd;clip-rule:evenodd;fill:#D4D4D4;" points="
			186.37,198 186.37,198.85 187.23,198.85 187.23,198 186.37,198 		"/>
		
			<line style="clip-path:url(#SVGID_00000041980568168318380880000010669943537698087581_);fill:none;stroke:#D4D4D4;stroke-width:0;stroke-linecap:square;stroke-miterlimit:10;" x1="187.23" y1="3" x2="188.08" y2="3"/>
		
			<polyline style="clip-path:url(#SVGID_00000041980568168318380880000010669943537698087581_);fill-rule:evenodd;clip-rule:evenodd;fill:#D4D4D4;" points="
			187.23,3 187.23,3.85 188.08,3.85 188.08,3 187.23,3 		"/>
		
			<line style="clip-path:url(#SVGID_00000041980568168318380880000010669943537698087581_);fill:none;stroke:#D4D4D4;stroke-width:0;stroke-linecap:square;stroke-miterlimit:10;" x1="187.23" y1="19.18" x2="188.08" y2="19.18"/>
		
			<polyline style="clip-path:url(#SVGID_00000041980568168318380880000010669943537698087581_);fill-rule:evenodd;clip-rule:evenodd;fill:#D4D4D4;" points="
			187.23,19.18 187.23,20.03 188.08,20.03 188.08,19.18 187.23,19.18 		"/>
		
			<line style="clip-path:url(#SVGID_00000041980568168318380880000010669943537698087581_);fill:none;stroke:#D4D4D4;stroke-width:0;stroke-linecap:square;stroke-miterlimit:10;" x1="187.23" y1="35.36" x2="188.08" y2="35.36"/>
		
			<polyline style="clip-path:url(#SVGID_00000041980568168318380880000010669943537698087581_);fill-rule:evenodd;clip-rule:evenodd;fill:#D4D4D4;" points="
			187.23,35.36 187.23,36.21 188.08,36.21 188.08,35.36 187.23,35.36 		"/>
		
			<line style="clip-path:url(#SVGID_00000041980568168318380880000010669943537698087581_);fill:none;stroke:#D4D4D4;stroke-width:0;stroke-linecap:square;stroke-miterlimit:10;" x1="187.23" y1="51.54" x2="188.08" y2="51.54"/>
		
			<polyline style="clip-path:url(#SVGID_00000041980568168318380880000010669943537698087581_);fill-rule:evenodd;clip-rule:evenodd;fill:#D4D4D4;" points="
			187.23,51.54 187.23,52.39 188.08,52.39 188.08,51.54 187.23,51.54 		"/>
		
			<line style="clip-path:url(#SVGID_00000041980568168318380880000010669943537698087581_);fill:none;stroke:#D4D4D4;stroke-width:0;stroke-linecap:square;stroke-miterlimit:10;" x1="187.23" y1="67.72" x2="188.08" y2="67.72"/>
		
			<polyline style="clip-path:url(#SVGID_00000041980568168318380880000010669943537698087581_);fill-rule:evenodd;clip-rule:evenodd;fill:#D4D4D4;" points="
			187.23,67.72 187.23,68.57 188.08,68.57 188.08,67.72 187.23,67.72 		"/>
		
			<line style="clip-path:url(#SVGID_00000041980568168318380880000010669943537698087581_);fill:none;stroke:#D4D4D4;stroke-width:0;stroke-linecap:square;stroke-miterlimit:10;" x1="187.23" y1="83.9" x2="188.08" y2="83.9"/>
		
			<polyline style="clip-path:url(#SVGID_00000041980568168318380880000010669943537698087581_);fill-rule:evenodd;clip-rule:evenodd;fill:#D4D4D4;" points="
			187.23,83.9 187.23,84.75 188.08,84.75 188.08,83.9 187.23,83.9 		"/>
		
			<line style="clip-path:url(#SVGID_00000041980568168318380880000010669943537698087581_);fill:none;stroke:#D4D4D4;stroke-width:0;stroke-linecap:square;stroke-miterlimit:10;" x1="187.23" y1="100.07" x2="188.08" y2="100.07"/>
		
			<polyline style="clip-path:url(#SVGID_00000041980568168318380880000010669943537698087581_);fill-rule:evenodd;clip-rule:evenodd;fill:#D4D4D4;" points="
			187.23,100.07 187.23,100.93 188.08,100.93 188.08,100.07 187.23,100.07 		"/>
		
			<line style="clip-path:url(#SVGID_00000041980568168318380880000010669943537698087581_);fill:none;stroke:#D4D4D4;stroke-width:0;stroke-linecap:square;stroke-miterlimit:10;" x1="187.23" y1="116.25" x2="188.08" y2="116.25"/>
		
			<polyline style="clip-path:url(#SVGID_00000041980568168318380880000010669943537698087581_);fill-rule:evenodd;clip-rule:evenodd;fill:#D4D4D4;" points="
			187.23,116.25 187.23,117.1 188.08,117.1 188.08,116.25 187.23,116.25 		"/>
		
			<line style="clip-path:url(#SVGID_00000041980568168318380880000010669943537698087581_);fill:none;stroke:#D4D4D4;stroke-width:0;stroke-linecap:square;stroke-miterlimit:10;" x1="187.23" y1="132.43" x2="188.08" y2="132.43"/>
		
			<polyline style="clip-path:url(#SVGID_00000041980568168318380880000010669943537698087581_);fill-rule:evenodd;clip-rule:evenodd;fill:#D4D4D4;" points="
			187.23,132.43 187.23,133.28 188.08,133.28 188.08,132.43 187.23,132.43 		"/>
		
			<line style="clip-path:url(#SVGID_00000041980568168318380880000010669943537698087581_);fill:none;stroke:#D4D4D4;stroke-width:0;stroke-linecap:square;stroke-miterlimit:10;" x1="187.23" y1="148.61" x2="188.08" y2="148.61"/>
		
			<polyline style="clip-path:url(#SVGID_00000041980568168318380880000010669943537698087581_);fill-rule:evenodd;clip-rule:evenodd;fill:#D4D4D4;" points="
			187.23,148.61 187.23,149.46 188.08,149.46 188.08,148.61 187.23,148.61 		"/>
		
			<line style="clip-path:url(#SVGID_00000041980568168318380880000010669943537698087581_);fill:none;stroke:#D4D4D4;stroke-width:0;stroke-linecap:square;stroke-miterlimit:10;" x1="187.23" y1="164.79" x2="188.08" y2="164.79"/>
		
			<polyline style="clip-path:url(#SVGID_00000041980568168318380880000010669943537698087581_);fill-rule:evenodd;clip-rule:evenodd;fill:#D4D4D4;" points="
			187.23,164.79 187.23,165.64 188.08,165.64 188.08,164.79 187.23,164.79 		"/>
		
			<line style="clip-path:url(#SVGID_00000041980568168318380880000010669943537698087581_);fill:none;stroke:#D4D4D4;stroke-width:0;stroke-linecap:square;stroke-miterlimit:10;" x1="187.23" y1="180.97" x2="188.08" y2="180.97"/>
		
			<polyline style="clip-path:url(#SVGID_00000041980568168318380880000010669943537698087581_);fill-rule:evenodd;clip-rule:evenodd;fill:#D4D4D4;" points="
			187.23,180.97 187.23,181.82 188.08,181.82 188.08,180.97 187.23,180.97 		"/>
		
			<line style="clip-path:url(#SVGID_00000041980568168318380880000010669943537698087581_);fill:none;stroke:#D4D4D4;stroke-width:0;stroke-linecap:square;stroke-miterlimit:10;" x1="187.23" y1="197.15" x2="188.08" y2="197.15"/>
		
			<polyline style="clip-path:url(#SVGID_00000041980568168318380880000010669943537698087581_);fill-rule:evenodd;clip-rule:evenodd;fill:#D4D4D4;" points="
			187.23,197.15 187.23,198 188.08,198 188.08,197.15 187.23,197.15 		"/>
	</g>
</g>
</svg>
