<?xml version="1.0" encoding="utf-8"?>
<!-- Generator: Adobe Illustrator 25.4.1, SVG Export Plug-In . SVG Version: 6.00 Build 0)  -->
<svg version="1.1" id="图层_1" xmlns="http://www.w3.org/2000/svg" xmlns:xlink="http://www.w3.org/1999/xlink" x="0px" y="0px"
	 viewBox="0 0 934.97 503.5" style="enable-background:new 0 0 934.97 503.5;" xml:space="preserve">
<style type="text/css">
	.st0{fill:#060203;}
	.st1{fill:#070506;}
	.st2{fill:#070404;}
	.st3{fill:#080707;}
	.st4{fill:#0F0F0F;}
	.st5{fill:#0B0A0A;}
	.st6{fill:#090808;}
	.st7{fill:#101111;}
	.st8{fill:#050000;}
	.st9{fill:#141413;}
	.st10{fill:#686969;}
	.st11{fill:#6A6B6B;}
	.st12{fill:#919192;}
	.st13{fill:#0E0D0D;}
	.st14{fill:#696A6A;}
	.st15{fill:#757575;}
	.st16{fill:#737373;}
	.st17{fill:#706F6F;}
	.st18{fill:#717070;}
	.st19{fill:#7B7B7C;}
	.st20{fill:#838384;}
	.st21{fill:#7F8080;}
	.st22{fill:#7C7C7D;}
	.st23{fill:#727272;}
	.st24{fill:#8F8F8F;}
	.st25{fill:#0D0C0C;}
	.st26{fill:#7D7D7D;}
	.st27{fill:#898989;}
	.st28{fill:#8E8E8E;}
	.st29{fill:#8C8C8B;}
	.st30{fill:#8B8A88;}
	.st31{fill:#868B8B;}
	.st32{fill:#565657;}
	.st33{fill:#7A7A7A;}
	.st34{fill:#777778;}
	.st35{fill:#818181;}
	.st36{fill:#787878;}
	.st37{fill:#8A8A8A;}
	.st38{fill:#5D5E5E;}
	.st39{fill:#4E4D4D;}
	.st40{fill:#050101;}
	.st41{fill:#131313;}
	.st42{fill:#040000;}
	.st43{font-family:'ArialMT';}
	.st44{font-size:36px;}
	.st45{fill:#AA1F24;}
	.st46{font-size:19.3764px;}
</style>
<g>
	<path class="st0" d="M398.72,82.17c15.09,14.1,29.22,29.18,44.13,43.46c6.66,6.35,13.26,12.76,19.85,19.18
		c1.6,1.53,2.93,3.33,3.93,5.32c-2.2-1.11-4.12-2.68-5.79-4.47c-7.44-7.91-15.57-15.14-23.34-22.71
		c-13.22-13.09-26.11-26.51-39.78-39.14C397.97,83.4,398.47,82.58,398.72,82.17z"/>
	<path class="st0" d="M768.63,218.15c1.45-1.5,3.21-2.65,5.1-3.55c-1.24,2.22-2.91,4.16-4.75,5.91
		c-8.28,8.05-16.41,16.25-24.52,24.47c-1.54,1.57-3.26,2.94-5.11,4.11c1.54-3.91,5-6.46,7.83-9.38
		C754.36,232.55,761.53,225.39,768.63,218.15z"/>
	<path class="st0" d="M502.51,292.75c4.26,1.43,6.86,5.29,9.99,8.25c4.67,4.9,9.83,9.33,14.15,14.55c-3.37,0.01-5.16-3.29-7.41-5.29
		C513.82,304.27,507.33,299.25,502.51,292.75z"/>
	<path class="st0" d="M582.21,371.86c1.96,1.1,3.74,2.49,5.3,4.11c6.91,7.1,14,14.02,20.97,21.05c2.91,2.98,6.28,5.63,8.26,9.39
		c-3.93-1.71-6.54-5.22-9.51-8.14c-7.17-7.17-14.29-14.39-21.56-21.46C584.2,375.4,583.09,373.68,582.21,371.86z"/>
	<path class="st0" d="M337.98,387.98c1.7,1.1,3.32,2.32,4.77,3.75c12.77,12.9,25.61,25.77,38.52,38.54
		c1.42,1.41,2.52,3.09,3.42,4.88c-1.71-1.02-3.33-2.19-4.72-3.6c-12.97-13.04-25.97-26.05-39-39.02
		C339.66,391.24,338.77,389.61,337.98,387.98z"/>
	<path class="st0" d="M337.43,403.92c3.82,1.65,6.41,5,9.28,7.86c4.82,4.86,9.64,9.7,14.5,14.52c2.76,2.76,5.9,5.3,7.63,8.9
		c-3.56-1.78-6.08-4.94-8.87-7.67c-5.99-6.01-11.95-12.06-18.04-17.97C340.19,407.88,338.67,405.99,337.43,403.92z"/>
	<path class="st0" d="M632.23,421.96c2.33,1.35,4.38,3.12,6.25,5.06c2.88,3.02,6.23,5.73,8.19,9.5c-3.85-1.84-6.47-5.31-9.5-8.18
		C635.22,426.47,633.41,424.41,632.23,421.96z"/>
	<path class="st0" d="M678.26,467.89c4.92,3.06,8.45,7.79,12.64,11.72c3.62,3.83,7.96,7.08,10.72,11.66
		c-5.21-2.26-8.31-7.31-12.45-10.95C685.52,476.2,680.55,473.05,678.26,467.89z"/>
</g>
<g>
	<path class="st1" d="M294.72,185.09c1.75,1.09,3.43,2.32,4.86,3.82c8.16,8.51,17.04,16.3,25.32,24.69
		c9.35,9.31,18.57,18.75,28.12,27.87c3.6,3.61,7.61,6.84,10.85,10.81c-2.5,0.88-3.99-1.66-5.58-3.04
		c-19.52-18.84-38.22-38.5-58.06-57C298.12,190.1,295.4,188.21,294.72,185.09z"/>
	<g>
		<path class="st1" d="M56.48,285.26c70.27-0.21,140.55-0.12,210.83-0.05c0.09,70.17-0.05,140.34,0.08,210.51
			c-70.34-0.04-140.68-0.03-211.02,0c-0.23-53.9-0.04-107.8-0.1-161.7C56.41,317.76,55.99,301.5,56.48,285.26z M60.05,287.01
			c1.42,1.72,2.9,3.39,4.47,4.98c16.39,16.26,32.65,32.66,48.97,48.99c1.71,2.09,4.44,2.29,6.95,2.23c29.37-0.1,58.74,0,88.11-0.06
			c0.23,30.3,0,60.6,0.1,90.9c-0.25,3.23,2.91,4.91,4.79,7.02c14.2,14.14,28.28,28.4,42.49,42.53c3.07,3.14,6.07,6.37,9.58,9.04
			c-0.38-68.5-0.14-137.05-0.13-205.54c-8.95-0.62-17.93-0.17-26.89-0.3c-38,0.01-76,0-114,0
			C103.01,286.93,81.52,286.54,60.05,287.01z M58.44,288.64c-0.18,20.12-0.03,40.24-0.07,60.37c0.09,48.32-0.2,96.64,0.14,144.95
			c13.66,0.34,27.32,0.06,40.98,0.15c54.72-0.08,109.44,0.15,164.16-0.11c-17.7-18.02-35.77-35.68-53.47-53.7
			c-1-0.95-1.99-1.95-3.21-2.61c-4.47-0.57-8.99-0.12-13.48-0.22c-26.61-0.07-53.22,0.13-79.84-0.1c0.01-0.53,0.02-1.6,0.02-2.14
			c0.34-1.53,0.66-3.06,0.98-4.59c4.49,4.45,11.12,3.35,16.84,3.43c21.68-0.03,43.36-0.1,65.03,0.06c2.67,0,5.29-0.57,7.9-1.12
			c0.44-26-0.14-52.01,0.25-78.01c-0.09-2.44,0.14-5.01-0.86-7.28c-1.37-2.04-4.16-1.68-6.27-1.89
			c-25.37,0.11-50.74,0.06-76.11,0.04c-2.88-0.34-4.93,1.72-6.71,3.65c-0.31-1.91-0.62-3.81-0.97-5.7
			C95.22,325.52,77.11,306.79,58.44,288.64z"/>
	</g>
	<path class="st1" d="M554.2,343.8c3.33,1.22,5.62,4.02,8.05,6.47c4.96,5.02,9.95,10.01,15.01,14.94c-0.2,0.45-0.6,1.35-0.8,1.81
		c-5.93-5.74-11.61-11.72-17.56-17.42C557.07,347.89,555.43,345.98,554.2,343.8z"/>
	<path class="st1" d="M352.42,344.62c4.11,1.79,6.81,5.49,9.95,8.52c21,21,41.95,42.06,62.99,63.02c1.56,1.55,2.95,3.25,4.17,5.08
		c-4.16-1.63-6.86-5.31-9.95-8.32c-19.5-19.5-38.99-39-58.48-58.52C358.03,351.31,354.59,348.47,352.42,344.62z"/>
	<path class="st1" d="M397.26,344.56c3.7,1.64,6.16,4.94,8.98,7.69c7.65,7.64,15.18,15.39,23.02,22.84
		c-0.19,0.46-0.56,1.38-0.75,1.83c-8.47-8.17-16.65-16.64-25.05-24.88C401.11,349.8,398.65,347.55,397.26,344.56z"/>
	<path class="st1" d="M337.36,420.92c5.6,3.5,9.86,8.76,14.28,13.58c-2.88,0.2-4.45-2.6-6.38-4.24
		C342.5,427.26,338.81,424.89,337.36,420.92z"/>
</g>
<g>
	<g>
		<path class="st2" d="M276.83,285.21c70.21-0.13,140.42-0.02,210.64-0.05c0.3,53.95,0.04,107.9,0.13,161.85
			c-0.13,16.24,0.26,32.48-0.18,48.71c-70.19-0.07-140.38,0.03-210.57-0.05C276.94,425.52,276.98,355.36,276.83,285.21z
			 M280.17,286.96c8.22,8.9,17.06,17.21,25.54,25.87c55.42,55.56,110.86,111.12,166.32,166.65c4.51,4.38,8.66,9.17,13.62,13.06
			c0.58-14.16,0.1-28.35,0.26-42.53c0-31.33,0-62.66,0-93.99c-0.14-22.98,0.26-45.96-0.2-68.93c-12.06-0.64-24.15-0.14-36.22-0.29
			C393.05,286.91,336.61,286.58,280.17,286.96z M278.64,288.52c-0.08,68.5-0.05,137-0.01,205.51c16.62,0.2,33.24,0.02,49.86,0.08
			c51.77-0.1,103.55,0.21,155.32-0.15c-3.26-3.81-6.9-7.26-10.46-10.78c-55.44-55.57-110.96-111.05-166.41-166.62
			C297.46,307.27,288.36,297.57,278.64,288.52z"/>
	</g>
</g>
<g>
	<g>
		<path class="st3" d="M56.79,61.35c70.22,0.03,140.43,0.07,210.65-0.02c0.48,27.56,0.07,55.12,0.21,82.68
			c-0.12,42.58,0.24,85.17-0.19,127.75c-70.22,0.07-140.43,0.04-210.65-0.01C56.81,201.62,56.85,131.49,56.79,61.35z M60.17,63.13
			c4.37,5.02,9.31,9.49,13.93,14.27c47.71,47.62,95.29,95.37,143.15,142.86c16.19,15.93,32.05,32.2,48.41,47.97
			c0.4-17.4,0.05-34.81,0.17-52.22c-0.05-50.98,0.09-101.96-0.06-152.93C197.24,62.88,128.7,62.91,60.17,63.13z M178.58,269.85
			c28.67,0.14,57.34-0.34,86,0.25c-12.69-13.37-26.13-26.01-39.08-39.13C172.73,178.42,120.07,125.75,67.44,73.06
			c-2.83-2.89-5.67-5.78-8.77-8.39c-0.08,68.4-0.02,136.81-0.03,205.22c38.53-0.16,77.06,0.08,115.59-0.13"/>
	</g>
	<path class="st3" d="M367.26,344.73c3.83,1.81,6.4,5.27,9.36,8.15c15.16,15.16,30.36,30.3,45.52,45.46
		c2.74,2.79,6.09,5.19,7.68,8.89c-3.66-1.66-6.12-4.91-8.9-7.66c-14.99-15.01-30.01-29.98-45.01-44.98
		C372.86,351.46,369.22,348.74,367.26,344.73z"/>
</g>
<g>
	<path class="st4" d="M800.58,37.13c4.45,1.84,8.89,3.69,13.19,5.85c-4.33,2.03-8.78,3.79-13.1,5.83c0.08-1.71,0.17-3.42,0.24-5.13
		c-103.14-0.24-206.28-0.04-309.42-0.11c-105.33,0.03-210.67-0.04-316,0.04c-1.4,0.08-2.74-0.36-3.67-1.44
		c6.54-0.57,13.11-0.22,19.67-0.31c203.24-0.05,406.48,0.09,609.72-0.07C801,40.23,800.78,38.68,800.58,37.13z"/>
</g>
<g>
	<g>
		<path class="st5" d="M398.45,63.07c-34.01-0.03-68.02,0.05-102.03-0.02 M465.55,63.05c-21.99,0.04-43.98,0.02-65.97,0.02
			 M295.63,63.11c-5.45-0.18-10.91-0.22-16.35,0.01c7.01,7.68,14.76,14.64,21.94,22.16c55.94,56.07,111.92,112.08,167.93,168.07
			c5.11,4.99,9.84,10.41,15.52,14.78c-0.06,0.78-0.16,1.56-0.3,2.33c0.46,0.28,1.37,0.82,1.83,1.1l0.58,0.32
			c-50.43-0.22-100.86-0.04-151.28-0.1c-19.77,0.07-39.54-0.13-59.3,0.13c-0.3-66.96-0.01-133.93-0.15-200.89
			c-0.02-3.24,0.07-6.47,0.27-9.69c65.05,0.1,130.11,0,195.17,0.04c5.12,0.05,10.29-0.35,15.38,0.44c-0.55,0.2-1.64,0.61-2.19,0.81
			c-6,0.69-12.05,0.24-18.07,0.42 M277.77,252.8c-0.09,5.65-0.05,11.3-0.01,16.96c37.56,0.18,75.11,0.01,112.67,0.08
			c4.32,0.13,4.32,0.13,4.32,0.13c29.35-0.3,58.72-0.07,88.08-0.12c-5.35-6.04-11.32-11.47-16.93-17.25
			c-49.32-49.34-98.63-98.7-147.95-148.05c-13.44-13.24-26.48-26.91-40.16-39.9c-0.12,40.41-0.01,80.83-0.05,121.24 M277.75,186.98
			c0.02,21.68-0.07,43.37,0.04,65.05"/>
	</g>
</g>
<g>
	<g>
		<path class="st6" d="M495.9,61.39c70.2-0.1,140.4-0.02,210.6-0.04c0.51,22.21,0.07,44.44,0.22,66.66
			c-0.05,48.06,0.08,96.12-0.07,144.18c-56.39,0.12-112.77,0.02-169.16,0.05c-13.86-0.15-27.73,0.3-41.58-0.23
			C495.98,201.81,495.99,131.6,495.9,61.39z M499.83,63.18c5.18,6.28,11.39,11.6,16.98,17.52c28.29,28.23,56.64,56.41,84.92,84.65
			c5.91-5.11,11.12-10.95,16.74-16.36c16-16,32-32.01,47.98-48.02c12.4-12.66,25.34-24.81,37.39-37.79
			c-20.11-0.33-40.24,0.02-60.35-0.1C595.6,63.15,547.71,62.93,499.83,63.18z M497.83,64.58c-0.27,19.47-0.03,38.96-0.11,58.43
			c0.08,48.75-0.18,97.5,0.13,146.24c6.33-5.62,12.06-11.86,18.12-17.76c28.18-28.22,56.44-56.35,84.56-84.61
			c-9.31-9.65-18.97-18.96-28.42-28.46C547.3,113.85,522.85,88.93,497.83,64.58z M603.2,166.86c34.01,33.7,67.58,67.86,101.8,101.34
			c0.01-67.75,0.01-135.5,0-203.25C671.15,99.01,637,132.76,603.2,166.86z M613.67,270.36c3.93,0.24,7.88,0.28,11.82,0.25
			c26.1-0.14,52.2,0.19,78.29-0.16c-3.69-5.16-8.71-9.12-13.03-13.72c-28.82-28.86-57.74-57.62-86.6-86.44
			c-0.86-0.63-2.17-2.48-3.23-1.13c-6.17,5.58-11.71,11.81-17.73,17.55c-27.73,27.91-55.81,55.48-83.35,83.57
			c7.2,0.64,14.43,0.19,21.65,0.31c29.23,0,58.45,0.01,87.68,0"/>
	</g>
	<path class="st6" d="M835.65,269.99c29.31-0.32,58.64-0.13,87.95-0.11c0.97,0.6,1.94,1.21,2.93,1.82
		c-32.36,0.33-64.72-0.28-97.07,0.33c0.31-0.51,0.92-1.53,1.23-2.04"/>
</g>
<g>
	<g>
		<path class="st7" d="M715.9,61.35c70.42,0,140.83,0.01,211.25,0c-0.15,70.23-0.02,140.46-0.06,210.7l-0.56-0.35
			c-0.99-0.61-1.96-1.22-2.93-1.82c-20.44-21.21-41.56-41.76-62.28-62.7c-42.29-42.38-84.64-84.7-126.94-127.07
			c-5.36-5.22-10.34-10.85-16.14-15.61c-0.47,23.5-0.07,47.01-0.2,70.51c0.12,44.94-0.23,89.89,0.17,134.82
			c37.49,0.1,74.99-0.22,112.48,0.16c-0.31,0.51-0.92,1.53-1.23,2.04c-37.84-0.57-75.7,0.04-113.54-0.3
			C715.98,201.6,716.02,131.48,715.9,61.35z M720.13,63.16c6.53,7.2,13.64,13.84,20.46,20.77c40.94,41.05,81.95,82.03,122.93,123.04
			c20.53,20.35,40.67,41.1,61.46,61.17c0.01-68.31-0.16-136.62,0.09-204.94c-12.86-0.28-25.72-0.04-38.58-0.12
			C831.04,63.14,775.58,62.97,720.13,63.16z"/>
	</g>
</g>
<g>
	<path class="st8" d="M484.68,62.62c0.55-0.2,1.64-0.61,2.19-0.81c-0.31,64.73-0.05,129.47-0.13,194.2
		c0.02,5.18,0.23,10.39-0.54,15.55c-0.46-0.28-1.37-0.82-1.83-1.1c0.14-0.77,0.24-1.55,0.3-2.33c0.7-6.01,0.4-12.08,0.42-18.12
		c0.01-56,0-112,0-168C485.07,75.55,485.34,69.06,484.68,62.62z"/>
</g>
<g>
	<path class="st9" d="M377.85,149.05"/>
	<path class="st9" d="M113.75,343.82c0.35,1.89,0.66,3.79,0.97,5.7c1.78-1.93,3.83-3.99,6.71-3.65c25.37,0.02,50.74,0.07,76.11-0.04
		c2.11,0.21,4.9-0.15,6.27,1.89c1,2.27,0.77,4.84,0.86,7.28c-0.39,26,0.19,52.01-0.25,78.01c-2.61,0.55-5.23,1.12-7.9,1.12
		c-21.67-0.16-43.35-0.09-65.03-0.06c-5.72-0.08-12.35,1.02-16.84-3.43c-0.32,1.53-0.64,3.06-0.98,4.59
		C113.76,404.76,113.61,374.29,113.75,343.82z"/>
</g>
<g>
	<path class="st10" d="M465.59,79.26"/>
	<path class="st10" d="M465.61,90.23"/>
	<path class="st10" d="M334.79,149.24"/>
</g>
<g>
	<path class="st11" d="M465.64,82.4"/>
</g>
<g>
	<path class="st12" d="M341.79,83.99"/>
	<path class="st12" d="M323.68,149.09"/>
</g>
<g>
	<path class="st13" d="M893.67,93.18c3.23-3.08,6.09-6.7,10.17-8.74c-1.61,3.52-4.68,5.94-7.36,8.58
		c-7.61,7.39-15.09,14.9-22.57,22.42c-1.29,1.35-2.93,2.26-4.58,3.04c1.14-1.99,2.56-3.81,4.22-5.4
		C880.31,106.5,886.87,99.72,893.67,93.18z"/>
</g>
<g>
	<path class="st14" d="M465.61,86.34"/>
</g>
<g>
	<path class="st15" d="M295.57,90.23"/>
	<path class="st15" d="M465.62,93.38"/>
	<path class="st15" d="M304.81,252.01"/>
</g>
<g>
	<path class="st16" d="M295.55,94.26"/>
	<path class="st16" d="M465.61,97.28"/>
</g>
<g>
	<path class="st17" d="M295.57,97.4"/>
</g>
<g>
	<path class="st18" d="M295.55,101.24"/>
</g>
<g>
	<path class="st19" d="M295.51,170.32"/>
</g>
<g>
	<path class="st20" d="M308.75,252.01"/>
</g>
<g>
	<path class="st21" d="M293.84,252.02"/>
</g>
<g>
	<path class="st22" d="M295.52,134.21"/>
	<path class="st22" d="M312.63,252.05"/>
	<path class="st22" d="M326.78,252.02"/>
</g>
<g>
	<path class="st23" d="M363.6,134.28"/>
</g>
<g>
	<path class="st24" d="M295.52,126.4"/>
	<path class="st24" d="M330.86,149.02"/>
</g>
<g>
	<path class="st25" d="M40.08,135.97c-0.19-1.63,0.74-2.98,1.14-4.48c0.91,5.13,0.47,10.35,0.54,15.52
		c0.01,88.96-0.02,177.91,0.02,266.86c1.57-0.17,3.15-0.36,4.72-0.53c-1.8,4.34-3.55,8.71-5.59,12.95
		c-2.47-4.06-4.16-8.49-5.93-12.87c1.71,0.11,3.42,0.32,5.14,0.42C40.06,321.22,40.14,228.6,40.08,135.97z"/>
	<path class="st25" d="M414.23,344.49c1.18,1.12,3.03,1.19,4.11,2.68c3.5,3.92,8.31,6.93,10.35,11.96c-2.97-1.7-5.34-4.17-7.7-6.59
		C418.56,350.02,415.72,347.74,414.23,344.49z"/>
</g>
<g>
	<path class="st26" d="M363.59,138.22"/>
	<path class="st26" d="M341.69,252.02"/>
</g>
<g>
	<path class="st27" d="M363.58,141.36"/>
</g>
<g>
	<path class="st28" d="M341.8,149.01"/>
	<path class="st28" d="M345.68,149.01"/>
</g>
<g>
	<path class="st29" d="M352.8,149.01"/>
	<path class="st29" d="M363.6,156.23"/>
</g>
<g>
	<path class="st30" d="M399.82,149.08"/>
</g>
<g>
	<path class="st31" d="M421.82,149.08"/>
</g>
<g>
	<path class="st32" d="M295.72,167.28"/>
</g>
<g>
	<path class="st33" d="M295.56,178.16"/>
	<path class="st33" d="M337.73,252.02"/>
</g>
<g>
	<path class="st34" d="M363.59,236.26"/>
</g>
<g>
	<path class="st35" d="M295.5,174.24"/>
	<path class="st35" d="M295.55,181.26"/>
	<path class="st35" d="M363.59,240.2"/>
	<path class="st35" d="M297.76,252.01"/>
	<path class="st35" d="M344.9,252.03"/>
</g>
<g>
	<path class="st36" d="M301.63,252.04"/>
	<path class="st36" d="M315.78,252.02"/>
</g>
<g>
	<path class="st37" d="M319.75,252.05"/>
</g>
<g>
	<path class="st38" d="M323.77,252.2"/>
</g>
<g>
	<path class="st39" d="M334.73,252.23"/>
</g>
<g>
	<g>
		<path class="st40" d="M496.17,284.9c70.16-0.1,140.31-0.12,210.47,0.01c0.17,54.04,0.02,108.07,0.07,162.1
			c-0.09,16.25,0.19,32.51-0.14,48.76c-68.7,0.07-137.4-0.04-206.1,0.06c-1.44-0.25-4.48,0.52-4.33-1.79
			c-0.23-14.34-0.01-28.69-0.09-43.03C496.13,395.64,495.89,340.27,496.17,284.9z M497.75,286.42c-0.06,69.18-0.06,138.36,0,207.53
			c46.9,0.46,93.82,0.07,140.73,0.2c22.21-0.16,44.42,0.31,66.62-0.24c-0.13-69.13,0.08-138.26-0.11-207.4
			C635.91,286.37,566.83,286.56,497.75,286.42z"/>
	</g>
	<g>
		<path class="st40" d="M716.07,284.89c52.8-0.14,105.61-0.02,158.42-0.06c17.55,0.14,35.12-0.27,52.67,0.21
			c-0.23,70.21-0.1,140.43-0.07,210.65c-70.3,0.16-140.6,0-210.9,0.09C715.84,425.49,716.09,355.18,716.07,284.89z M720.2,286.74
			c8.26,8.91,17.14,17.24,25.64,25.93c24.43,24.24,48.22,49.11,72.59,73.41c1.29,1.33,2.34,2.87,3.31,4.46
			c-4.58-2.1-7.52-6.33-11.05-9.73c-26.02-26.64-52.28-53.05-78.59-79.4c-4.71-4.55-9.04-9.51-14.13-13.65
			c-0.09,68.7,0.03,137.41-0.05,206.12c19.17,0.72,38.38,0.11,57.57,0.31c25.67,0.01,51.33-0.02,77,0
			c11.61-0.14,23.23,0.3,34.82-0.26c-1.69-2.51-3.63-4.84-5.87-6.86c-19.39-19.29-38.63-38.72-58.03-57.99
			c-1.13-0.95-1.65-2.31-1.66-3.75c5.44,4.68,10.14,10.13,15.34,15.08c17.3,17.35,34.65,34.66,51.95,52.01
			c1.81,2.23,4.88,1.67,7.43,1.81c9.45-0.09,18.9,0.02,28.36-0.09c0.11-3.72,0.13-7.42,0.12-11.13
			c-0.08-65.47,0.09-130.93-0.08-196.39c-45.79-0.24-91.59-0.04-137.38-0.11C765.06,286.66,742.62,286.22,720.2,286.74z"/>
	</g>
	<path class="st40" d="M536.54,326.75c3.99,1.41,6.52,4.93,9.49,7.72c1.98,1.87,3.86,3.92,4.84,6.52
		C545.42,337.03,540.66,332.07,536.54,326.75z"/>
	<path class="st40" d="M337.28,359.75c3.78,1.85,6.38,5.26,9.32,8.15c21.18,21.14,42.29,42.37,63.52,63.47
		c1.07,1.13,1.87,2.47,2.63,3.83c-1.56-0.87-3.07-1.83-4.35-3.08c-20.59-20.74-41.31-41.37-61.96-62.06
		C343.25,366.75,339.49,363.87,337.28,359.75z"/>
	<path class="st40" d="M338.03,375.67c3.63,1.8,6.2,4.98,9.01,7.78c14,14.01,27.98,28.03,41.99,42.02c3.03,3.09,6.51,5.87,8.63,9.73
		c-1.55-0.85-3.05-1.8-4.31-3.03c-15.12-15.22-30.3-30.37-45.46-45.56C344.52,383.04,340.44,380.03,338.03,375.67z"/>
</g>
<g>
	<path class="st41" d="M382.34,344.61c3.6,1.27,5.95,4.39,8.58,6.98c9.76,9.9,19.72,19.61,29.48,29.51
		c3.15,3.26,6.78,6.13,9.17,10.05c-4.2-1.54-6.83-5.31-9.95-8.28c-9.73-9.6-19.31-19.36-29.03-28.97
		C387.66,350.97,384.38,348.28,382.34,344.61z"/>
</g>
<text transform="matrix(1 0 0 1 363.8654 29.9507)" class="st42 st43 st44">Ref Sequence</text>
<text transform="matrix(6.123234e-17 -1 1 6.123234e-17 30.6122 405.4329)" class="st42 st43 st44">Query Sequence</text>
<text transform="matrix(1 0 0 1 138.1154 91.7583)" class="st45 st43 st46">perfect match</text>
<g>
	<text transform="matrix(1 0 0 1 391.2465 155.0671)" class="st45 st43 st46">repeats</text>
</g>
<g>
	<text transform="matrix(1 0 0 1 559.5341 86.4551)" class="st45 st43 st46">palindrom</text>
</g>
<g>
	<text transform="matrix(1 0 0 1 733.56 178.1584)"><tspan x="0" y="0" class="st45 st43 st46">partial</tspan><tspan x="0" y="23.25" class="st45 st43 st46">palindrom</tspan></text>
</g>
<g>
	<text transform="matrix(1 0 0 1 110.4028 310.7483)" class="st45 st43 st46">microsatellites</text>
</g>
<g>
	<text transform="matrix(1 0 0 1 341.6852 310.7483)" class="st45 st43 st46">minisatellites</text>
</g>
<g>
	<text transform="matrix(1 0 0 1 571.0786 308.8882)" class="st45 st43 st46">homologous</text>
</g>
<g>
	<text transform="matrix(1 0 0 1 816.3867 310.9612)" class="st45 st43 st46">indel</text>
</g>
</svg>
