<?xml version="1.0" encoding="utf-8"?>
<!-- Generator: Adobe Illustrator 25.4.1, SVG Export Plug-In . SVG Version: 6.00 Build 0)  -->
<svg version="1.1" id="图层_1" xmlns="http://www.w3.org/2000/svg" xmlns:xlink="http://www.w3.org/1999/xlink" x="0px" y="0px"
	 viewBox="0 0 464.1 122" style="enable-background:new 0 0 464.1 122;" xml:space="preserve">
<style type="text/css">
	.st0{font-family:'TimesNewRomanPSMT';}
	.st1{font-size:10.2px;}
	.st2{letter-spacing:4;}
	.st3{fill:#2C6AB4;}
	.st4{font-family:'TimesNewRomanPS-BoldMT';}
	.st5{letter-spacing:5;}
	.st6{letter-spacing:22;}
	.st7{letter-spacing:8;}
	.st8{fill:none;stroke:#000000;stroke-width:0.425;}
	.st9{letter-spacing:24;}
	.st10{fill:#A52624;}
	.st11{font-family:'AdobeSongStd-Light-GBpc-EUC-H';}
	.st12{font-size:12px;}
</style>
<text transform="matrix(1 0 0 1 29.396 41.9094)"><tspan x="0" y="0" class="st0 st1">A</tspan><tspan x="7.4" y="0" class="st0 st1 st2"> </tspan><tspan x="14.2" y="0" class="st0 st1">C </tspan></text>
<text transform="matrix(1 0 0 1 57.7495 41.9094)"><tspan x="0" y="0" class="st0 st1">G</tspan><tspan x="7.4" y="0" class="st0 st1 st2"> </tspan><tspan x="14.2" y="0" class="st0 st1">T</tspan></text>
<text transform="matrix(1 0 0 1 15.627 58.9377)" class="st0 st1">A</text>
<text transform="matrix(1 0 0 1 43.9829 58.9377)" class="st0 st1">0 </text>
<text transform="matrix(1 0 0 1 22.4404 58.9377)"><tspan x="0" y="0" class="st3 st4 st1 st2"> </tspan><tspan x="7.4" y="0" class="st3 st4 st1">1 </tspan></text>
<text transform="matrix(1 0 0 1 72.3286 58.9377)" class="st0 st1">0</text>
<text transform="matrix(1 0 0 1 58.1611 58.9377)" class="st0 st1">0 </text>
<text transform="matrix(1 0 0 1 15.6372 73.9416)" class="st0 st1">C</text>
<text transform="matrix(1 0 0 1 43.9932 73.9416)" class="st3 st4 st1">1 </text>
<text transform="matrix(1 0 0 1 72.3389 73.9416)" class="st0 st1">0</text>
<text transform="matrix(1 0 0 1 58.1714 73.9416)" class="st0 st1">0 </text>
<text transform="matrix(1 0 0 1 22.4507 73.9416)"><tspan x="0" y="0" class="st0 st1 st2"> </tspan><tspan x="7.4" y="0" class="st0 st1">0 </tspan></text>
<text transform="matrix(1 0 0 1 15.6475 88.9455)" class="st0 st1">G</text>
<text transform="matrix(1 0 0 1 43.9932 88.9455)" class="st0 st1">0 </text>
<text transform="matrix(1 0 0 1 23.0117 88.9455)"><tspan x="0" y="0" class="st0 st1 st2"> </tspan><tspan x="6.8" y="0" class="st0 st1">0 </tspan></text>
<text transform="matrix(1 0 0 1 72.3389 88.9455)" class="st0 st1">0</text>
<text transform="matrix(1 0 0 1 58.1714 88.9455)" class="st3 st4 st1">1 </text>
<text transform="matrix(1 0 0 1 15.6475 103.9504)" class="st0 st1">T</text>
<text transform="matrix(1 0 0 1 44.0034 103.9504)" class="st0 st1">0 </text>
<text transform="matrix(1 0 0 1 72.3491 103.9504)" class="st3 st4 st1">1</text>
<text transform="matrix(1 0 0 1 58.1812 103.9504)" class="st0 st1">0 </text>
<text transform="matrix(1 0 0 1 21.7061 103.9504)"><tspan x="0" y="0" class="st0 st1 st5"> </tspan><tspan x="8.1" y="0" class="st0 st1">0 </tspan></text>
<text transform="matrix(1 0 0 1 179.959 44.9533)" class="st0 st1">C </text>
<text transform="matrix(1 0 0 1 116.7397 44.9533)"><tspan x="0" y="0" class="st0 st1 st6"> </tspan><tspan x="24.9" y="0" class="st0 st1">A</tspan><tspan x="31.8" y="0" class="st0 st1"> </tspan></text>
<text transform="matrix(1 0 0 1 256.8672 44.9533)" class="st0 st1">T</text>
<text transform="matrix(1 0 0 1 217.9438 44.9533)" class="st0 st1">G </text>
<text transform="matrix(1 0 0 1 113.3428 59.9572)"><tspan x="0" y="0" class="st0 st1">A</tspan><tspan x="6.8" y="0" class="st0 st1"> </tspan></text>
<text transform="matrix(1 0 0 1 245.8711 59.9572)" class="st0 st1">0.0033</text>
<text transform="matrix(1 0 0 1 136.1602 59.9572)" class="st3 st4 st1">0.99 </text>
<text transform="matrix(1 0 0 1 207.6011 59.9572)" class="st0 st1">0.0033 </text>
<text transform="matrix(1 0 0 1 169.3306 59.9572)" class="st0 st1">0.0033 </text>
<text transform="matrix(1 0 0 1 113.3428 74.9611)" class="st0 st1">C</text>
<text transform="matrix(1 0 0 1 245.8711 74.9611)" class="st0 st1">0.0033</text>
<text transform="matrix(1 0 0 1 174.4307 74.9611)" class="st3 st4 st1">0.99 </text>
<text transform="matrix(1 0 0 1 207.6011 74.9611)" class="st0 st1">0.0033 </text>
<text transform="matrix(1 0 0 1 120.1362 74.9611)"><tspan x="0" y="0" class="st0 st1 st7"> </tspan><tspan x="10.9" y="0" class="st0 st1">0.0033 </tspan></text>
<text transform="matrix(1 0 0 1 113.0474 89.966)" class="st0 st1">G</text>
<text transform="matrix(1 0 0 1 120.4116 89.966)" class="st0 st1"> </text>
<text transform="matrix(1 0 0 1 131.0503 89.966)" class="st0 st1">0.0033 </text>
<text transform="matrix(1 0 0 1 169.3208 89.966)" class="st0 st1">0.0033 </text>
<text transform="matrix(1 0 0 1 212.6909 89.966)" class="st3 st4 st1">0.99 </text>
<text transform="matrix(1 0 0 1 245.8613 89.966)" class="st0 st1">0.0033</text>
<text transform="matrix(1 0 0 1 113.7202 104.9699)" class="st0 st1">T</text>
<text transform="matrix(1 0 0 1 207.6113 104.9699)" class="st0 st1">0.0033 </text>
<text transform="matrix(1 0 0 1 169.3408 104.9699)" class="st0 st1">0.0033 </text>
<text transform="matrix(1 0 0 1 250.9814 104.9699)" class="st3 st4 st1">0.99</text>
<text transform="matrix(1 0 0 1 119.769 104.9699)"><tspan x="0" y="0" class="st0 st1 st7"> </tspan><tspan x="11.3" y="0" class="st0 st1">0.0033 </tspan></text>
<line class="st8" x1="26.7" y1="50.9" x2="26.7" y2="104.5"/>
<line class="st8" x1="81" y1="50.9" x2="81" y2="104.5"/>
<line class="st8" x1="26.5" y1="50.9" x2="28.2" y2="50.9"/>
<line class="st8" x1="79.1" y1="50.9" x2="80.8" y2="50.9"/>
<line class="st8" x1="26.5" y1="104.3" x2="28.2" y2="104.3"/>
<line class="st8" x1="79.1" y1="104.3" x2="80.8" y2="104.3"/>
<line class="st8" x1="125.4" y1="52.8" x2="125.4" y2="106.4"/>
<line class="st8" x1="278.1" y1="52.8" x2="278.1" y2="106.4"/>
<line class="st8" x1="125.2" y1="53" x2="126.9" y2="53"/>
<line class="st8" x1="276.6" y1="53" x2="278.3" y2="53"/>
<line class="st8" x1="125.2" y1="106.2" x2="126.9" y2="106.2"/>
<line class="st8" x1="276.6" y1="106.2" x2="278.3" y2="106.2"/>
<text transform="matrix(1 0 0 1 326.998 45.2199)"><tspan x="0" y="0" class="st0 st1">A</tspan><tspan x="6.8" y="0" class="st0 st1 st9"> </tspan><tspan x="34" y="0" class="st0 st1">C</tspan></text>
<text transform="matrix(1 0 0 1 304.8945 45.2199)" class="st0 st1"> </text>
<text transform="matrix(1 0 0 1 367.8184 45.2199)"><tspan x="0" y="0" class="st0 st1 st6"> </tspan><tspan x="25.5" y="0" class="st0 st1">G </tspan></text>
<text transform="matrix(1 0 0 1 426.5801 45.2199)" class="st0 st1">T</text>
<text transform="matrix(1 0 0 1 301.4873 60.2238)"><tspan x="0" y="0" class="st0 st1">A</tspan><tspan x="6.8" y="0" class="st0 st1"> </tspan></text>
<g>
	<text transform="matrix(1 0 0 1 321.4795 60.2238)" class="st3 st4 st1">0.99 </text>
</g>
<text transform="matrix(1 0 0 1 352.9463 60.2238)" class="st10 st4 st1">0.006 </text>
<text transform="matrix(1 0 0 1 385.5459 60.2238)" class="st0 st1">0.002 </text>
<text transform="matrix(1 0 0 1 418.1455 60.2238)" class="st0 st1">0.002</text>
<text transform="matrix(1 0 0 1 301.4873 75.2277)" class="st0 st1">C</text>
<text transform="matrix(1 0 0 1 308.291 75.2277)"><tspan x="0" y="0" class="st0 st1 st7"> </tspan><tspan x="10.6" y="0" class="st0 st1">0.002 </tspan></text>
<g>
	<text transform="matrix(1 0 0 1 355.4863 75.2277)" class="st3 st4 st1">0.99 </text>
</g>
<text transform="matrix(1 0 0 1 385.5361 75.2277)" class="st10 st4 st1">0.006 </text>
<text transform="matrix(1 0 0 1 418.1348 75.2277)" class="st0 st1">0.002</text>
<text transform="matrix(1 0 0 1 301.2021 90.2219)" class="st0 st1">G</text>
<text transform="matrix(1 0 0 1 308.5664 90.2219)" class="st0 st1"> </text>
<text transform="matrix(1 0 0 1 318.9199 90.2219)" class="st10 st4 st1">0.006 </text>
<text transform="matrix(1 0 0 1 352.9365 90.2219)" class="st0 st1">0.002 </text>
<g>
	<text transform="matrix(1 0 0 1 388.0859 90.2219)" class="st3 st4 st1">0.99 </text>
</g>
<text transform="matrix(1 0 0 1 418.1348 90.2219)" class="st0 st1">0.002</text>
<text transform="matrix(1 0 0 1 307.9033 105.2267)"><tspan x="0" y="0" class="st0 st1 st7"> </tspan><tspan x="11" y="0" class="st0 st1">0.002 </tspan></text>
<text transform="matrix(1 0 0 1 352.9365 105.2267)" class="st10 st4 st1">0.006 </text>
<text transform="matrix(1 0 0 1 385.5361 105.2267)" class="st0 st1">0.002 </text>
<g>
	<text transform="matrix(1 0 0 1 420.6846 105.2267)" class="st3 st4 st1">0.99</text>
</g>
<text transform="matrix(1 0 0 1 302.168 105.551)" class="st0 st1">T</text>
<line class="st8" x1="314.5" y1="54.4" x2="314.5" y2="106.5"/>
<line class="st8" x1="446.7" y1="54.4" x2="446.7" y2="106.5"/>
<line class="st8" x1="314.2" y1="54.6" x2="315.9" y2="54.6"/>
<line class="st8" x1="445.2" y1="54.6" x2="446.9" y2="54.6"/>
<line class="st8" x1="314.2" y1="106.3" x2="315.9" y2="106.3"/>
<line class="st8" x1="445.2" y1="106.3" x2="446.9" y2="106.3"/>
<text transform="matrix(1 0 0 1 82.7778 22.897)" class="st11 st12">不考虑转换和颠换</text>
<text transform="matrix(1 0 0 1 332.5555 22.897)" class="st11 st12">考虑转换和颠换</text>
</svg>
