<svg width="2468" height="1502" xmlns="http://www.w3.org/2000/svg" xmlns:xlink="http://www.w3.org/1999/xlink" overflow="hidden"><defs><clipPath id="clip0"><rect x="518" y="751" width="2468" height="1502"/></clipPath></defs><g clip-path="url(#clip0)" transform="translate(-518 -751)"><path d="M2058.5 1576.5 2690.5 1576.5" stroke="#000000" stroke-width="3.4375" stroke-linejoin="round" stroke-miterlimit="10" stroke-dasharray="13.75 10.3125" fill="none" fill-rule="evenodd"/><path d="M0 0 0.999672 1320" stroke="#000000" stroke-width="3.4375" stroke-linejoin="round" stroke-miterlimit="10" stroke-dasharray="13.75 10.3125" fill="none" fill-rule="evenodd" transform="matrix(-1 0 0 1 2196.5 751.5)"/><rect x="2058.5" y="861.5" width="247" height="220" stroke="#000000" stroke-width="3.4375" stroke-miterlimit="8" fill="#31B6FD"/><rect x="1810.5" y="1466.5" width="248" height="220" stroke="#000000" stroke-width="3.4375" stroke-miterlimit="8" fill="#31B6FD"/><path d="M518.5 1796.5 2690.5 1796.5" stroke="#000000" stroke-width="3.4375" stroke-linejoin="round" stroke-miterlimit="10" stroke-dasharray="13.75 10.3125" fill="none" fill-rule="evenodd"/><path d="M1948.5 1686.5 1948.5 2071.5" stroke="#000000" stroke-width="3.4375" stroke-linejoin="round" stroke-miterlimit="10" stroke-dasharray="13.75 10.3125" fill="none" fill-rule="evenodd"/><path d="M2333.5 971.5 2690.5 971.5" stroke="#000000" stroke-width="3.4375" stroke-linejoin="round" stroke-miterlimit="10" stroke-dasharray="13.75 10.3125" fill="none" fill-rule="evenodd"/><rect x="2058.5" y="1686.5" width="247" height="220" stroke="#000000" stroke-width="3.4375" stroke-miterlimit="8" fill="#FF0000"/><rect x="958.5" y="1686.5" width="247" height="220" stroke="#000000" stroke-width="3.4375" stroke-miterlimit="8" fill="#31B6FD"/><path d="M1068.5 1906.5 1068.5 2071.5" stroke="#000000" stroke-width="3.4375" stroke-linejoin="round" stroke-miterlimit="10" stroke-dasharray="13.75 10.3125" fill="none" fill-rule="evenodd"/><path d="M1178 1845.84 2059.22 1845.84 2059.22 1856.16 1178 1856.16ZM2054.06 1835.53 2085 1851 2054.06 1866.47Z"/><path d="M5.15624-0.00781275 6.11721 634.211-4.19528 634.226-5.15624 0.00781275ZM16.4219 629.039 1.00003 660-14.5156 629.086Z" transform="matrix(-1 0 0 1 2251 1053)"/><path d="M1784.4 1435.13 2069.03 1685.11 2062.23 1692.86 1777.6 1442.87ZM2071.96 1673.96 2085 1706 2051.55 1697.21Z"/><text font-family="Times New Roman,Times New Roman_MSFontService,sans-serif" font-style="italic" font-weight="400" font-size="92" transform="matrix(1 0 0 1 2778.18 994)">i <tspan font-size="92" x="48.125" y="0">-</tspan><tspan font-size="92" x="78.4898" y="0">x</tspan><tspan font-size="92" x="27.5" y="621">i </tspan><tspan font-size="92" x="75.625" y="621">-</tspan><tspan font-size="92" x="105.99" y="621">1</tspan><tspan font-size="92" x="-907.5" y="1183">j </tspan>-<tspan font-size="92" x="-829.01" y="1183">1</tspan><tspan font-size="92" x="-1787.5" y="1183">i </tspan><tspan font-size="92" x="-1739.38" y="1183">-</tspan><tspan font-size="92" x="-1709.01" y="1183">y</tspan><tspan font-size="92" x="-605" y="1183">j</tspan><tspan font-size="92" x="27.5" y="853">i </tspan></text><rect x="2333" y="1109" width="440" height="152" fill="#FFFF00"/><text font-family="Times New Roman,Times New Roman_MSFontService,sans-serif" font-style="italic" font-weight="400" font-size="92" transform="matrix(1 0 0 1 2349.2 1214)">S<tspan font-size="61" x="45.8335" y="22">i </tspan><tspan font-size="61" x="78.4898" y="22">-</tspan><tspan font-size="61" x="114.584" y="22">x,j  </tspan><tspan font-size="92" x="205.104" y="0">-</tspan><tspan font-size="92" x="258.386" y="0">w</tspan><tspan font-size="61" x="319.688" y="22">x</tspan></text><rect x="1081" y="1274" width="702" height="152" fill="#FFFF00"/><text font-family="Times New Roman,Times New Roman_MSFontService,sans-serif" font-style="italic" font-weight="400" font-size="92" transform="matrix(1 0 0 1 1097.95 1379)">S<tspan font-size="61" x="45.8334" y="22">i </tspan><tspan font-size="61" x="78.4896" y="22">–</tspan><tspan font-size="61" x="108.854" y="22">1, j</tspan><tspan font-size="61" x="187.344" y="22">-</tspan><tspan font-size="61" x="223.438" y="22">1 </tspan><tspan font-size="92" x="292.188" y="0">+ s</tspan><tspan font-style="normal" font-size="92" x="412.5" y="0">(a</tspan><tspan font-size="61" x="483.542" y="22">i</tspan><tspan font-size="92" x="523.646" y="0">, </tspan><tspan font-style="normal" font-size="92" x="569.479" y="0">b</tspan><tspan font-size="61" x="615.313" y="22">j</tspan><tspan font-style="normal" font-size="92" x="632.5" y="0">)</tspan></text><rect x="1233" y="1906" width="432" height="152" fill="#FFFF00"/><text font-family="Times New Roman,Times New Roman_MSFontService,sans-serif" font-style="italic" font-weight="400" font-size="92" transform="matrix(1 0 0 1 1249.2 2012)">S<tspan font-size="61" x="45.8334" y="22">i, j </tspan><tspan font-size="61" x="126.615" y="22">-</tspan><tspan font-size="61" x="162.708" y="22">y </tspan><tspan font-size="92" x="205.104" y="0">-</tspan><tspan font-size="92" x="258.385" y="0">w</tspan><tspan font-size="61" x="319.688" y="22">y</tspan><tspan font-size="92" x="1116.48" y="-28">S</tspan><tspan font-size="61" x="1162.31" y="-6">i, j </tspan></text></g></svg>