<?xml version="1.0" encoding="UTF-8"?>
<svg id="_图层_1" data-name="图层_1" xmlns="http://www.w3.org/2000/svg" version="1.1" xmlns:xlink="http://www.w3.org/1999/xlink" viewBox="0 0 442.49 304.37">
  <!-- Generator: Adobe Illustrator 29.6.1, SVG Export Plug-In . SVG Version: 2.1.1 Build 9)  -->
  <defs>
    <style>
      .st0 {
        stroke: #040000;
      }

      .st0, .st1 {
        stroke-linecap: square;
        stroke-miterlimit: 10;
      }

      .st0, .st1, .st2 {
        fill: none;
      }

      .st3 {
        font-family: ArialMT, Arial;
        font-size: 25.15px;
      }

      .st3, .st4 {
        fill: #040000;
      }

      .st5 {
        fill: #d4d4d4;
      }

      .st5, .st4 {
        fill-rule: evenodd;
      }

      .st6 {
        clip-path: url(#clippath-1);
      }

      .st1 {
        stroke: #d4d4d4;
      }

      .st2 {
        clip-rule: evenodd;
      }

      .st7 {
        clip-path: url(#clippath);
      }
    </style>
    <clipPath id="clippath">
      <polygon class="st2" points="8.06 10.97 435.39 10.97 435.39 297.69 8.06 297.69 8.06 10.97 8.06 10.97"/>
    </clipPath>
    <clipPath id="clippath-1">
      <polygon class="st2" points="6.39 9.29 435.39 9.29 435.39 297.69 6.39 297.69 6.39 9.29 6.39 9.29"/>
    </clipPath>
  </defs>
  <g class="st7">
    <text class="st3" transform="translate(90.18 36.13)"><tspan x="0" y="0">G</tspan></text>
    <text class="st3" transform="translate(128.72 36.13)"><tspan x="0" y="0">A</tspan></text>
    <text class="st3" transform="translate(165.58 36.13)"><tspan x="0" y="0">A</tspan></text>
    <text class="st3" transform="translate(200.78 36.13)"><tspan x="0" y="0">T</tspan></text>
    <text class="st3" transform="translate(234.29 36.13)"><tspan x="0" y="0">T</tspan></text>
    <text class="st3" transform="translate(267.82 36.13)"><tspan x="0" y="0">C</tspan></text>
    <text class="st3" transform="translate(304.67 36.13)"><tspan x="0" y="0">A</tspan></text>
    <text class="st3" transform="translate(339.87 36.13)"><tspan x="0" y="0">G</tspan></text>
    <text class="st3" transform="translate(376.73 36.13)"><tspan x="0" y="0">T</tspan></text>
    <text class="st3" transform="translate(410.26 36.13)"><tspan x="0" y="0">T</tspan></text>
    <text class="st3" transform="translate(56.65 67.98)"><tspan x="0" y="0">0</tspan></text>
    <text class="st3" transform="translate(16.43 99.85)"><tspan x="0" y="0">G</tspan></text>
    <text class="st3" transform="translate(16.43 131.71)"><tspan x="0" y="0">G</tspan></text>
    <text class="st3" transform="translate(18.11 163.58)"><tspan x="0" y="0">A</tspan></text>
    <text class="st3" transform="translate(18.11 195.45)"><tspan x="0" y="0">T</tspan></text>
    <text class="st3" transform="translate(16.43 227.27)"><tspan x="0" y="0">C</tspan></text>
    <text class="st3" transform="translate(16.43 259.14)"><tspan x="0" y="0">G</tspan></text>
    <text class="st3" transform="translate(18.11 290.99)"><tspan x="0" y="0">A</tspan></text>
  </g>
  <g class="st6">
    <line class="st1" x1="6.39" y1="41.15" x2="43.25" y2="41.15"/>
    <polyline class="st5" points="6.39 41.15 6.39 42.83 43.25 42.83 43.25 41.15 6.39 41.15"/>
    <line class="st1" x1="43.25" y1="9.29" x2="43.25" y2="41.15"/>
    <polyline class="st5" points="43.25 9.29 43.25 41.15 44.93 41.15 44.93 9.29 43.25 9.29"/>
    <line class="st1" x1="80.12" y1="9.29" x2="80.12" y2="41.15"/>
    <polyline class="st5" points="80.12 9.29 80.12 41.15 81.8 41.15 81.8 9.29 80.12 9.29"/>
    <line class="st1" x1="116.99" y1="9.29" x2="116.99" y2="41.15"/>
    <polyline class="st5" points="116.99 9.29 116.99 41.15 118.67 41.15 118.67 9.29 116.99 9.29"/>
    <line class="st1" x1="153.86" y1="9.29" x2="153.86" y2="41.15"/>
    <polyline class="st5" points="153.86 9.29 153.86 41.15 155.53 41.15 155.53 9.29 153.86 9.29"/>
    <line class="st1" x1="190.73" y1="9.29" x2="190.73" y2="41.15"/>
    <polyline class="st5" points="190.73 9.29 190.73 41.15 192.4 41.15 192.4 9.29 190.73 9.29"/>
    <line class="st1" x1="224.24" y1="9.29" x2="224.24" y2="41.15"/>
    <polyline class="st5" points="224.24 9.29 224.24 41.15 225.92 41.15 225.92 9.29 224.24 9.29"/>
    <line class="st1" x1="257.76" y1="9.29" x2="257.76" y2="41.15"/>
    <polyline class="st5" points="257.76 9.29 257.76 41.15 259.43 41.15 259.43 9.29 257.76 9.29"/>
    <line class="st1" x1="292.95" y1="9.29" x2="292.95" y2="41.15"/>
    <polyline class="st5" points="292.95 9.29 292.95 41.15 294.63 41.15 294.63 9.29 292.95 9.29"/>
    <line class="st1" x1="329.82" y1="9.29" x2="329.82" y2="41.15"/>
    <polyline class="st5" points="329.82 9.29 329.82 41.15 331.49 41.15 331.49 9.29 329.82 9.29"/>
    <line class="st1" x1="366.69" y1="9.29" x2="366.69" y2="41.15"/>
    <polyline class="st5" points="366.69 9.29 366.69 41.15 368.36 41.15 368.36 9.29 366.69 9.29"/>
    <line class="st1" x1="400.2" y1="9.29" x2="400.2" y2="41.15"/>
    <polyline class="st5" points="400.2 9.29 400.2 41.15 401.88 41.15 401.88 9.29 400.2 9.29"/>
    <line class="st0" x1="44.93" y1="41.15" x2="435.39" y2="41.15"/>
    <polyline class="st4" points="44.93 41.15 44.93 42.83 435.39 42.83 435.39 41.15 44.93 41.15"/>
    <line class="st1" x1="433.72" y1="9.29" x2="433.72" y2="41.15"/>
    <polyline class="st5" points="433.72 9.29 433.72 41.15 435.39 41.15 435.39 9.29 433.72 9.29"/>
    <line class="st1" x1="6.39" y1="73.01" x2="43.25" y2="73.01"/>
    <polyline class="st5" points="6.39 73.01 6.39 74.69 43.25 74.69 43.25 73.01 6.39 73.01"/>
    <line class="st0" x1="44.93" y1="73.01" x2="435.39" y2="73.01"/>
    <polyline class="st4" points="44.93 73.01 44.93 74.69 435.39 74.69 435.39 73.01 44.93 73.01"/>
    <line class="st1" x1="6.39" y1="104.87" x2="43.25" y2="104.87"/>
    <polyline class="st5" points="6.39 104.87 6.39 106.54 43.25 106.54 43.25 104.87 6.39 104.87"/>
    <line class="st0" x1="44.93" y1="104.87" x2="435.39" y2="104.87"/>
    <polyline class="st4" points="44.93 104.87 44.93 106.54 435.39 106.54 435.39 104.87 44.93 104.87"/>
    <line class="st1" x1="6.39" y1="136.72" x2="43.25" y2="136.72"/>
    <polyline class="st5" points="6.39 136.72 6.39 138.4 43.25 138.4 43.25 136.72 6.39 136.72"/>
    <line class="st0" x1="44.93" y1="136.72" x2="435.39" y2="136.72"/>
    <polyline class="st4" points="44.93 136.72 44.93 138.4 435.39 138.4 435.39 136.72 44.93 136.72"/>
    <line class="st1" x1="6.39" y1="168.58" x2="43.25" y2="168.58"/>
    <polyline class="st5" points="6.39 168.58 6.39 170.26 43.25 170.26 43.25 168.58 6.39 168.58"/>
    <line class="st0" x1="44.93" y1="168.58" x2="435.39" y2="168.58"/>
    <polyline class="st4" points="44.93 168.58 44.93 170.26 435.39 170.26 435.39 168.58 44.93 168.58"/>
    <line class="st1" x1="6.39" y1="200.44" x2="43.25" y2="200.44"/>
    <polyline class="st5" points="6.39 200.44 6.39 202.12 43.25 202.12 43.25 200.44 6.39 200.44"/>
    <line class="st0" x1="44.93" y1="200.44" x2="435.39" y2="200.44"/>
    <polyline class="st4" points="44.93 200.44 44.93 202.12 435.39 202.12 435.39 200.44 44.93 200.44"/>
    <line class="st1" x1="6.39" y1="232.3" x2="43.25" y2="232.3"/>
    <polyline class="st5" points="6.39 232.3 6.39 233.98 43.25 233.98 43.25 232.3 6.39 232.3"/>
    <line class="st0" x1="44.93" y1="232.3" x2="435.39" y2="232.3"/>
    <polyline class="st4" points="44.93 232.3 44.93 233.98 435.39 233.98 435.39 232.3 44.93 232.3"/>
    <line class="st1" x1="6.39" y1="264.16" x2="43.25" y2="264.16"/>
    <polyline class="st5" points="6.39 264.16 6.39 265.83 43.25 265.83 43.25 264.16 6.39 264.16"/>
    <line class="st0" x1="44.93" y1="264.16" x2="435.39" y2="264.16"/>
    <polyline class="st4" points="44.93 264.16 44.93 265.83 435.39 265.83 435.39 264.16 44.93 264.16"/>
    <line class="st1" x1="6.39" y1="296.02" x2="43.25" y2="296.02"/>
    <polyline class="st5" points="6.39 296.02 6.39 297.69 43.25 297.69 43.25 296.02 6.39 296.02"/>
    <line class="st0" x1="43.25" y1="41.15" x2="43.25" y2="297.69"/>
    <polyline class="st4" points="43.25 41.15 43.25 297.69 44.93 297.69 44.93 41.15 43.25 41.15"/>
    <line class="st0" x1="80.12" y1="42.83" x2="80.12" y2="297.69"/>
    <polyline class="st4" points="80.12 42.83 80.12 297.69 81.8 297.69 81.8 42.83 80.12 42.83"/>
    <line class="st0" x1="116.99" y1="42.83" x2="116.99" y2="297.69"/>
    <polyline class="st4" points="116.99 42.83 116.99 297.69 118.67 297.69 118.67 42.83 116.99 42.83"/>
    <line class="st0" x1="153.86" y1="42.83" x2="153.86" y2="297.69"/>
    <polyline class="st4" points="153.86 42.83 153.86 297.69 155.53 297.69 155.53 42.83 153.86 42.83"/>
    <line class="st0" x1="190.73" y1="42.83" x2="190.73" y2="297.69"/>
    <polyline class="st4" points="190.73 42.83 190.73 297.69 192.4 297.69 192.4 42.83 190.73 42.83"/>
    <line class="st0" x1="224.24" y1="42.83" x2="224.24" y2="297.69"/>
    <polyline class="st4" points="224.24 42.83 224.24 297.69 225.92 297.69 225.92 42.83 224.24 42.83"/>
    <line class="st0" x1="257.76" y1="42.83" x2="257.76" y2="297.69"/>
    <polyline class="st4" points="257.76 42.83 257.76 297.69 259.43 297.69 259.43 42.83 257.76 42.83"/>
    <line class="st0" x1="292.95" y1="42.83" x2="292.95" y2="297.69"/>
    <polyline class="st4" points="292.95 42.83 292.95 297.69 294.63 297.69 294.63 42.83 292.95 42.83"/>
    <line class="st0" x1="329.82" y1="42.83" x2="329.82" y2="297.69"/>
    <polyline class="st4" points="329.82 42.83 329.82 297.69 331.49 297.69 331.49 42.83 329.82 42.83"/>
    <line class="st0" x1="366.69" y1="42.83" x2="366.69" y2="297.69"/>
    <polyline class="st4" points="366.69 42.83 366.69 297.69 368.36 297.69 368.36 42.83 366.69 42.83"/>
    <line class="st0" x1="400.2" y1="42.83" x2="400.2" y2="297.69"/>
    <polyline class="st4" points="400.2 42.83 400.2 297.69 401.88 297.69 401.88 42.83 400.2 42.83"/>
    <line class="st0" x1="44.93" y1="296.02" x2="435.39" y2="296.02"/>
    <polyline class="st4" points="44.93 296.02 44.93 297.69 435.39 297.69 435.39 296.02 44.93 296.02"/>
    <line class="st0" x1="433.72" y1="42.83" x2="433.72" y2="297.69"/>
    <polyline class="st4" points="433.72 42.83 433.72 297.69 435.39 297.69 435.39 42.83 433.72 42.83"/>
    <line class="st1" x1="6.39" y1="9.29" x2="6.39" y2="299.37"/>
    <polyline class="st5" points="6.39 9.29 6.39 299.37 8.06 299.37 8.06 9.29 6.39 9.29"/>
    <line class="st1" x1="43.25" y1="297.69" x2="43.25" y2="299.37"/>
    <polyline class="st5" points="43.25 297.69 43.25 299.37 44.93 299.37 44.93 297.69 43.25 297.69"/>
    <line class="st1" x1="80.12" y1="297.69" x2="80.12" y2="299.37"/>
    <polyline class="st5" points="80.12 297.69 80.12 299.37 81.8 299.37 81.8 297.69 80.12 297.69"/>
    <line class="st1" x1="116.99" y1="297.69" x2="116.99" y2="299.37"/>
    <polyline class="st5" points="116.99 297.69 116.99 299.37 118.67 299.37 118.67 297.69 116.99 297.69"/>
    <line class="st1" x1="153.86" y1="297.69" x2="153.86" y2="299.37"/>
    <polyline class="st5" points="153.86 297.69 153.86 299.37 155.53 299.37 155.53 297.69 153.86 297.69"/>
    <line class="st1" x1="190.73" y1="297.69" x2="190.73" y2="299.37"/>
    <polyline class="st5" points="190.73 297.69 190.73 299.37 192.4 299.37 192.4 297.69 190.73 297.69"/>
    <line class="st1" x1="224.24" y1="297.69" x2="224.24" y2="299.37"/>
    <polyline class="st5" points="224.24 297.69 224.24 299.37 225.92 299.37 225.92 297.69 224.24 297.69"/>
    <line class="st1" x1="257.76" y1="297.69" x2="257.76" y2="299.37"/>
    <polyline class="st5" points="257.76 297.69 257.76 299.37 259.43 299.37 259.43 297.69 257.76 297.69"/>
    <line class="st1" x1="292.95" y1="297.69" x2="292.95" y2="299.37"/>
    <polyline class="st5" points="292.95 297.69 292.95 299.37 294.63 299.37 294.63 297.69 292.95 297.69"/>
    <line class="st1" x1="329.82" y1="297.69" x2="329.82" y2="299.37"/>
    <polyline class="st5" points="329.82 297.69 329.82 299.37 331.49 299.37 331.49 297.69 329.82 297.69"/>
    <line class="st1" x1="366.69" y1="297.69" x2="366.69" y2="299.37"/>
    <polyline class="st5" points="366.69 297.69 366.69 299.37 368.36 299.37 368.36 297.69 366.69 297.69"/>
    <line class="st1" x1="400.2" y1="297.69" x2="400.2" y2="299.37"/>
    <polyline class="st5" points="400.2 297.69 400.2 299.37 401.88 299.37 401.88 297.69 400.2 297.69"/>
    <line class="st1" x1="433.72" y1="297.69" x2="433.72" y2="299.37"/>
    <polyline class="st5" points="433.72 297.69 433.72 299.37 435.39 299.37 435.39 297.69 433.72 297.69"/>
    <line class="st1" x1="6.39" y1="9.29" x2="437.07" y2="9.29"/>
    <polyline class="st5" points="6.39 9.29 6.39 10.97 437.07 10.97 437.07 9.29 6.39 9.29"/>
    <line class="st1" x1="435.39" y1="41.15" x2="437.07" y2="41.15"/>
    <polyline class="st5" points="435.39 41.15 435.39 42.83 437.07 42.83 437.07 41.15 435.39 41.15"/>
    <line class="st1" x1="435.39" y1="73.01" x2="437.07" y2="73.01"/>
    <polyline class="st5" points="435.39 73.01 435.39 74.69 437.07 74.69 437.07 73.01 435.39 73.01"/>
    <line class="st1" x1="435.39" y1="104.87" x2="437.07" y2="104.87"/>
    <polyline class="st5" points="435.39 104.87 435.39 106.54 437.07 106.54 437.07 104.87 435.39 104.87"/>
    <line class="st1" x1="435.39" y1="136.72" x2="437.07" y2="136.72"/>
    <polyline class="st5" points="435.39 136.72 435.39 138.4 437.07 138.4 437.07 136.72 435.39 136.72"/>
    <line class="st1" x1="435.39" y1="168.58" x2="437.07" y2="168.58"/>
    <polyline class="st5" points="435.39 168.58 435.39 170.26 437.07 170.26 437.07 168.58 435.39 168.58"/>
    <line class="st1" x1="435.39" y1="200.44" x2="437.07" y2="200.44"/>
    <polyline class="st5" points="435.39 200.44 435.39 202.12 437.07 202.12 437.07 200.44 435.39 200.44"/>
    <line class="st1" x1="435.39" y1="232.3" x2="437.07" y2="232.3"/>
    <polyline class="st5" points="435.39 232.3 435.39 233.98 437.07 233.98 437.07 232.3 435.39 232.3"/>
    <line class="st1" x1="435.39" y1="264.16" x2="437.07" y2="264.16"/>
    <polyline class="st5" points="435.39 264.16 435.39 265.83 437.07 265.83 437.07 264.16 435.39 264.16"/>
    <line class="st1" x1="435.39" y1="296.02" x2="437.07" y2="296.02"/>
    <polyline class="st5" points="435.39 296.02 435.39 297.69 437.07 297.69 437.07 296.02 435.39 296.02"/>
  </g>
</svg>