<?xml version="1.0" encoding="UTF-8"?>
<svg id="_图层_1" data-name="图层_1" xmlns="http://www.w3.org/2000/svg" version="1.1" viewBox="0 0 720 359">
  <!-- Generator: Adobe Illustrator 29.6.1, SVG Export Plug-In . SVG Version: 2.1.1 Build 9)  -->
  <defs>
    <style>
      .st0, .st1, .st2, .st3, .st4, .st5 {
        fill: none;
      }

      .st0, .st2, .st3, .st6 {
        stroke-linejoin: round;
      }

      .st0, .st2, .st5 {
        stroke-width: 2.58px;
      }

      .st0, .st4, .st6, .st5 {
        stroke: #000;
      }

      .st7 {
        font-family: Verdana, Verdana;
        font-size: 43.82px;
      }

      .st1, .st3 {
        stroke: #f1efe7;
      }

      .st1, .st3, .st4, .st6 {
        stroke-width: .75px;
      }

      .st1, .st4, .st5 {
        stroke-miterlimit: 8;
      }

      .st8, .st6 {
        fill: #009cea;
      }

      .st2 {
        stroke: #0433ff;
      }
    </style>
  </defs>
  <g>
    <rect class="st5" x="354" y="31.33" width="244.58" height="244.58"/>
    <line class="st3" x1="354" y1="51.73" x2="598.58" y2="51.73"/>
    <line class="st3" x1="354" y1="72.12" x2="598.58" y2="72.12"/>
    <line class="st3" x1="354" y1="92.51" x2="598.58" y2="92.51"/>
  </g>
  <g>
    <line class="st3" x1="354" y1="112.9" x2="598.58" y2="112.9"/>
    <line class="st3" x1="354" y1="133.29" x2="598.58" y2="133.29"/>
    <line class="st3" x1="354" y1="153.68" x2="598.58" y2="153.68"/>
    <line class="st3" x1="354" y1="174.08" x2="598.58" y2="174.08"/>
    <line class="st3" x1="354" y1="194.47" x2="598.58" y2="194.47"/>
    <line class="st3" x1="354" y1="214.86" x2="598.58" y2="214.86"/>
    <line class="st3" x1="354" y1="235.25" x2="598.58" y2="235.25"/>
    <line class="st3" x1="354" y1="255.64" x2="598.58" y2="255.64"/>
    <line class="st3" x1="374.39" y1="276.03" x2="374.39" y2="31.46"/>
    <line class="st3" x1="394.78" y1="276.03" x2="394.78" y2="31.46"/>
    <line class="st3" x1="415.17" y1="276.03" x2="415.17" y2="31.46"/>
    <line class="st3" x1="435.57" y1="276.03" x2="435.57" y2="31.46"/>
    <line class="st3" x1="455.96" y1="276.03" x2="455.96" y2="31.46"/>
    <line class="st3" x1="476.35" y1="276.03" x2="476.35" y2="31.46"/>
    <line class="st3" x1="496.74" y1="276.03" x2="496.74" y2="31.46"/>
    <line class="st3" x1="517.13" y1="276.03" x2="517.13" y2="31.46"/>
    <line class="st3" x1="537.53" y1="276.03" x2="537.53" y2="31.46"/>
    <line class="st3" x1="557.92" y1="276.03" x2="557.92" y2="31.46"/>
    <line class="st3" x1="578.31" y1="276.03" x2="578.31" y2="31.46"/>
    <rect class="st1" x="374.39" y="51.73" width="244.58" height="244.58"/>
    <line class="st3" x1="374.39" y1="72.12" x2="618.97" y2="72.12"/>
    <line class="st3" x1="374.39" y1="92.51" x2="618.97" y2="92.51"/>
    <line class="st3" x1="374.39" y1="112.9" x2="618.97" y2="112.9"/>
    <line class="st3" x1="374.39" y1="133.29" x2="618.97" y2="133.29"/>
    <line class="st3" x1="374.39" y1="153.68" x2="618.97" y2="153.68"/>
    <line class="st3" x1="374.39" y1="174.08" x2="618.97" y2="174.08"/>
    <line class="st3" x1="374.39" y1="194.47" x2="618.97" y2="194.47"/>
    <line class="st3" x1="374.39" y1="214.86" x2="618.97" y2="214.86"/>
    <line class="st3" x1="374.39" y1="235.25" x2="618.97" y2="235.25"/>
    <line class="st3" x1="374.39" y1="255.64" x2="618.97" y2="255.64"/>
    <line class="st3" x1="374.39" y1="276.03" x2="618.97" y2="276.03"/>
    <line class="st3" x1="394.78" y1="296.43" x2="394.78" y2="51.85"/>
    <line class="st3" x1="415.17" y1="296.43" x2="415.17" y2="51.85"/>
    <line class="st3" x1="435.57" y1="296.43" x2="435.57" y2="51.85"/>
    <line class="st3" x1="455.96" y1="296.43" x2="455.96" y2="51.85"/>
    <line class="st3" x1="476.35" y1="296.43" x2="476.35" y2="51.85"/>
    <line class="st3" x1="496.74" y1="296.43" x2="496.74" y2="51.85"/>
    <line class="st3" x1="517.13" y1="296.43" x2="517.13" y2="51.85"/>
    <line class="st3" x1="537.52" y1="296.43" x2="537.52" y2="51.85"/>
    <line class="st3" x1="557.92" y1="296.43" x2="557.92" y2="51.85"/>
    <line class="st3" x1="578.31" y1="296.43" x2="578.31" y2="51.85"/>
    <line class="st3" x1="598.7" y1="296.43" x2="598.7" y2="51.85"/>
    <rect class="st1" x="374.39" y="51.73" width="244.58" height="244.58"/>
    <line class="st3" x1="374.39" y1="72.12" x2="618.97" y2="72.12"/>
    <line class="st3" x1="374.39" y1="92.51" x2="618.97" y2="92.51"/>
    <line class="st3" x1="374.39" y1="112.9" x2="618.97" y2="112.9"/>
    <line class="st3" x1="374.39" y1="133.29" x2="618.97" y2="133.29"/>
    <line class="st3" x1="374.39" y1="153.68" x2="618.97" y2="153.68"/>
    <line class="st3" x1="374.39" y1="174.08" x2="618.97" y2="174.08"/>
    <line class="st3" x1="374.39" y1="194.47" x2="618.97" y2="194.47"/>
    <line class="st3" x1="374.39" y1="214.86" x2="618.97" y2="214.86"/>
    <line class="st3" x1="374.39" y1="235.25" x2="618.97" y2="235.25"/>
    <line class="st3" x1="374.39" y1="255.64" x2="618.97" y2="255.64"/>
    <line class="st3" x1="374.39" y1="276.03" x2="618.97" y2="276.03"/>
    <line class="st3" x1="394.78" y1="296.43" x2="394.78" y2="51.85"/>
    <line class="st3" x1="415.17" y1="296.43" x2="415.17" y2="51.85"/>
    <line class="st3" x1="435.57" y1="296.43" x2="435.57" y2="51.85"/>
    <line class="st3" x1="455.96" y1="296.43" x2="455.96" y2="51.85"/>
    <line class="st3" x1="476.35" y1="296.43" x2="476.35" y2="51.85"/>
    <line class="st3" x1="496.74" y1="296.43" x2="496.74" y2="51.85"/>
    <line class="st3" x1="517.13" y1="296.43" x2="517.13" y2="51.85"/>
    <line class="st3" x1="537.52" y1="296.43" x2="537.52" y2="51.85"/>
    <line class="st3" x1="557.92" y1="296.43" x2="557.92" y2="51.85"/>
    <line class="st3" x1="578.31" y1="296.43" x2="578.31" y2="51.85"/>
    <line class="st3" x1="598.7" y1="296.43" x2="598.7" y2="51.85"/>
    <rect class="st1" x="394.78" y="72.12" width="244.58" height="244.58"/>
    <line class="st3" x1="394.78" y1="92.51" x2="639.36" y2="92.51"/>
    <line class="st3" x1="394.78" y1="112.9" x2="639.36" y2="112.9"/>
    <line class="st3" x1="394.78" y1="133.29" x2="639.36" y2="133.29"/>
    <line class="st3" x1="394.78" y1="153.68" x2="639.36" y2="153.68"/>
    <line class="st3" x1="394.78" y1="174.08" x2="639.36" y2="174.08"/>
    <line class="st3" x1="394.78" y1="194.47" x2="639.36" y2="194.47"/>
    <line class="st3" x1="394.78" y1="214.86" x2="639.36" y2="214.86"/>
    <line class="st3" x1="394.78" y1="235.25" x2="639.36" y2="235.25"/>
    <line class="st3" x1="394.78" y1="255.64" x2="639.36" y2="255.64"/>
    <line class="st3" x1="394.78" y1="276.03" x2="639.36" y2="276.03"/>
    <line class="st3" x1="394.78" y1="296.43" x2="639.36" y2="296.43"/>
    <line class="st3" x1="415.17" y1="316.82" x2="415.17" y2="72.24"/>
    <line class="st3" x1="435.57" y1="316.82" x2="435.57" y2="72.24"/>
    <line class="st3" x1="455.96" y1="316.82" x2="455.96" y2="72.24"/>
    <line class="st3" x1="476.35" y1="316.82" x2="476.35" y2="72.24"/>
    <line class="st3" x1="496.74" y1="316.82" x2="496.74" y2="72.24"/>
    <line class="st3" x1="517.13" y1="316.82" x2="517.13" y2="72.24"/>
    <line class="st3" x1="537.52" y1="316.82" x2="537.52" y2="72.24"/>
    <line class="st3" x1="557.92" y1="316.82" x2="557.92" y2="72.24"/>
    <line class="st3" x1="578.31" y1="316.82" x2="578.31" y2="72.24"/>
    <line class="st3" x1="598.7" y1="316.82" x2="598.7" y2="72.24"/>
    <line class="st3" x1="619.09" y1="316.82" x2="619.09" y2="72.24"/>
    <rect class="st1" x="394.78" y="72.12" width="244.58" height="244.58"/>
    <line class="st3" x1="394.78" y1="92.51" x2="639.36" y2="92.51"/>
    <line class="st3" x1="394.78" y1="112.9" x2="639.36" y2="112.9"/>
    <line class="st3" x1="394.78" y1="133.29" x2="639.36" y2="133.29"/>
    <line class="st3" x1="394.78" y1="153.68" x2="639.36" y2="153.68"/>
    <line class="st3" x1="394.78" y1="174.08" x2="639.36" y2="174.08"/>
    <line class="st3" x1="394.78" y1="194.47" x2="639.36" y2="194.47"/>
    <line class="st3" x1="394.78" y1="214.86" x2="639.36" y2="214.86"/>
    <line class="st3" x1="394.78" y1="235.25" x2="639.36" y2="235.25"/>
    <line class="st3" x1="394.78" y1="255.64" x2="639.36" y2="255.64"/>
    <line class="st3" x1="394.78" y1="276.03" x2="639.36" y2="276.03"/>
    <line class="st3" x1="394.78" y1="296.43" x2="639.36" y2="296.43"/>
    <line class="st3" x1="415.17" y1="316.82" x2="415.17" y2="72.24"/>
    <line class="st3" x1="435.57" y1="316.82" x2="435.57" y2="72.24"/>
    <line class="st3" x1="455.96" y1="316.82" x2="455.96" y2="72.24"/>
    <line class="st3" x1="476.35" y1="316.82" x2="476.35" y2="72.24"/>
    <line class="st3" x1="496.74" y1="316.82" x2="496.74" y2="72.24"/>
    <line class="st3" x1="517.13" y1="316.82" x2="517.13" y2="72.24"/>
    <line class="st3" x1="537.52" y1="316.82" x2="537.52" y2="72.24"/>
    <line class="st3" x1="557.92" y1="316.82" x2="557.92" y2="72.24"/>
    <line class="st3" x1="578.31" y1="316.82" x2="578.31" y2="72.24"/>
    <line class="st3" x1="598.7" y1="316.82" x2="598.7" y2="72.24"/>
    <line class="st3" x1="619.09" y1="316.82" x2="619.09" y2="72.24"/>
    <rect class="st5" x="415.17" y="92.51" width="244.58" height="244.58"/>
    <line class="st3" x1="415.17" y1="112.9" x2="659.75" y2="112.9"/>
    <line class="st3" x1="415.17" y1="133.29" x2="659.75" y2="133.29"/>
    <line class="st3" x1="415.17" y1="153.68" x2="659.75" y2="153.68"/>
    <line class="st3" x1="415.17" y1="174.08" x2="659.75" y2="174.08"/>
    <line class="st3" x1="415.17" y1="194.47" x2="659.75" y2="194.47"/>
    <line class="st3" x1="415.17" y1="214.86" x2="659.75" y2="214.86"/>
    <line class="st3" x1="415.17" y1="235.25" x2="659.75" y2="235.25"/>
    <line class="st3" x1="415.17" y1="255.64" x2="659.75" y2="255.64"/>
    <line class="st3" x1="415.17" y1="276.03" x2="659.75" y2="276.03"/>
    <line class="st3" x1="415.17" y1="296.43" x2="659.75" y2="296.43"/>
    <line class="st3" x1="415.17" y1="316.82" x2="659.75" y2="316.82"/>
    <line class="st3" x1="435.57" y1="337.21" x2="435.57" y2="92.63"/>
    <line class="st3" x1="455.96" y1="337.21" x2="455.96" y2="92.63"/>
    <line class="st3" x1="476.35" y1="337.21" x2="476.35" y2="92.63"/>
    <line class="st3" x1="496.74" y1="337.21" x2="496.74" y2="92.63"/>
    <line class="st3" x1="517.13" y1="337.21" x2="517.13" y2="92.63"/>
    <line class="st3" x1="537.53" y1="337.21" x2="537.53" y2="92.63"/>
    <line class="st3" x1="557.92" y1="337.21" x2="557.92" y2="92.63"/>
    <line class="st3" x1="578.31" y1="337.21" x2="578.31" y2="92.63"/>
    <line class="st3" x1="598.7" y1="337.21" x2="598.7" y2="92.63"/>
    <line class="st3" x1="619.09" y1="337.21" x2="619.09" y2="92.63"/>
    <line class="st3" x1="639.48" y1="337.21" x2="639.48" y2="92.63"/>
    <line class="st0" x1="598.7" y1="31.33" x2="659.84" y2="92.48"/>
    <line class="st0" x1="598.7" y1="276.03" x2="659.84" y2="337.18"/>
    <line class="st0" x1="354" y1="276.03" x2="415.14" y2="337.18"/>
    <line class="st3" x1="557.92" y1="51.73" x2="619.06" y2="112.87"/>
    <line class="st3" x1="578.31" y1="51.73" x2="639.45" y2="112.87"/>
    <line class="st0" x1="354" y1="31.33" x2="415.14" y2="92.48"/>
    <line class="st3" x1="537.53" y1="51.73" x2="598.67" y2="112.87"/>
    <line class="st3" x1="496.74" y1="51.73" x2="557.89" y2="112.87"/>
    <line class="st3" x1="517.13" y1="51.73" x2="578.28" y2="112.87"/>
    <line class="st3" x1="476.35" y1="51.73" x2="537.49" y2="112.87"/>
    <line class="st3" x1="435.57" y1="51.73" x2="496.71" y2="112.87"/>
    <line class="st3" x1="455.96" y1="51.73" x2="517.1" y2="112.87"/>
    <line class="st3" x1="415.17" y1="51.73" x2="476.32" y2="112.87"/>
    <line class="st3" x1="394.78" y1="31.33" x2="455.93" y2="92.48"/>
    <line class="st3" x1="415.17" y1="31.33" x2="476.32" y2="92.48"/>
    <line class="st3" x1="374.39" y1="31.33" x2="435.54" y2="92.48"/>
    <line class="st3" x1="455.96" y1="31.33" x2="517.1" y2="92.48"/>
    <line class="st3" x1="476.35" y1="31.33" x2="537.49" y2="92.48"/>
    <line class="st3" x1="435.57" y1="31.33" x2="496.71" y2="92.48"/>
    <line class="st3" x1="517.13" y1="31.33" x2="578.28" y2="92.48"/>
    <line class="st3" x1="537.53" y1="31.33" x2="598.67" y2="92.48"/>
    <line class="st3" x1="496.74" y1="31.33" x2="557.89" y2="92.48"/>
    <line class="st3" x1="578.31" y1="31.33" x2="639.45" y2="92.48"/>
    <line class="st3" x1="557.92" y1="31.33" x2="619.06" y2="92.48"/>
    <line class="st3" x1="374.39" y1="255.64" x2="435.54" y2="316.79"/>
    <line class="st3" x1="394.78" y1="255.64" x2="455.93" y2="316.79"/>
    <line class="st3" x1="354" y1="255.64" x2="415.14" y2="316.79"/>
    <line class="st3" x1="435.57" y1="255.64" x2="496.71" y2="316.79"/>
    <line class="st3" x1="455.96" y1="255.64" x2="517.1" y2="316.79"/>
    <line class="st3" x1="415.17" y1="255.64" x2="476.32" y2="316.79"/>
    <line class="st3" x1="496.74" y1="255.64" x2="557.89" y2="316.79"/>
    <line class="st3" x1="517.13" y1="255.64" x2="578.28" y2="316.79"/>
    <line class="st3" x1="476.35" y1="255.64" x2="537.49" y2="316.79"/>
    <line class="st3" x1="557.92" y1="255.64" x2="619.06" y2="316.79"/>
    <line class="st3" x1="537.53" y1="255.64" x2="598.67" y2="316.79"/>
    <line class="st3" x1="374.39" y1="235.25" x2="435.54" y2="296.39"/>
    <line class="st3" x1="394.78" y1="235.25" x2="455.93" y2="296.39"/>
    <line class="st3" x1="354" y1="235.25" x2="415.14" y2="296.39"/>
    <line class="st3" x1="435.57" y1="235.25" x2="496.71" y2="296.39"/>
    <line class="st3" x1="455.96" y1="235.25" x2="517.1" y2="296.39"/>
    <line class="st3" x1="415.17" y1="235.25" x2="476.32" y2="296.39"/>
    <line class="st3" x1="496.74" y1="235.25" x2="557.89" y2="296.39"/>
    <line class="st3" x1="517.13" y1="235.25" x2="578.28" y2="296.39"/>
    <line class="st3" x1="476.35" y1="235.25" x2="537.49" y2="296.39"/>
    <line class="st3" x1="557.92" y1="235.25" x2="619.06" y2="296.39"/>
    <line class="st3" x1="537.53" y1="235.25" x2="598.67" y2="296.39"/>
    <line class="st3" x1="374.39" y1="214.86" x2="435.54" y2="276"/>
    <line class="st3" x1="394.78" y1="214.86" x2="455.93" y2="276"/>
    <line class="st3" x1="354" y1="214.86" x2="415.14" y2="276"/>
    <line class="st3" x1="435.57" y1="214.86" x2="496.71" y2="276"/>
    <line class="st3" x1="455.96" y1="214.86" x2="517.1" y2="276"/>
    <line class="st3" x1="415.17" y1="214.86" x2="476.32" y2="276"/>
    <line class="st3" x1="496.74" y1="214.86" x2="557.89" y2="276"/>
    <line class="st3" x1="517.13" y1="214.86" x2="578.28" y2="276"/>
    <line class="st3" x1="476.35" y1="214.86" x2="537.49" y2="276"/>
    <line class="st3" x1="557.92" y1="214.86" x2="619.06" y2="276"/>
    <line class="st3" x1="537.53" y1="214.86" x2="598.67" y2="276"/>
    <line class="st3" x1="374.39" y1="153.68" x2="435.54" y2="214.83"/>
    <line class="st3" x1="394.78" y1="153.68" x2="455.93" y2="214.83"/>
    <line class="st3" x1="354" y1="153.68" x2="415.14" y2="214.83"/>
    <line class="st3" x1="435.57" y1="153.68" x2="496.71" y2="214.83"/>
    <line class="st3" x1="455.96" y1="153.68" x2="517.1" y2="214.83"/>
    <line class="st3" x1="415.17" y1="153.68" x2="476.32" y2="214.83"/>
    <line class="st3" x1="496.74" y1="153.68" x2="557.89" y2="214.83"/>
    <line class="st3" x1="517.13" y1="153.68" x2="578.28" y2="214.83"/>
    <line class="st3" x1="476.35" y1="153.68" x2="537.49" y2="214.83"/>
    <line class="st3" x1="557.92" y1="153.68" x2="619.06" y2="214.83"/>
    <line class="st3" x1="537.53" y1="153.68" x2="598.67" y2="214.83"/>
    <line class="st3" x1="374.39" y1="174.08" x2="435.54" y2="235.22"/>
    <line class="st3" x1="394.78" y1="174.08" x2="455.93" y2="235.22"/>
    <line class="st3" x1="354" y1="174.08" x2="415.14" y2="235.22"/>
    <line class="st3" x1="435.57" y1="174.08" x2="496.71" y2="235.22"/>
    <line class="st3" x1="455.96" y1="174.08" x2="517.1" y2="235.22"/>
    <line class="st3" x1="415.17" y1="174.08" x2="476.32" y2="235.22"/>
    <line class="st3" x1="496.74" y1="174.08" x2="557.89" y2="235.22"/>
    <line class="st3" x1="517.13" y1="174.08" x2="578.28" y2="235.22"/>
    <line class="st3" x1="476.35" y1="174.08" x2="537.49" y2="235.22"/>
    <line class="st3" x1="557.92" y1="174.08" x2="619.06" y2="235.22"/>
    <line class="st3" x1="537.53" y1="174.08" x2="598.67" y2="235.22"/>
    <rect class="st4" x="73.62" y="103.6" width="229.95" height="197.1"/>
  </g>
  <text class="st7" transform="translate(176.23 77.3)"><tspan x="0" y="0">V </tspan></text>
  <circle cx="73.62" cy="103.6" r="10.96"/>
  <circle class="st8" cx="354" cy="31.46" r="10.96"/>
  <circle class="st8" cx="659.8" cy="337.26" r="10.96"/>
  <text class="st7" transform="translate(13.72 207.86)"><tspan x="0" y="0">W </tspan></text>
  <g>
    <circle class="st6" cx="73.61" cy="103.59" r="10.95" transform="translate(-44.12 151.43) rotate(-76.72)"/>
    <circle cx="303.68" cy="300.8" r="10.96"/>
    <circle class="st6" cx="303.68" cy="300.79" r="10.95" transform="translate(-58.84 527.24) rotate(-76.72)"/>
    <line class="st4" x1="106.48" y1="103.6" x2="106.48" y2="300.7"/>
    <line class="st4" x1="139.35" y1="103.6" x2="139.35" y2="300.7"/>
    <line class="st4" x1="172.22" y1="103.6" x2="172.22" y2="300.7"/>
    <line class="st4" x1="205.08" y1="103.6" x2="205.08" y2="300.7"/>
    <line class="st4" x1="237.95" y1="103.6" x2="237.95" y2="300.7"/>
    <line class="st4" x1="270.82" y1="103.6" x2="270.82" y2="300.7"/>
    <line class="st4" x1="73.62" y1="136.46" x2="303.57" y2="136.46"/>
    <line class="st4" x1="73.62" y1="169.33" x2="303.57" y2="169.33"/>
    <line class="st4" x1="73.62" y1="202.2" x2="303.57" y2="202.2"/>
    <line class="st4" x1="73.62" y1="235.06" x2="303.57" y2="235.07"/>
    <line class="st4" x1="73.62" y1="267.93" x2="303.57" y2="267.93"/>
    <polyline class="st2" points="73.62 103.6 106.47 136.45 139.32 169.3 172.17 169.3 205.02 202.15 205.02 235 237.87 267.85 270.72 267.85 303.57 300.7"/>
  </g>
</svg>