<?xml version="1.0" encoding="utf-8"?>
<!-- Generator: Adobe Illustrator 27.6.1, SVG Export Plug-In . SVG Version: 6.00 Build 0)  -->
<svg version="1.1" id="Layer_1" xmlns="http://www.w3.org/2000/svg" xmlns:xlink="http://www.w3.org/1999/xlink" x="0px" y="0px"
	 viewBox="0 0 287.72 79.78" style="enable-background:new 0 0 287.72 79.78;" xml:space="preserve">
<style type="text/css">
	.st0{fill:#FFFFFF;stroke:#939598;stroke-width:2;stroke-miterlimit:10;}
	.st1{fill:#FFFFFF;}
	.st2{fill:none;stroke:#000000;stroke-width:0.25;stroke-miterlimit:10;}
	.st3{fill:none;stroke:#000000;stroke-width:0.25;stroke-miterlimit:10;stroke-dasharray:1.0072,1.0072;}
	.st4{fill:none;stroke:#000000;stroke-width:0.25;stroke-miterlimit:10;stroke-dasharray:0.9948,0.9948;}
	.st5{fill:none;stroke:#000000;stroke-width:0.25;stroke-miterlimit:10;stroke-dasharray:0.9952,0.9952;}
	.st6{fill:none;stroke:#000000;stroke-miterlimit:10;}
	.st7{fill:#FFFFFF;stroke:#ED1C24;stroke-width:2;stroke-miterlimit:10;}
	.st8{fill:#FFFFFF;stroke:#FBB040;stroke-width:2;stroke-miterlimit:10;}
	.st9{fill:#FFFFFF;stroke:#00A651;stroke-width:2;stroke-miterlimit:10;}
	.st10{fill:#FFFFFF;stroke:#00AEEF;stroke-width:2;stroke-miterlimit:10;}
	.st11{font-family:'Helvetica';}
	.st12{font-size:8px;}
	.st13{font-size:5px;}
</style>
<line class="st0" x1="5.25" y1="17.79" x2="55.47" y2="17.79"/>
<line class="st0" x1="5.25" y1="27.03" x2="94.44" y2="27.03"/>
<line class="st0" x1="5.25" y1="36.27" x2="60.96" y2="36.27"/>
<line class="st0" x1="5.25" y1="45.51" x2="70.9" y2="45.51"/>
<line class="st0" x1="5.25" y1="54.75" x2="48.67" y2="54.75"/>
<line class="st0" x1="5.25" y1="64" x2="79.27" y2="64"/>
<line class="st0" x1="5.25" y1="73.24" x2="70.9" y2="73.24"/>
<g>
	<line class="st1" x1="180.1" y1="17.79" x2="278.8" y2="17.79"/>
	<g>
		<line class="st2" x1="180.1" y1="17.79" x2="180.6" y2="17.79"/>
		<line class="st3" x1="181.61" y1="17.79" x2="277.79" y2="17.79"/>
		<line class="st2" x1="278.3" y1="17.79" x2="278.8" y2="17.79"/>
	</g>
</g>
<g>
	<line class="st1" x1="179.32" y1="27.03" x2="278.8" y2="27.03"/>
	<g>
		<line class="st2" x1="179.32" y1="27.03" x2="179.82" y2="27.03"/>
		<line class="st4" x1="180.81" y1="27.03" x2="277.8" y2="27.03"/>
		<line class="st2" x1="278.3" y1="27.03" x2="278.8" y2="27.03"/>
	</g>
</g>
<g>
	<line class="st1" x1="180.1" y1="36.27" x2="278.8" y2="36.27"/>
	<g>
		<line class="st2" x1="180.1" y1="36.27" x2="180.6" y2="36.27"/>
		<line class="st3" x1="181.61" y1="36.27" x2="277.79" y2="36.27"/>
		<line class="st2" x1="278.3" y1="36.27" x2="278.8" y2="36.27"/>
	</g>
</g>
<g>
	<line class="st1" x1="180.1" y1="45.51" x2="278.8" y2="45.51"/>
	<g>
		<line class="st2" x1="180.1" y1="45.51" x2="180.6" y2="45.51"/>
		<line class="st3" x1="181.61" y1="45.51" x2="277.79" y2="45.51"/>
		<line class="st2" x1="278.3" y1="45.51" x2="278.8" y2="45.51"/>
	</g>
</g>
<g>
	<line class="st1" x1="180.1" y1="54.75" x2="278.8" y2="54.75"/>
	<g>
		<line class="st2" x1="180.1" y1="54.75" x2="180.6" y2="54.75"/>
		<line class="st3" x1="181.61" y1="54.75" x2="277.79" y2="54.75"/>
		<line class="st2" x1="278.3" y1="54.75" x2="278.8" y2="54.75"/>
	</g>
</g>
<g>
	<line class="st1" x1="179.32" y1="64" x2="278.8" y2="64"/>
	<g>
		<line class="st2" x1="179.32" y1="64" x2="179.82" y2="64"/>
		<line class="st4" x1="180.81" y1="64" x2="277.8" y2="64"/>
		<line class="st2" x1="278.3" y1="64" x2="278.8" y2="64"/>
	</g>
</g>
<g>
	<line class="st1" x1="180.1" y1="73.24" x2="279.62" y2="73.24"/>
	<g>
		<line class="st2" x1="180.1" y1="73.24" x2="180.6" y2="73.24"/>
		<line class="st5" x1="181.6" y1="73.24" x2="278.63" y2="73.24"/>
		<line class="st2" x1="279.12" y1="73.24" x2="279.62" y2="73.24"/>
	</g>
</g>
<line class="st0" x1="179.32" y1="17.79" x2="214.23" y2="17.79"/>
<line class="st0" x1="257.72" y1="17.79" x2="279.62" y2="17.79"/>
<line class="st0" x1="193.31" y1="27.03" x2="279.62" y2="27.03"/>
<line class="st0" x1="179.32" y1="36.27" x2="193.31" y2="36.27"/>
<line class="st0" x1="254.51" y1="36.27" x2="279.62" y2="36.27"/>
<line class="st0" x1="179.32" y1="45.51" x2="220.77" y2="45.51"/>
<line class="st0" x1="254.51" y1="45.51" x2="279.62" y2="45.51"/>
<line class="st0" x1="205.21" y1="64" x2="279.62" y2="64"/>
<line class="st0" x1="179.32" y1="54.75" x2="193.31" y2="54.75"/>
<line class="st0" x1="235.81" y1="54.75" x2="279.62" y2="54.75"/>
<line class="st0" x1="179.32" y1="73.24" x2="244.97" y2="73.24"/>
<g>
	<g>
		<line class="st6" x1="122.49" y1="45.13" x2="142.66" y2="45.13"/>
		<g>
			<polygon points="141.93,47.62 146.24,45.13 141.93,42.63 			"/>
		</g>
	</g>
</g>
<line class="st7" x1="7.34" y1="17.79" x2="15.45" y2="17.79"/>
<line class="st7" x1="7.34" y1="36.27" x2="15.45" y2="36.27"/>
<line class="st7" x1="7.34" y1="45.51" x2="15.45" y2="45.51"/>
<line class="st7" x1="7.34" y1="54.75" x2="15.45" y2="54.75"/>
<line class="st7" x1="7.34" y1="73.24" x2="15.45" y2="73.24"/>
<line class="st7" x1="181.93" y1="17.79" x2="190.04" y2="17.79"/>
<line class="st7" x1="181.93" y1="36.27" x2="190.04" y2="36.27"/>
<line class="st7" x1="181.93" y1="45.51" x2="190.04" y2="45.51"/>
<line class="st7" x1="181.93" y1="54.75" x2="190.04" y2="54.75"/>
<line class="st7" x1="181.93" y1="73.24" x2="190.04" y2="73.24"/>
<line class="st8" x1="42.26" y1="27.01" x2="50.37" y2="27.01"/>
<line class="st8" x1="22.9" y1="36.27" x2="31.01" y2="36.27"/>
<line class="st8" x1="26.96" y1="64" x2="35.07" y2="64"/>
<line class="st8" x1="48.01" y1="73.24" x2="56.12" y2="73.24"/>
<line class="st8" x1="224.37" y1="27.03" x2="232.48" y2="27.03"/>
<line class="st8" x1="224.37" y1="64" x2="232.48" y2="64"/>
<line class="st8" x1="224.37" y1="73.24" x2="232.48" y2="73.24"/>
<line class="st9" x1="53.57" y1="27.01" x2="58.67" y2="27.01"/>
<line class="st9" x1="17.8" y1="54.78" x2="22.9" y2="54.78"/>
<line class="st0" x1="217.86" y1="36.27" x2="234.73" y2="36.27"/>
<line class="st8" x1="224.37" y1="36.27" x2="232.48" y2="36.27"/>
<line class="st9" x1="40.36" y1="64" x2="45.46" y2="64"/>
<line class="st9" x1="62.33" y1="73.24" x2="67.43" y2="73.24"/>
<line class="st9" x1="236.47" y1="27.03" x2="241.57" y2="27.03"/>
<line class="st9" x1="236.47" y1="54.75" x2="241.57" y2="54.75"/>
<line class="st9" x1="236.47" y1="64" x2="241.57" y2="64"/>
<line class="st9" x1="236.47" y1="73.24" x2="241.57" y2="73.24"/>
<line class="st10" x1="42.91" y1="17.79" x2="52.92" y2="17.79"/>
<line class="st10" x1="82.11" y1="27.01" x2="92.12" y2="27.01"/>
<line class="st10" x1="48.57" y1="36.27" x2="58.57" y2="36.27"/>
<line class="st10" x1="58.67" y1="45.51" x2="68.68" y2="45.51"/>
<line class="st10" x1="35.36" y1="54.75" x2="45.36" y2="54.75"/>
<line class="st10" x1="65.9" y1="64" x2="75.9" y2="64"/>
<line class="st10" x1="267.07" y1="27.03" x2="277.07" y2="27.03"/>
<line class="st10" x1="267.07" y1="17.79" x2="277.07" y2="17.79"/>
<line class="st10" x1="267.07" y1="36.27" x2="277.07" y2="36.27"/>
<line class="st10" x1="267.07" y1="45.51" x2="277.07" y2="45.51"/>
<line class="st10" x1="267.07" y1="54.73" x2="277.07" y2="54.73"/>
<line class="st10" x1="267.07" y1="64" x2="277.07" y2="64"/>
<text transform="matrix(1 0 0 1 3.7438 10.5614)" class="st11 st12">Unaligned</text>
<text transform="matrix(1 0 0 1 179.316 10.5612)" class="st11 st12">Aligned</text>
<text transform="matrix(1 0 0 1 122.4907 53.2453)"><tspan x="0" y="0" class="st11 st13">Multiple </tspan><tspan x="0" y="6" class="st11 st13">Sequence </tspan><tspan x="0" y="12" class="st11 st13">Alignment</tspan></text>
</svg>
